<?xml version="1.0" encoding="utf-8"?>
<!-- Generator: Adobe Illustrator 28.1.0, SVG Export Plug-In . SVG Version: 6.00 Build 0)  -->
<svg version="1.1" id="Layer_1" xmlns="http://www.w3.org/2000/svg" xmlns:xlink="http://www.w3.org/1999/xlink" x="0px" y="0px"
	 viewBox="0 0 282 199" style="enable-background:new 0 0 282 199;" xml:space="preserve">
<style type="text/css">
	.st0{fill:#D7FCFF;stroke:#1D1D1B;stroke-width:8.0326;stroke-miterlimit:10;}
	.st1{fill:#D7FCFF;}
	.st2{fill:#97B7B7;}
	.st3{fill:none;stroke:#1D1D1B;stroke-width:8.0326;stroke-miterlimit:10;}
	.st4{fill:#9C5E10;}
	.st5{fill:#BD854C;}
</style>
<path class="st0" d="M136.5,16.6C101.4,16.6,73,24.4,73,34v129.6c0,9.6,28.4,17.4,63.5,17.4s63.5-7.8,63.5-17.4V34
	C200,24.4,171.6,16.6,136.5,16.6L136.5,16.6z"/>
<path class="st1" d="M136.5,49.5c31.9,0,57.8-7,57.8-15.8s-26-15.8-57.8-15.8s-57.8,7-57.8,15.8C78.9,42.6,104.6,49.5,136.5,49.5z"
	/>
<g>
	<path class="st2" d="M136.5,53.5c31.9,0,57.6-5.4,57.6-12s-25.7-12-57.6-12s-57.6,5.4-57.6,12C79.2,48.2,104.9,53.5,136.5,53.5z"/>
</g>
<path class="st3" d="M136.5,49.5c31.9,0,57.8-7,57.8-15.8s-26-15.8-57.8-15.8s-57.8,7-57.8,15.8C78.9,42.6,104.6,49.5,136.5,49.5z"
	/>
<path class="st4" d="M191.7,125.6l-110-27c0,0,1.9,62.9,4.8,64.8c5.1,6.7,23.6,11.5,50.3,11.5c30.5,0,50.6-6.2,52.2-14.5
	C190.6,158.5,191.7,125.6,191.7,125.6z"/>
<path class="st2" d="M81.6,95.9V47.4c0,0,0,11.5,54.9,12.3c60.2,0.8,55.4-10.2,55.4-10.2v75.8L81.6,95.9z"/>
<path class="st5" d="M191.7,125.6c-2.9,8.3-30.3,8.3-60.5,0c-30.5-8.3-52.5-21.7-49.5-30s30.3-2.9,55.4,9.6
	C164.3,119.4,194.6,117.3,191.7,125.6z"/>
</svg>
