<svg width="345" height="369" viewBox="0 0 345 369" fill="none" xmlns="http://www.w3.org/2000/svg">
<path d="M138.956 135.133H133.996V190.922H138.956V135.133Z" fill="white"/>
<path d="M130.896 135.133H125.936V163.027H130.896V135.133Z" fill="white"/>
<path d="M116.164 146H56.8356C50.299 146 45 151.324 45 157.892V234.108C45 240.676 50.299 246 56.8356 246H116.164C122.701 246 128 240.676 128 234.108V157.892C128 151.324 122.701 146 116.164 146Z" fill="#572502" stroke="black" stroke-width="3" stroke-miterlimit="10"/>
<path d="M52 181V237H120V199.904C120 199.904 52 211.675 52 181Z" fill="#9C5E10"/>
<path d="M52 181C52 181 66.4681 193.172 86 190.39C108.415 187.197 120 199.779 120 199.779C120 199.779 54.8936 219.949 52 181Z" fill="#BD854C"/>
<path d="M97.8058 132H76.1942C74.4301 132 73 133.39 73 135.106V140.894C73 142.61 74.4301 144 76.1942 144H97.8058C99.5699 144 101 142.61 101 140.894V135.106C101 133.39 99.5699 132 97.8058 132Z" fill="black" stroke="black" stroke-width="3" stroke-miterlimit="10"/>
<path d="M111 122H63V131H111V122Z" fill="black" stroke="black" stroke-width="3" stroke-miterlimit="10"/>
</svg>
