<svg width="129" height="128" viewBox="0 0 129 128" fill="none" xmlns="http://www.w3.org/2000/svg">
<path d="M63.1036 126.001C70.9834 126.001 77.3713 119.613 77.3713 111.733C77.3713 103.854 70.9834 97.4658 63.1036 97.4658C55.2238 97.4658 48.8359 103.854 48.8359 111.733C48.8359 119.613 55.2238 126.001 63.1036 126.001Z" fill="#FED24D" stroke="black" stroke-width="3" stroke-miterlimit="10"/>
<path d="M116.445 110.447L113.77 107.029C111.851 104.579 110.17 101.952 108.748 99.1838L107.316 96.3965C105.631 93.117 104.278 89.6783 103.276 86.1291L102.406 83.0442C101.154 78.606 100.519 74.0161 100.519 69.4056V66.5509V54.5707C100.519 52.3319 100.382 50.0969 100.109 47.8749C99.845 45.7241 99.3003 43.6182 98.4898 41.6115L97.6605 39.5599C96.4251 36.5012 94.7404 33.6466 92.6626 31.0858L90.742 28.7178C89.1303 26.7317 87.2116 25.0171 85.0589 23.6375C80.6767 20.8315 75.7274 19.0307 70.5666 18.3643L64.1197 17.5332C64.1197 17.5332 63.1127 17.8851 63.1202 18.4261L64.4617 111.307L115.822 111.711C116.477 111.72 116.849 110.964 116.445 110.447Z" fill="#FED24D" stroke="black" stroke-width="3" stroke-miterlimit="10"/>
<path d="M10.1099 110.446L12.9121 107.028C14.9207 104.578 16.6821 101.952 18.1722 99.1832L19.6716 96.3959C21.4368 93.1163 22.8538 89.6776 23.9021 86.1285L24.8137 83.0436C26.124 78.6053 26.7904 74.0154 26.7904 69.4049V66.5503V54.572C26.7904 52.3313 26.9327 50.0944 27.2191 47.8724C27.4961 45.7216 28.0652 43.6157 28.915 41.609L29.7836 39.5574C31.0789 36.4987 32.8423 33.6441 35.0174 31.0833L37.0297 28.7153C38.7182 26.7292 40.7267 25.0146 42.9824 23.635C47.5723 20.829 52.7556 19.0282 58.1598 18.3618L64.5842 17.5719C64.8724 17.5363 65.1701 17.5644 65.434 17.688C65.7466 17.8321 65.9637 18.0642 65.9581 18.4236L64.7729 111.307L10.765 111.708C10.078 111.719 9.68681 110.963 10.1099 110.446Z" fill="#FED24D" stroke="black" stroke-width="3" stroke-miterlimit="10"/>
<path d="M11.4299 67.4802C9.2454 55.6573 10.3648 49.4707 16.9782 41.457" stroke="black" stroke-width="3" stroke-miterlimit="10"/>
<path d="M3.75126 77.7943C-0.164765 56.6006 1.84004 45.5115 13.6986 31.1465" stroke="black" stroke-width="3" stroke-miterlimit="10"/>
<path d="M117.037 67.4802C119.221 55.6573 118.102 49.4707 111.488 41.457" stroke="black" stroke-width="3" stroke-miterlimit="10"/>
<path d="M124.718 77.7943C128.634 56.6006 126.629 45.5115 114.771 31.1465" stroke="black" stroke-width="3" stroke-miterlimit="10"/>
<rect x="59.1748" y="19.8643" width="10.5748" height="88.9529" fill="#FED24D"/>
<path d="M73.1278 10.9702C73.1428 15.9213 69.1987 19.9197 64.1577 19.9403C59.2027 19.9609 55.1875 15.9232 55.1875 10.9702C55.1875 6.0171 59.2046 2 64.1577 2C69.1107 2 73.1128 6.01523 73.1278 10.9702Z" fill="#FED24D" stroke="black" stroke-width="3" stroke-miterlimit="10"/>
</svg>
