<svg width="144" height="156" viewBox="0 0 144 156" fill="none" xmlns="http://www.w3.org/2000/svg">
<path d="M26.2204 66.3174L3.47363 78.6758L23.7657 89.1709L10.4289 104.718L33.4825 106.141L27.7369 127.131L46.6503 119.66L51.8356 141.94L66.1775 125.219L80.586 142.927L86.7986 126.953" fill="#F8A632"/>
<path d="M26.2204 66.3174L3.47363 78.6758L23.7657 89.1709L10.4289 104.718L33.4825 106.141L27.7369 127.131L46.6503 119.66L51.8356 141.94L66.1775 125.219L80.586 142.927L86.7986 126.953" stroke="black" stroke-width="3" stroke-miterlimit="10"/>
<path d="M74.4452 120.816L40.4206 91.2078C24.967 77.7598 23.3438 54.3326 36.7917 38.879L38.3215 37.1224C48.5454 25.3732 66.3559 24.1369 78.1051 34.3608L121.046 71.7296C130.398 79.8677 131.381 94.045 123.243 103.397L110.249 118.326C101.048 128.906 85.0203 130.017 74.4452 120.816Z" fill="#F8A632"/>
<path d="M61.7217 28.2099L74.1868 4L85.1267 24.0519L100.376 10.3727L102.31 33.3863L123.167 27.1782L116.118 46.2517L138.509 50.9389L122.109 65.6499L140.137 79.6626L122.424 87.0047" fill="#F8A632"/>
<path d="M61.7217 28.2099L74.1868 4L85.1267 24.0519L100.376 10.3727L102.31 33.3863L123.167 27.1782L116.118 46.2517L138.509 50.9389L122.109 65.6499L140.137 79.6626L122.424 87.0047" stroke="black" stroke-width="3" stroke-miterlimit="10"/>
<path d="M133.613 110.717L141.636 121.919C142.04 122.679 142.276 123.564 142.285 124.481C142.303 125.895 142.045 127.473 141.409 128.278L122.389 152.457C121.611 153.444 120.561 154 119.458 154C118.844 154 118.253 153.689 117.817 153.137L113.019 147.058C111.018 144.524 108.425 142.869 105.623 142.349L104.52 142.144C102.435 141.753 100.398 141.019 98.4635 139.956C96.6535 138.96 95.0126 137.524 93.634 135.732L79.6523 117.516" fill="white"/>
<path d="M133.613 110.717L141.636 121.919C142.04 122.679 142.276 123.564 142.285 124.481C142.303 125.895 142.045 127.473 141.409 128.278L122.389 152.457C121.611 153.444 120.561 154 119.458 154C118.844 154 118.253 153.689 117.817 153.137L113.019 147.058C111.018 144.524 108.425 142.869 105.623 142.349L104.52 142.144C102.435 141.753 100.398 141.019 98.4635 139.956C96.6535 138.96 95.0126 137.524 93.634 135.732L79.6523 117.516" stroke="black" stroke-width="3" stroke-miterlimit="10"/>
<path d="M119.034 113.672L79.4551 117.4L111.219 101.391L119.034 113.672Z" fill="white" stroke="white" stroke-width="3"/>
<path d="M80.7064 119.26C83.6593 122.271 85.1002 121.408 87.3504 119.687C89.6228 117.948 91.415 114.924 88.4621 111.913L78.812 100.609C76.077 97.3981 74.6006 98.1764 72.2703 99.7773C69.9178 101.392 67.9656 104.331 70.6961 107.542L80.7064 119.26Z" fill="white" stroke="black" stroke-width="3" stroke-miterlimit="10"/>
<path d="M96.6448 102.876C100.772 106.798 102.537 105.717 105.245 103.543C107.98 101.346 109.959 97.4903 105.828 93.5724L92.171 78.8659C88.302 74.6901 86.4832 75.6641 83.6593 77.6786C80.8043 79.7153 78.6118 83.4553 82.4808 87.6356L96.6448 102.876Z" fill="white" stroke="black" stroke-width="3" stroke-miterlimit="10"/>
<path d="M89.1779 111.677C92.9668 115.288 94.5722 114.319 97.0403 112.353C99.5352 110.365 101.327 106.861 97.5384 103.25L85.0021 89.7131C81.4489 85.8664 79.7901 86.7469 77.2153 88.5658C74.6137 90.4024 72.6214 93.8044 76.1746 97.6512L89.1779 111.677Z" fill="white" stroke="black" stroke-width="3" stroke-miterlimit="10"/>
<path d="M105.539 94.0268C109.483 97.9135 111.262 96.8507 114.019 94.6983C116.803 92.5281 118.893 88.7125 114.949 84.8258L101.959 70.2438C98.2768 66.1035 96.449 67.0641 93.5807 69.0564C90.6856 71.0665 88.382 74.7709 92.0642 78.9111L105.539 94.0268Z" fill="white" stroke="black" stroke-width="3" stroke-miterlimit="10"/>
<path d="M107.105 113.225V109.436C107.105 106.963 107.487 104.509 108.243 102.156L108.283 102.027C109.164 99.2744 110.422 96.6506 112.014 94.2403L115.407 89.1039L107.385 84.688L102.858 88.3168C101.799 89.1662 100.545 89.7443 99.2112 90.0022L96.5474 90.5136H95.8714C94.3861 90.5136 93.0119 89.7265 92.2648 88.4413C91.4955 87.1205 91.6867 85.4528 92.7362 84.3411L101.332 75.2335C102.52 73.9749 104.156 73.2412 105.886 73.1878C107.412 73.1389 108.924 73.4368 110.32 74.0505L123.621 79.9207C125.6 80.7923 127.206 82.3399 128.153 84.2877C129.153 86.3423 129.843 88.5302 130.203 90.7849L133.881 111.09" fill="white"/>
<path d="M107.105 113.225V109.436C107.105 106.963 107.487 104.509 108.243 102.156L108.283 102.027C109.164 99.2744 110.422 96.6506 112.014 94.2403L115.407 89.1039L107.385 84.688L102.858 88.3168C101.799 89.1662 100.545 89.7443 99.2112 90.0022L96.5474 90.5136H95.8714C94.3861 90.5136 93.0119 89.7265 92.2648 88.4413C91.4955 87.1205 91.6867 85.4528 92.7362 84.3411L101.332 75.2335C102.52 73.9749 104.156 73.2412 105.886 73.1878C107.412 73.1389 108.924 73.4368 110.32 74.0505L123.621 79.9207C125.6 80.7923 127.206 82.3399 128.153 84.2877C129.153 86.3423 129.843 88.5302 130.203 90.7849L133.881 111.09" stroke="black" stroke-width="3" stroke-miterlimit="10"/>
<path d="M34 67L43.3979 30.1875V29L57 45.8625L34 67Z" fill="white"/>
<path d="M47.1133 21.3169L36.8494 12.1203C36.1379 11.6356 35.2796 11.3065 34.3724 11.1953C32.9671 11.0263 31.3706 11.1108 30.499 11.6534L4.38574 27.9208C3.31844 28.5834 2.65582 29.5707 2.5313 30.6646C2.46459 31.2783 2.70919 31.8965 3.20726 32.3901L8.72608 37.8244C11.0297 40.0924 12.386 42.8496 12.5995 45.6869L12.684 46.8075C12.8441 48.9243 13.351 51.0278 14.2004 53.0646C14.992 54.9724 16.2417 56.7601 17.8737 58.3255L34.4524 74.2104" fill="white"/>
<path d="M47.1133 21.3169L36.8494 12.1203C36.1379 11.6356 35.2796 11.3065 34.3724 11.1953C32.9671 11.0263 31.3706 11.1108 30.499 11.6534L4.38574 27.9208C3.31844 28.5834 2.65582 29.5707 2.5313 30.6646C2.46459 31.2783 2.70919 31.8965 3.20726 32.3901L8.72608 37.8244C11.0297 40.0924 12.386 42.8496 12.5995 45.6869L12.684 46.8075C12.8441 48.9243 13.351 51.0278 14.2004 53.0646C14.992 54.9724 16.2417 56.7601 17.8737 58.3255L34.4524 74.2104" stroke="black" stroke-width="3" stroke-miterlimit="10"/>
<path d="M32.8512 72.974C30.1829 69.7098 31.1924 68.3713 33.1536 66.3256C35.1325 64.2577 38.33 62.808 41.0027 66.0677L51.1909 76.8919C54.086 79.9604 53.1477 81.3434 51.3066 83.4825C49.4432 85.6437 46.3081 87.2669 43.413 84.1984L32.8512 72.974Z" fill="white" stroke="black" stroke-width="3" stroke-miterlimit="10"/>
<path d="M50.8708 58.9211C47.4243 54.3895 48.6917 52.7574 51.1465 50.3026C53.628 47.8212 57.6748 46.278 61.1213 50.8096L74.2491 65.9875C77.9802 70.2922 76.8106 71.991 74.4981 74.5792C72.1634 77.1941 68.2011 78.9685 64.4744 74.6637L50.8708 58.9211Z" fill="white" stroke="black" stroke-width="3" stroke-miterlimit="10"/>
<path d="M41.3143 65.383C38.1347 61.225 39.2776 59.7308 41.5011 57.4939C43.7469 55.2303 47.4291 53.8339 50.6043 57.992L62.6959 71.9336C66.129 75.887 65.0795 77.439 62.9894 79.796C60.877 82.1796 57.2794 83.7895 53.8462 79.8405L41.3143 65.383Z" fill="white" stroke="black" stroke-width="3" stroke-miterlimit="10"/>
<path d="M60.6412 51.0458C57.208 46.701 58.4621 45.0467 60.8991 42.543C63.3628 40.0126 67.3785 38.3494 70.8116 42.6986L83.8905 57.2005C87.6038 61.3096 86.4476 63.0262 84.1573 65.6544C81.8404 68.3093 77.9092 70.1949 74.1959 66.0858L60.6412 51.0458Z" fill="white" stroke="black" stroke-width="3" stroke-miterlimit="10"/>
<path d="M41.7275 47.3947L45.4942 47.8083C47.949 48.0796 50.4349 47.964 52.8541 47.4748L52.9875 47.4481C55.8203 46.8744 58.5642 45.9094 61.1346 44.5886L66.609 41.7781L70.1221 50.232L66.0219 54.3322C65.0614 55.2927 64.3498 56.4757 63.9496 57.7742L63.1536 60.3669L63.078 61.0384C62.9179 62.5148 63.5494 63.9646 64.7456 64.8495C65.973 65.7567 67.654 65.7523 68.8725 64.8273L78.8651 57.2761C80.2437 56.2355 81.1553 54.6879 81.3955 52.9758C81.6089 51.4683 81.48 49.9296 81.0219 48.4754L76.6371 34.6138C75.9834 32.5504 74.6226 30.7849 72.7904 29.6331C70.8604 28.4146 68.7569 27.4896 66.5556 26.8848L46.7705 21.0146" fill="white"/>
<path d="M41.7275 47.3947L45.4942 47.8083C47.949 48.0796 50.4349 47.964 52.8541 47.4748L52.9875 47.4481C55.8203 46.8744 58.5642 45.9094 61.1346 44.5886L66.609 41.7781L70.1221 50.232L66.0219 54.3322C65.0614 55.2927 64.3498 56.4757 63.9496 57.7742L63.1536 60.3669L63.078 61.0384C62.9179 62.5148 63.5494 63.9645 64.7456 64.8495C65.973 65.7567 67.654 65.7523 68.8725 64.8273L78.8651 57.2761C80.2437 56.2355 81.1553 54.6879 81.3955 52.9758C81.6089 51.4682 81.48 49.9296 81.0219 48.4754L76.6371 34.6138C75.9834 32.5504 74.6226 30.7849 72.7904 29.6331C70.8604 28.4146 68.7569 27.4896 66.5556 26.8848L46.7705 21.0146" stroke="black" stroke-width="3" stroke-miterlimit="10"/>
<path d="M115.327 114.065C119.258 113.79 123.189 113.509 127.125 113.234C127.725 113.189 128.236 112.753 128.236 112.122C128.236 111.553 127.725 110.966 127.125 111.01C123.193 111.286 119.262 111.566 115.327 111.842C114.726 111.886 114.215 112.322 114.215 112.954C114.215 113.523 114.726 114.105 115.327 114.065Z" fill="white"/>
</svg>
