<svg width="176" height="122" viewBox="0 0 176 122" fill="none" xmlns="http://www.w3.org/2000/svg">
<path d="M162.567 45.9074C162.877 44.7884 163.04 43.6223 163.04 42.4233C163.04 33.9345 154.849 27.0524 144.748 27.0524C142.693 27.0524 140.717 27.3373 138.873 27.8619C136.43 21.7915 129.594 17.42 121.543 17.42C121.464 17.42 121.386 17.42 121.307 17.422C120.224 9.80214 112.506 3.89355 103.146 3.89355C93.7872 3.89355 85.8265 9.98864 84.9401 17.7827C82.0698 15.8993 78.3111 14.7557 74.1928 14.7557C67.5261 14.7557 61.7981 17.7479 59.2706 22.0353C56.3021 20.2892 52.6918 19.2645 48.7929 19.2645C38.6916 19.2645 30.5009 26.1465 30.5009 34.6354C30.5009 35.9921 30.712 37.3079 31.1051 38.5621C30.0619 38.4064 28.9853 38.3244 27.8877 38.3244C17.7864 38.3244 9.5957 45.2065 9.5957 53.6953C9.5957 62.1842 17.7864 69.0662 27.8877 69.0662C29.4326 69.0662 30.9315 68.9043 32.3656 68.601C31.9726 69.5192 31.7552 70.5029 31.7552 71.5256C31.7552 76.5918 36.9878 80.703 43.4621 80.7461C43.4621 80.7461 43.4621 80.7461 43.4621 80.7481C43.4621 89.237 51.6528 96.1191 61.7542 96.1191C68.239 96.1191 73.9356 93.2826 77.1843 89.0074C79.4901 89.8887 82.0531 90.3806 84.7499 90.3806C90.7978 90.3806 96.1578 87.9151 99.488 84.1133C102.818 87.913 108.178 90.3806 114.226 90.3806C124.328 90.3806 132.518 83.4985 132.518 75.0097C132.518 74.9379 132.518 74.8662 132.514 74.7945C135.566 73.1816 137.901 71.251 139.275 69.1175C142.032 70.5173 145.262 71.3227 148.718 71.3227C158.819 71.3227 167.01 64.4406 167.01 55.9518C167.01 52.1131 165.335 48.6024 162.565 45.9094L162.567 45.9074Z" fill="#B7B7B7"/>
<mask id="mask0_499_8581" style="mask-type:luminance" maskUnits="userSpaceOnUse" x="9" y="3" width="159" height="94">
<path d="M162.567 45.9074C162.877 44.7884 163.04 43.6223 163.04 42.4233C163.04 33.9345 154.849 27.0524 144.748 27.0524C142.693 27.0524 140.717 27.3373 138.873 27.8619C136.43 21.7915 129.594 17.42 121.543 17.42C121.464 17.42 121.386 17.42 121.307 17.422C120.224 9.80214 112.506 3.89355 103.146 3.89355C93.7872 3.89355 85.8265 9.98864 84.9401 17.7827C82.0698 15.8993 78.3111 14.7557 74.1928 14.7557C67.5261 14.7557 61.7981 17.7479 59.2706 22.0353C56.3021 20.2892 52.6918 19.2645 48.7929 19.2645C38.6916 19.2645 30.5009 26.1465 30.5009 34.6354C30.5009 35.9921 30.712 37.3079 31.1051 38.5621C30.0619 38.4064 28.9853 38.3244 27.8877 38.3244C17.7864 38.3244 9.5957 45.2065 9.5957 53.6953C9.5957 62.1842 17.7864 69.0662 27.8877 69.0662C29.4326 69.0662 30.9315 68.9043 32.3656 68.601C31.9726 69.5192 31.7552 70.5029 31.7552 71.5256C31.7552 76.5918 36.9878 80.703 43.4621 80.7461C43.4621 80.7461 43.4621 80.7461 43.4621 80.7481C43.4621 89.237 51.6528 96.1191 61.7542 96.1191C68.239 96.1191 73.9356 93.2826 77.1843 89.0074C79.4901 89.8887 82.0531 90.3806 84.7499 90.3806C90.7978 90.3806 96.1578 87.9151 99.488 84.1133C102.818 87.913 108.178 90.3806 114.226 90.3806C124.328 90.3806 132.518 83.4985 132.518 75.0097C132.518 74.9379 132.518 74.8662 132.514 74.7945C135.566 73.1816 137.901 71.251 139.275 69.1175C142.032 70.5173 145.262 71.3227 148.718 71.3227C158.819 71.3227 167.01 64.4406 167.01 55.9518C167.01 52.1131 165.335 48.6024 162.565 45.9094L162.567 45.9074Z" fill="white"/>
</mask>
<g mask="url(#mask0_499_8581)">
<path d="M10.1264 50.0063C14.5082 64.045 40.0125 67.4184 44.7162 57.9991C44.781 57.868 50.3606 82.7976 74.297 72.8577C76.7304 74.5833 91.5835 85.3307 101.265 70.3984C110.045 77.7764 124.628 73.9378 127.71 65.1722C133.559 65.91 136.385 63.6352 137.64 60.1511C162.308 68.7588 167.848 55.3349 166.071 50.9285C164.294 46.5222 187.499 46.9321 187.499 46.9321L140.044 107.596L7.29587 106.161L4.36914 46.1123L10.1264 50.0063Z" fill="#707070"/>
</g>
<path d="M162.567 45.9074C162.877 44.7884 163.04 43.6223 163.04 42.4233C163.04 33.9345 154.849 27.0524 144.748 27.0524C142.693 27.0524 140.717 27.3373 138.873 27.8619C136.43 21.7915 129.594 17.42 121.543 17.42C121.464 17.42 121.386 17.42 121.307 17.422C120.224 9.80214 112.506 3.89355 103.146 3.89355C93.7872 3.89355 85.8265 9.98864 84.9401 17.7827C82.0698 15.8993 78.3111 14.7557 74.1928 14.7557C67.5261 14.7557 61.7981 17.7479 59.2706 22.0353C56.3021 20.2892 52.6918 19.2645 48.7929 19.2645C38.6916 19.2645 30.5009 26.1465 30.5009 34.6354C30.5009 35.9921 30.712 37.3079 31.1051 38.5621C30.0619 38.4064 28.9853 38.3244 27.8877 38.3244C17.7864 38.3244 9.5957 45.2065 9.5957 53.6953C9.5957 62.1842 17.7864 69.0662 27.8877 69.0662C29.4326 69.0662 30.9315 68.9043 32.3656 68.601C31.9726 69.5192 31.7552 70.5029 31.7552 71.5256C31.7552 76.5918 36.9878 80.7031 43.4621 80.7461C43.4621 80.7461 43.4621 80.7461 43.4621 80.7481C43.4621 89.237 51.6528 96.1191 61.7542 96.1191C68.239 96.1191 73.9356 93.2826 77.1843 89.0074C79.4901 89.8887 82.0531 90.3806 84.7499 90.3806C90.7978 90.3806 96.1578 87.9151 99.488 84.1134C102.818 87.913 108.178 90.3806 114.226 90.3806C124.328 90.3806 132.518 83.4985 132.518 75.0097C132.518 74.9379 132.518 74.8662 132.514 74.7945C135.566 73.1816 137.901 71.251 139.275 69.1175C142.032 70.5173 145.262 71.3227 148.718 71.3227C158.819 71.3227 167.01 64.4406 167.01 55.9518C167.01 52.1131 165.335 48.6024 162.565 45.9094L162.567 45.9074Z" stroke="black" stroke-width="3" stroke-miterlimit="10"/>
<path d="M39.3755 94.2547C52.3326 94.5785 39.9567 71.9238 39.9567 71.9238C39.9567 71.9238 29.5543 94.0108 39.3755 94.2547Z" fill="#92E3FF" stroke="black" stroke-width="3" stroke-miterlimit="10"/>
<path d="M142.856 99.1736C155.813 99.4975 143.437 76.8428 143.437 76.8428C143.437 76.8428 133.035 98.9298 142.856 99.1736Z" fill="#92E3FF" stroke="black" stroke-width="3" stroke-miterlimit="10"/>
<path d="M111.499 81.7527C124.456 82.0766 112.08 59.4219 112.08 59.4219C112.08 59.4219 101.677 81.5089 111.499 81.7527Z" fill="#92E3FF" stroke="black" stroke-width="3" stroke-miterlimit="10"/>
<path d="M116.911 111.043C123.352 111.203 117.199 99.9434 117.199 99.9434C117.199 99.9434 112.029 110.92 116.911 111.043Z" fill="#92E3FF" stroke="black" stroke-width="3" stroke-miterlimit="10"/>
<path d="M60.0483 111.043C66.4892 111.203 60.3368 99.9434 60.3368 99.9434C60.3368 99.9434 55.167 110.92 60.0483 111.043Z" fill="#92E3FF" stroke="black" stroke-width="3" stroke-miterlimit="10"/>
<path d="M83.9038 116.594C96.8609 116.917 84.485 94.2627 84.485 94.2627C84.485 94.2627 74.0826 116.35 83.9038 116.594Z" fill="#92E3FF" stroke="black" stroke-width="3" stroke-miterlimit="10"/>
</svg>
