<?xml version="1.0" encoding="utf-8"?>
<!-- Generator: Adobe Illustrator 28.1.0, SVG Export Plug-In . SVG Version: 6.00 Build 0)  -->
<svg version="1.1" id="Layer_1" xmlns="http://www.w3.org/2000/svg" xmlns:xlink="http://www.w3.org/1999/xlink" x="0px" y="0px"
	 viewBox="0 0 379 254.2" style="enable-background:new 0 0 379 254.2;" xml:space="preserve">
<style type="text/css">
	.st0{fill:#1F3021;}
	.st1{fill:none;stroke:#000000;stroke-width:3;stroke-miterlimit:10;}
	.st2{fill:#D0D3D8;stroke:#000000;stroke-width:3;stroke-miterlimit:10;}
</style>
<path class="st0" d="M191,229.2v6.1c0,3.4,2.6,6.3,6,6.6c13.7,1.4,47.2,4.6,60.2,5.2c7.9,0.3,26.3,0.2,37.9,0.1
	c6.6-0.1,13.4-0.7,19.8-1.5l49.1-7c2.4-0.3,4.2-2.4,4.2-4.9l-0.1-6"/>
<path class="st1" d="M191,229.2v6.1c0,3.4,2.6,6.3,6,6.6c13.7,1.4,47.2,4.6,60.2,5.2c7.9,0.3,26.3,0.2,37.9,0.1
	c6.6-0.1,13.4-0.7,19.8-1.5l49.1-7c2.4-0.3,4.2-2.4,4.2-4.9l-0.1-6"/>
<path class="st2" d="M191,229.2c0.9,1.2,11.8,2,15.7,2.4c1.8,0.2,6.1,0.6,8.6,0.8c1.2,0.1,2.4,0.5,3.5,1.1c1.5,0.9,3.3,1.1,4.9,0.6
	l4.6-1.3c1.7-0.5,3.5-0.5,5.2-0.2l8.7,1.9c0.9,0.2,1.9,0.3,2.8,0.2l4.4-0.5c1-0.1,1.9,0,2.9,0.2c0,0,6,1.9,8,1.8
	c1.9-0.1,5.6-1.9,7.5-1.8c1.6,0.1,4.7,1.8,6.3,1.8c2.6,0,8.9-2.2,11.5-3.1c0.7-0.3,1.5-0.4,2.3-0.4h0.1c1.5,0,3,0.2,4.4,0.7l0.5,0.2
	c2.2,0.7,4.6,0.8,6.9,0.3l3.2-0.8c0.9-0.2,1.9-0.3,2.9-0.3h5.4l5.3-0.9c1.3-0.2,2.6-0.3,3.9-0.3h2.9c0.8,0,1.6,0.1,2.4,0.3l6.3,1.7
	c1.7,0.5,3.5,0.5,5.2,0.1l9.2-2.2c0.2,0,0.3-0.1,0.5-0.1l4.3-1.4c1.5-0.5,3-0.7,4.6-0.7h2.7c0.8,0,1.6-0.1,2.3-0.4
	c0.9-0.3,2.2-0.7,2.8-0.8c0.9-0.1,2.9-0.1,4.4-0.1c1.3,0,2.4-1,2.4-2.3v-4.9c0-0.9-0.3-1.7-1-2.3c-0.5-0.5-0.8-1.2-0.8-1.9l0.3-14.4
	c0-0.5-0.2-1-0.6-1.4c-0.4-0.4-0.7-1-0.7-1.6v-7.7c0-1.9-0.5-3.8-1.4-5.5l-8.6-16.4c-1-2-2.6-3.6-4.5-4.7l-2.2-1.3
	c-0.8-0.5-1.6-0.8-2.4-1l-2.9-0.7c-1.1-0.3-2.2-0.8-3.1-1.6c-1.4-1.2-3.5-3.1-4.7-3.6c-0.5-0.2-2.3-0.4-2.3-0.4
	c-1.1-0.2-2.3,0.2-3.1,1c-0.6,0.6-1,1.3-1.2,2.1l-0.5,1.6c-0.1,0.3-0.5,0.4-0.7,0.2l-0.9-0.9c-0.4-0.4-0.7-1-0.8-1.6l-0.4-3.5
	c-0.2-1.7-0.7-3.3-1.5-4.7l-0.3-0.7c-0.7-1.4-1.6-2.6-2.7-3.7l-6-6l-3-2.8c-1.3-1.1-2-2.8-2-4.5c0-0.5,0-0.9-0.2-1.1
	c-0.6-1.5-3.5-3.4-4.9-4.1c-0.6-0.3-2.2-0.3-2.8,0c-0.9,0.5-1.8,2.8-2.8,2.8c-0.9,0-2.6-2.6-2.6-2.6c-1.2-1.2-3-1.9-4.7-1.7
	l-3.9,0.4c-0.9,0.1-1.7,0-2.6-0.1l-2.3-0.5c-0.1,0-0.2-0.1-0.3-0.1c-0.7-0.2-3.5-1.1-4.7-1c-0.5,0.1-1.3,0.4-1.8,0.5
	c-1.9,0.5-3.7,1.5-5.2,2.7c-2.5,2-9.9,8-9.9,8l-4,3c-1.1,0.8-2.4,1.3-3.8,1.3h-0.9c-1.6,0-3.2,0.3-4.6,0.9l-1,0.4
	c-1.1,0.5-2,1.3-2.5,2.4l-0.5,1c-0.2,0.4-0.6,0.7-1,0.7c-0.4,0-0.7,0.1-1,0.4l-1.1,1.1l-0.6,0.6c-0.4,0.4-0.7,1-0.7,1.6
	c0,0.6-0.2,1.2-0.7,1.6l-1.7,1.7l-3.3,3.3c-0.5,0.5-1.2,0.8-1.8,0.8c-0.7,0-1.3,0.2-1.8,0.6l-7,5.3l-4.6,1l-4.9,0.4
	c-2.2,0.2-4.4,0.8-6.4,1.8l0,0c-2.3,1.2-4.3,2.9-5.9,5l-2,2.8l-3.9,7.2c-1.8,3.3-2.8,6.9-3.2,10.6l-0.7,7.3c-0.1,0.7-0.1,1.4-0.4,2
	C191.6,205.2,187.2,224,191,229.2z"/>
<path class="st1" d="M252.4,234.5L251,231c-0.3-0.8-0.5-1.7-0.5-2.5v-0.9c0-0.8,0.1-1.7,0.3-2.5c0.9-1.3,1.2-3,0.9-4.5
	c-0.2-1.1-0.2-2.2,0-3.2l2.1-10.7"/>
<path class="st1" d="M234.7,156.6c0,0,0.4,5.2,0,6.8c-0.4,1.7-2.2,4.7-2.4,6.4c-0.1,1.5,1.2,6,1.2,6"/>
<path class="st1" d="M330.3,161v3.9c0,0.9,0.2,1.8,0.5,2.7l0.7,2.1c0.5,1.3,0.7,2.7,0.7,4.1l-1.9,6.9l1.9,11.9"/>
<path class="st1" d="M342.8,160.1l-0.9,6.3c-0.3,2.5,0,5,1,7.3l0.3,0.6c0.8,1.8,1,3.9,0.5,5.8l-0.9,3.7"/>
<path class="st1" d="M362.3,178l-1.3,5.8l1.3,3.9v4.3c0,1.7,0.1,2.4,0.6,4l1.6,3.9"/>
<path class="st1" d="M280.8,124.7v9.7c0,2.8,0.9,5.6,2.5,7.9l0.9,1.2c1.3,1.9,1.9,4.2,1.5,6.5l-1,6.6c0,0-1.9,4.7-1.9,6.3
	c-0.1,1.4,0.7,4.4,1.2,6.6c0.5,1.7,0.7,3.4,0.7,5.2v5.7"/>
<path class="st1" d="M209.9,165.8c0,0-0.9,7.8-3.9,11.4c-0.6,0.7-1.6,2.4-1.8,3.3c-0.2,1.3,0.9,3.8,1,5.1c0.1,2.5-0.5,6.9-0.5,8.3"
	/>
</svg>
