<svg width="80" height="66" viewBox="0 0 80 66" fill="none" xmlns="http://www.w3.org/2000/svg">
<path d="M77.9453 26.6735C77.9453 22.4916 75.0567 18.9899 71.1715 18.0599C70.052 9.35775 62.6444 2.63265 53.6632 2.63265C48.8761 2.63265 44.54 4.54643 41.3581 7.64643C38.1352 4.17317 33.5373 2 28.4349 2C22.664 2 17.5427 4.77735 14.3197 9.0699C13.2349 8.59225 12.0366 8.32653 10.7752 8.32653C5.89984 8.32653 1.94531 12.2933 1.94531 17.1837C1.94531 19.5023 2.83461 21.6154 4.29154 23.1939C2.83461 24.7723 1.94531 26.8854 1.94531 29.2041C1.94531 34.0945 5.89984 38.0612 10.7752 38.0612C13.8467 38.0612 16.5524 36.4859 18.1324 34.0977C19.0122 34.7335 19.952 35.2902 20.9453 35.7584C20.8949 36.3088 20.8633 36.8655 20.8633 37.4286C20.8633 45.5771 26.3505 52.4351 33.818 54.5007C33.8022 54.7127 33.7928 54.9246 33.7928 55.1429C33.7928 60.0333 37.7473 64 42.6227 64C46.2555 64 49.3775 61.7984 50.7304 58.6509C53.4834 60.4318 56.7599 61.4694 60.2824 61.4694C70.0363 61.4694 77.9422 53.5391 77.9422 43.7551C77.9422 39.9465 76.7407 36.4195 74.7003 33.5314C76.6808 31.9087 77.9422 29.4382 77.9422 26.6735H77.9453Z" fill="#65B560" stroke="black" stroke-width="3" stroke-miterlimit="10"/>
</svg>
