<?xml version="1.0" encoding="utf-8"?>
<!-- Generator: Adobe Illustrator 28.1.0, SVG Export Plug-In . SVG Version: 6.00 Build 0)  -->
<svg version="1.1" id="Layer_1" xmlns="http://www.w3.org/2000/svg" xmlns:xlink="http://www.w3.org/1999/xlink" x="0px" y="0px"
	 viewBox="0 0 255 180" style="enable-background:new 0 0 255 180;" xml:space="preserve">
<style type="text/css">
	.st0{fill:#F5E5D3;stroke:#000000;stroke-width:3;stroke-miterlimit:10;}
	.st1{fill:#CFAE82;stroke:#000000;stroke-width:3;stroke-miterlimit:10;}
	.st2{fill:#F5E5D3;}
	.st3{fill:#FFFFFF;filter:url(#Adobe_OpacityMaskFilter);}
	.st4{mask:url(#mask0_499_8509_00000107584670838734119040000016614641580812382341_);}
	.st5{fill:#CFAE82;}
	.st6{fill:none;stroke:#000000;stroke-width:3;stroke-miterlimit:10;}
	.st7{fill:#FFFFFF;filter:url(#Adobe_OpacityMaskFilter_00000033345355642914922090000002354887169288862871_);}
	.st8{mask:url(#mask1_499_8509_00000043419328126177857800000001350787314135311273_);}
	.st9{fill:#FFFFFF;filter:url(#Adobe_OpacityMaskFilter_00000077301175405641692900000018013933820417548706_);}
	.st10{mask:url(#mask2_499_8509_00000137812783924812234990000007075026886710125743_);}
	.st11{fill:#FFFFFF;filter:url(#Adobe_OpacityMaskFilter_00000148619257095321632620000005415790896715606452_);}
	.st12{mask:url(#mask3_499_8509_00000142899072129025370100000016588151427377440946_);}
	.st13{fill:#D5E07D;stroke:#000000;stroke-width:3;stroke-miterlimit:10;}
	.st14{fill:#FFFFFF;filter:url(#Adobe_OpacityMaskFilter_00000096760898224207752130000018367040984107881354_);}
	.st15{mask:url(#mask4_499_8509_00000058587580883633194610000004575515675112538779_);}
	.st16{fill:#FFFFFF;filter:url(#Adobe_OpacityMaskFilter_00000124142360879930916890000011164500434544505216_);}
	.st17{mask:url(#mask5_499_8509_00000059273022039445113950000003634330438617882246_);}
	.st18{fill:#072467;stroke:#000000;stroke-width:3;stroke-miterlimit:10;}
</style>
<path class="st0" d="M53.2,66.5v65h0c0.3,10.2,30.3,18.4,67.4,18.4c37,0,67.1-8.2,67.4-18.4h0v-65H53.2z"/>
<path class="st1" d="M120.6,85c37.2,0,67.4-8.3,67.4-18.6c0-10.3-30.2-18.6-67.4-18.6c-37.2,0-67.4,8.3-67.4,18.6
	C53.2,76.6,83.4,85,120.6,85z"/>
<path class="st2" d="M90.6,58.1c7,0,12.8-4.6,12.8-10.2c0-5.7-5.7-10.2-12.8-10.2c-7,0-12.8,4.6-12.8,10.2
	C77.8,53.5,83.5,58.1,90.6,58.1z"/>
<defs>
	<filter id="Adobe_OpacityMaskFilter" filterUnits="userSpaceOnUse" x="77.7" y="44.3" width="20.8" height="13.4">
		<feColorMatrix  type="matrix" values="1 0 0 0 0  0 1 0 0 0  0 0 1 0 0  0 0 0 1 0"/>
	</filter>
</defs>
<mask maskUnits="userSpaceOnUse" x="77.7" y="44.3" width="20.8" height="13.4" id="mask0_499_8509_00000107584670838734119040000016614641580812382341_">
	<path class="st3" d="M90.6,58.1c7,0,12.8-4.6,12.8-10.2c0-5.7-5.7-10.2-12.8-10.2c-7,0-12.8,4.6-12.8,10.2
		C77.8,53.5,83.5,58.1,90.6,58.1z"/>
</mask>
<g class="st4">
	<path class="st5" d="M78.4,44.3c0,0,3.5,13.3,20.1,11.5c-0.7,1.1-18.3,3.8-16,0c1.8-3.5,5.1,3.3,0,0C75.2,51.1,78.4,44.3,78.4,44.3
		z"/>
</g>
<path class="st6" d="M90.6,58.1c7,0,12.8-4.6,12.8-10.2c0-5.7-5.7-10.2-12.8-10.2c-7,0-12.8,4.6-12.8,10.2
	C77.8,53.5,83.5,58.1,90.6,58.1z"/>
<path class="st2" d="M121.2,55.3c7,0,12.8-4.6,12.8-10.2s-5.7-10.2-12.8-10.2s-12.8,4.6-12.8,10.2S114.1,55.3,121.2,55.3z"/>
<defs>
	
		<filter id="Adobe_OpacityMaskFilter_00000068647349358339681390000013834068505322614923_" filterUnits="userSpaceOnUse" x="108.3" y="41.6" width="20.8" height="13.4">
		<feColorMatrix  type="matrix" values="1 0 0 0 0  0 1 0 0 0  0 0 1 0 0  0 0 0 1 0"/>
	</filter>
</defs>
<mask maskUnits="userSpaceOnUse" x="108.3" y="41.6" width="20.8" height="13.4" id="mask1_499_8509_00000043419328126177857800000001350787314135311273_">
	<path style="fill:#FFFFFF;filter:url(#Adobe_OpacityMaskFilter_00000068647349358339681390000013834068505322614923_);" d="
		M121.2,55.3c7,0,12.8-4.6,12.8-10.2s-5.7-10.2-12.8-10.2s-12.8,4.6-12.8,10.2S114.1,55.3,121.2,55.3z"/>
</mask>
<g class="st8">
	<path class="st5" d="M109,41.6c0,0,3.5,13.3,20.1,11.5c-0.7,1.1-18.3,3.8-16,0c1.8-3.5,5.1,3.3,0,0C105.8,48.4,109,41.6,109,41.6z"
		/>
</g>
<path class="st6" d="M121.2,55.3c7,0,12.8-4.6,12.8-10.2s-5.7-10.2-12.8-10.2s-12.8,4.6-12.8,10.2S114.1,55.3,121.2,55.3z"/>
<path class="st2" d="M152.1,58.1c7,0,12.8-4.6,12.8-10.2c0-5.7-5.7-10.2-12.8-10.2c-7,0-12.8,4.6-12.8,10.2
	C139.3,53.5,145,58.1,152.1,58.1z"/>
<defs>
	
		<filter id="Adobe_OpacityMaskFilter_00000121975785906413018920000002458061534201423756_" filterUnits="userSpaceOnUse" x="139.2" y="44.3" width="20.8" height="13.4">
		<feColorMatrix  type="matrix" values="1 0 0 0 0  0 1 0 0 0  0 0 1 0 0  0 0 0 1 0"/>
	</filter>
</defs>
<mask maskUnits="userSpaceOnUse" x="139.2" y="44.3" width="20.8" height="13.4" id="mask2_499_8509_00000137812783924812234990000007075026886710125743_">
	<path style="fill:#FFFFFF;filter:url(#Adobe_OpacityMaskFilter_00000121975785906413018920000002458061534201423756_);" d="
		M152.1,58.1c7,0,12.8-4.6,12.8-10.2c0-5.7-5.7-10.2-12.8-10.2c-7,0-12.8,4.6-12.8,10.2C139.3,53.5,145,58.1,152.1,58.1z"/>
</mask>
<g class="st10">
	<path class="st5" d="M139.9,44.3c0,0,3.5,13.3,20.1,11.5c-0.7,1.1-18.3,3.8-16,0c1.8-3.5,5.1,3.3,0,0
		C136.7,51.1,139.9,44.3,139.9,44.3z"/>
</g>
<path class="st6" d="M152.1,58.1c7,0,12.8-4.6,12.8-10.2c0-5.7-5.7-10.2-12.8-10.2c-7,0-12.8,4.6-12.8,10.2
	C139.3,53.5,145,58.1,152.1,58.1z"/>
<path class="st2" d="M169,69.2c7,0,12.8-4.6,12.8-10.2c0-5.7-5.7-10.2-12.8-10.2c-7,0-12.8,4.6-12.8,10.2
	C156.3,64.7,162,69.2,169,69.2z"/>
<defs>
	
		<filter id="Adobe_OpacityMaskFilter_00000075853775633564069250000015605259355112274567_" filterUnits="userSpaceOnUse" x="156.2" y="55.5" width="20.8" height="13.4">
		<feColorMatrix  type="matrix" values="1 0 0 0 0  0 1 0 0 0  0 0 1 0 0  0 0 0 1 0"/>
	</filter>
</defs>
<mask maskUnits="userSpaceOnUse" x="156.2" y="55.5" width="20.8" height="13.4" id="mask3_499_8509_00000142899072129025370100000016588151427377440946_">
	<path style="fill:#FFFFFF;filter:url(#Adobe_OpacityMaskFilter_00000075853775633564069250000015605259355112274567_);" d="
		M169,69.2c7,0,12.8-4.6,12.8-10.2c0-5.7-5.7-10.2-12.8-10.2c-7,0-12.8,4.6-12.8,10.2C156.3,64.7,162,69.2,169,69.2z"/>
</mask>
<g class="st12">
	<path class="st5" d="M156.9,55.5c0,0,3.5,13.3,20.1,11.5c-0.7,1.1-18.3,3.8-16,0c1.8-3.5,5.1,3.3,0,0
		C153.7,62.3,156.9,55.5,156.9,55.5z"/>
</g>
<path class="st6" d="M169,69.2c7,0,12.8-4.6,12.8-10.2c0-5.7-5.7-10.2-12.8-10.2c-7,0-12.8,4.6-12.8,10.2
	C156.3,64.7,162,69.2,169,69.2z"/>
<path class="st13" d="M73.8,34.3c0,0,11.4,16.1,16.9,8.8C96.2,35.7,73.8,34.3,73.8,34.3z"/>
<path class="st2" d="M73.9,69.2c7,0,12.8-4.6,12.8-10.2c0-5.7-5.7-10.2-12.8-10.2c-7,0-12.8,4.6-12.8,10.2
	C61.2,64.7,66.9,69.2,73.9,69.2z"/>
<defs>
	
		<filter id="Adobe_OpacityMaskFilter_00000060032560469940641030000005346620068099134873_" filterUnits="userSpaceOnUse" x="61.1" y="55.5" width="20.8" height="13.4">
		<feColorMatrix  type="matrix" values="1 0 0 0 0  0 1 0 0 0  0 0 1 0 0  0 0 0 1 0"/>
	</filter>
</defs>
<mask maskUnits="userSpaceOnUse" x="61.1" y="55.5" width="20.8" height="13.4" id="mask4_499_8509_00000058587580883633194610000004575515675112538779_">
	<path style="fill:#FFFFFF;filter:url(#Adobe_OpacityMaskFilter_00000060032560469940641030000005346620068099134873_);" d="
		M73.9,69.2c7,0,12.8-4.6,12.8-10.2c0-5.7-5.7-10.2-12.8-10.2c-7,0-12.8,4.6-12.8,10.2C61.2,64.7,66.9,69.2,73.9,69.2z"/>
</mask>
<g class="st15">
	<path class="st5" d="M61.8,55.5c0,0,3.5,13.3,20.1,11.5c-0.7,1.1-18.3,3.8-16,0c1.8-3.5,5.1,3.3,0,0C58.6,62.3,61.8,55.5,61.8,55.5
		z"/>
</g>
<path class="st6" d="M73.9,69.2c7,0,12.8-4.6,12.8-10.2c0-5.7-5.7-10.2-12.8-10.2c-7,0-12.8,4.6-12.8,10.2
	C61.2,64.7,66.9,69.2,73.9,69.2z"/>
<path class="st13" d="M55.2,54.8c0,0,18.6,6.6,18.9-2.6C74.3,43,55.2,54.8,55.2,54.8z"/>
<path class="st2" d="M102.6,83c8.4,0,15.3-5.5,15.3-12.3s-6.8-12.3-15.3-12.3c-8.4,0-15.3,5.5-15.3,12.3S94.1,83,102.6,83z"/>
<defs>
	
		<filter id="Adobe_OpacityMaskFilter_00000023255494822862363780000005948876310708680090_" filterUnits="userSpaceOnUse" x="87.2" y="66.5" width="25" height="16.1">
		<feColorMatrix  type="matrix" values="1 0 0 0 0  0 1 0 0 0  0 0 1 0 0  0 0 0 1 0"/>
	</filter>
</defs>
<mask maskUnits="userSpaceOnUse" x="87.2" y="66.5" width="25" height="16.1" id="mask5_499_8509_00000059273022039445113950000003634330438617882246_">
	<path style="fill:#FFFFFF;filter:url(#Adobe_OpacityMaskFilter_00000023255494822862363780000005948876310708680090_);" d="
		M102.6,83c8.4,0,15.3-5.5,15.3-12.3s-6.8-12.3-15.3-12.3c-8.4,0-15.3,5.5-15.3,12.3S94.1,83,102.6,83z"/>
</mask>
<g class="st17">
	<path class="st5" d="M88,66.5c0,0,4.1,15.9,24.1,13.8c-0.8,1.4-22,4.5-19.2,0c2.2-4.2,6.1,3.9,0,0C84.2,74.7,88,66.5,88,66.5"/>
</g>
<path class="st6" d="M102.6,83c8.4,0,15.3-5.5,15.3-12.3s-6.8-12.3-15.3-12.3c-8.4,0-15.3,5.5-15.3,12.3S94.1,83,102.6,83z"/>
<path class="st13" d="M85.5,76.7c0,0,19.7-0.8,16.6-9.5C98.8,58.6,85.5,76.7,85.5,76.7z"/>
<path class="st0" d="M138.9,83c8.4,0,15.3-5.5,15.3-12.3s-6.8-12.3-15.3-12.3c-8.4,0-15.3,5.5-15.3,12.3S130.5,83,138.9,83z"/>
<path class="st18" d="M92.6,45.5c1.9,0,3.5-1.6,3.5-3.5c0-1.9-1.6-3.5-3.5-3.5c-1.9,0-3.5,1.6-3.5,3.5C89.1,44,90.7,45.5,92.6,45.5z
	"/>
<path class="st13" d="M107.4,25.9c0,0,5.2,19,12.9,14C128,34.9,107.4,25.9,107.4,25.9z"/>
<path class="st13" d="M170.8,29.4c0,0-19.3,4.5-14.5,12.3S170.8,29.4,170.8,29.4z"/>
<path class="st13" d="M186.8,51.4c0,0-18-8.1-19,1C166.8,61.6,186.8,51.4,186.8,51.4z"/>
<path class="st13" d="M157.4,73.6c0,0-13.4-14.5-17.9-6.5C134.9,75,157.4,73.6,157.4,73.6z"/>
<path class="st18" d="M122,41.6c1.9,0,3.5-1.6,3.5-3.5c0-1.9-1.6-3.5-3.5-3.5c-1.9,0-3.5,1.6-3.5,3.5C118.5,40,120,41.6,122,41.6z"
	/>
<path class="st18" d="M154.4,42.2c1.9,0,3.5-1.6,3.5-3.5c0-1.9-1.6-3.5-3.5-3.5c-1.9,0-3.5,1.6-3.5,3.5
	C150.9,40.6,152.4,42.2,154.4,42.2z"/>
<path class="st18" d="M77.1,53.7c1.9,0,3.5-1.6,3.5-3.5c0-1.9-1.6-3.5-3.5-3.5s-3.5,1.6-3.5,3.5C73.6,52.1,75.2,53.7,77.1,53.7z"/>
<path class="st18" d="M103.8,68.5c1.9,0,3.5-1.6,3.5-3.5c0-1.9-1.6-3.5-3.5-3.5c-1.9,0-3.5,1.6-3.5,3.5
	C100.3,66.9,101.9,68.5,103.8,68.5z"/>
<path class="st18" d="M136.5,68.2c1.9,0,3.5-1.6,3.5-3.5s-1.6-3.5-3.5-3.5s-3.5,1.6-3.5,3.5S134.6,68.2,136.5,68.2z"/>
<path class="st18" d="M166.5,52.8c1.9,0,3.5-1.6,3.5-3.5c0-1.9-1.6-3.5-3.5-3.5c-1.9,0-3.5,1.6-3.5,3.5
	C163,51.2,164.6,52.8,166.5,52.8z"/>
</svg>
