<svg width="208" height="322" viewBox="0 0 208 322" fill="none" xmlns="http://www.w3.org/2000/svg">
<path d="M173.151 34H34.8488C16.7069 34 2 48.672 2 66.7708V259.229C2 277.328 16.7069 292 34.8488 292H173.151C191.293 292 206 277.328 206 259.229V66.7708C206 48.672 191.293 34 173.151 34Z" fill="#9B5F0B" stroke="black" stroke-width="3" stroke-miterlimit="10"/>
<path d="M130.242 2H77.7576C73.4684 2 70 5.47544 70 9.76101V26.239C70 30.5246 73.4765 34 77.7576 34H84.4048C83.5195 34 82.8033 33.279 82.8033 32.396V15.602C82.8033 14.719 83.5195 13.998 84.4048 13.998H123.7C124.585 13.998 125.301 14.719 125.301 15.602V32.396C125.301 33.279 124.585 34 123.7 34H130.242C134.524 34 138 30.5246 138 26.239V9.76101C138 5.47544 134.524 2 130.242 2Z" fill="#9D5F09" stroke="black" stroke-width="3" stroke-miterlimit="10"/>
<path d="M48.8409 61H38.1591C30.8916 61 25 66.8764 25 74.1253V258.875C25 266.124 30.8916 272 38.1591 272H48.8409C56.1085 272 62 266.124 62 258.875V74.1253C62 66.8764 56.1085 61 48.8409 61Z" fill="#BD8748"/>
<path d="M109.197 61H98.8035C91.7323 61 86 66.8764 86 74.1253V258.875C86 266.124 91.7323 272 98.8035 272H109.197C116.268 272 122 266.124 122 258.875V74.1253C122 66.8764 116.268 61 109.197 61Z" fill="#BD8748"/>
<path d="M169.841 61H159.159C151.892 61 146 66.8764 146 74.1253V258.875C146 266.124 151.892 272 159.159 272H169.841C177.108 272 183 266.124 183 258.875V74.1253C183 66.8764 177.108 61 169.841 61Z" fill="#BD8748"/>
<path d="M67.7379 73.3561L13.1494 102.418L28.6239 131.485L83.2124 102.423L67.7379 73.3561Z" fill="#FED24F"/>
<path d="M82 124C91.3888 124 99 116.389 99 107C99 97.6112 91.3888 90 82 90C72.6112 90 65 97.6112 65 107C65 116.389 72.6112 124 82 124Z" fill="#01A4AB"/>
<path d="M36.5 320C42.8513 320 48 313.732 48 306C48 298.268 42.8513 292 36.5 292C30.1487 292 25 298.268 25 306C25 313.732 30.1487 320 36.5 320Z" fill="#00000C" stroke="black" stroke-width="3" stroke-miterlimit="10"/>
<path d="M171.5 320C177.851 320 183 313.732 183 306C183 298.268 177.851 292 171.5 292C165.149 292 160 298.268 160 306C160 313.732 165.149 320 171.5 320Z" fill="#00000C" stroke="black" stroke-width="3" stroke-miterlimit="10"/>
</svg>
