<?xml version="1.0" encoding="utf-8"?>
<!-- Generator: Adobe Illustrator 28.1.0, SVG Export Plug-In . SVG Version: 6.00 Build 0)  -->
<svg version="1.1" id="Livello_1" xmlns="http://www.w3.org/2000/svg" xmlns:xlink="http://www.w3.org/1999/xlink" x="0px" y="0px"
	 viewBox="0 0 120 111" style="enable-background:new 0 0 120 111;" xml:space="preserve">
<style type="text/css">
	.st0{fill:#FFFFFF;}
	.st1{fill:none;stroke:#000000;stroke-width:1.7256;stroke-linecap:round;stroke-linejoin:round;}
	.st2{stroke:#000000;stroke-width:1.7256;stroke-linecap:round;stroke-linejoin:round;}
</style>
<path class="st0" d="M13.5,60.4c3.1-3.1,5.7,0.4,7,3.3c-1.2-4.4-1.7-8.6-0.6-10.7c3-5.4,19.7-37.4,41.9-36
	C84,18.5,98.7,48.6,98.2,58.9c-0.1,2.4-0.3,4.2-0.6,5.6c1.8-3.2,4.1-6.4,5.5-5.6c2.5,1.5,6.9,3.9,1,14.3
	c-5.9,10.3-12.3,8.4-14.3,5.4C84.9,89,80,92.4,77.1,94.9c-3,2.5-8.4,3-11.3,3s-3.9,4.4-8.4,4.4c-4.4,0-4.4-2.5-6.9-4.4
	c-2.5-2-7.9,0-12.3-3c-8.9-5.9-11-13-12.8-18.2c0.2,1.3,0.1,3.2-3.4,3.9C17.5,81.6,9.1,64.8,13.5,60.4z"/>
<path class="st1" d="M20.9,64.8c-1-3-3.8-8-7.4-4.4c-4.4,4.4,3.9,21.2,8.4,20.2c3.5-0.8,3.6-2.6,3.4-3.9 M25.3,76.6
	c-3-5.7-7.8-19.3-5.4-23.6c3-5.4,19.7-37.4,41.9-36C84,18.5,98.7,48.6,98.2,58.9c-0.4,8.3-1.8,9.7-2.5,9.4 M25.3,76.6
	c1.8,5.3,3.9,12.3,12.8,18.2c4.4,3,9.9,1,12.3,3c2.5,2,2.5,4.4,6.9,4.4c4.4,0,5.4-4.4,8.4-4.4s8.4-0.5,11.3-3
	c3-2.5,7.9-5.9,12.8-16.3 M95.8,68.3c1.6-3.6,5.4-10.5,7.4-9.4c2.5,1.5,6.9,3.9,1,14.3c-5.9,10.3-12.3,8.4-14.3,5.4 M95.8,68.3
	l-5.9,10.3"/>
<path class="st2" d="M12,30.8c-9.1,11.4,4.8,32,10.3,38.9C16.5,56,27.5,51.5,33.7,51c-2.8-11.4,1.1-18.9,3.4-21.2
	c-2.8,9.5,1.1,17.4,3.4,20.2c-3.5-11,0.5-21.3,3-25.1c-2.4,7.5,1,20.5,3,26.1h23.6c5.1-7.1,5.7-19.4,5.4-24.6c4.7,5.9,2,18.2,0,23.6
	c5.5-8.7,6.6-19.4,6.4-23.6c3.2,4.7,1.3,19.7,0,26.6c18.5,0.8,14.6,13.1,10.3,19.2c17.2-15.8,20.7-27.1,15.8-40.4
	c-4.9-13.3-34-21.2-40.4-22.7c-5.1-1.2-10,3.8-11.8,6.4c-2.3-2.1-7.7-6.4-10.8-6.4C41.1,9.2,23.4,16.5,12,30.8z"/>
<path class="st1" d="M53.4,80.1c-0.2-1.1,0.5-3.4,4.4-3.4c2.5,0,4.3,2.3,3.4,3.4"/>
<path class="st1" d="M47,88.5c5.1,0.5,16.2,0.9,19.7-1.5"/>
<path class="st1" d="M60.8,88.5c0.2,1.1-0.3,3.4-3.4,3.4c-3.2,0-4.3-2.3-4.4-3.4"/>
<path class="st1" d="M67.7,62.9c-0.5-1.3,1.7-3.5,14.3-2"/>
<path class="st1" d="M48.5,62.9c0.5-1.3-1.7-3.5-14.3-2"/>
<path class="st2" d="M41.1,65.8c-2.8,0-2.8-3.3-2.5-4.9h5.9C44.6,63.3,44.6,65.8,41.1,65.8z"/>
<path class="st2" d="M73.3,65.3c-2.8,0-2.8-3.3-2.5-4.9h5.9C76.7,62.9,76.7,65.3,73.3,65.3z"/>
</svg>
