<svg width="120" height="111" viewBox="0 0 120 111" fill="none" xmlns="http://www.w3.org/2000/svg">
<path d="M6.19245 61.1507C9.80835 57.5348 12.8058 61.6052 14.2523 64.9691C12.8997 59.836 12.3045 54.9887 13.6148 52.5865C17.0405 46.306 36.4528 9.1942 62.1456 10.9071C87.8384 12.6199 104.967 47.4479 104.396 59.4379C104.263 62.2212 104.032 64.3347 103.751 65.9235C105.842 62.183 108.494 58.4713 110.105 59.4379C112.96 61.1507 118.099 64.0055 111.247 75.9955C104.396 87.9854 96.9736 85.7016 94.6898 82.2759C88.9803 94.2659 83.2708 98.2626 79.8451 101.117C76.4194 103.972 70.1389 104.543 66.7132 104.543C63.2875 104.543 62.1456 109.682 57.0071 109.682C51.8685 109.682 51.8685 106.827 49.0137 104.543C46.159 102.259 39.8786 104.543 34.74 101.117C24.4629 94.2659 21.9887 86.0823 19.8952 79.9921C20.0856 81.5147 20.0095 83.6462 15.8986 84.5597C10.7601 85.7016 1.0539 66.2893 6.19245 61.1507Z" fill="white"/>
<path d="M14.7567 66.2893C13.6148 62.8636 10.3033 57.0399 6.19245 61.1507C1.0539 66.2893 10.7601 85.7016 15.8986 84.5597C20.0095 83.6462 20.0856 81.5147 19.8952 79.9921M19.8952 79.9921C16.4695 73.331 10.8742 57.6109 13.6148 52.5865C17.0405 46.306 36.4528 9.1942 62.1456 10.9071C87.8384 12.6199 104.967 47.4479 104.396 59.4379C103.939 69.0299 102.303 70.6666 101.541 70.286M19.8952 79.9921C21.9887 86.0823 24.4629 94.2659 34.74 101.117C39.8786 104.543 46.159 102.259 49.0137 104.543C51.8685 106.827 51.8685 109.682 57.0071 109.682C62.1456 109.682 63.2875 104.543 66.7132 104.543C70.1389 104.543 76.4194 103.972 79.8451 101.117C83.2708 98.2626 88.9803 94.2659 94.6898 82.2759M101.541 70.286C103.444 66.099 107.822 58.0676 110.105 59.4379C112.96 61.1507 118.099 64.0055 111.247 75.9955C104.396 87.9854 96.9736 85.7016 94.6898 82.2759M101.541 70.286L94.6898 82.2759" stroke="black" stroke-width="2" stroke-linecap="round" stroke-linejoin="round"/>
<path d="M4.47932 26.8939C-6.02618 40.14 9.99851 64.0057 16.4693 71.999C9.61788 56.0124 22.3691 50.8739 29.6012 50.3029C26.4038 37.0568 30.9334 28.4165 33.5978 25.752C30.4005 36.7143 34.93 45.9256 37.5945 49.161C33.4836 36.3717 38.1654 24.4198 41.0202 20.0425C38.2796 28.721 42.1621 43.8321 44.4459 50.3029H71.8515C77.7894 42.0812 78.5126 27.8455 78.132 21.7554C83.6131 28.6068 80.4158 42.8806 78.132 49.161C84.5266 39.1123 85.7447 26.7036 85.5544 21.7554C89.2084 27.2365 87.0769 44.5934 85.5544 52.5867C107.022 53.5002 102.493 67.8121 97.5443 74.8538C117.528 56.5834 121.524 43.4515 115.815 28.0358C110.105 12.6201 76.4191 3.48492 68.9968 1.77207C63.0589 0.401787 57.3874 6.14936 55.294 9.19443C52.6295 6.72031 46.3871 1.77207 42.733 1.77207C38.1654 1.77207 17.6112 10.3363 4.47932 26.8939Z" fill="black" stroke="black" stroke-width="2" stroke-linecap="round" stroke-linejoin="round"/>
<path d="M52.4393 83.9888C52.249 82.6566 53.0102 79.9922 57.5778 79.9922C60.4326 79.9922 62.5261 82.6566 61.5745 83.9888" stroke="black" stroke-width="2" stroke-linecap="round" stroke-linejoin="round"/>
<path d="M45.0166 93.6953C50.9164 94.2662 63.7438 94.723 67.8546 91.9824" stroke="black" stroke-width="2" stroke-linecap="round" stroke-linejoin="round"/>
<path d="M61.0034 93.6953C61.1937 95.0275 60.6608 97.692 57.0067 97.692C53.3526 97.692 52.0585 95.0275 51.8682 93.6953" stroke="black" stroke-width="2" stroke-linecap="round" stroke-linejoin="round"/>
<path d="M68.9971 64.006C68.4262 62.4834 70.9384 59.8951 85.5547 61.7222" stroke="black" stroke-width="2" stroke-linecap="round" stroke-linejoin="round"/>
<path d="M46.7294 64.0636C47.3004 62.541 44.7882 59.9527 30.1719 61.7798" stroke="black" stroke-width="2" stroke-linecap="round" stroke-linejoin="round"/>
<path d="M38.1654 67.4312C34.9681 67.4312 34.93 63.6248 35.3106 61.7217H42.1621C42.1621 64.5764 42.162 67.4312 38.1654 67.4312Z" fill="black" stroke="black" stroke-width="2" stroke-linecap="round" stroke-linejoin="round"/>
<path d="M75.4418 66.8609C72.2444 66.8609 72.2064 63.0545 72.587 61.1514H79.4385C79.4385 64.0061 79.4384 66.8609 75.4418 66.8609Z" fill="black" stroke="black" stroke-width="2" stroke-linecap="round" stroke-linejoin="round"/>
</svg>
