<?xml version="1.0" encoding="utf-8"?>
<!-- Generator: Adobe Illustrator 28.1.0, SVG Export Plug-In . SVG Version: 6.00 Build 0)  -->
<svg version="1.1" id="Livello_1" xmlns="http://www.w3.org/2000/svg" xmlns:xlink="http://www.w3.org/1999/xlink" x="0px" y="0px"
	 viewBox="0 0 122 140" style="enable-background:new 0 0 122 140;" xml:space="preserve">
<style type="text/css">
	.st0{fill:#FFFFFF;stroke:#828282;stroke-width:2;}
	.st1{fill:#828282;stroke:#828282;stroke-miterlimit:10;}
	.st2{fill:none;stroke:#828282;stroke-width:2;stroke-linejoin:round;}
	.st3{fill:#828282;stroke:#828282;stroke-width:2;}
	.st4{fill:none;stroke:#828282;stroke-width:2;}
</style>
<path class="st0" d="M59.3,3C7.7,2.6,6.8,56.9,13.7,84.1c0,6.6-0.4,22.3,7.4,30.4c9.7,10.1,28,23.6,38.3,23.6
	c10.3,0,29.7-12.9,39.4-23.6c9.7-10.7,8.6-26.5,8.6-30.4C107.2,80.1,123.8,3.6,59.3,3z"/>
<path class="st1" d="M32.2,49.3c-2.7,10.8-13.3,24.1-17.7,29.3C8.8,60.6,0.3,2,61.9,2c52.2,0,53,50.2,46.9,76.7
	c-5.5-2.8-17-12.6-18.9-29.3c-2.3-20.9-6.9-37.8-30.9-37.2C35.1,12.7,35.6,35.8,32.2,49.3z"/>
<path class="st2" d="M58,92.8c-2.2-2.1-4.9-2.6-6.3,0c-1.9,3.4,4.8,7,9.2,8.5c3.8-1.7,10-4.9,8.6-8.5c-1.4-3.6-4.8-1.5-6.3,0
	 M14.5,78.7c4.4-5.3,14.9-18.5,17.7-29.3c3.4-13.5,2.9-36.7,26.9-37.2c24-0.6,28.6,16.4,30.9,37.2c1.8,16.7,13.3,26.5,18.9,29.3
	C114.9,52.2,114.1,2,61.9,2C0.3,2,8.8,60.6,14.5,78.7z"/>
<path class="st0" d="M51.1,73.9c0,5.5-5,10.2-11.3,10.2s-11.3-4.6-11.3-10.2s5-10.2,11.3-10.2S51.1,68.4,51.1,73.9z"/>
<path class="st3" d="M46.6,57.2c0,0.1-0.1,0.4-0.6,0.7c-0.5,0.3-1.3,0.5-2.3,0.5c-0.9,0-1.7-0.2-2.3-0.5c-0.6-0.3-0.6-0.6-0.6-0.7
	c0-0.1,0.1-0.4,0.6-0.7c0.5-0.3,1.3-0.5,2.3-0.5c0.9,0,1.7,0.2,2.3,0.5C46.5,56.8,46.6,57.1,46.6,57.2z"/>
<ellipse class="st1" cx="40.4" cy="73.4" rx="3.9" ry="3.9"/>
<path class="st3" d="M80.1,57.2c0,0.1-0.1,0.4-0.6,0.7c-0.5,0.3-1.3,0.5-2.3,0.5c-0.9,0-1.7-0.2-2.3-0.5c-0.6-0.3-0.6-0.6-0.6-0.7
	c0-0.1,0.1-0.4,0.6-0.7c0.5-0.3,1.3-0.5,2.3-0.5c0.9,0,1.7,0.2,2.3,0.5C80,56.8,80.1,57.1,80.1,57.2z"/>
<path class="st0" d="M92.4,73.9c0,5.5-5,10.2-11.3,10.2c-6.3,0-11.3-4.6-11.3-10.2s5-10.2,11.3-10.2C87.5,63.7,92.4,68.4,92.4,73.9z
	"/>
<ellipse class="st1" cx="80.6" cy="73.4" rx="3.9" ry="3.9"/>
<path class="st0" d="M1.3,73.4c0-13,7.4-12.8,11.2-11.2l1.2,21.2C9,85.1,1.3,86.3,1.3,73.4z"/>
<path class="st0" d="M120.9,75.3c0-13-7.4-12.8-11.2-11.2l-2.2,22.7C112.1,88.4,120.9,88.2,120.9,75.3z"/>
<path class="st2" d="M50.4,112.4H56 M71.6,112.4h-5.5 M66.2,112.4l-2.3-5.6l-2.8,2.8l-2.8-2.8l-2.2,5.6 M66.2,112.4H56"/>
<path class="st4" d="M58.2,20.9c-3.9,0.4-11.1,3.6-8.4,13.4"/>
<path class="st4" d="M66.6,23.7c2.2,0.7,6.4,4.9,5,15.6"/>
<path class="st2" d="M62.1,23.1C58,24.8,51.8,31,59.4,42.6"/>
</svg>
