<svg width="122" height="140" viewBox="0 0 122 140" fill="none" xmlns="http://www.w3.org/2000/svg">
<path d="M59.2834 3.00278C7.66375 2.55241 6.82268 56.8595 13.6748 84.0694C13.6748 90.6565 13.2597 106.363 21.0254 114.469C30.7327 124.603 49.0051 138.114 59.2834 138.114C69.5616 138.114 88.976 125.166 98.6833 114.469C108.39 103.773 107.248 88.0102 107.248 84.0694C107.248 80.1286 123.808 3.56575 59.2834 3.00278Z" fill="white" stroke="black" stroke-width="2"/>
<path d="M32.1932 49.3468C29.4497 60.1794 18.8833 73.4193 14.5014 78.6851C8.7859 60.6308 0.274997 1.9541 61.9403 1.9541C114.115 1.9541 114.904 52.1678 108.808 78.6851C103.283 75.8641 91.7754 66.0471 89.9464 49.3468C87.6602 28.4714 83.0878 11.5455 59.0825 12.1097C35.0773 12.6739 35.6225 35.806 32.1932 49.3468Z" fill="black"/>
<path d="M57.9793 92.7901C55.8172 90.6539 53.1145 90.1921 51.6524 92.7901C49.7108 96.2399 56.4773 99.7603 60.8592 101.265C64.6696 99.5722 70.8663 96.401 69.4946 92.7901C68.1228 89.1792 64.7316 91.2856 63.2075 92.7901M14.5014 78.6851C18.8833 73.4193 29.4497 60.1794 32.1932 49.3468C35.6225 35.806 35.0773 12.6739 59.0825 12.1097C83.0878 11.5455 87.6602 28.4714 89.9464 49.3468C91.7754 66.0471 103.283 75.8641 108.808 78.6851C114.904 52.1678 114.115 1.9541 61.9403 1.9541C0.274997 1.9541 8.7859 60.6308 14.5014 78.6851Z" stroke="black" stroke-width="2" stroke-linejoin="round"/>
<path d="M51.093 73.9096C51.093 79.4368 46.133 84.076 39.8092 84.076C33.4854 84.076 28.5254 79.4368 28.5254 73.9096C28.5254 68.3824 33.4854 63.7432 39.8092 63.7432C46.133 63.7432 51.093 68.3824 51.093 73.9096Z" fill="white" stroke="black" stroke-width="2"/>
<path d="M46.6265 57.16C46.6265 57.263 46.5444 57.5517 45.9857 57.871C45.4552 58.1741 44.6556 58.3933 43.7181 58.3933C42.7805 58.3933 41.9809 58.1741 41.4505 57.871C40.8917 57.5517 40.8096 57.263 40.8096 57.16C40.8096 57.0571 40.8917 56.7684 41.4505 56.4491C41.9809 56.146 42.7805 55.9268 43.7181 55.9268C44.6556 55.9268 45.4552 56.146 45.9857 56.4491C46.5444 56.7684 46.6265 57.0571 46.6265 57.16Z" fill="black" stroke="black" stroke-width="2"/>
<ellipse cx="40.3684" cy="73.3516" rx="3.90848" ry="3.90825" fill="black"/>
<path d="M80.1275 57.16C80.1275 57.263 80.0454 57.5517 79.4866 57.871C78.9562 58.1741 78.1566 58.3933 77.219 58.3933C76.2815 58.3933 75.4819 58.1741 74.9514 57.871C74.3927 57.5517 74.3105 57.263 74.3105 57.16C74.3105 57.0571 74.3927 56.7684 74.9514 56.4491C75.4819 56.146 76.2815 55.9268 77.219 55.9268C78.1566 55.9268 78.9562 56.146 79.4866 56.4491C80.0454 56.7684 80.1275 57.0571 80.1275 57.16Z" fill="black" stroke="black" stroke-width="2"/>
<path d="M92.4114 73.9096C92.4114 79.4368 87.4513 84.076 81.1276 84.076C74.8038 84.076 69.8438 79.4368 69.8438 73.9096C69.8438 68.3824 74.8038 63.7432 81.1276 63.7432C87.4513 63.7432 92.4114 68.3824 92.4114 73.9096Z" fill="white" stroke="black" stroke-width="2"/>
<ellipse cx="80.5696" cy="73.3516" rx="3.90848" ry="3.90825" fill="black"/>
<path d="M1.2832 73.3514C1.2832 60.3983 8.72793 60.51 12.4503 62.1849L13.6751 83.3984C9.02215 85.0733 1.2832 86.3044 1.2832 73.3514Z" fill="white" stroke="black" stroke-width="2"/>
<path d="M120.879 75.2537C120.879 62.3007 113.434 62.4123 109.712 64.0873L107.478 86.7483C112.131 88.4233 120.879 88.2068 120.879 75.2537Z" fill="white" stroke="black" stroke-width="2"/>
<path d="M50.418 112.434H56.0015M71.6355 112.434H66.16M66.16 112.434L63.8185 106.851L61.0267 109.642L58.2349 106.851L56.0015 112.434M66.16 112.434H56.0015" stroke="black" stroke-width="2" stroke-linejoin="round"/>
<path d="M58.2356 20.8662C54.3272 21.2384 47.1802 24.4395 49.8603 34.2659" stroke="black" stroke-width="2"/>
<path d="M66.6104 23.6582C68.8438 24.4026 72.9756 28.5714 71.6355 39.2912" stroke="black" stroke-width="2"/>
<path d="M62.1442 23.0996C58.0496 24.7746 51.7588 31.0278 59.3525 42.6409" stroke="black" stroke-width="2" stroke-linejoin="round"/>
</svg>
