<?xml version="1.0" encoding="utf-8"?>
<!-- Generator: Adobe Illustrator 28.1.0, SVG Export Plug-In . SVG Version: 6.00 Build 0)  -->
<svg version="1.1" id="Livello_1" xmlns="http://www.w3.org/2000/svg" xmlns:xlink="http://www.w3.org/1999/xlink" x="0px" y="0px"
	 viewBox="0 0 123 147" style="enable-background:new 0 0 123 147;" xml:space="preserve">
<style type="text/css">
	.st0{fill:#FFFFFF;}
	.st1{fill:none;stroke:#828282;stroke-width:2;stroke-linecap:round;stroke-linejoin:round;}
	.st2{fill:none;stroke:#828282;stroke-width:3;stroke-linecap:round;stroke-linejoin:round;}
	.st3{fill:#828282;}
	.st4{fill:none;stroke:#FFFFFF;stroke-linecap:round;stroke-linejoin:round;}
</style>
<path class="st0" d="M29.6,136.6c-16.2-6-16.8-17.4-18-23.5c-0.9-4.4-0.2-10.3,1.2-16.9c-8.4,0.6-13.8-7.8-9-21
	c3.8-10.6,8.8-7.6,10.8-4.8c0.7-21,9.6-34.3,48.1-35.5c30.8-1,44.5,19.2,47.5,29.5c-0.9,0.2-2.1,1.8-2.9,6c2.6-4,8.8-9,13.1,3
	c5.4,15-6.7,24.7-13.6,20.4c0.8,18.7-0.1,25.8-11.7,37.9c-12.6,13.2-26.5,10.2-30.1,10.2c-3.6,0-7.2,6.6-13.2,0
	C45.9,135.4,45.9,142.7,29.6,136.6z"/>
<path class="st1" d="M14.6,70.5c0.8,2.8,1.9,10.3,0,18c-0.7,2.7-1.3,5.3-1.8,7.8 M14.6,70.5c0.7-21,9.6-34.3,48.1-35.5
	c30.8-1,44.5,19.2,47.5,29.5c-0.9,0.2-2.1,1.8-2.9,6 M14.6,70.5c-2-2.8-7-5.8-10.8,4.8c-4.8,13.2,0.6,21.6,9,21 M12.8,96.3
	c-1.4,6.6-2.1,12.5-1.2,16.9c1.2,6,1.8,17.4,18,23.5c16.2,6,16.2-1.2,22.2,5.4c6,6.6,9.6,0,13.2,0c3.6,0,17.4,3,30.1-10.2
	c11.6-12.1,12.5-19.2,11.7-37.9 M107.3,70.5c-0.7,3.7-1.1,9.5-0.7,18c0.1,1.9,0.2,3.7,0.3,5.4 M107.3,70.5c2.6-4,8.8-9,13.1,3
	c5.4,15-6.7,24.7-13.6,20.4"/>
<path class="st2" d="M20.6,69.9c0.8,0.8,3.1,2.2,6,1.2c3.6-1.2,3.6-6,12.6-6c7.2,0,12.6,4,14.4,6"/>
<path class="st2" d="M101.2,69.9c-0.8,0.8-3.1,2.2-6,1.2c-3.6-1.2-3.6-6-12.6-6c-7.2,0-12.6,4-14.4,6"/>
<path class="st3" d="M59.2,6.8c1.7-1.3,3.4-2.5,5.1-3.6c2.8-1.8,6.6-1,8.4,1.8c5,1.5,12.3,5.6,15.6,12.6c7.3,1.3,11.9,5.9,12.1,13.8
	c4.5,0.7,12.1,4.7,9.6,14.4c4.3,3.6,11,14.2,3.3,20.4s-15.6-6-18.6-11.9c-2.8-1.1-5.4-2.8-7.2-4.4c-3.4,0.2-6.8-0.5-9-1.4
	c-7.6,6.4-16.1,6-20.4,4.5c-3-2.2-5.5-4.4-7.5-6.6c-5.2,0.3-9.3,0.1-12.4-0.6c-2.3,2.1-6.8,4.8-11.6,4.1c-1.6,2.1-4.2,4.6-7.1,6.1
	c0.2,5.2-1.4,15.2-9.6,13.8C1.6,68.5,4.2,56,6.6,50c-2.2-7.6,6.1-13.4,11.1-15.6C20.2,26,29,17.6,35,17.6
	C40.8,5.6,53.5,5.4,59.2,6.8z"/>
<path class="st4" d="M57.9,53.1c12.3-5.3,31.2-22,14.8-48.1 M57.9,53.1c-3-2.2-5.5-4.4-7.5-6.6 M57.9,53.1
	c4.3,1.5,12.8,1.9,20.4-4.5 M72.7,5L72.7,5c-1.8-2.9-5.6-3.7-8.4-1.8c-1.7,1.1-3.4,2.3-5.1,3.6 M72.7,5c5,1.5,12.3,5.6,15.6,12.6
	 M59.2,6.8C53.5,5.4,40.8,5.6,35,17.6 M59.2,6.8c-12.1,9.5-22.3,24.5-8.8,39.7 M35,17.6c-5.9,12.3-11.4,25.1,3,28.3 M35,17.6
	c-6.1,0-14.8,8.4-17.4,16.8 M50.4,46.5c-5.2,0.3-9.3,0.1-12.4-0.6 M38,45.9c-2.3,2.1-6.8,4.8-11.6,4.1 M78.3,48.6
	c3.3-2.7,6.4-6.7,9-12.3c3.5-7.7,3.2-13.8,0.9-18.6 M78.3,48.6c2.3,0.9,5.6,1.6,9,1.4 M88.2,17.6c7.3,1.3,11.9,5.9,12.1,13.8
	 M100.3,31.4c0.1,2.8-0.4,6-1.5,9.6c-2,6.4-6.7,8.6-11.4,8.9 M100.3,31.4c4.5,0.7,12.1,4.7,9.6,14.4 M87.4,50
	c1.8,1.5,4.4,3.3,7.2,4.4 M109.9,45.9c-0.2,0.9-0.5,1.8-0.9,2.7c-3.1,7.7-9.2,7.8-14.4,5.8 M109.9,45.9c4.3,3.6,11,14.2,3.3,20.4
	s-15.6-6-18.6-11.9 M17.7,34.4c-1.3,4.1-1,8.3,1.7,11.4c2.2,2.6,4.7,3.8,7.1,4.1 M17.7,34.4c-5,2.1-13.2,7.9-11.1,15.6 M26.5,50
	c-1.6,2.1-4.2,4.6-7.1,6.1 M19.4,56.1c-3.8,2-8.1,2.2-11.4-3.1C7.3,52,6.9,51,6.6,50 M19.4,56.1c0.2,5.2-1.4,15.2-9.6,13.8
	C1.6,68.5,4.2,56,6.6,50"/>
<path class="st2" d="M27.2,77.7l4.8,2.4c2.4-3.4,8.8-8.2,15,0"/>
<path class="st2" d="M94.6,77.7l-4.8,2.4c-2.4-3.4-8.8-8.2-15,0"/>
<path class="st1" d="M51.3,93.4c-1.8,2-4.3,6.5,0,8.4c4.3,1.9,5.8-1.2,6-3c0.2,1,1.1,3,3,3c1.9,0,3.6-2,3.6-3c1.2,1.6,3,4.4,5.4,3
	c3-1.8,3-5.4,0.6-7.8"/>
<path class="st3" d="M54.9,109c-3,0.6-3,9.6-6.6,9.6c1,0.6,3.5,1.4,5.4,0c2.4-1.8,3.6-4.2,6-4.2c2.4,0,3,0,5.4,3
	c2.4,3,5.2,2,6.6,1.2c-4.2,0-3.6-9.6-6.6-9.6c-3,0-3,3.6-5.4,3.6C57.3,112.6,57.9,108.4,54.9,109z"/>
<path class="st1" d="M45.3,113.8c-0.2,1.6,0.1,4.8,3,4.8 M48.3,118.6c3.6,0,3.6-9,6.6-9.6c3-0.6,2.4,3.6,4.8,3.6
	c2.4,0,2.4-3.6,5.4-3.6c3,0,2.4,9.6,6.6,9.6 M48.3,118.6c1,0.6,3.5,1.4,5.4,0c2.4-1.8,3.6-4.2,6-4.2c2.4,0,3,0,5.4,3
	c2.4,3,5.2,2,6.6,1.2 M71.7,118.6c3.4,0,2.2-3.2,2.4-4.8"/>
<path class="st1" d="M24.2,71.1C23,78.1,24.1,92,38,91.6c12.1-0.4,15.2-6.5,15.6-12.6 M53.1,69.9c0.3,2.4,0.8,5.7,0.6,9 M53.7,78.9
	c1.4-1.8,5-5.4,7.8-5.4c2.9,0,5.6,3.6,6.6,5.4"/>
<path class="st1" d="M97.6,71.1c1.2,7,0.1,20.9-13.8,20.4c-12.1-0.4-15.2-6.5-15.6-12.6 M68.7,69.9c-0.3,2.4-0.8,5.7-0.6,9
	 M68.1,78.9c-1.4-1.8-5-5.4-7.8-5.4c-2.9,0-5.6,3.6-6.6,5.4"/>
<ellipse class="st3" cx="20.6" cy="76.5" rx="1.8" ry="1.8"/>
<ellipse class="st3" cx="20.6" cy="82.5" rx="1.8" ry="1.8"/>
<ellipse class="st3" cx="20.6" cy="88.5" rx="1.8" ry="1.8"/>
<ellipse class="st3" cx="20.6" cy="94.6" rx="1.8" ry="1.8"/>
<ellipse class="st3" cx="20.6" cy="100.6" rx="1.8" ry="1.8"/>
<ellipse class="st3" cx="20.6" cy="106.6" rx="1.8" ry="1.8"/>
<ellipse class="st3" cx="20.6" cy="112.6" rx="1.8" ry="1.8"/>
<ellipse class="st3" cx="20.6" cy="118.6" rx="1.8" ry="1.8"/>
<ellipse class="st3" cx="20.6" cy="124.6" rx="1.8" ry="1.8"/>
<ellipse class="st3" cx="19.4" cy="130.6" rx="1.8" ry="1.8"/>
<path class="st3" d="M18.8,136.6c0,1-0.8,1.8-1.8,1.8c-1,0-1.8-0.8-1.8-1.8c0-1,0.8-1.8,1.8-1.8C18,134.8,18.8,135.7,18.8,136.6z"/>
<ellipse class="st3" cx="13.4" cy="141.5" rx="1.8" ry="1.8"/>
<ellipse class="st3" cx="8.6" cy="137.9" rx="1.8" ry="1.8"/>
<ellipse class="st3" cx="7.4" cy="130.6" rx="1.8" ry="1.8"/>
<ellipse class="st3" cx="7.4" cy="124.6" rx="1.8" ry="1.8"/>
<ellipse class="st3" cx="7.4" cy="118.6" rx="1.8" ry="1.8"/>
<ellipse class="st3" cx="7.4" cy="112.6" rx="1.8" ry="1.8"/>
<ellipse class="st3" cx="7.4" cy="106.6" rx="1.8" ry="1.8"/>
<ellipse class="st3" cx="7.4" cy="100.6" rx="1.8" ry="1.8"/>
<circle class="st3" cx="103" cy="74.1" r="2"/>
<circle class="st3" cx="103" cy="80.6" r="2"/>
<circle class="st3" cx="103" cy="87.1" r="2"/>
<circle class="st3" cx="103" cy="93.7" r="2"/>
<circle class="st3" cx="103" cy="100.2" r="2"/>
<circle class="st3" cx="103" cy="106.7" r="2"/>
<circle class="st3" cx="103" cy="113.2" r="2"/>
<circle class="st3" cx="103" cy="119.8" r="2"/>
<circle class="st3" cx="103" cy="126.3" r="2"/>
<circle class="st3" cx="104.3" cy="132.8" r="2"/>
<circle class="st3" cx="106.9" cy="139.4" r="2"/>
<circle class="st3" cx="110.8" cy="144.6" r="2"/>
<circle class="st3" cx="114.7" cy="140.7" r="2"/>
<circle class="st3" cx="116" cy="132.8" r="2"/>
<circle class="st3" cx="116" cy="126.3" r="2"/>
<circle class="st3" cx="116" cy="119.8" r="2"/>
<circle class="st3" cx="116" cy="113.2" r="2"/>
<circle class="st3" cx="116" cy="106.7" r="2"/>
<circle class="st3" cx="116" cy="100.2" r="2"/>
</svg>
