<?xml version="1.0" encoding="utf-8"?>
<!-- Generator: Adobe Illustrator 28.1.0, SVG Export Plug-In . SVG Version: 6.00 Build 0)  -->
<svg version="1.1" id="Layer_1" xmlns="http://www.w3.org/2000/svg" xmlns:xlink="http://www.w3.org/1999/xlink" x="0px" y="0px"
	 viewBox="0 0 113 128" style="enable-background:new 0 0 113 128;" xml:space="preserve">
<style type="text/css">
	.st0{fill:#FFFFFF;stroke:#000000;stroke-width:2;stroke-linecap:round;stroke-linejoin:round;}
	.st1{stroke:#000000;}
	.st2{stroke:#000000;stroke-width:2;stroke-linecap:round;stroke-linejoin:round;}
	.st3{fill:none;stroke:#000000;stroke-width:2;}
	.st4{fill:none;stroke:#000000;stroke-width:2;stroke-linecap:round;stroke-linejoin:round;}
	.st5{fill:none;stroke:#000000;stroke-width:2.2912;stroke-linecap:round;stroke-linejoin:round;}
	.st6{stroke:#000000;stroke-width:2.2912;stroke-linecap:round;stroke-linejoin:round;}
</style>
<path class="st0" d="M12,60.9c-2.7,12.5-1,29.8,0.2,38.2c0.5,3.4,2.1,6.4,4.5,8.9l13.6,13.9c3.2,3.3,7.6,5.1,12.1,5.1h13
	c3,0,5.9-0.8,8.4-2.2l23-13.1c4.3-2.5,7.4-6.7,8.3-11.6c2.4-13.3,7.4-40.9,10-59.4c3.5-24.2-38.7-24.7-42-24.7c-0.1,0-0.3,0-0.4,0
	c-2.3,0-22.7,0-32.9,5.9C13.7,31.2,15.5,45,12,60.9z"/>
<path class="st1" d="M64.3,60.5l1-4l22,4V63L64.3,60.5z"/>
<path class="st1" d="M39.3,56.4l-0.1,4.1l-22.3,0.8L16.3,59L39.3,56.4z"/>
<path class="st2" d="M5.8,23.5C-4.7,36.7,4.3,71,10.8,79c3.5-27-1.5-29.3,15.1-29.3c0-10.7,7-24.6,7-24.6s2.4-4.7,7.4-5.7
	c-2.7,8.7,1.1,23.8,3.4,30.3h27.4h2.6h3.5h4h3.5c21.5,0.9,17,4.3,14.5,29.3c14-19,14.5-36.1,8.8-51.5C102.4,12.1,75.7,2.9,68.3,1.2
	c-5.9-1.4-11.6,4.4-13.7,7.4C51.9,6.2,45.7,1.2,42,1.2C37.5,1.2,18.9,6.9,5.8,23.5z"/>
<path class="st3" d="M44,88c1.7-3.8,6.4-9.1,12,0"/>
<path class="st4" d="M39,104.4c12.3,0,20.2,2.8,20.2-4.4"/>
<path class="st5" d="M61,69.7c-0.7-1.7,2.3-4.6,19-2.7"/>
<path class="st5" d="M40.5,69.7c0.7-1.7-2.3-4.6-19-2.7"/>
<path class="st6" d="M30.7,73.6c-3.7,0-3.7-4.4-3.3-6.5h7.8C35.3,70.3,35.3,73.6,30.7,73.6z"/>
<path class="st6" d="M68.4,72.9c-3.7,0-3.7-4.4-3.3-6.5H73C73,69.7,73,72.9,68.4,72.9z"/>
</svg>
