<svg width="124" height="181" viewBox="0 0 124 181" fill="none" xmlns="http://www.w3.org/2000/svg">
<g filter="url(#filter0_d_61_45)">
<path d="M40.1744 8.9045C50.9102 3.469 60.7782 7.40619 62.8703 10.0542C67.487 5.76693 80.6058 0.0389799 96.1475 11.4256C115.575 25.6588 112.798 70.6203 112.011 78.2282C111.224 85.8362 108.581 151.858 106.536 162.096C104.9 170.286 92.1231 171.595 85.4389 171.725C91.9368 166.088 89.1653 163.336 85.7076 158.641C82.25 153.946 43.7577 154.609 36.762 160.293C31.1655 164.84 35.1524 169.82 37.8454 171.742C26.04 174.365 21.5868 169.764 17.0865 164.666C12.5861 159.567 14.7507 133.134 13.478 82.5294C12.2052 31.9242 26.7548 15.6989 40.1744 8.9045Z" fill="black" stroke="black" stroke-linecap="round" stroke-linejoin="round"/>
<path d="M23.9849 71.4909C24.7865 62.9775 24.2686 59.5002 29.6349 55.8937L63.2214 56.2268C67.3157 53.4957 74.9095 43.8709 72.5304 27.2209C77.0307 32.3197 83.8587 46.033 75.1681 56.0964L99.7947 56.2774C104.195 58.5002 103.854 61.0205 104.457 67.3921C104.618 69.1008 104.509 71.3668 104.195 73.9458C105.885 72.7814 109.607 71.9271 110.968 77.825C112.67 85.1975 107.035 93.7664 100.644 90.3533C99.1409 95.4394 97.3923 100.057 95.7599 102.869C91.4416 110.309 79.0175 118.009 72.2841 121.157C68.0012 123.16 62.9754 122.64 55.3717 121.854L55.3642 121.853C47.7562 121.066 36.5805 111.16 30.8963 104.165C28.4678 101.176 26.0351 95.0848 25.2686 90.5489C14.7554 91.0414 13.2158 85.0657 14.8568 75.8702C16.1697 68.5139 21.4892 69.8855 23.9849 71.4909Z" fill="white"/>
<path d="M23.9849 71.4909C24.7865 62.9775 24.2686 59.5002 29.6349 55.8937L63.2214 56.2268C67.3157 53.4957 74.9095 43.8709 72.5304 27.2209C77.0307 32.3197 83.8587 46.033 75.1681 56.0964L99.7947 56.2774C104.195 58.5002 103.854 61.0205 104.457 67.3921C104.618 69.1008 104.509 71.3668 104.195 73.9458M23.9849 71.4909C21.4892 69.8855 16.1697 68.5139 14.8568 75.8702C13.2158 85.0657 14.7554 91.0414 25.2686 90.5489M23.9849 71.4909C23.411 77.5863 24.2409 84.4674 25.2686 90.5489M25.2686 90.5489C26.0351 95.0848 28.4678 101.176 30.8963 104.165C36.5805 111.16 47.7562 121.066 55.3642 121.853C62.9721 122.64 67.9998 123.161 72.2841 121.157C79.0175 118.009 91.4416 110.309 95.7599 102.869C97.3923 100.057 99.1409 95.4394 100.644 90.3533M104.195 73.9458C105.885 72.7814 109.607 71.9271 110.968 77.825C112.67 85.1975 107.035 93.7664 100.644 90.3533M104.195 73.9458C103.599 78.8439 102.264 84.8709 100.644 90.3533" stroke="black" stroke-width="2" stroke-linecap="round" stroke-linejoin="round"/>
<path d="M78.2896 66.8535C78.6461 65.3131 80.4636 62.2282 84.8817 62.2119C90.4043 62.1916 92.6309 64.492 93.4113 67.4316" stroke="black" stroke-width="2" stroke-linecap="round" stroke-linejoin="round"/>
<path d="M51.7259 67.7046C51.4942 66.1405 49.9301 62.9197 45.5276 62.5489C40.0244 62.0854 37.6203 64.1998 36.6066 67.0673" stroke="black" stroke-width="2" stroke-linecap="round" stroke-linejoin="round"/>
<path d="M90.0007 63.235L93.7474 60.3693" stroke="black" stroke-width="2" stroke-linecap="round" stroke-linejoin="round"/>
<path d="M40.3429 63.1573L36.8383 60.0001" stroke="black" stroke-width="2" stroke-linecap="round" stroke-linejoin="round"/>
<path d="M92.2273 65.5346L96.1154 64.1623" stroke="black" stroke-width="2" stroke-linecap="round" stroke-linejoin="round"/>
<path d="M37.9389 65.2719L34.1735 63.5919" stroke="black" stroke-width="2" stroke-linecap="round" stroke-linejoin="round"/>
<path d="M85.3998 67.6874C82.6122 67.9512 82.2337 64.304 82.3928 62.4474C87.1715 61.9952 89.124 62.8149 89.503 63.2813C89.2878 66.3151 88.8842 67.3577 85.3998 67.6874Z" fill="black" stroke="black" stroke-width="2" stroke-linecap="round" stroke-linejoin="round"/>
<path d="M44.5717 67.9647C47.3291 68.4513 47.9992 64.8462 47.9895 62.9828C43.2625 62.1486 41.2505 62.809 40.8354 63.2435C40.8064 66.2847 41.125 67.3564 44.5717 67.9647Z" fill="black" stroke="black" stroke-width="2" stroke-linecap="round" stroke-linejoin="round"/>
<path d="M64.6657 68.5126C65.9469 81.4879 68.3565 92.2323 59.7818 89.688M51.4469 102.842C53.4076 104.357 57.9189 105.556 60.2786 98.2321C60.9217 101.334 62.6098 105.538 64.2174 97.535C64.9625 100.788 67.5934 106.28 72.156 102.223" stroke="black" stroke-width="2" stroke-linecap="round" stroke-linejoin="round"/>
</g>
<defs>
<filter id="filter0_d_61_45" x="8.90005" y="4.25391" width="108.209" height="176.748" filterUnits="userSpaceOnUse" color-interpolation-filters="sRGB">
<feFlood flood-opacity="0" result="BackgroundImageFix"/>
<feColorMatrix in="SourceAlpha" type="matrix" values="0 0 0 0 0 0 0 0 0 0 0 0 0 0 0 0 0 0 127 0" result="hardAlpha"/>
<feOffset dy="4"/>
<feGaussianBlur stdDeviation="2"/>
<feComposite in2="hardAlpha" operator="out"/>
<feColorMatrix type="matrix" values="0 0 0 0 0 0 0 0 0 0 0 0 0 0 0 0 0 0 0.25 0"/>
<feBlend mode="normal" in2="BackgroundImageFix" result="effect1_dropShadow_61_45"/>
<feBlend mode="normal" in="SourceGraphic" in2="effect1_dropShadow_61_45" result="shape"/>
</filter>
</defs>
</svg>
