<svg width="124" height="181" viewBox="0 0 124 181" fill="none" xmlns="http://www.w3.org/2000/svg">
<g filter="url(#filter0_d_499_8259)">
<path d="M40.1744 8.9045C50.9101 3.469 60.7782 7.40619 62.8703 10.0542C67.4869 5.76693 80.6057 0.0389799 96.1475 11.4256C115.575 25.6588 112.798 70.6203 112.011 78.2282C111.224 85.8362 108.581 151.858 106.536 162.096C104.9 170.286 92.123 171.595 85.4389 171.725C91.9367 166.088 89.1653 163.336 85.7076 158.641C82.2499 153.946 43.7576 154.609 36.762 160.293C31.1655 164.84 35.1523 169.82 37.8453 171.742C26.04 174.365 21.5867 169.764 17.0864 164.666C12.5861 159.567 14.7507 133.134 13.4779 82.5294C12.2052 31.9242 26.7547 15.6989 40.1744 8.9045Z" fill="black" stroke="black" stroke-linecap="round" stroke-linejoin="round"/>
<path d="M23.9853 71.4909C24.7869 62.9775 24.269 59.5002 29.6353 55.8937L63.2218 56.2268C67.3161 53.4957 74.9099 43.8709 72.5308 27.2209C77.0311 32.3197 83.8591 46.033 75.1685 56.0964L99.795 56.2774C104.195 58.5002 103.854 61.0205 104.457 67.3921C104.619 69.1008 104.509 71.3668 104.195 73.9458C105.886 72.7814 109.607 71.9271 110.969 77.825C112.671 85.1975 107.035 93.7664 100.644 90.3533C99.1413 95.4394 97.3927 100.057 95.7603 102.869C91.442 110.309 79.0179 118.009 72.2845 121.157C68.0016 123.16 62.9758 122.64 55.3721 121.854L55.3646 121.853C47.7566 121.066 36.5809 111.16 30.8966 104.165C28.4682 101.176 26.0355 95.0848 25.269 90.5489C14.7558 91.0414 13.2162 85.0657 14.8572 75.8702C16.1701 68.5139 21.4896 69.8855 23.9853 71.4909Z" fill="white"/>
<path d="M23.9853 71.4909C24.7869 62.9775 24.269 59.5002 29.6353 55.8937L63.2218 56.2268C67.3161 53.4957 74.9099 43.8709 72.5308 27.2209C77.0311 32.3197 83.8591 46.033 75.1685 56.0964L99.795 56.2774C104.195 58.5002 103.854 61.0205 104.457 67.3921C104.619 69.1008 104.509 71.3668 104.195 73.9458M23.9853 71.4909C21.4896 69.8855 16.1701 68.5139 14.8572 75.8702C13.2162 85.0657 14.7558 91.0414 25.269 90.5489M23.9853 71.4909C23.4114 77.5863 24.2413 84.4674 25.269 90.5489M25.269 90.5489C26.0355 95.0848 28.4682 101.176 30.8966 104.165C36.5809 111.16 47.7566 121.066 55.3646 121.853C62.9725 122.64 68.0002 123.161 72.2845 121.157C79.0179 118.009 91.442 110.309 95.7603 102.869C97.3927 100.057 99.1413 95.4394 100.644 90.3533M104.195 73.9458C105.886 72.7814 109.607 71.9271 110.969 77.825C112.671 85.1975 107.035 93.7664 100.644 90.3533M104.195 73.9458C103.599 78.8439 102.264 84.8709 100.644 90.3533" stroke="black" stroke-width="2" stroke-linecap="round" stroke-linejoin="round"/>
<path d="M78.2895 66.8545C78.646 65.3141 80.4635 62.2291 84.8816 62.2129C90.4042 62.1925 92.6308 64.493 93.4112 67.4326" stroke="black" stroke-width="2" stroke-linecap="round" stroke-linejoin="round"/>
<path d="M51.7261 67.7046C51.4944 66.1405 49.9303 62.9197 45.5277 62.5489C40.0245 62.0854 37.6205 64.1998 36.6067 67.0673" stroke="black" stroke-width="2" stroke-linecap="round" stroke-linejoin="round"/>
<path d="M90.0011 63.235L93.7478 60.3693" stroke="black" stroke-width="2" stroke-linecap="round" stroke-linejoin="round"/>
<path d="M40.3429 63.1573L36.8382 60.0001" stroke="black" stroke-width="2" stroke-linecap="round" stroke-linejoin="round"/>
<path d="M92.227 65.5356L96.115 64.1632" stroke="black" stroke-width="2" stroke-linecap="round" stroke-linejoin="round"/>
<path d="M37.9385 65.2709L34.1732 63.591" stroke="black" stroke-width="2" stroke-linecap="round" stroke-linejoin="round"/>
<path d="M85.4001 67.6884C82.6126 67.9522 82.234 64.305 82.3931 62.4484C87.1718 61.9962 89.1243 62.8159 89.5033 63.2823C89.2881 66.3161 88.8845 67.3587 85.4001 67.6884Z" fill="black" stroke="black" stroke-width="2" stroke-linecap="round" stroke-linejoin="round"/>
<path d="M44.5715 67.9647C47.3289 68.4513 47.9989 64.8462 47.9893 62.9828C43.2623 62.1486 41.2503 62.809 40.8351 63.2435C40.8062 66.2847 41.1248 67.3564 44.5715 67.9647Z" fill="black" stroke="black" stroke-width="2" stroke-linecap="round" stroke-linejoin="round"/>
<path d="M64.6652 68.5116C65.9464 81.4869 68.356 92.2314 59.7813 89.687M51.4464 102.841C53.4071 104.356 57.9184 105.555 60.2781 98.2312C60.9212 101.333 62.6094 105.537 64.2169 97.534C64.962 100.787 67.5929 106.279 72.1555 102.222" stroke="black" stroke-width="2" stroke-linecap="round" stroke-linejoin="round"/>
</g>
<defs>
<filter id="filter0_d_499_8259" x="8.90039" y="4.25391" width="108.208" height="176.749" filterUnits="userSpaceOnUse" color-interpolation-filters="sRGB">
<feFlood flood-opacity="0" result="BackgroundImageFix"/>
<feColorMatrix in="SourceAlpha" type="matrix" values="0 0 0 0 0 0 0 0 0 0 0 0 0 0 0 0 0 0 127 0" result="hardAlpha"/>
<feOffset dy="4"/>
<feGaussianBlur stdDeviation="2"/>
<feComposite in2="hardAlpha" operator="out"/>
<feColorMatrix type="matrix" values="0 0 0 0 0 0 0 0 0 0 0 0 0 0 0 0 0 0 0.25 0"/>
<feBlend mode="normal" in2="BackgroundImageFix" result="effect1_dropShadow_499_8259"/>
<feBlend mode="normal" in="SourceGraphic" in2="effect1_dropShadow_499_8259" result="shape"/>
</filter>
</defs>
</svg>
