<svg width="160" height="168" viewBox="0 0 160 168" fill="none" xmlns="http://www.w3.org/2000/svg">
<path d="M24 131C17.5 155 2 155.5 2 155.5C2 155.5 18 166.5 27 162C36 157.5 40.5 150.5 52.5 152.5C64.5 154.5 75.9764 166.765 90 165.5C100.113 164.588 103.851 156.819 114 156.5C123.875 156.19 129.177 166.555 139 165.5C146.471 164.697 158.5 155.5 158.5 155.5C158.5 155.5 149.082 151.781 145.5 146C142.505 141.166 140.5 138.186 140.5 132.5C140.5 128 140.5 126.014 141.5 122C143.618 113.5 146.5 109.5 147.5 100C148.5 90.5 147.107 85.1848 145 76C142.22 63.8776 140.044 56.8686 135 45.5C129.723 33.6056 127 27 119.5 16C116.903 12.1913 115 10.5 112 8.5C106.341 4.72763 98.0988 10.0994 91.5 6.5C86 3.5 80.7549 1.99999 76 2C70 2.00001 66.2628 2.89386 61.5 6C50 13.5 43.8675 21.7651 37.5 34.5C30 49.5 27.4318 59 25.5 76C23 98 30.5 107 24 131Z" fill="black" stroke="black" stroke-width="3" stroke-linecap="round" stroke-linejoin="round"/>
<path d="M63.4999 42.5005C53.3963 58.7197 47.3733 70.5149 45.4999 88.0005C44 102 48 111.5 57.5 121.5C66.6461 131.128 76.2866 133.822 89.4999 132.5C98.8119 131.569 103.489 128.699 110.5 122.5C119.932 114.162 122.748 105.967 124.5 93.5005C125.397 87.1196 125.831 83.3051 124.5 77.0005C122.439 67.2363 111.5 55.0005 111.5 55.0005C111.5 55.0005 97.9604 39.0149 88.5 30.5004C83.5 26.0003 76.9999 27.7276 73 31.0004C69 34.2731 67.0525 36.7976 63.4999 42.5005Z" fill="white" stroke="black" stroke-width="3" stroke-linecap="round" stroke-linejoin="round"/>
<path d="M68 55.3259C68 55.3259 63.3356 54.5926 60.5 55.3259C58.6381 55.8074 56 57.3259 56 57.3259" stroke="black" stroke-width="2" stroke-linecap="round" stroke-linejoin="round"/>
<path d="M99 55C99 55 103.522 56.2674 106.5 56.5C108.447 56.6521 111.5 56.5 111.5 56.5" stroke="black" stroke-width="2" stroke-linecap="round" stroke-linejoin="round"/>
<path d="M52 67.3572C52 67.3572 63.0795 64.3035 67.5 67.3572C69.5967 68.8055 70 73 70 73" stroke="black" stroke-width="2" stroke-linecap="round" stroke-linejoin="round"/>
<ellipse cx="62" cy="69" rx="4" ry="3" fill="black"/>
<ellipse cx="106" cy="70" rx="4" ry="3" fill="black"/>
<path d="M98 73.5006C98 73.5006 97.4804 68.3405 100 67.5007C104.5 66.0006 111.5 67.5007 115.5 67.5007" stroke="black" stroke-width="2" stroke-linecap="round" stroke-linejoin="round"/>
<ellipse cx="79.3576" cy="100.983" rx="2.00603" ry="1.33735" transform="rotate(-21.6108 79.3576 100.983)" fill="black"/>
<ellipse cx="2.00603" cy="1.33735" rx="2.00603" ry="1.33735" transform="matrix(-0.929707 -0.3683 -0.3683 0.929707 92.4139 100.479)" fill="black"/>
<path d="M74 113.53C77 112.03 77.5 108.53 80.5 107.53C82.2078 106.961 84 109.556 84 109.556C84 109.556 85.5246 106.676 88 107.03C91.5 107.53 91.5 111.03 95.5 112.03" stroke="black" stroke-width="2" stroke-linecap="round" stroke-linejoin="round"/>
<path d="M80 112.525V114.999H89V112.525" stroke="black" stroke-width="2" stroke-linecap="round" stroke-linejoin="round"/>
</svg>
