<?xml version="1.0" encoding="utf-8"?>
<!-- Generator: Adobe Illustrator 28.1.0, SVG Export Plug-In . SVG Version: 6.00 Build 0)  -->
<svg version="1.1" id="Livello_1" xmlns="http://www.w3.org/2000/svg" xmlns:xlink="http://www.w3.org/1999/xlink" x="0px" y="0px"
	 viewBox="0 0 160 168" style="enable-background:new 0 0 160 168;" xml:space="preserve">
<style type="text/css">
	.st0{fill:#C00000;stroke:#C00000;stroke-width:3;stroke-linecap:round;stroke-linejoin:round;}
	.st1{fill:#FFFFFF;stroke:#C00000;stroke-width:3;stroke-linecap:round;stroke-linejoin:round;}
	.st2{fill:none;stroke:#C00000;stroke-width:2;stroke-linecap:round;stroke-linejoin:round;}
	.st3{fill:#C00000;stroke:#C00000;stroke-miterlimit:10;}
</style>
<path class="st0" d="M24,131c-6.5,24-22,24.5-22,24.5s16,11,25,6.5s13.5-11.5,25.5-9.5s23.5,14.3,37.5,13c10.1-0.9,13.9-8.7,24-9
	c9.9-0.3,15.2,10.1,25,9c7.5-0.8,19.5-10,19.5-10s-9.4-3.7-13-9.5c-3-4.8-5-7.8-5-13.5c0-4.5,0-6.5,1-10.5c2.1-8.5,5-12.5,6-22
	s-0.4-14.8-2.5-24c-2.8-12.1-5-19.1-10-30.5c-5.3-11.9-8-18.5-15.5-29.5c-2.6-3.8-4.5-5.5-7.5-7.5c-5.7-3.8-13.9,1.6-20.5-2
	C86,3.5,80.8,2,76,2c-6,0-9.7,0.9-14.5,4c-11.5,7.5-17.6,15.8-24,28.5C30,49.5,27.4,59,25.5,76C23,98,30.5,107,24,131z"/>
<path class="st1" d="M63.5,42.5c-10.1,16.2-16.1,28-18,45.5c-1.5,14,2.5,23.5,12,33.5c9.1,9.6,18.8,12.3,32,11c9.3-0.9,14-3.8,21-10
	c9.4-8.3,12.2-16.5,14-29c0.9-6.4,1.3-10.2,0-16.5c-2.1-9.8-13-22-13-22S98,39,88.5,30.5C83.5,26,77,27.7,73,31
	C69,34.3,67.1,36.8,63.5,42.5z"/>
<path class="st2" d="M68,55.3c0,0-4.7-0.7-7.5,0c-1.9,0.5-4.5,2-4.5,2"/>
<path class="st2" d="M99,55c0,0,4.5,1.3,7.5,1.5c1.9,0.2,5,0,5,0"/>
<path class="st2" d="M52,67.4c0,0,11.1-3.1,15.5,0C69.6,68.8,70,73,70,73"/>
<ellipse class="st3" cx="62" cy="69" rx="4" ry="3"/>
<ellipse class="st3" cx="106" cy="70" rx="4" ry="3"/>
<path class="st2" d="M98,73.5c0,0-0.5-5.2,2-6c4.5-1.5,11.5,0,15.5,0"/>
<ellipse transform="matrix(0.9297 -0.3683 0.3683 0.9297 -31.6134 36.3257)" class="st3" cx="79.4" cy="101" rx="2" ry="1.3"/>
<ellipse transform="matrix(0.3683 -0.9297 0.9297 0.3683 -36.9954 147.5168)" class="st3" cx="90.1" cy="101" rx="1.3" ry="2"/>
<path class="st2" d="M74,113.5c3-1.5,3.5-5,6.5-6c1.7-0.6,3.5,2,3.5,2s1.5-2.9,4-2.5c3.5,0.5,3.5,4,7.5,5"/>
<path class="st2" d="M80,112.5v2.5h9v-2.5"/>
</svg>
