<?xml version="1.0" encoding="utf-8"?>
<!-- Generator: Adobe Illustrator 28.1.0, SVG Export Plug-In . SVG Version: 6.00 Build 0)  -->
<svg version="1.1" id="Livello_1" xmlns="http://www.w3.org/2000/svg" xmlns:xlink="http://www.w3.org/1999/xlink" x="0px" y="0px"
	 viewBox="0 0 113 141" style="enable-background:new 0 0 113 141;" xml:space="preserve">
<style type="text/css">
	.st0{fill:#FFFFFF;}
	.st1{fill:none;stroke:#C00000;stroke-width:2;stroke-linecap:round;stroke-linejoin:round;}
	.st2{fill:#C00000;stroke:#C00000;stroke-linecap:round;stroke-linejoin:round;}
	.st3{fill:#C00000;}
	.st4{fill:#C00000;stroke:#C00000;stroke-width:2;stroke-linecap:round;stroke-linejoin:round;}
</style>
<path class="st0" d="M24.9,125.1c-7.7-9.5-8.2-17.1-10.3-29.2c-0.4-2.4-0.7-5-0.8-7.7c-3.4,2-10.6,3.2-11.9-8.6
	C0.3,64.9,0.3,63.8,6.1,61.7c4.6-1.7,7.6,1,8.5,2.6c0.9-9,2.2-15.8,2.2-15.8S45.5,22,65.8,27C78.7,30.2,96,46.2,96,46.2
	s1.6,8.1,2.7,18.1c4.1-2.6,12.5-5.2,12.9,5.3c0.5,13.2-2,21.1-7.4,21.1c-4.3,0-5.1-2.4-5-3.7c-1.5,14.3-2.2,21.5-11.9,35.9
	c-8.1,12-18.5,17.3-32.9,17.1C41.2,139.8,33.5,135.6,24.9,125.1z"/>
<path class="st1" d="M99.3,87c-1.5,14.3-2.2,21.5-11.9,35.9c-8.1,12-18.5,17.3-32.9,17.1c-13.4-0.2-21.1-4.4-29.6-14.9
	c-7.7-9.5-8.2-17.1-10.3-29.2c-0.4-2.4-0.7-5-0.8-7.7 M99.3,87c0.7-7,0.3-15.4-0.5-22.8 M99.3,87c-0.1,1.2,0.7,3.7,5,3.7
	c5.4,0,7.9-7.9,7.4-21.1c-0.4-10.6-8.8-7.9-12.9-5.3 M13.8,88.3c-3.4,2-10.6,3.2-11.9-8.6C0.3,64.9,0.3,63.8,6.1,61.7
	c4.6-1.7,7.6,1,8.5,2.6 M13.8,88.3c-0.5-7.9,0.1-16.7,0.8-24 M14.6,64.3c0.9-9,2.2-15.8,2.2-15.8S45.5,22,65.8,27
	C78.7,30.2,96,46.2,96,46.2s1.6,8.1,2.7,18.1"/>
<path class="st2" d="M67.7,63.6l-1.1,2.5h21l-17.7-6.6L67.7,63.6z"/>
<path class="st2" d="M40.1,62.5l1.1,2.5h-21l17.7-6.6L40.1,62.5z"/>
<path class="st1" d="M22.4,75.2c0,0,19-4.6,20.4,3.3c0.3,1.5,0,3.3,0,3.3"/>
<path class="st1" d="M87.6,75.4c0,0-19-4.6-20.4,3.3c-0.3,1.5,0,3.3,0,3.3"/>
<circle class="st3" cx="33.5" cy="77.7" r="3.9"/>
<circle class="st3" cx="74.8" cy="77.7" r="3.9"/>
<path class="st1" d="M48.9,101.9c0,0,3-5.1,6.1-5c2.9,0.1,5.5,5,5.5,5"/>
<path class="st1" d="M44.4,114.1l-4.3-2.4c0,0,7.1,9.5,14.1,9.6c6.3,0,13.5-7.6,13.5-7.6l-3.8,1.4c0,0-2-4.7-4.9-4.8
	c-2.4,0-4.9,3.3-4.9,3.3s-1.7-3-3.8-3.3C47.5,109.7,44.4,114.1,44.4,114.1z"/>
<path class="st4" d="M105.1,32.3c4.7,11.2,4.6,31,4.6,31s-3.7-2.7-5.7-2.7c-2.5,0-4.8,4.4-4.8,4.4l-7.9-24.9l-5.8,7.2l-4.8-10
	l-4.2,9.4l-4.2-6.6l-3.7,7.2l-4.2-7.2l-4.8,7.8l-4.8-7.8l-2.1,6.6l-4.2-6.6l-4.2,7.2l-5.3-8.3l-2.1,8.3l-6.9-7.2l-1.1,7.8l-4.2-7.8
	c0,0-3.2,4.5-4.8,7.8C16.2,55.1,15,68.3,15,68.3s-2.1-6-5.3-6.6C4.2,60.5,1.5,65,1.5,65S1.8,48.3,5,37.3c7.4-26.1,29.1-38.4,55.1-36
	C81,3.2,96.6,12.1,105.1,32.3z"/>
</svg>
