<svg width="108" height="165" viewBox="0 0 108 165" fill="none" xmlns="http://www.w3.org/2000/svg">
<path d="M10.9117 18.0478C1.16127 30 4.2466 57 4.24663 66.9251C17.5768 94.6963 100.931 90.7343 102.446 66.9251C104 42.5 108.666 25.8237 87.5602 8.60561C70.6753 -5.16888 52.3834 2.86624 45.348 8.60561C40.7195 4.71765 24.6862 1.16292 10.9117 18.0478Z" fill="black" stroke="black" stroke-linecap="round" stroke-linejoin="round"/>
<path d="M36.9599 133.111L20.581 113.222C18.9745 111.271 17.887 108.946 17.4192 106.463L14.6273 91.6419C8.90073 98.0293 -1.30761 89.6979 1.4695 75.2569C3.6912 63.7041 9.57104 67.481 12.2332 70.8135L11.4671 64.1484C10.7266 49.3372 16.3549 19.6035 53.6793 19.1591C91.0038 18.7148 97.3727 48.9669 94.7807 64.1484L93.5358 72.4798C98.0239 67.9438 107 62.1489 107 75.2569C107 91.6419 93.5358 98.0293 90.548 92.475L88.2092 106.388C87.7836 108.919 86.7156 111.299 85.1074 113.3L69.2911 132.974C66.4439 136.515 62.1447 138.575 57.6005 138.575H48.5389C44.0567 138.575 39.8093 136.571 36.9599 133.111Z" fill="white"/>
<path d="M12.2332 70.8135L11.4672 64.1484C10.7266 49.3372 16.3549 19.6035 53.6793 19.1591C91.0038 18.7148 97.3727 48.9669 94.7807 64.1484L93.5358 72.4798M12.2332 70.8135C9.57104 67.481 3.6912 63.7041 1.4695 75.2569C-1.30761 89.6979 8.90073 98.0293 14.6273 91.6419M12.2332 70.8135L14.6273 91.6419M14.6273 91.6419L17.4192 106.463C17.887 108.946 18.9745 111.271 20.581 113.222L36.9599 133.111C39.8093 136.571 44.0567 138.575 48.5389 138.575H57.6005C62.1447 138.575 66.4439 136.515 69.2911 132.974L85.1074 113.3C86.7156 111.299 87.7836 108.919 88.2092 106.388L90.548 92.475M93.5358 72.4798C98.0239 67.9438 107 62.1489 107 75.2569C107 91.6419 93.5358 98.0293 90.548 92.475M93.5358 72.4798L90.548 92.475" stroke="black" stroke-width="2" stroke-linecap="round" stroke-linejoin="round"/>
<path d="M86.4494 73.2578L83.6722 74.9241" stroke="black" stroke-width="2" stroke-linecap="round" stroke-linejoin="round"/>
<path d="M21.4648 73.2578L24.2419 74.9241" stroke="black" stroke-width="2" stroke-linecap="round" stroke-linejoin="round"/>
<path d="M82.0059 69.3691L80.3397 72.1463" stroke="black" stroke-width="2" stroke-linecap="round" stroke-linejoin="round"/>
<path d="M25.9081 69.3691L27.5744 72.1463" stroke="black" stroke-width="2" stroke-linecap="round" stroke-linejoin="round"/>
<path d="M93.1144 76.9228C96.6321 74.516 103.001 72.9238 100.335 85.8096C97.0023 101.917 90.8927 109.693 97.5578 110.804C104.223 111.915 110.333 98.029 100.335 98.5844" stroke="black" stroke-width="2" stroke-linecap="round" stroke-linejoin="round"/>
<path d="M13.963 76.9014C10.4453 74.4945 4.07647 72.9023 6.74251 85.7881C10.075 101.895 16.1847 109.671 9.51962 110.782C2.85454 111.893 -3.25512 98.0075 6.74251 98.5629" stroke="black" stroke-width="2" stroke-linecap="round" stroke-linejoin="round"/>
<path d="M39.8796 115.862H69.8725M39.8796 115.862C44.323 117.64 47.2227 123.194 53.8418 123.194C60.461 123.194 65.9845 116.529 69.8725 115.862M39.8796 115.862C44.323 114.863 48.0501 110.975 53.8418 110.975C59.6336 110.975 64.8737 115.418 69.8725 115.862" stroke="black" stroke-width="2" stroke-linecap="round" stroke-linejoin="round"/>
<path d="M61.0196 100.977C62.0114 102.331 60.9905 103.575 59.9178 104.401C59.0262 105.087 57.7974 104.708 57.2012 103.754L56.6715 102.906C56.0905 101.977 54.7575 101.92 54.0999 102.797L53.5716 103.502C52.9949 104.27 51.7843 104.026 51.5512 103.094V103.094C51.3277 102.2 50.1917 101.925 49.585 102.619L48.2335 104.163C47.5826 104.907 46.4998 105.144 45.7226 104.534C44.6774 103.712 43.6366 102.405 44.9123 100.977" stroke="black" stroke-width="2" stroke-linecap="round" stroke-linejoin="round"/>
<path d="M84.783 76.5896C83.3019 74.1828 79.0066 69.3691 73.6746 69.3691C67.0095 69.3691 64.7878 72.1463 62.5661 76.5896" stroke="black" stroke-width="2" stroke-linecap="round" stroke-linejoin="round"/>
<path d="M22.8937 77.0154C24.3748 74.6086 28.6701 69.7949 34.0021 69.7949C40.6672 69.7949 42.8889 72.572 45.1106 77.0154" stroke="black" stroke-width="2" stroke-linecap="round" stroke-linejoin="round"/>
<ellipse cx="73.6746" cy="74.368" rx="5.55424" ry="4.99881" fill="black"/>
<ellipse cx="5.55424" cy="4.99881" rx="5.55424" ry="4.99881" transform="matrix(-1 0 0 1 39.5564 69.7949)" fill="black"/>
<path d="M64.7878 63.2607C69.046 62.5201 80.6729 61.4833 84.2276 63.2607C87.7823 65.038 87.5601 66.9635 87.0047 67.704" stroke="black" stroke-width="2" stroke-linecap="round" stroke-linejoin="round"/>
<path d="M42.8889 63.6864C38.6307 62.9459 27.0038 61.9091 23.4491 63.6864C19.8944 65.4638 20.1166 67.3893 20.672 68.1298" stroke="black" stroke-width="2" stroke-linecap="round" stroke-linejoin="round"/>
<circle cx="30.4375" cy="137.078" r="2.77712" fill="black"/>
<circle cx="31.5483" cy="148.187" r="2.77712" fill="black"/>
<circle cx="37.1026" cy="158.183" r="2.77712" fill="black"/>
<circle cx="47.1002" cy="161.517" r="2.77712" fill="black"/>
<circle cx="58.2086" cy="161.517" r="2.77712" fill="black"/>
<circle cx="68.2063" cy="157.074" r="2.77712" fill="black"/>
<circle cx="74.8714" cy="148.187" r="2.77712" fill="black"/>
<circle cx="75.9822" cy="137.078" r="2.77712" fill="black"/>
</svg>
