<svg width="108" height="165" viewBox="0 0 108 165" fill="none" xmlns="http://www.w3.org/2000/svg">
<path d="M10.9118 18.0478C1.16133 30 4.24666 57 4.2467 66.9251C17.5768 94.6963 100.931 90.7343 102.446 66.9251C104 42.5 108.666 25.8237 87.5602 8.60561C70.6754 -5.16888 52.3834 2.86624 45.348 8.60561C40.7195 4.71765 24.6863 1.16292 10.9118 18.0478Z" fill="black" stroke="black" stroke-linecap="round" stroke-linejoin="round"/>
<path d="M36.9599 133.111L20.581 113.222C18.9745 111.271 17.887 108.946 17.4192 106.463L14.6273 91.6419C8.90073 98.0293 -1.30761 89.6979 1.4695 75.2569C3.6912 63.7041 9.57104 67.481 12.2332 70.8135L11.4671 64.1484C10.7266 49.3372 16.3549 19.6035 53.6793 19.1591C91.0038 18.7148 97.3727 48.9669 94.7807 64.1484L93.5358 72.4798C98.0239 67.9438 107 62.1489 107 75.2569C107 91.6419 93.5358 98.0293 90.548 92.475L88.2092 106.388C87.7836 108.919 86.7156 111.299 85.1074 113.3L69.2911 132.974C66.4439 136.515 62.1447 138.575 57.6005 138.575H48.5389C44.0567 138.575 39.8093 136.571 36.9599 133.111Z" fill="white"/>
<path d="M12.2332 70.8135L11.4672 64.1484C10.7266 49.3372 16.3549 19.6035 53.6793 19.1591C91.0038 18.7148 97.3727 48.9669 94.7807 64.1484L93.5358 72.4798M12.2332 70.8135C9.57104 67.481 3.6912 63.7041 1.4695 75.2569C-1.30761 89.6979 8.90073 98.0293 14.6273 91.6419M12.2332 70.8135L14.6273 91.6419M14.6273 91.6419L17.4192 106.463C17.887 108.946 18.9745 111.271 20.581 113.222L36.9599 133.111C39.8093 136.571 44.0567 138.575 48.5389 138.575H57.6005C62.1447 138.575 66.4439 136.515 69.2911 132.974L85.1074 113.3C86.7156 111.299 87.7836 108.919 88.2092 106.388L90.548 92.475M93.5358 72.4798C98.0239 67.9438 107 62.1489 107 75.2569C107 91.6419 93.5358 98.0293 90.548 92.475M93.5358 72.4798L90.548 92.475" stroke="black" stroke-width="2" stroke-linecap="round" stroke-linejoin="round"/>
<path d="M86.449 73.2578L83.6719 74.9241" stroke="black" stroke-width="2" stroke-linecap="round" stroke-linejoin="round"/>
<path d="M21.4651 73.2578L24.2422 74.9241" stroke="black" stroke-width="2" stroke-linecap="round" stroke-linejoin="round"/>
<path d="M82.0061 69.3701L80.3398 72.1472" stroke="black" stroke-width="2" stroke-linecap="round" stroke-linejoin="round"/>
<path d="M25.9079 69.3701L27.5742 72.1472" stroke="black" stroke-width="2" stroke-linecap="round" stroke-linejoin="round"/>
<path d="M93.1143 76.9228C96.6319 74.516 103.001 72.9238 100.335 85.8096C97.0022 101.917 90.8926 109.693 97.5576 110.804C104.223 111.915 110.332 98.029 100.335 98.5844" stroke="black" stroke-width="2" stroke-linecap="round" stroke-linejoin="round"/>
<path d="M13.9629 76.9023C10.4452 74.4955 4.07635 72.9033 6.74238 85.7891C10.0749 101.896 16.1846 109.672 9.5195 110.783C2.85442 111.894 -3.25524 98.0085 6.74238 98.5639" stroke="black" stroke-width="2" stroke-linecap="round" stroke-linejoin="round"/>
<path d="M39.8799 115.861H69.8728M39.8799 115.861C44.3233 117.639 47.223 123.193 53.8421 123.193C60.4612 123.193 65.9848 116.528 69.8728 115.861M39.8799 115.861C44.3233 114.862 48.0504 110.974 53.8421 110.974C59.6338 110.974 64.8739 115.417 69.8728 115.861" stroke="black" stroke-width="2" stroke-linecap="round" stroke-linejoin="round"/>
<path d="M61.0197 100.977C62.0116 102.331 60.9907 103.575 59.9179 104.401C59.0264 105.087 57.7976 104.708 57.2014 103.754L56.6717 102.906C56.0907 101.977 54.7577 101.92 54.1 102.797L53.5717 103.502C52.9951 104.27 51.7845 104.026 51.5514 103.094V103.094C51.3279 102.2 50.1919 101.925 49.5851 102.619L48.2337 104.163C47.5828 104.907 46.5 105.144 45.7228 104.534C44.6776 103.712 43.6368 102.405 44.9125 100.977" stroke="black" stroke-width="2" stroke-linecap="round" stroke-linejoin="round"/>
<path d="M84.7834 76.5906C83.3022 74.1838 79.0069 69.3701 73.6749 69.3701C67.0098 69.3701 64.7881 72.1472 62.5664 76.5906" stroke="black" stroke-width="2" stroke-linecap="round" stroke-linejoin="round"/>
<path d="M22.8934 77.0164C24.3745 74.6096 28.6698 69.7959 34.0019 69.7959C40.667 69.7959 42.8887 72.573 45.1104 77.0164" stroke="black" stroke-width="2" stroke-linecap="round" stroke-linejoin="round"/>
<ellipse cx="73.6744" cy="74.3689" rx="5.55424" ry="4.99881" fill="black"/>
<ellipse cx="5.55424" cy="4.99881" rx="5.55424" ry="4.99881" transform="matrix(-1 0 0 1 39.5566 69.7959)" fill="black"/>
<path d="M64.7881 63.2597C69.0463 62.5191 80.6732 61.4823 84.2279 63.2597C87.7826 65.037 87.5605 66.9625 87.005 67.7031" stroke="black" stroke-width="2" stroke-linecap="round" stroke-linejoin="round"/>
<path d="M42.8887 63.6864C38.6304 62.9459 27.0036 61.9091 23.4488 63.6864C19.8941 65.4638 20.1163 67.3893 20.6717 68.1298" stroke="black" stroke-width="2" stroke-linecap="round" stroke-linejoin="round"/>
<circle cx="30.4373" cy="137.079" r="2.77712" fill="black"/>
<circle cx="31.5476" cy="148.187" r="2.77712" fill="black"/>
<circle cx="37.1023" cy="158.185" r="2.77712" fill="black"/>
<circle cx="47.1004" cy="161.517" r="2.77712" fill="black"/>
<circle cx="58.2088" cy="161.517" r="2.77712" fill="black"/>
<circle cx="68.2058" cy="157.074" r="2.77712" fill="black"/>
<circle cx="74.8709" cy="148.187" r="2.77712" fill="black"/>
<circle cx="75.9822" cy="137.079" r="2.77712" fill="black"/>
</svg>
