<svg width="131" height="142" viewBox="0 0 131 142" fill="none" xmlns="http://www.w3.org/2000/svg">
<path d="M27.2768 46.2662C23.4353 56.5015 12.6955 87.9634 17.4966 108.229C19.4054 116.286 22.5472 120.535 29.2594 125.21C33.8776 128.427 40.3125 129.474 44.7723 129.794C48.0837 130.032 51.3514 131.088 53.8868 133.231L54.409 133.672C59.0752 137.617 65.9396 137.501 70.4697 133.401C73.3752 130.771 77.3679 129.751 81.2745 130.06C85.1771 130.368 90.1183 130.314 93.5802 128.714C102.054 124.796 105.96 118.317 107.433 108.943C110.601 88.7796 108.229 62.1955 106.669 49.0005C106.038 43.6611 103.721 38.6737 99.8021 34.9926C91.9473 27.6141 77.449 15.9749 64.8643 16.7827C51.134 17.6642 36.3707 33.5744 30.8389 40.1342C29.2947 41.9654 28.1185 44.0235 27.2768 46.2662Z" fill="white" stroke="black" stroke-width="2" stroke-linecap="round" stroke-linejoin="round"/>
<path d="M33.3766 59.1693L32.4678 61.8409C32.4678 61.8409 50.3427 62.4738 52.4635 62.8869C54.5843 63.3001 57.063 60.5458 51.224 59.2789C45.385 58.0121 33.3766 59.1693 33.3766 59.1693Z" fill="black" stroke="black" stroke-linecap="round" stroke-linejoin="round"/>
<path d="M96.9406 59.3991L97.768 62.097C97.768 62.097 79.882 62.1874 77.7497 62.536C75.6174 62.8846 73.2233 60.0564 79.0981 58.9673C84.9728 57.8781 96.9406 59.3991 96.9406 59.3991Z" fill="black" stroke="black" stroke-linecap="round" stroke-linejoin="round"/>
<path d="M13.231 77.9394C11.1386 81.6061 11.8217 92.3432 14.4623 92.9478C15.2263 93.1227 15.6952 92.8576 16.3972 92.1579C18.6826 89.8799 19.9379 82.2735 18.1562 78.3344C16.7847 75.3024 14.7482 75.2806 13.231 77.9394Z" fill="white" stroke="black" stroke-width="2" stroke-linecap="round" stroke-linejoin="round"/>
<path d="M110.231 79.9394C108.139 83.6061 108.822 94.3432 111.462 94.9478C112.226 95.1227 112.695 94.8576 113.397 94.1579C115.683 91.8799 116.938 84.2735 115.156 80.3344C113.785 77.3024 111.748 77.2806 110.231 79.9394Z" fill="white" stroke="black" stroke-width="2" stroke-linecap="round" stroke-linejoin="round"/>
<path d="M114.441 94.3219C114.715 96.8417 113.256 98.7241 111.62 98.9119C109.985 99.0997 108.159 97.5942 107.885 95.0744C107.612 92.5545 109.07 90.6721 110.706 90.4843C112.342 90.2966 114.168 91.802 114.441 94.3219Z" fill="white" stroke="black" stroke-width="2" stroke-linecap="round" stroke-linejoin="round"/>
<path d="M18.8222 93.3227C19.0871 95.7634 17.5466 97.7354 15.6478 97.9534C13.749 98.1713 11.8236 96.5971 11.5587 94.1564C11.2938 91.7157 12.8343 89.7437 14.7331 89.5258C16.6319 89.3079 18.5573 90.882 18.8222 93.3227Z" fill="white" stroke="black" stroke-width="2" stroke-linecap="round" stroke-linejoin="round"/>
<path d="M58.9619 6.92129C58.9619 6.92129 42.1479 1.34206 30.0425 5.82045C18.6105 10.0497 3.60822 34.5321 0.848859 49.3381C-2.53935 67.5184 8.83705 81.4522 8.83705 81.4522C8.83705 81.4522 22.8383 75.314 28.1714 69.939C38.6108 59.4174 36.1521 27.4309 53.1959 30.6124C58.4148 31.5866 62.651 36.3397 62.651 36.3397C62.651 36.3397 65.7936 31.5916 71.0107 30.0185C88.0748 24.8733 84.2113 55.5495 93.171 68.6151C99.8578 78.3661 108.35 86.8086 118.374 81.1879C127.786 75.9106 134.378 55.0855 128.535 42.6142C118.164 20.4821 99.7556 7.13994 77.5251 0.696226C68.6064 -1.88894 58.9619 6.92129 58.9619 6.92129Z" fill="black"/>
<path d="M53.9248 101.052C53.9248 101.052 55.5 92.807 62.3329 92.807C66.6922 92.807 70.1001 99.7941 70.1001 99.7941" stroke="black" stroke-width="2" stroke-linecap="round" stroke-linejoin="round"/>
<path d="M38.6199 74.4145C38.6199 74.4145 42.7953 69.3448 47.0182 69.3485C50.4623 69.3516 54.7229 74.7288 54.7229 74.7288" stroke="black" stroke-width="2" stroke-linecap="round" stroke-linejoin="round"/>
<path d="M73.3232 75.7368C73.3232 75.7368 77.4986 70.6671 81.7215 70.6708C85.1656 70.6738 89.4262 75.0511 89.4262 75.0511" stroke="black" stroke-width="2" stroke-linecap="round" stroke-linejoin="round"/>
<ellipse cx="46.457" cy="72.9155" rx="3.74686" ry="3.6682" transform="rotate(-6.3686 46.457 72.9155)" fill="black"/>
<ellipse cx="81.6648" cy="74.1793" rx="3.72791" ry="3.6682" transform="rotate(-6.3686 81.6648 74.1793)" fill="black"/>
<ellipse cx="59.0846" cy="100.679" rx="1.04806" ry="1.57208" transform="rotate(14.8823 59.0846 100.679)" fill="black"/>
<ellipse cx="1.04806" cy="1.57208" rx="1.04806" ry="1.57208" transform="matrix(-0.886046 0.463597 0.463597 0.886046 65.0181 98.4355)" fill="black"/>
<path d="M53.1283 115.199C53.1283 115.199 60.0861 114.071 64.5858 113.92C68.7221 113.781 76.1789 114.64 76.1789 114.64" stroke="black" stroke-width="2" stroke-linecap="round" stroke-linejoin="round"/>
<path d="M60.1218 118.633C60.1218 118.633 62.3951 119.408 63.8401 119.487C65.3136 119.566 66.9248 118.275 66.9248 118.275" stroke="black" stroke-width="2" stroke-linecap="round" stroke-linejoin="round"/>
</svg>
