<?xml version="1.0" encoding="utf-8"?>
<!-- Generator: Adobe Illustrator 28.1.0, SVG Export Plug-In . SVG Version: 6.00 Build 0)  -->
<svg version="1.1" id="Livello_1" xmlns="http://www.w3.org/2000/svg" xmlns:xlink="http://www.w3.org/1999/xlink" x="0px" y="0px"
	 viewBox="0 0 131 142" style="enable-background:new 0 0 131 142;" xml:space="preserve">
<style type="text/css">
	.st0{fill:#FFFFFF;stroke:#C00000;stroke-width:2;stroke-linecap:round;stroke-linejoin:round;}
	.st1{fill:#C00000;stroke:#C00000;stroke-linecap:round;stroke-linejoin:round;}
	.st2{fill:#C00000;stroke:#C00000;stroke-miterlimit:10;}
	.st3{fill:none;stroke:#C00000;stroke-width:2;stroke-linecap:round;stroke-linejoin:round;}
</style>
<path class="st0" d="M27.3,46.3c-3.8,10.2-14.6,41.7-9.8,62c1.9,8.1,5.1,12.3,11.8,17c4.6,3.2,11.1,4.3,15.5,4.6
	c3.3,0.2,6.6,1.3,9.1,3.4l0.5,0.4c4.7,3.9,11.5,3.8,16.1-0.3c2.9-2.6,6.9-3.6,10.8-3.3c3.9,0.3,8.8,0.3,12.3-1.3
	c8.5-3.9,12.4-10.4,13.9-19.8c3.2-20.2,0.8-46.7-0.8-59.9c-0.6-5.3-2.9-10.3-6.9-14c-7.9-7.4-22.4-19-34.9-18.2
	c-13.7,0.9-28.5,16.8-34,23.4C29.3,42,28.1,44,27.3,46.3z"/>
<path class="st1" d="M33.4,59.2l-0.9,2.7c0,0,17.9,0.6,20,1c2.1,0.4,4.6-2.3-1.2-3.6S33.4,59.2,33.4,59.2z"/>
<path class="st1" d="M96.9,59.4l0.8,2.7c0,0-17.9,0.1-20,0.4c-2.1,0.3-4.5-2.5,1.3-3.6C85,57.9,96.9,59.4,96.9,59.4z"/>
<path class="st0" d="M13.2,77.9c-2.1,3.7-1.4,14.4,1.2,15c0.8,0.2,1.2-0.1,1.9-0.8c2.3-2.3,3.5-9.9,1.8-13.8
	C16.8,75.3,14.7,75.3,13.2,77.9z"/>
<path class="st0" d="M110.2,79.9c-2.1,3.7-1.4,14.4,1.2,15c0.8,0.2,1.2-0.1,1.9-0.8c2.3-2.3,3.5-9.9,1.8-13.8
	C113.8,77.3,111.7,77.3,110.2,79.9z"/>
<path class="st0" d="M114.4,94.3c0.3,2.5-1.2,4.4-2.8,4.6c-1.6,0.2-3.5-1.3-3.7-3.8c-0.3-2.5,1.2-4.4,2.8-4.6
	C112.3,90.3,114.2,91.8,114.4,94.3z"/>
<path class="st0" d="M18.8,93.3c0.3,2.4-1.3,4.4-3.2,4.6c-1.9,0.2-3.8-1.4-4.1-3.8c-0.3-2.4,1.3-4.4,3.2-4.6
	C16.6,89.3,18.6,90.9,18.8,93.3z"/>
<path class="st2" d="M59,6.9c0,0-16.8-5.6-28.9-1.1C18.6,10,3.6,34.5,0.8,49.3c-3.4,18.2,8,32.1,8,32.1s14-6.1,19.3-11.5
	c10.4-10.5,8-42.5,25-39.3c5.2,1,9.5,5.7,9.5,5.7s3.1-4.7,8.4-6.3c17.1-5.1,13.2,25.5,22.2,38.6c6.7,9.8,15.2,18.2,25.2,12.6
	c9.4-5.3,16-26.1,10.2-38.6c-10.4-22.1-28.8-35.5-51-41.9C68.6-1.9,59,6.9,59,6.9z"/>
<path class="st3" d="M53.9,101.1c0,0,1.6-8.2,8.4-8.2c4.4,0,7.8,7,7.8,7"/>
<path class="st3" d="M38.6,74.4c0,0,4.2-5.1,8.4-5.1c3.4,0,7.7,5.4,7.7,5.4"/>
<path class="st3" d="M73.3,75.7c0,0,4.2-5.1,8.4-5.1c3.4,0,7.7,4.4,7.7,4.4"/>
<ellipse transform="matrix(0.9938 -0.1109 0.1109 0.9938 -7.8013 5.6032)" class="st2" cx="46.5" cy="72.9" rx="3.7" ry="3.7"/>
<ellipse transform="matrix(0.9938 -0.1109 0.1109 0.9938 -7.7243 9.5163)" class="st2" cx="81.7" cy="74.2" rx="3.7" ry="3.7"/>
<ellipse transform="matrix(0.2568 -0.9665 0.9665 0.2568 -53.3911 131.9232)" class="st2" cx="59.1" cy="100.7" rx="1.6" ry="1"/>
<ellipse transform="matrix(0.886 -0.4636 0.4636 0.886 -39.1188 41.4804)" class="st2" cx="64.8" cy="100.3" rx="1" ry="1.6"/>
<path class="st3" d="M53.1,115.2c0,0,7-1.1,11.5-1.3c4.1-0.1,11.6,0.7,11.6,0.7"/>
<path class="st3" d="M60.1,118.6c0,0,2.3,0.8,3.7,0.9c1.5,0.1,3.1-1.2,3.1-1.2"/>
</svg>
