<?xml version="1.0" encoding="utf-8"?>
<!-- Generator: Adobe Illustrator 28.1.0, SVG Export Plug-In . SVG Version: 6.00 Build 0)  -->
<svg version="1.1" id="Livello_1" xmlns="http://www.w3.org/2000/svg" xmlns:xlink="http://www.w3.org/1999/xlink" x="0px" y="0px"
	 viewBox="0 0 116 142" style="enable-background:new 0 0 116 142;" xml:space="preserve">
<style type="text/css">
	.st0{fill:#FFFFFF;stroke:#C00000;stroke-width:2;}
	.st1{fill:#C00000;stroke:#C00000;stroke-miterlimit:10;}
	.st2{fill:none;stroke:#C00000;stroke-width:2;stroke-linecap:round;stroke-linejoin:round;}
	.st3{fill:#C00000;stroke:#C00000;stroke-width:3;stroke-linecap:round;stroke-linejoin:round;}
</style>
<path class="st0" d="M16.3,119.2c0-13.1-3.4-31.3-3.2-45.1c-3.4-19.1,0.9-57.5,45.4-59c44.5-1.5,48.2,38.7,44.5,59
	c0.9,13.2-2.3,29.7-2.3,45.1c0,6.2-20.4,13.4-30.2,19.1c-3.6,2.1-16,3.1-21.8,0C38.1,132.6,16.3,124.5,16.3,119.2z"/>
<path class="st1" d="M40.1,72.6c2.5,0,2.7-3,2.4-4.6h-5C37.5,69.7,37.6,72.6,40.1,72.6z"/>
<path class="st2" d="M30.7,68h6.9 M45.5,68h-3 M42.5,68c0.3,1.7,0.1,4.6-2.4,4.6c-2.5,0-2.7-3-2.6-4.6 M42.5,68h-5"/>
<path class="st1" d="M80.9,72.6c2.5,0,2.7-3,2.4-4.6h-5C78.2,69.7,78.4,72.6,80.9,72.6z"/>
<path class="st2" d="M71.4,68h6.9 M86.3,68h-3 M83.3,68c0.3,1.7,0.1,4.6-2.4,4.6c-2.5,0-2.7-3-2.6-4.6 M83.3,68h-5"/>
<path class="st2" d="M54.3,71.2v29.3H64"/>
<path class="st3" d="M25.6,52.6l-3.3,8.4l5.1-3.3l22.7,2.8v-4.2L25.6,52.6z"/>
<path class="st3" d="M91.8,52.2l2.8,7.9l-5.1-2.8l-21.8,2.4v-4.2L91.8,52.2z"/>
<path class="st2" d="M46.4,112.1h6.9 M73.8,112.1h-7 M66.8,112.1l-3.2-5.1l-3.2,5.1 M66.8,112.1h-6.5 M60.3,112.1h-6.9 M60.3,112.1
	l-3.2-5.1l-3.7,5.1"/>
<path class="st1" d="M115,44.3l-12.5,53.5l0.9-21l-6-2.3l2.8-24.2L83.9,27.5H35.3L17.7,50.3l1.9,24.2L14,76.8v21L1,45.2l13-24.6
	l17.6-10.3l12-8.4h31l12,8.4l16.7,10.3L115,44.3z"/>
<path class="st2" d="M17.7,50.3l17.6-22.8h48.6l16.2,22.8 M17.7,50.3L14,76.8 M17.7,50.3l1.9,24.2L14,76.8 M100.2,50.3l-2.8,24.2
	l6,2.3 M100.2,50.3l3.2,26.5 M14,76.8v21L1,45.2l13-24.6l17.6-10.3l12-8.4h31l12,8.4l16.7,10.3L115,44.3l-12.5,53.5l0.9-21
	 M46,109.8v7.4 M74.7,109.8v7.4"/>
</svg>
