<svg width="124" height="164" viewBox="0 0 124 164" fill="none" xmlns="http://www.w3.org/2000/svg">
<path d="M17.9222 75.9934C14.9955 93.6746 16.6219 118.418 17.4889 128.539C17.7469 131.55 18.8725 134.405 20.6752 136.831L35.0252 156.14C38.2326 160.455 43.2926 162.999 48.6697 162.999H59.0354C62.7273 162.999 66.3189 161.797 69.2672 159.575L92.7091 141.908C96.3056 139.198 98.6786 135.179 99.298 130.719C101.502 114.846 106.904 75.3272 109.726 49.351C113.168 17.6664 71.636 16.8684 67.9803 16.8594C67.7902 16.859 67.6348 16.8584 67.4448 16.8573C64.8471 16.8413 44.7969 16.9734 34.7229 24.658C18.6663 36.9063 21.3876 55.0575 17.9222 75.9934Z" fill="white" stroke="black" stroke-width="2" stroke-linecap="round" stroke-linejoin="round"/>
<path d="M5.38488 115.08C7.55813 117.109 16.2501 115.08 16.2501 115.08L14.0771 80.5764C14.0771 80.5764 9.00687 77.1937 5.38488 87.3417C1.7629 97.4897 3.21164 113.05 5.38488 115.08Z" fill="white" stroke="black" stroke-width="2" stroke-linecap="round" stroke-linejoin="round"/>
<path d="M113.6 114.508C111.321 116.335 102.757 113.892 102.757 113.892L106.81 80.8694C106.81 80.8694 112.055 77.9075 115.115 87.8618C118.176 97.816 115.88 112.682 113.6 114.508Z" fill="white" stroke="black" stroke-width="2" stroke-linecap="round" stroke-linejoin="round"/>
<path d="M1.10852 37.2826C-0.263863 41.1942 11.8342 99.3725 11.8342 99.3725H15.9514C15.9514 99.3725 14.4331 66.4998 27.6168 52.4331C39.4337 39.8248 53.6941 35.094 70.7143 39.8875C87.0536 44.4892 85.4196 43.4666 92.5 58.8055C100.782 76.7471 102.312 100.732 102.312 100.732H110.067L114.451 74.6406L122.591 46.1773C128.299 21.0901 72.469 0.517568 65.607 0.517578C58.745 0.517588 47.4472 16.5281 47.4472 16.5281C47.4472 16.5281 33.8096 8.21943 31.1661 10.0053C28.5225 11.7912 2.4809 33.371 1.10852 37.2826Z" fill="black" stroke="black" stroke-linecap="round" stroke-linejoin="round"/>
<path d="M41.5278 68.0537H23.875V71.3216L28.7447 72.4109H43.9627L44.5714 70.9585L41.5278 68.0537Z" fill="black" stroke="black" stroke-linecap="round" stroke-linejoin="round"/>
<path d="M75.1677 72.4102H94.6787V69.1423L89.2964 68.053H72.4765L71.8037 69.5054L75.1677 72.4102Z" fill="black" stroke="black" stroke-linecap="round" stroke-linejoin="round"/>
<path d="M44.5714 87.6607C44.5714 87.6607 43.9185 83.7823 41.3376 82.3004C36.1893 79.3443 23.875 82.896 23.875 82.896" stroke="black" stroke-width="2" stroke-linecap="round" stroke-linejoin="round"/>
<path d="M67.4467 87.6607C67.4467 87.6607 68.134 83.7823 70.8507 82.3004C76.27 79.3443 89.2324 82.896 89.2324 82.896" stroke="black" stroke-width="2" stroke-linecap="round" stroke-linejoin="round"/>
<ellipse cx="35.3125" cy="84.3929" rx="3.8125" ry="3.26786" fill="black"/>
<ellipse cx="78.3396" cy="83.8477" rx="4.35714" ry="3.8125" fill="black"/>
<path d="M52.8542 81.125L51.0979 109.86C51.0979 109.86 37.5598 117.981 42.3169 117.981C47.0001 117.981 51.6834 115.482 51.6834 115.482C51.6834 115.482 51.9684 118.263 53.0891 119.961C54.3297 121.84 56.9519 116.107 56.9519 116.107C56.9519 116.107 64.2542 117.981 66.9037 117.981C69.2164 117.981 63.3913 112.984 63.3913 112.984" stroke="black" stroke-width="2" stroke-linecap="round" stroke-linejoin="round"/>
<path d="M60.1474 144.304H50.0176L50.5 145.03C50.5 145.03 60.1474 145.393 61.5945 145.393C63.0416 145.393 60.1474 144.304 60.1474 144.304Z" stroke="black" stroke-width="2" stroke-linecap="round" stroke-linejoin="round"/>
<path d="M32.7873 126.093L34.7674 130.172L48.5342 126.981L47.0918 123.609L32.7873 126.093Z" fill="black"/>
<path d="M74.8535 126.095L72.8598 130.168L59.1037 126.93L60.5573 123.564L74.8535 126.095Z" fill="black"/>
<path d="M45.6611 136.678C58.0004 136.678 65.8129 139.5 65.8129 132.321" stroke="black" stroke-width="2" stroke-linecap="round" stroke-linejoin="round"/>
</svg>
