<svg width="124" height="164" viewBox="0 0 124 164" fill="none" xmlns="http://www.w3.org/2000/svg">
<path d="M17.9222 75.9944C14.9955 93.6755 16.6219 118.419 17.4889 128.54C17.7469 131.551 18.8725 134.406 20.6752 136.832L35.0252 156.141C38.2326 160.456 43.2926 163 48.6697 163H59.0354C62.7273 163 66.3189 161.798 69.2672 159.576L92.7091 141.909C96.3056 139.199 98.6786 135.18 99.298 130.72C101.502 114.847 106.904 75.3282 109.726 49.352C113.168 17.6673 71.636 16.8694 67.9803 16.8604C67.7902 16.8599 67.6348 16.8594 67.4448 16.8583C64.8471 16.8423 44.7969 16.9744 34.7229 24.659C18.6663 36.9073 21.3876 55.0584 17.9222 75.9944Z" fill="white" stroke="black" stroke-width="2" stroke-linecap="round" stroke-linejoin="round"/>
<path d="M5.38476 115.08C7.558 117.109 16.25 115.08 16.25 115.08L14.077 80.5764C14.077 80.5764 9.00674 77.1937 5.38476 87.3417C1.76278 97.4897 3.21152 113.05 5.38476 115.08Z" fill="white" stroke="black" stroke-width="2" stroke-linecap="round" stroke-linejoin="round"/>
<path d="M113.6 114.509C111.321 116.336 102.757 113.893 102.757 113.893L106.81 80.8704C106.81 80.8704 112.055 77.9085 115.115 87.8627C118.176 97.817 115.88 112.683 113.6 114.509Z" fill="white" stroke="black" stroke-width="2" stroke-linecap="round" stroke-linejoin="round"/>
<path d="M1.10852 37.2826C-0.263863 41.1942 11.8342 99.3725 11.8342 99.3725H15.9514C15.9514 99.3725 14.4331 66.4998 27.6168 52.4331C39.4337 39.8248 53.6941 35.094 70.7143 39.8875C87.0536 44.4892 85.4196 43.4666 92.5 58.8055C100.782 76.7471 102.312 100.732 102.312 100.732H110.067L114.451 74.6406L122.591 46.1773C128.299 21.0901 72.469 0.517568 65.607 0.517578C58.745 0.517588 47.4472 16.5281 47.4472 16.5281C47.4472 16.5281 33.8096 8.21943 31.1661 10.0053C28.5225 11.7912 2.4809 33.371 1.10852 37.2826Z" fill="black" stroke="black" stroke-linecap="round" stroke-linejoin="round"/>
<path d="M41.5278 68.0527H23.875V71.3206L28.7447 72.4099H43.9627L44.5714 70.9575L41.5278 68.0527Z" fill="black" stroke="black" stroke-linecap="round" stroke-linejoin="round"/>
<path d="M75.1676 72.4102H94.6786V69.1423L89.2962 68.053H72.4764L71.8036 69.5054L75.1676 72.4102Z" fill="black" stroke="black" stroke-linecap="round" stroke-linejoin="round"/>
<path d="M44.5714 87.6607C44.5714 87.6607 43.9185 83.7823 41.3376 82.3004C36.1893 79.3443 23.875 82.896 23.875 82.896" stroke="black" stroke-width="2" stroke-linecap="round" stroke-linejoin="round"/>
<path d="M67.4464 87.6607C67.4464 87.6607 68.1337 83.7823 70.8504 82.3004C76.2697 79.3443 89.2321 82.896 89.2321 82.896" stroke="black" stroke-width="2" stroke-linecap="round" stroke-linejoin="round"/>
<ellipse cx="35.3125" cy="84.3929" rx="3.8125" ry="3.26786" fill="black"/>
<ellipse cx="78.3393" cy="83.8477" rx="4.35714" ry="3.8125" fill="black"/>
<path d="M52.854 81.125L51.0978 109.86C51.0978 109.86 37.5597 117.981 42.3168 117.981C47 117.981 51.6832 115.482 51.6832 115.482C51.6832 115.482 51.9682 118.263 53.089 119.961C54.3296 121.84 56.9518 116.107 56.9518 116.107C56.9518 116.107 64.2541 117.981 66.9036 117.981C69.2162 117.981 63.3912 112.984 63.3912 112.984" stroke="black" stroke-width="2" stroke-linecap="round" stroke-linejoin="round"/>
<path d="M60.1477 144.303H50.0179L50.5003 145.029C50.5003 145.029 60.1477 145.392 61.5948 145.392C63.042 145.392 60.1477 144.303 60.1477 144.303Z" stroke="black" stroke-width="2" stroke-linecap="round" stroke-linejoin="round"/>
<path d="M32.787 126.094L34.767 130.173L48.5339 126.982L47.0915 123.61L32.787 126.094Z" fill="black"/>
<path d="M74.8534 126.096L72.8597 130.169L59.1036 126.931L60.5572 123.565L74.8534 126.096Z" fill="black"/>
<path d="M45.6607 136.677C58 136.677 65.8125 139.499 65.8125 132.32" stroke="black" stroke-width="2" stroke-linecap="round" stroke-linejoin="round"/>
</svg>
