<svg width="116" height="142" viewBox="0 0 116 142" fill="none" xmlns="http://www.w3.org/2000/svg">
<path d="M16.274 119.195C16.274 106.1 12.8769 87.8983 13.0313 74.1093C9.63431 55.0527 13.9578 16.5675 58.428 15.0802C102.898 13.5928 106.604 53.8132 102.898 74.1093C103.825 87.2786 100.624 103.776 100.624 119.195C100.624 125.43 80.2421 132.593 70.4721 138.251C66.8612 140.342 54.4272 141.305 48.7002 138.251C38.088 132.593 16.274 124.453 16.274 119.195Z" fill="white" stroke="black" stroke-width="2"/>
<path d="M40.1294 72.6343C42.6115 72.6343 42.8716 69.666 42.5269 67.9863H37.5283C37.4708 69.666 37.6474 72.6343 40.1294 72.6343Z" fill="black"/>
<path d="M30.6768 67.9863H37.5283M45.5002 67.9863H42.5269M42.5269 67.9863C42.8716 69.666 42.6115 72.6343 40.1294 72.6343C37.6474 72.6343 37.4708 69.666 37.5283 67.9863M42.5269 67.9863H37.5283" stroke="black" stroke-width="2" stroke-linecap="round" stroke-linejoin="round"/>
<path d="M80.8931 72.6343C83.3752 72.6343 83.6353 69.666 83.2905 67.9863H78.2919C78.2345 69.666 78.4111 72.6343 80.8931 72.6343Z" fill="black"/>
<path d="M71.4404 67.9863H78.2919M86.2638 67.9863H83.2905M83.2905 67.9863C83.6353 69.666 83.3752 72.6343 80.8931 72.6343C78.4111 72.6343 78.2345 69.666 78.2919 67.9863M83.2905 67.9863H78.2919" stroke="black" stroke-width="2" stroke-linecap="round" stroke-linejoin="round"/>
<path d="M54.2803 71.2402V100.563H64.0081" stroke="black" stroke-width="2" stroke-linecap="round" stroke-linejoin="round"/>
<path d="M25.5811 52.6484L22.3174 61.0549L27.434 57.7612L50.1113 60.5901V56.407L25.5811 52.6484Z" fill="black" stroke="black" stroke-width="3" stroke-linecap="round" stroke-linejoin="round"/>
<path d="M91.8228 52.1836L94.5811 60.1253L89.5066 57.2964L67.7136 59.6605V55.4773L91.8228 52.1836Z" fill="black" stroke="black" stroke-width="3" stroke-linecap="round" stroke-linejoin="round"/>
<path d="M46.4258 112.142H53.3532M73.7564 112.142H66.7869M66.7869 112.142L63.5443 107.029L60.3016 112.142M66.7869 112.142H60.3016M60.3016 112.142H53.3532M60.3016 112.142L57.059 107.029L53.3532 112.142" stroke="black" stroke-width="2" stroke-linecap="round" stroke-linejoin="round"/>
<path d="M114.984 44.2818L102.456 97.7736L103.382 76.8176L97.3603 74.5337L100.161 50.3242L83.9477 27.5492H35.3084L17.7056 50.3242L19.5586 74.5337L13.9998 76.8176V97.7736L1.0293 45.2114L13.9998 20.6174L31.6026 10.3517L43.6466 1.98535H74.6831L86.7271 10.3517L103.382 20.6174L114.984 44.2818Z" fill="black"/>
<path d="M17.7056 50.3242L35.3084 27.5492H83.9477L100.161 50.3242M17.7056 50.3242L13.9998 76.8176M17.7056 50.3242L19.5586 74.5337L13.9998 76.8176M100.161 50.3242L97.3603 74.5337L103.382 76.8176M100.161 50.3242L103.382 76.8176M13.9998 76.8176V97.7736L1.0293 45.2114L13.9998 20.6174L31.6026 10.3517L43.6466 1.98535H74.6831L86.7271 10.3517L103.382 20.6174L114.984 44.2818L102.456 97.7736L103.382 76.8176M45.9627 109.818V117.255M74.6831 109.818V117.255" stroke="black" stroke-width="2" stroke-linecap="round" stroke-linejoin="round"/>
</svg>
