<svg width="116" height="142" viewBox="0 0 116 142" fill="none" xmlns="http://www.w3.org/2000/svg">
<path d="M16.274 119.196C16.274 106.101 12.8769 87.8993 13.0313 74.1103C9.63431 55.0537 13.9578 16.5685 58.428 15.0812C102.898 13.5938 106.604 53.8142 102.898 74.1103C103.825 87.2795 100.624 103.777 100.624 119.196C100.624 125.431 80.2421 132.594 70.4721 138.252C66.8612 140.343 54.4272 141.306 48.7002 138.252C38.088 132.594 16.274 124.454 16.274 119.196Z" fill="white" stroke="black" stroke-width="2"/>
<path d="M40.129 72.6343C42.6111 72.6343 42.8712 69.666 42.5264 67.9863H37.5278C37.4704 69.666 37.647 72.6343 40.129 72.6343Z" fill="black"/>
<path d="M30.6763 67.9863H37.5278M45.4997 67.9863H42.5264M42.5264 67.9863C42.8712 69.666 42.6111 72.6343 40.129 72.6343C37.647 72.6343 37.4704 69.666 37.5278 67.9863M42.5264 67.9863H37.5278" stroke="black" stroke-width="2" stroke-linecap="round" stroke-linejoin="round"/>
<path d="M80.8934 72.6343C83.3755 72.6343 83.6355 69.666 83.2908 67.9863H78.2922C78.2348 69.666 78.4113 72.6343 80.8934 72.6343Z" fill="black"/>
<path d="M71.4407 67.9863H78.2922M86.2641 67.9863H83.2908M83.2908 67.9863C83.6355 69.666 83.3755 72.6343 80.8934 72.6343C78.4113 72.6343 78.2348 69.666 78.2922 67.9863M83.2908 67.9863H78.2922" stroke="black" stroke-width="2" stroke-linecap="round" stroke-linejoin="round"/>
<path d="M54.2801 71.2402V100.563H64.0079" stroke="black" stroke-width="2" stroke-linecap="round" stroke-linejoin="round"/>
<path d="M25.5808 52.6484L22.3171 61.0549L27.4337 57.7612L50.111 60.5901V56.407L25.5808 52.6484Z" fill="black" stroke="black" stroke-width="3" stroke-linecap="round" stroke-linejoin="round"/>
<path d="M91.8229 52.1836L94.5812 60.1253L89.5067 57.2964L67.7137 59.6605V55.4773L91.8229 52.1836Z" fill="black" stroke="black" stroke-width="3" stroke-linecap="round" stroke-linejoin="round"/>
<path d="M46.4262 112.142H53.3536M73.7569 112.142H66.7873M66.7873 112.142L63.5447 107.029L60.3021 112.142M66.7873 112.142H60.3021M60.3021 112.142H53.3536M60.3021 112.142L57.0594 107.029L53.3536 112.142" stroke="black" stroke-width="2" stroke-linecap="round" stroke-linejoin="round"/>
<path d="M114.984 44.2828L102.456 97.7745L103.383 76.8186L97.3606 74.5347L100.161 50.3252L83.9479 27.5501H35.3086L17.7058 50.3252L19.5588 74.5347L14 76.8186V97.7745L1.02951 45.2124L14 20.6183L31.6028 10.3527L43.6468 1.98633H74.6833L86.7273 10.3527L103.383 20.6183L114.984 44.2828Z" fill="black"/>
<path d="M17.7058 50.3252L35.3086 27.5501H83.9479L100.161 50.3252M17.7058 50.3252L14 76.8186M17.7058 50.3252L19.5588 74.5347L14 76.8186M100.161 50.3252L97.3606 74.5347L103.383 76.8186M100.161 50.3252L103.383 76.8186M14 76.8186V97.7745L1.02951 45.2124L14 20.6183L31.6028 10.3527L43.6468 1.98633H74.6833L86.7273 10.3527L103.383 20.6183L114.984 44.2828L102.456 97.7745L103.383 76.8186M45.963 109.819V117.256M74.6833 109.819V117.256" stroke="black" stroke-width="2" stroke-linecap="round" stroke-linejoin="round"/>
</svg>
