<?xml version="1.0" encoding="utf-8"?>
<!-- Generator: Adobe Illustrator 28.0.0, SVG Export Plug-In . SVG Version: 6.00 Build 0)  -->
<svg version="1.1" id="Layer_1" xmlns="http://www.w3.org/2000/svg" xmlns:xlink="http://www.w3.org/1999/xlink" x="0px" y="0px"
	 viewBox="0 0 3047 900" style="enable-background:new 0 0 3047 900;" xml:space="preserve">
<style type="text/css">
	.st0{fill:url(#SVGID_1_);}
	.st1{fill:#969696;}
	.st2{fill:#1C4043;}
	.st3{fill:#151919;}
	.st4{fill:url(#SVGID_00000154419919427494582410000016933047601695986616_);}
	.st5{fill:url(#SVGID_00000175318439134785032630000001794831573389195436_);}
	.st6{fill:url(#SVGID_00000080890087282475648450000014990674002855354027_);}
	.st7{fill:url(#SVGID_00000085969207262364187930000005161795793596121242_);}
	.st8{fill:#173336;}
	.st9{fill:url(#SVGID_00000145038100412946645320000015012270875348215946_);}
	.st10{fill:none;}
	.st11{fill:#FFFBCC;}
	.st12{fill:none;stroke:#969696;stroke-width:3.8717;stroke-linejoin:round;}
	.st13{opacity:0.91;}
	.st14{opacity:0.53;fill:url(#SVGID_00000151514896492141905180000017419224578967174582_);enable-background:new    ;}
	.st15{fill:#CAFDFF;}
	.st16{fill:url(#SVGID_00000018958739646236409150000010744989071484315268_);}
	.st17{fill:url(#SVGID_00000015346395220840756200000004612851334642586795_);}
	.st18{fill:url(#SVGID_00000126286113269786356660000004766836102588740749_);}
	.st19{fill:#A0A0A0;stroke:#777777;stroke-width:2.91;stroke-linecap:round;stroke-linejoin:round;}
	.st20{fill:url(#SVGID_00000160164390032271820610000001540222261207803565_);}
	.st21{fill:url(#SVGID_00000080908767512181694630000014697270701913580424_);}
	.st22{fill:#777777;}
	.st23{fill:#A0A0A0;}
	.st24{fill:none;stroke:#969696;stroke-width:3.88;stroke-linejoin:round;}
	.st25{fill:url(#SVGID_00000008862797404485225450000008333015242366098621_);}
	.st26{fill:url(#SVGID_00000005951805335676725540000007789267040088499628_);}
	.st27{opacity:0.21;fill:url(#SVGID_00000090979614565821609230000004230181719206348680_);enable-background:new    ;}
	.st28{fill:url(#SVGID_00000139261988379121230750000017527980750944780451_);}
	.st29{fill:url(#SVGID_00000060752658164759999640000002365285572463727000_);}
	.st30{opacity:0.53;fill:url(#SVGID_00000154422457462844884570000011709414230719767964_);enable-background:new    ;}
	.st31{fill:url(#SVGID_00000089572864296183824740000001484705537222059165_);}
	.st32{fill:url(#SVGID_00000098921447767390661950000000340871349133482665_);}
	.st33{opacity:0.21;fill:url(#SVGID_00000060000007861915588540000015244038263197239959_);enable-background:new    ;}
</style>
<linearGradient id="SVGID_1_" gradientUnits="userSpaceOnUse" x1="1523.5" y1="1136.0601" x2="1523.5" y2="236.9745" gradientTransform="matrix(1 0 0 1 0 -236.06)">
	<stop  offset="0" style="stop-color:#030405"/>
	<stop  offset="1" style="stop-color:#1C4043"/>
</linearGradient>
<path class="st0" d="M3047,0.9H0V900h3047V0.9z"/>
<path class="st1" d="M2757.9,202.4h-47.8c-8.2,0-14.8,7-14.8,15.6v76.7c0,8.6,6.6,15.6,14.8,15.6h47.8c8.2,0,14.8-7,14.8-15.6v-76.7
	C2772.7,209.3,2766.1,202.4,2757.9,202.4z"/>
<path class="st2" d="M810.8,425.1H0V900h810.8V425.1z"/>
<path class="st3" d="M582.2,550.5H218.3v204.8h363.9V550.5z"/>
<linearGradient id="SVGID_00000127009084671083188800000009334003110400125358_" gradientUnits="userSpaceOnUse" x1="405.395" y1="786.58" x2="405.395" y2="661.17" gradientTransform="matrix(1 0 0 1 0 -236.06)">
	<stop  offset="0" style="stop-color:#1C2323"/>
	<stop  offset="0.38" style="stop-color:#1C2526"/>
	<stop  offset="0.69" style="stop-color:#1C2F30"/>
	<stop  offset="0.98" style="stop-color:#1C3E41"/>
	<stop  offset="1" style="stop-color:#1C4043"/>
</linearGradient>
<path style="fill:url(#SVGID_00000127009084671083188800000009334003110400125358_);" d="M0,425.1l218.3,125.4h363.9l228.6-125.4
	L0,425.1L0,425.1z"/>
<linearGradient id="SVGID_00000088815090884164839420000009509881064707226302_" gradientUnits="userSpaceOnUse" x1="405.395" y1="1136.0601" x2="405.395" y2="991.42" gradientTransform="matrix(1 0 0 1 0 -236.06)">
	<stop  offset="0" style="stop-color:#1C4043"/>
	<stop  offset="1" style="stop-color:#1C2323"/>
</linearGradient>
<path style="fill:url(#SVGID_00000088815090884164839420000009509881064707226302_);" d="M582.2,755.4L810.8,900H0l218.3-144.6
	H582.2z"/>
<linearGradient id="SVGID_00000048486823776915403770000000461149386950792627_" gradientUnits="userSpaceOnUse" x1="810.79" y1="898.615" x2="582.19" y2="898.615" gradientTransform="matrix(1 0 0 1 0 -236.06)">
	<stop  offset="0" style="stop-color:#1C4043"/>
	<stop  offset="0.13" style="stop-color:#1C3A3D"/>
	<stop  offset="0.64" style="stop-color:#1C2929"/>
	<stop  offset="1" style="stop-color:#1C2323"/>
</linearGradient>
<path style="fill:url(#SVGID_00000048486823776915403770000000461149386950792627_);" d="M582.2,550.5l228.6-125.4V900L582.2,755.4
	L582.2,550.5L582.2,550.5z"/>
<linearGradient id="SVGID_00000076568264810163014450000001436926603190451131_" gradientUnits="userSpaceOnUse" x1="0" y1="898.615" x2="218.32" y2="898.615" gradientTransform="matrix(1 0 0 1 0 -236.06)">
	<stop  offset="0" style="stop-color:#1C4043"/>
	<stop  offset="0.13" style="stop-color:#1C3A3D"/>
	<stop  offset="0.64" style="stop-color:#1C2929"/>
	<stop  offset="1" style="stop-color:#1C2323"/>
</linearGradient>
<path style="fill:url(#SVGID_00000076568264810163014450000001436926603190451131_);" d="M218.3,755.4V550.5L0,425.1V900
	L218.3,755.4z"/>
<path class="st8" d="M621,828.5v56.3l-430.5,2.7V766.6h147.8c1.9,7.7,5.7,15.2,8.2,20.6c3.2,6.7-7.9,34.3-5.5,42.6s30.9,0,38-4.2
	s79.9-3.3,84.6-0.8s67.2,2.5,79.1,0s54.6,0.8,60.1,6.7C605.7,834.6,614.4,832.2,621,828.5L621,828.5z"/>
<linearGradient id="SVGID_00000028283570738060528140000004329619121125732242_" gradientUnits="userSpaceOnUse" x1="405.695" y1="1002.62" x2="405.695" y2="948.78" gradientTransform="matrix(1 0 0 1 0 -236.06)">
	<stop  offset="0" style="stop-color:#1C4043"/>
	<stop  offset="1" style="stop-color:#121312"/>
</linearGradient>
<path style="fill:url(#SVGID_00000028283570738060528140000004329619121125732242_);" d="M190.4,766.6l90.2-53.8h250.1l90.2,53.8
	H190.4z"/>
<rect x="285.6" y="521.3" class="st10" width="228.6" height="91.1"/>
<path class="st11" d="M468.9,572.3h-138c-4.5,0-8.1-3.8-8.1-8.6v-8.2c0-2.3,1.8-4.1,3.9-4.1h146.4c2.2,0,3.9,1.9,3.9,4.1v8.2
	C477,568.4,473.4,572.3,468.9,572.3L468.9,572.3L468.9,572.3z"/>
<path class="st12" d="M3047,840.1H1881.6v-72.9h-515.5v120.4H831V411.1H45.1V0.9"/>
<path class="st12" d="M53.8,0.9v399.7h787.8v476.1h514.2V755.6h534.7v74.5l958.2,0.7l-0.3-62.3H2994V0.9"/>
<path class="st1" d="M57.7,312.2H40.4c-1.3,0-2.4,1.2-2.4,2.6v4c0,1.4,1.1,2.6,2.4,2.6h17.3c1.3,0,2.4-1.2,2.4-2.6v-4
	C60.1,313.4,59,312.2,57.7,312.2z"/>
<path class="st1" d="M1371.1,783h-19.6c-1.6,0-2.8,1.3-2.8,3v6.5c0,1.7,1.3,3,2.8,3h19.6c1.6,0,2.9-1.3,2.9-3V786
	C1374,784.3,1372.7,783,1371.1,783z"/>
<path class="st1" d="M1894.8,783h-19.6c-1.6,0-2.8,1.3-2.8,3v6.5c0,1.7,1.3,3,2.8,3h19.6c1.6,0,2.8-1.3,2.8-3V786
	C1897.7,784.3,1896.4,783,1894.8,783z"/>
<path class="st1" d="M1371.1,800.5h-19.6c-1.6,0-2.8,1.3-2.8,3v6.5c0,1.7,1.3,3,2.8,3h19.6c1.6,0,2.9-1.3,2.9-3v-6.5
	C1374,801.9,1372.7,800.5,1371.1,800.5z"/>
<path class="st1" d="M2833.4,845.2v-20.7c0-1.7-1.3-3-2.9-3h-6.1c-1.6,0-2.9,1.3-2.9,3v20.7c0,1.7,1.3,3,2.9,3h6.1
	C2832.1,848.2,2833.4,846.8,2833.4,845.2z"/>
<path class="st1" d="M2985,669.2h19.6c1.6,0,2.9-1.3,2.9-3v-6.5c0-1.7-1.3-3-2.9-3H2985c-1.6,0-2.9,1.3-2.9,3v6.5
	C2982.1,667.9,2983.4,669.2,2985,669.2z"/>
<path class="st1" d="M2712.1,184.9h24.4c1.6,0,2.9-1.3,2.9-3v-3.1c0-1.7-1.3-3-2.9-3h-24.4c-1.6,0-2.9,1.3-2.9,3v3.1
	C2709.2,183.5,2710.5,184.9,2712.1,184.9z"/>
<path class="st1" d="M2712.1,170.7h24.4c1.6,0,2.9-1.3,2.9-3v-3.1c0-1.7-1.3-3-2.9-3h-24.4c-1.6,0-2.9,1.3-2.9,3v3.1
	C2709.2,169.4,2710.5,170.7,2712.1,170.7z"/>
<path class="st12" d="M2733.6,0.9v820.8h79.5v-24h14.3v33"/>
<path class="st1" d="M2752.9,204.7h-43.3c-8.2,0-14.8,7-14.8,15.6v67.6c0,8.6,6.6,15.6,14.8,15.6h43.3c8.2,0,14.8-7,14.8-15.6v-67.6
	C2767.7,211.7,2761.1,204.7,2752.9,204.7z"/>
<g class="st13">
	<path d="M2752.9,204.7h-43.3c-8.2,0-14.8,7-14.8,15.6v67.6c0,8.6,6.6,15.6,14.8,15.6h43.3c8.2,0,14.8-7,14.8-15.6v-67.6
		C2767.7,211.7,2761.1,204.7,2752.9,204.7z"/>
</g>
<path class="st1" d="M2742.2,310.4l-35.8-6.2c-6.4-1.1-11.6-7.4-11.6-14v-75.6c0-6.6,5.2-11.1,11.6-10l35.8,6.2
	c6.4,1.1,11.6,7.4,11.6,14v75.6C2753.8,307,2748.6,311.5,2742.2,310.4z"/>
<path class="st1" d="M2733.2,259.1l12.7,3c0.4,0.1,0.7,0.5,0.7,0.9v1.9c0,0.6-0.6,1.1-1.1,0.9l-12.7-3.2c-0.4-0.1-0.7-0.5-0.7-0.9
	v-1.7C2732.1,259.5,2732.6,259,2733.2,259.1z"/>
<linearGradient id="SVGID_00000080192140518226540410000007437819150358084744_" gradientUnits="userSpaceOnUse" x1="2278.1299" y1="1136.0601" x2="2278.1299" y2="241.0968" gradientTransform="matrix(1 0 0 1 0 -236.06)">
	<stop  offset="0" style="stop-color:#030405"/>
	<stop  offset="1" style="stop-color:#6E8F91"/>
</linearGradient>
<path style="opacity:0.53;fill:url(#SVGID_00000080192140518226540410000007437819150358084744_);enable-background:new    ;" d="
	M2432.4,5l605.1,794V900H1518.7v-98.2L2123.9,5"/>
<rect x="2078" y="-29.1" class="st10" width="400.2" height="121.5"/>
<path class="st15" d="M2424.3,42.5H2132c-4.5,0-8.1-3.8-8.1-8.6V5c0-2.3,1.8-4.1,3.9-4.1h300.7c2.2,0,3.9,1.9,3.9,4.1v29
	C2432.4,38.7,2428.7,42.5,2424.3,42.5L2424.3,42.5L2424.3,42.5z"/>
<path class="st12" d="M2724.3,0.9l-0.1,201.5"/>
<path class="st12" d="M2714.8,0.9v201.5"/>
<path class="st12" d="M2772.9,232.4h13.6V0.9"/>
<path class="st3" d="M2137.2,708.8V387.9h-133.1v320.9H2137.2z"/>
<path class="st3" d="M1271,848.4V499.5h-166v348.9H1271z"/>
<linearGradient id="SVGID_00000126323124052629293910000009544138761457518467_" gradientUnits="userSpaceOnUse" x1="1189.295" y1="1074.1899" x2="1189.295" y2="748.96" gradientTransform="matrix(1 0 0 1 0 -236.06)">
	<stop  offset="0" style="stop-color:#030405"/>
	<stop  offset="0.24" style="stop-color:#040809"/>
	<stop  offset="0.51" style="stop-color:#0A1516"/>
	<stop  offset="0.79" style="stop-color:#132A2C"/>
	<stop  offset="1" style="stop-color:#1C4043"/>
</linearGradient>
<path style="fill:url(#SVGID_00000126323124052629293910000009544138761457518467_);" d="M1261.7,838.1V512.9h-144.8v325.2H1261.7z"
	/>
<linearGradient id="SVGID_00000000908709720841841360000010875600368965029526_" gradientUnits="userSpaceOnUse" x1="2137.2" y1="759.72" x2="2218.6599" y2="759.72" gradientTransform="matrix(1 0 0 1 0 -236.06)">
	<stop  offset="0" style="stop-color:#1C2323"/>
	<stop  offset="0.44" style="stop-color:#1C2525"/>
	<stop  offset="0.71" style="stop-color:#1C2C2D"/>
	<stop  offset="0.92" style="stop-color:#1C393C"/>
	<stop  offset="1" style="stop-color:#1C4043"/>
</linearGradient>
<path style="fill:url(#SVGID_00000000908709720841841360000010875600368965029526_);" d="M2218.7,229.5l-81.5,158.4v320.9
	l81.5,109.1V229.5z"/>
<linearGradient id="SVGID_00000018917492177166859050000002118574830570240912_" gradientUnits="userSpaceOnUse" x1="1910.1901" y1="759.935" x2="2004.15" y2="759.935" gradientTransform="matrix(1 0 0 1 0 -236.06)">
	<stop  offset="0" style="stop-color:#1C4043"/>
	<stop  offset="0.25" style="stop-color:#1C3436"/>
	<stop  offset="0.66" style="stop-color:#1C2727"/>
	<stop  offset="1" style="stop-color:#1C2323"/>
</linearGradient>
<path style="fill:url(#SVGID_00000018917492177166859050000002118574830570240912_);" d="M2004.2,708.8l-94,109.3l0.1-588.4
	l93.9,158.2V708.8z"/>
<path class="st19" d="M1960.9,584.8l-19.5,8.4v-77.8l19.5,8.4V584.8L1960.9,584.8z"/>
<linearGradient id="SVGID_00000101798889605461359060000014759338337530826684_" gradientUnits="userSpaceOnUse" x1="2064.4248" y1="1053.9" x2="2064.4248" y2="944.83" gradientTransform="matrix(1 0 0 1 0 -236.06)">
	<stop  offset="0" style="stop-color:#1C4043"/>
	<stop  offset="0.13" style="stop-color:#1C3A3D"/>
	<stop  offset="0.64" style="stop-color:#1C2929"/>
	<stop  offset="1" style="stop-color:#1C2323"/>
</linearGradient>
<path style="fill:url(#SVGID_00000101798889605461359060000014759338337530826684_);" d="M2137.2,708.8l81.5,109.1h-308.5l94-109.1
	H2137.2z"/>
<linearGradient id="SVGID_00000016044857595947921600000015969257470450539181_" gradientUnits="userSpaceOnUse" x1="2064.4248" y1="465.53" x2="2064.4248" y2="623.96" gradientTransform="matrix(1 0 0 1 0 -236.06)">
	<stop  offset="0" style="stop-color:#1C4043"/>
	<stop  offset="4.000000e-02" style="stop-color:#1C3C3F"/>
	<stop  offset="0.31" style="stop-color:#1C2E2F"/>
	<stop  offset="0.6" style="stop-color:#1C2525"/>
	<stop  offset="1" style="stop-color:#1C2323"/>
</linearGradient>
<path style="fill:url(#SVGID_00000016044857595947921600000015969257470450539181_);" d="M2004.2,387.9h133l81.5-158.4h-308.5
	L2004.2,387.9L2004.2,387.9z"/>
<rect x="1123.2" y="467.8" class="st10" width="132.9" height="91.1"/>
<path class="st11" d="M1215.7,518.8h-52c-4.5,0-8.1-3.8-8.1-8.6V502c0-2.3,1.8-4.1,3.9-4.1h60.4c2.2,0,3.9,1.9,3.9,4.1v8.2
	C1223.8,514.9,1220.2,518.8,1215.7,518.8L1215.7,518.8L1215.7,518.8z"/>
<rect x="1999.7" y="357.4" class="st10" width="142.4" height="91.1"/>
<path class="st11" d="M2101.1,408.4h-60.5c-4.5,0-8.1-3.9-8.1-8.6v-8.2c0-2.3,1.8-4.1,3.9-4.1h68.9c2.2,0,3.9,1.9,3.9,4.1v8.2
	C2109.3,404.5,2105.6,408.4,2101.1,408.4L2101.1,408.4L2101.1,408.4z"/>
<path class="st22" d="M2188.3,649.3c-0.1-3.9-2.7-6.7-6.3-6.8c-11.9,0-23.8,0-35.8,0c-3.4,0-6,2.8-6.1,6.5c0,1.1,0,2.2,0,3.3
	c-6.2-0.9-9,1.6-9,8v48.2h-2.4c-14.4,0-28.7,0-43.1,0c-0.8,0-1.5,0-2.3,0.1c-2.8,0.3-4.9,2.2-5.6,5.1c-0.6,2.4,0.3,4.4,1.6,6.2
	c-2.9,4.1-2.2,8,1.6,10.6c0.5,0.4,1,1.1,1.1,1.8c1.9,10.5,8.7,16.9,18.8,17.7c2.3,0.2,3.4,1.1,3.4,2.8c0,1.7-1,2.6-3.2,2.9
	c-2.7,0.4-4.8,1.9-5.3,4.6c-0.5,2.7-0.3,5.6-0.4,8.5h57.1c0-2.7,0.1-5.3,0-7.9c-0.1-2.1,0.4-3.8,1.3-5.7c5-10.4,9.9-20.8,14.8-31.3
	c0.8-1.7,1.6-2.3,3.4-2.2c4.9,0.1,7.3-2.5,7.3-7.8v-48.7c0.6,0,1.4,0,2.2,0c4.2-0.1,6.7-2.8,6.8-7.3
	C2188.3,655,2188.4,652.1,2188.3,649.3L2188.3,649.3L2188.3,649.3z M2143.5,706.6c0-13.2,0-26.4,0-39.6v-2.2c2,0.2,3.7,0.3,5.6,0.5
	v52.5h-8.1C2143.7,714.3,2143.5,710.5,2143.5,706.6L2143.5,706.6z M2083.5,712.3c0.6-0.2,1.2-0.1,1.9-0.1h46.1c3,0,3.3-0.3,3.3-3.5
	v-48.3c0-0.7,0-1.3,0-2c0.1-1.5,1-2.5,2.4-2.6c1.6-0.1,2.5,0.8,2.8,2.3c0.1,0.6,0.1,1.2,0.1,1.8v24.9c0,8.2,0,16.5,0,24.7
	c0,5.4-2.8,8.4-7.9,8.4c-15.8,0-31.5,0-47.2,0c-0.4,0-0.9,0-1.3,0c-1.4-0.3-2.3-1.1-2.3-2.7C2081.3,713.5,2082.2,712.6,2083.5,712.3
	z M2164.7,723.9c-4.4,9.4-8.8,18.8-13.3,28c-1.7,3.4-2.8,6.8-2.3,10.6c0.3,2.1-0.5,2.5-2.4,2.5c-15.1-0.1-30.2,0-45.4,0h-2
	c-0.6-4.2,0-5.2,3.5-5.8c2.8-0.5,5-3.2,5.2-6.2c0.2-2.9-1.8-5.8-4.5-6.5c-1.4-0.4-2.9-0.3-4.3-0.5c-7.5-1.3-12.9-7.6-13.4-15.7
	c-0.1-0.9-0.1-1.8-0.2-2.8c-0.7,0-1.3,0-1.9-0.1c-1.4-0.3-2.4-1.2-2.4-2.8c0.1-1.6,1-2.5,2.5-2.7c0.5,0,1,0,1.5,0h80.4
	C2165.3,722.6,2165,723.3,2164.7,723.9L2164.7,723.9z M2175.8,669.6v43.8c0,3.7-0.7,4.5-4.1,4.5c-5.3,0-10.5,0-15.8,0
	c-2.2,0-3.2-1-3.2-3.2c0-11.5,0-23.1,0-34.6c0-0.2,0.1-0.4,0.2-0.8c1.5,0,3-0.1,4.4,0.1c0.6,0.1,1.1,0.8,1.5,1.3
	c1.6,2.5,4.4,3.8,7,3.1c2.8-0.8,4.7-3.3,4.7-6.2c0.1-2.9-1.7-5.5-4.4-6.5c-2.5-0.9-5.5,0-6.9,2.6c-0.9,1.8-2.1,2-3.7,1.9
	c-0.9-0.1-1.7,0-2.8,0c0-2.8-0.1-5.4,0.1-8c0.1-1.5,1.2-2.3,2.6-2.3c5.9,0,11.8,0,17.7,0c1.6,0,2.5,1,2.8,2.7
	C2175.8,668.4,2175.8,669,2175.8,669.6L2175.8,669.6z M2161.6,677.4c0-1.5,1.2-2.8,2.6-2.8c1.4,0,2.7,1.3,2.7,2.8
	c0,1.5-1.2,2.8-2.6,2.8C2162.8,680.1,2161.6,678.9,2161.6,677.4L2161.6,677.4z M2184.7,657.8c0,2.5-0.9,3.5-3.3,3.5
	c-5.7,0-11.4,0-17.1,0s-11.4,0-17.1,0c-2.5,0-3.4-1-3.4-3.6c0-2.7,0-5.3,0-7.9c0-2.5,1-3.5,3.3-3.5c11.5,0,22.9,0,34.4,0
	c2.2,0,3.2,1,3.2,3.4C2184.7,652.4,2184.7,655.1,2184.7,657.8L2184.7,657.8z"/>
<path class="st23" d="M2165.7,721.7c-0.4,0.9-0.7,1.6-1,2.2c-4.4,9.4-8.8,18.8-13.3,28c-1.7,3.4-2.8,6.8-2.3,10.6
	c0.3,2.1-0.5,2.5-2.4,2.5c-15.1-0.1-30.2,0-45.4,0h-2c-0.6-4.2,0-5.2,3.5-5.8c2.8-0.5,5-3.2,5.2-6.2c0.2-2.9-1.8-5.8-4.5-6.5
	c-1.4-0.4-2.9-0.3-4.3-0.5c-7.5-1.3-12.9-7.6-13.4-15.7c-0.1-0.9-0.1-1.8-0.2-2.8c-0.7,0-1.3,0-1.9-0.1c-1.4-0.3-2.4-1.2-2.4-2.8
	c0.1-1.6,1-2.5,2.5-2.7c0.5,0,1,0,1.5,0L2165.7,721.7L2165.7,721.7z"/>
<path class="st23" d="M2175.8,669.6v43.8c0,3.7-0.7,4.5-4.1,4.5c-5.3,0-10.5,0-15.8,0c-2.2,0-3.2-1-3.2-3.2c0-11.5,0-23.1,0-34.6
	c0-0.2,0.1-0.4,0.2-0.8c1.5,0,3-0.1,4.4,0.1c0.6,0.1,1.1,0.8,1.5,1.3c1.6,2.5,4.4,3.8,7,3.1c2.8-0.8,4.7-3.3,4.7-6.2
	c0.1-2.9-1.7-5.5-4.4-6.5c-2.5-0.9-5.5,0-6.9,2.6c-0.9,1.8-2.1,2-3.7,1.9c-0.9-0.1-1.7,0-2.8,0c0-2.8-0.1-5.4,0.1-8
	c0.1-1.5,1.2-2.3,2.6-2.3c5.9,0,11.8,0,17.7,0c1.6,0,2.5,1,2.8,2.7C2175.8,668.4,2175.8,669,2175.8,669.6L2175.8,669.6z"/>
<path class="st23" d="M2184.6,657.8c0,2.5-0.9,3.5-3.3,3.5c-5.7,0-11.4,0-17.1,0s-11.4,0-17.1,0c-2.5,0-3.4-0.9-3.4-3.6
	c0-2.7,0-5.3,0-7.9c0-2.5,1-3.5,3.3-3.5c11.5,0,22.9,0,34.4,0c2.2,0,3.2,1,3.2,3.4C2184.7,652.3,2184.7,655.1,2184.6,657.8
	L2184.6,657.8z"/>
<path class="st23" d="M2149.1,665.3v52.5h-8.1c2.8-3.4,2.6-7.2,2.6-11.1c0-13.2,0-26.4,0-39.6v-2.2
	C2145.5,665,2147.3,665.1,2149.1,665.3L2149.1,665.3z"/>
<path class="st23" d="M2140.1,659.9v24.9c0,8.2,0,16.5,0,24.7c0,5.4-2.8,8.4-7.9,8.4c-15.8,0-31.5,0-47.2,0c-0.4,0-0.9,0-1.3,0
	c-1.4-0.3-2.3-1.1-2.3-2.7c-0.1-1.5,0.8-2.5,2.2-2.8c0.6-0.2,1.2-0.1,1.9-0.1h46.1c3,0,3.3-0.3,3.3-3.5v-48.3c0-0.7,0-1.3,0-2
	c0.1-1.5,1-2.5,2.4-2.6c1.6-0.1,2.5,0.8,2.8,2.3C2140.2,658.7,2140.1,659.3,2140.1,659.9z"/>
<path class="st22" d="M1956.7,647v-21.6c0.3,0,0.6-0.1,0.9-0.1c2.5,0,5.1,0,7.6,0c0.5,0,1.1,0.3,1.4,0.6c1,0.9,1.8,1.9,2.7,2.8
	c1,1.1,2.2,1.1,3.1,0.2c0.8-0.9,0.8-2.2-0.2-3.2c-1.2-1.3-2.4-2.7-3.8-3.9c-0.5-0.5-1.3-0.8-2-0.8c-2.9-0.1-5.8,0-8.6,0h-1.2v-4.3
	c0.4,0,0.8,0,1.1,0c1.7,0,3.4,0,5.1,0c1.2,0,1.9-1,1.9-2.2c0-1.1-0.8-2.1-1.9-2.1c-2.8,0-5.7,0-8.5,0c-1.1,0-1.8,0.9-1.9,2.1
	c0,0.8,0,1.6,0,2.4V647c-0.4,0-0.8,0.1-1.2,0.1h-8.6c-1.8,0-2.5,0.7-2.5,2.7c0.1,3.9-0.1,7.9,0.3,11.7c1.1,10,9.3,18.7,18.8,20
	c2.7,0.4,5.5,0.2,8.2,0.3c0.4,0,0.9,0,1.3,0c0,2.8,0.3,5.5-0.1,8.1c-0.4,3-3.1,4.9-6.2,4.9c-3.7,0-7.5,0-11.2,0c-0.3,0-0.7,0-1,0
	c-1.1,0.1-1.8,1-1.8,2.1c0,1.1,0.8,2,1.9,2.1c0.9,0.1,1.8,0,2.7,0c3.2,0,6.4,0,9.6,0c6.1,0,10.5-4.7,10.5-11.1c0-2,0-4,0-6.2
	c0.5,0,0.9-0.1,1.3-0.1h25c11.2,0,20.4-7.8,22.5-19.5c0.4-2.4,0.3-5,0.4-7.4c0.1-1.8,0-3.5,0-5.3c0-1.6-0.8-2.4-2.3-2.4
	c-0.3,0-0.6,0-0.9,0L1956.7,647L1956.7,647L1956.7,647z M2018.1,651.4c0,2.2,0,4.3,0,6.4c-0.1,10.9-8.1,19.5-18.4,19.5
	c-12.3,0.1-24.7,0.1-37,0c-8,0-14.9-5.3-17.4-13.2c-1.3-4.1-1-8.4-1-12.6c0-0.1,0.1-0.1,0.1-0.2L2018.1,651.4L2018.1,651.4z"/>
<path class="st23" d="M2018.1,651.4h-73.6c-0.1,0.1-0.1,0.1-0.1,0.2c-0.1,4.2-0.4,8.5,1,12.6c2.6,7.8,9.5,13.1,17.4,13.2
	c12.3,0.1,24.7,0.1,37,0c10.3-0.1,18.3-8.7,18.4-19.5C2018.1,655.7,2018.1,653.6,2018.1,651.4L2018.1,651.4L2018.1,651.4z"/>
<path class="st1" d="M1439.5,202.4h-47.8c-8.2,0-14.8,7-14.8,15.6v76.7c0,8.6,6.6,15.6,14.8,15.6h47.8c8.2,0,14.8-7,14.8-15.6v-76.7
	C1454.3,209.3,1447.7,202.4,1439.5,202.4z"/>
<path class="st1" d="M1393.7,184.9h16.2c1.6,0,2.9-1.3,2.9-3v-3.1c0-1.7-1.3-3-2.9-3h-16.2c-1.6,0-2.8,1.3-2.8,3v3.1
	C1390.8,183.5,1392.1,184.9,1393.7,184.9z"/>
<path class="st1" d="M1393.7,170.7h16.2c1.6,0,2.9-1.3,2.9-3v-3.1c0-1.7-1.3-3-2.9-3h-16.2c-1.6,0-2.8,1.3-2.8,3v3.1
	C1390.8,169.4,1392.1,170.7,1393.7,170.7z"/>
<path class="st1" d="M1453.6,237h6.2c1.6,0,2.8-1.4,2.8-3v-8.2c0-1.7-1.3-3-2.8-3h-6.2c-1.6,0-2.8,1.4-2.8,3v8.2
	C1450.7,235.6,1452,237,1453.6,237z"/>
<path class="st1" d="M1434.5,204.7h-43.3c-8.2,0-14.8,7-14.8,15.6v67.6c0,8.6,6.6,15.6,14.8,15.6h43.3c8.2,0,14.8-7,14.8-15.6v-67.6
	C1449.3,211.7,1442.7,204.7,1434.5,204.7z"/>
<g class="st13">
	<path d="M1434.5,204.7h-43.3c-8.2,0-14.8,7-14.8,15.6v67.6c0,8.6,6.6,15.6,14.8,15.6h43.3c8.2,0,14.8-7,14.8-15.6v-67.6
		C1449.3,211.7,1442.7,204.7,1434.5,204.7z"/>
</g>
<path class="st1" d="M1423.8,310.4l-35.8-6.2c-6.4-1.1-11.6-7.4-11.6-14v-75.6c0-6.6,5.2-11.1,11.6-10l35.8,6.2
	c6.4,1.1,11.6,7.4,11.6,14v75.6C1435.4,307,1430.2,311.5,1423.8,310.4z"/>
<path class="st1" d="M1414.8,259.1l12.7,3c0.4,0.1,0.7,0.5,0.7,0.9v1.9c0,0.6-0.6,1.1-1.1,0.9l-12.7-3.2c-0.4-0.1-0.7-0.5-0.7-0.9
	v-1.7C1413.7,259.5,1414.2,259,1414.8,259.1z"/>
<path class="st12" d="M1405.9,0.9l-0.1,201.5"/>
<path class="st12" d="M1396.3,0.9v201.5"/>
<path class="st12" d="M1454.4,232.4h13.6V0.9"/>
<path class="st24" d="M1439.5,307.6v419.7h79.3V755"/>
<path class="st1" d="M1523.7,745.3H1513c-2.1,0-3.7,1.8-3.7,3.9v8c0,2.2,1.7,3.9,3.7,3.9h10.8c2.1,0,3.7-1.8,3.7-3.9v-8
	C1527.5,747.1,1525.8,745.3,1523.7,745.3z"/>
<linearGradient id="SVGID_00000134213996097106843520000000549656886431419044_" gradientUnits="userSpaceOnUse" x1="2062.1851" y1="1136.0601" x2="2062.1851" y2="1080.88" gradientTransform="matrix(1 0 0 1 0 -236.06)">
	<stop  offset="0.84" style="stop-color:#112628"/>
	<stop  offset="0.93" style="stop-color:#112729"/>
	<stop  offset="0.97" style="stop-color:#142E30"/>
	<stop  offset="0.99" style="stop-color:#19393C"/>
	<stop  offset="1" style="stop-color:#1C4043"/>
</linearGradient>
<path style="fill:url(#SVGID_00000134213996097106843520000000549656886431419044_);" d="M2250.4,844.8h-376.5V900h376.5V844.8z"/>
<linearGradient id="SVGID_00000005234464658726488030000006944167668375707559_" gradientUnits="userSpaceOnUse" x1="2062.1851" y1="1080.88" x2="2062.1851" y2="1054.13" gradientTransform="matrix(1 0 0 1 0 -236.06)">
	<stop  offset="0" style="stop-color:#1C4043"/>
	<stop  offset="1" style="stop-color:#1C373A"/>
</linearGradient>
<path style="fill:url(#SVGID_00000005234464658726488030000006944167668375707559_);" d="M2250.4,844.8h-376.5l36.7-26.8h307.8
	L2250.4,844.8z"/>
<linearGradient id="SVGID_00000062887966547152724550000006610725376328110011_" gradientUnits="userSpaceOnUse" x1="2063.3652" y1="1067.5" x2="2063.3652" y2="627.72" gradientTransform="matrix(1 0 0 1 0 -236.06)">
	<stop  offset="0" style="stop-color:#5B6146"/>
	<stop  offset="1" style="stop-color:#FFFBCC;stop-opacity:0"/>
</linearGradient>
<path style="opacity:0.21;fill:url(#SVGID_00000062887966547152724550000006610725376328110011_);enable-background:new    ;" d="
	M2113.6,391.7l105.2,310.2v116.2l15.8,13.4h-342.5l18.2-13.4V702.7l117.9-311"/>
<linearGradient id="SVGID_00000147913121519798936670000015762402113228846777_" gradientUnits="userSpaceOnUse" x1="1188.11" y1="203.01" x2="1188.11" y2="1102.64" gradientTransform="matrix(1 0 0 1 0 -236.06)">
	<stop  offset="0.84" style="stop-color:#112628"/>
	<stop  offset="0.93" style="stop-color:#112729"/>
	<stop  offset="0.97" style="stop-color:#142E30"/>
	<stop  offset="0.99" style="stop-color:#19393C"/>
	<stop  offset="1" style="stop-color:#1C4043"/>
</linearGradient>
<path style="fill:url(#SVGID_00000147913121519798936670000015762402113228846777_);" d="M1291.7,866.6h-207.2V900h207.2V866.6z"/>
<linearGradient id="SVGID_00000168079699447260418090000000527876904020661695_" gradientUnits="userSpaceOnUse" x1="1188.11" y1="1102.63" x2="1188.11" y2="1084.8101" gradientTransform="matrix(1 0 0 1 0 -236.06)">
	<stop  offset="0" style="stop-color:#1C4043"/>
	<stop  offset="1" style="stop-color:#1C373A"/>
</linearGradient>
<path style="fill:url(#SVGID_00000168079699447260418090000000527876904020661695_);" d="M1291.7,866.6h-207.2l20.2-17.8h169.4
	L1291.7,866.6L1291.7,866.6z"/>
<linearGradient id="SVGID_00000123440614588747427430000013869642718836629390_" gradientUnits="userSpaceOnUse" x1="284.53" y1="688.5784" x2="1518.74" y2="688.5784" gradientTransform="matrix(1 0 0 1 0 -236.06)">
	<stop  offset="0" style="stop-color:#030405"/>
	<stop  offset="1" style="stop-color:#6E8F91"/>
</linearGradient>
<path style="opacity:0.53;fill:url(#SVGID_00000123440614588747427430000013869642718836629390_);enable-background:new    ;" d="
	M913.6,5l605.1,794V900h-708V427.1H284.5L605.1,5"/>
<rect x="559.2" y="-29.1" class="st10" width="400.3" height="121.5"/>
<path class="st15" d="M905.5,42.5H613.3c-4.5,0-8.1-3.8-8.1-8.6V5c0-2.3,1.8-4.1,3.9-4.1h300.7c2.2,0,3.9,1.9,3.9,4.1v29
	C913.6,38.7,910,42.5,905.5,42.5L905.5,42.5L905.5,42.5z"/>
<linearGradient id="SVGID_00000020389018720045089950000003388623059819824800_" gradientUnits="userSpaceOnUse" x1="483.3793" y1="1074.0376" x2="483.3793" y2="948.0262" gradientTransform="matrix(1 0 0 1 0 -236.06)">
	<stop  offset="0" style="stop-color:#424242"/>
	<stop  offset="2.000000e-02" style="stop-color:#464646"/>
	<stop  offset="0.37" style="stop-color:#868686"/>
	<stop  offset="0.54" style="stop-color:#A0A0A0"/>
	<stop  offset="0.59" style="stop-color:#868686"/>
	<stop  offset="0.68" style="stop-color:#5C5D5C"/>
	<stop  offset="0.77" style="stop-color:#3C3C3C"/>
	<stop  offset="0.85" style="stop-color:#242524"/>
	<stop  offset="0.93" style="stop-color:#161716"/>
	<stop  offset="1" style="stop-color:#121312"/>
</linearGradient>
<path style="fill:url(#SVGID_00000020389018720045089950000003388623059819824800_);" d="M347.6,721.5c-7,2.3-10.9,4.4-12.7,8.4
	c-3.2,7.2,3.9,12.5,4,26.8c0,9.2-2.9,9-3.2,20.1c-0.2,9.8,2,12.2,2.4,21.7c0.5,14.7-5.4,18.3-3.2,22.6c5.2,10.1,37.3-7.9,77.5-6.7
	c32.6,1,37.4,13.6,69.6,17.6c44.3,5.4,59.5-28.8,87.8-16.7c18.2,7.8,25,25.2,39.5,22.6c10-1.8,17.4-11.3,20.6-19.2
	c9.4-23.4-8.8-55.5-29.3-70.2c-8.7-6.3-9.5-3.3-27.7-14.2c-20.6-12.3-22.7-17.8-34-20.9c-12.4-3.4-17.1,1.3-38,4.2
	c-5.5,0.8-7.6,0.7-53-0.8c-20.3-0.7-40.6,0.4-60.9-0.8C387.2,715.6,368.8,714.5,347.6,721.5L347.6,721.5z"/>
<linearGradient id="SVGID_00000085225784112356601770000017790084600998761861_" gradientUnits="userSpaceOnUse" x1="288.7228" y1="989.2698" x2="288.7228" y2="956.0839" gradientTransform="matrix(1 0 0 1 0 -236.06)">
	<stop  offset="0" style="stop-color:#A0A0A0"/>
	<stop  offset="0.23" style="stop-color:#6D6D6D"/>
	<stop  offset="0.48" style="stop-color:#3E3E3E"/>
	<stop  offset="0.7" style="stop-color:#1C1C1C"/>
	<stop  offset="0.88" style="stop-color:#070707"/>
	<stop  offset="1" style="stop-color:#000000"/>
</linearGradient>
<path style="fill:url(#SVGID_00000085225784112356601770000017790084600998761861_);" d="M253.5,750.8c1.1,3.2,8.1,1.3,28.5,1.7
	c20.3,0.4,27.2,2.5,30.9-2.5c3.5-4.8-0.3-10.3,4.8-18.4c3.2-5.2,6.9-6.4,6.3-8.4c-0.6-2.2-5.7-1.8-20.6-2.5c-11.7-0.6-13-1.1-16.6,0
	c-4.1,1.2-6.8,3.3-14.2,10C259.3,742.6,252.8,748.6,253.5,750.8z"/>
<linearGradient id="SVGID_00000044883505615911335530000014625607562183001768_" gradientUnits="userSpaceOnUse" x1="404.21" y1="1105.96" x2="404.21" y2="787.3998" gradientTransform="matrix(1 0 0 1 0 -236.06)">
	<stop  offset="0" style="stop-color:#5B6146"/>
	<stop  offset="1" style="stop-color:#FFFBCC;stop-opacity:0"/>
</linearGradient>
<path style="opacity:0.21;fill:url(#SVGID_00000044883505615911335530000014625607562183001768_);enable-background:new    ;" d="
	M470.6,551.4l292.7,276.7v41.8H621V766.2l-8.7-5l-412.1-0.8l-9.5,5.8l-0.2,103.7H45.1v-38.5l284.8-280.1"/>
</svg>
