<?xml version="1.0" encoding="utf-8"?>
<!-- Generator: Adobe Illustrator 28.1.0, SVG Export Plug-In . SVG Version: 6.00 Build 0)  -->
<svg version="1.1" id="Livello_1" xmlns="http://www.w3.org/2000/svg" xmlns:xlink="http://www.w3.org/1999/xlink" x="0px" y="0px"
	 viewBox="0 0 3042.5 964" style="enable-background:new 0 0 3042.5 964;" xml:space="preserve">
<style type="text/css">
	.st0{clip-path:url(#SVGID_00000179637609972502514910000001348808388688560805_);}
	.st1{fill:#59865F;}
	.st2{fill:none;}
	.st3{fill:none;stroke:#59865F;stroke-width:7;}
	.st4{fill:#3A523D;}
	.st5{fill:none;stroke:#59865F;}
	.st6{fill:#3A523D;stroke:#59865F;stroke-width:7;}
	.st7{fill:#3A523D;stroke:#59865F;stroke-width:6.99;}
	.st8{fill:none;stroke:#59865F;stroke-width:7;stroke-linecap:round;}
	.st9{fill:#59865F;stroke:#59865F;stroke-width:7;}
	.st10{fill:#59865F;stroke:#3A523D;stroke-width:2;}
	.st11{fill:none;stroke:#59865F;stroke-width:4;}
	.st12{fill:none;stroke:#59865F;stroke-width:2;}
	.st13{fill:#3A523D;stroke:#59865F;stroke-width:2;}
	.st14{fill:none;stroke:#59865F;stroke-width:2;stroke-linecap:round;}
	.st15{fill:#3A523D;stroke:#3A523D;stroke-width:7;}
	.st16{fill:#3A523D;stroke:#59865F;}
	.st17{fill:none;stroke:#3A523D;stroke-width:7;}
	.st18{fill:#69BB5D;stroke:#59865F;stroke-width:2;}
	.st19{fill:#69BB5C;stroke:#59865F;stroke-width:2;}
	.st20{fill:none;stroke:#3A523D;stroke-width:2;stroke-linecap:round;}
	.st21{fill:none;stroke:#59865F;stroke-width:7.05;}
	.st22{fill:none;stroke:#59865F;stroke-width:7.06;}
	.st23{fill:none;stroke:#59865F;stroke-width:7.08;}
	.st24{fill:none;stroke:#59865F;stroke-width:6.93;}
</style>
<g>
	<defs>
		<rect id="SVGID_1_" x="1.5" y="105.5" width="3040" height="858"/>
	</defs>
	<clipPath id="SVGID_00000173130645655684141780000010591421017882028469_">
		<use xlink:href="#SVGID_1_"  style="overflow:visible;"/>
	</clipPath>
	<g style="clip-path:url(#SVGID_00000173130645655684141780000010591421017882028469_);">
		<rect x="0.5" y="105.5" class="st1" width="3040" height="858"/>
		<rect x="0.5" y="152.5" class="st2" width="1972.7" height="752"/>
		<rect x="1108.4" y="180" class="st3" width="23" height="328"/>
		<rect x="0.5" y="105.5" class="st4" width="3041" height="858"/>
		<rect x="0.5" y="0.5" class="st5" width="3041" height="963"/>
		<rect x="789.3" y="220" class="st6" width="46" height="109"/>
		<path class="st3" d="M718.7,532.5v-373h1583.5v373H718.7z"/>
		<rect x="4.5" y="930" class="st7" width="3034" height="30"/>
		<rect x="736.2" y="180" class="st6" width="1540.5" height="328"/>
		<rect x="1101.4" y="180" class="st3" width="23" height="328"/>
		<rect x="1886.6" y="180" class="st3" width="23" height="328"/>
		<rect x="1490.5" y="180" class="st3" width="23" height="328"/>
		<rect x="1513.5" y="376" class="st6" width="46" height="132"/>
		<rect x="1513.5" y="303" class="st6" width="46" height="74"/>
		<rect x="1605.5" y="180" class="st6" width="47" height="108"/>
		<rect x="1605.5" y="368" class="st6" width="47" height="140"/>
		<rect x="1605.5" y="288" class="st6" width="47" height="81"/>
		<rect x="1559.5" y="180" class="st6" width="46" height="230"/>
		<rect x="1559.5" y="336" class="st6" width="46" height="172"/>
		<rect x="1697.6" y="220" class="st6" width="48" height="109"/>
		<rect x="1651.5" y="180" class="st6" width="46" height="230"/>
		<rect x="1651.5" y="336" class="st6" width="46" height="172"/>
		<rect x="1793.6" y="368" class="st6" width="46" height="140"/>
		<rect x="1793.6" y="295" class="st6" width="46" height="74"/>
		<rect x="1747.6" y="180" class="st6" width="46" height="230"/>
		<rect x="1747.6" y="336" class="st6" width="46" height="172"/>
		<rect x="1747.6" y="220" class="st6" width="46" height="109"/>
		<rect x="1744.6" y="180" class="st6" width="46" height="230"/>
		<rect x="1744.6" y="336" class="st6" width="46" height="172"/>
		<rect x="1839.6" y="180" class="st6" width="46" height="230"/>
		<rect x="1839.6" y="336" class="st6" width="46" height="172"/>
		<rect x="736.2" y="180" class="st6" width="46" height="108"/>
		<rect x="736.2" y="361" class="st6" width="46" height="147"/>
		<rect x="736.2" y="287" class="st6" width="46" height="74"/>
		<rect x="828.3" y="376" class="st6" width="46" height="132"/>
		<rect x="828.3" y="303" class="st6" width="46" height="74"/>
		<rect x="782.3" y="180" class="st6" width="46" height="230"/>
		<rect x="782.3" y="328" class="st6" width="46" height="180"/>
		<rect x="783.3" y="220" class="st6" width="45" height="109"/>
		<rect x="874.3" y="180" class="st6" width="47" height="230"/>
		<rect x="874.3" y="336" class="st6" width="47" height="172"/>
		<rect x="1013.3" y="376" class="st6" width="46" height="132"/>
		<rect x="1009.3" y="302" class="st6" width="46" height="74"/>
		<rect x="967.3" y="180" class="st6" width="46" height="230"/>
		<rect x="967.3" y="336" class="st6" width="46" height="172"/>
		<rect x="921.3" y="180" class="st6" width="46" height="230"/>
		<rect x="921.3" y="409" class="st6" width="46" height="99"/>
		<rect x="1055.3" y="220" class="st6" width="46" height="109"/>
		<rect x="1055.3" y="180" class="st6" width="46" height="230"/>
		<rect x="1055.3" y="336" class="st6" width="46" height="172"/>
		<rect x="1124.4" y="376" class="st6" width="47" height="132"/>
		<rect x="1124.4" y="304" class="st6" width="47" height="74"/>
		<rect x="1216.4" y="180" class="st6" width="47" height="108"/>
		<rect x="1217.4" y="362" class="st6" width="46" height="146"/>
		<rect x="1217.4" y="288" class="st6" width="46" height="77"/>
		<rect x="1171.4" y="180" class="st6" width="46" height="230"/>
		<rect x="1171.4" y="336" class="st6" width="46" height="172"/>
		<rect x="1262.4" y="180" class="st6" width="46" height="230"/>
		<rect x="1262.4" y="336" class="st6" width="46" height="172"/>
		<rect x="1397.5" y="376" class="st6" width="47" height="132"/>
		<rect x="1397.5" y="302" class="st6" width="47" height="74"/>
		<rect x="1351.4" y="180" class="st6" width="46" height="230"/>
		<rect x="1355.4" y="336" class="st6" width="42" height="172"/>
		<rect x="1351.4" y="220" class="st6" width="46" height="109"/>
		<rect x="1308.4" y="180" class="st6" width="46" height="230"/>
		<rect x="1444.5" y="180" class="st6" width="46" height="230"/>
		<rect x="1444.5" y="336" class="st6" width="46" height="172"/>
		<rect x="1910.6" y="295" class="st6" width="46" height="74"/>
		<rect x="2001.7" y="180" class="st6" width="47" height="108"/>
		<rect x="2001.7" y="376" class="st6" width="47" height="132"/>
		<rect x="2001.7" y="288" class="st6" width="47" height="88"/>
		<rect x="1956.6" y="180" class="st6" width="45" height="230"/>
		<rect x="1956.6" y="336" class="st6" width="45" height="172"/>
		<rect x="2048.7" y="180" class="st6" width="45" height="230"/>
		<rect x="2048.7" y="336" class="st6" width="45" height="172"/>
		<rect x="2140.7" y="376" class="st6" width="45" height="132"/>
		<rect x="2140.7" y="302" class="st6" width="45" height="74"/>
		<rect x="2185.7" y="180" class="st6" width="45" height="156"/>
		<rect x="2093.7" y="180" class="st6" width="46" height="230"/>
		<rect x="2715.9" y="435" class="st6" width="45" height="50"/>
		<rect x="2715.9" y="415" class="st6" width="45" height="110"/>
		<rect x="2820.9" y="472" class="st6" width="45" height="33"/>
		<rect x="2767.9" y="435" class="st6" width="46" height="50"/>
		<rect x="2767.9" y="415" class="st6" width="46" height="110"/>
		<rect x="2093.7" y="376" class="st6" width="46" height="132"/>
		<rect x="2230.7" y="180" class="st6" width="46" height="230"/>
		<rect x="2230.7" y="303" class="st6" width="46" height="205"/>
		<path class="st6" d="M941.1,225.4c4.7-2.9,10.6-2.9,15.3,0l79.1,49.3c12.4,7.7,6.9,26.8-7.7,26.8H869.7c-14.6,0-20-19.1-7.7-26.8
			L941.1,225.4L941.1,225.4z"/>
		<path class="st8" d="M947,223.2c-3.5,0-6.3,1.7-9.4,3.2c-6.7,3.3-13,7-18.9,11.7c-8.1,6.4-14.9,14.2-21.4,22.2
			c-7.1,8.7-13.8,17.8-17.4,28.5c-1.1,3.4-3.7,8.6-3.7,12.3"/>
		<path class="st8" d="M945.7,221.9c-0.2,0.8-2.7,0.5-3.4,0.7c-4.6,1.5-8.4,4.7-11.8,8.2c-5.4,5.5-7.6,11.6-11,18.4
			c-3.3,6.5-6.3,13.2-8.2,20.3c-2.9,10.4-5,21.4-5,32.2"/>
		<path class="st8" d="M946.1,224.1c-0.4,2.7-2.5,5.4-3.6,7.8c-2.2,4.8-3.9,9.5-4.9,14.8c-2.2,11.2-3.7,22.6-3.7,34.1
			c0,6.9,0.5,14.2,0.5,20.8"/>
		<path class="st8" d="M939.8,224.5c-1.9,0.6-3.7,4.6-4.4,6.2c-2.2,5.1-4.8,10.1-6.5,15.5c-3.8,12.4-7.7,25.3-8.8,38.3
			c-0.3,3.4-0.2,6.9-0.2,10.3c0,1.3-0.3,2.9,0,4.2c0.4,1.8,0.8,3.8,1,5.7"/>
		<path class="st8" d="M862.7,301c-0.4-3.7-0.7-7.4-0.2-11.1c0.8-5,3.7-9.3,6-13.6c2.2-3.9,5.1-6.9,7.8-10.4c1-1.3,2-2.1,3.2-3.2
			s2.5-3.1,4.1-3.6"/>
		<path class="st8" d="M946.8,222.9c3.5,0,6.3,1.7,9.4,3.2c6.7,3.3,13,7,18.9,11.7c8.1,6.4,14.9,14.2,21.4,22.2
			c7.1,8.7,13.8,17.8,17.4,28.5c1.1,3.4,3.7,8.6,3.7,12.3"/>
		<path class="st8" d="M948.2,221.5c0.2,0.8,2.7,0.5,3.4,0.7c4.6,1.5,8.4,4.7,11.8,8.2c5.4,5.5,7.6,11.6,11,18.4
			c3.3,6.5,6.3,13.2,8.2,20.3c2.9,10.4,5,21.4,5,32.2"/>
		<path class="st8" d="M947.7,223.8c0.4,2.7,2.5,5.4,3.6,7.8c2.2,4.8,3.9,9.5,4.9,14.8c2.2,11.2,3.7,22.6,3.7,34.1
			c0,6.8-0.5,14.2-0.5,20.8"/>
		<path class="st8" d="M953.8,223.5c1.8,0.6,3.5,4.7,4.2,6.2c2.1,5.2,4.6,10.2,6.2,15.7c3.6,12.6,7.3,25.7,8.4,38.8
			c0.3,3.5,0.2,6.9,0.2,10.4c0,1.3,0.3,2.9,0,4.2c-0.4,1.8-0.8,3.8-0.9,5.7"/>
		<path class="st8" d="M1031.3,300.5c0.4-3.9,0.8-8,0.2-11.9c-0.9-5.3-4.3-10-7-14.6c-2.5-4.2-6-7.4-9.2-11.1
			c-1.1-1.4-2.3-2.3-3.7-3.5s-2.9-3.3-4.7-3.9"/>
		<path class="st9" d="M994.1,308.3c2,8-0.8,10.6-2.5,10.9c-5.8,2.8-5.6-16.4-6.7-22.7c-1.2-6.3,9.2-7.2,9.2-4.6
			S991.6,298.2,994.1,308.3L994.1,308.3z"/>
		<path class="st9" d="M859.5,299.2c-2,6.7,0.8,8.8,2.5,9c5.8,2.4,5.6-13.6,6.7-18.8c1.2-5.2-9.2-6-9.2-3.8S862,290.9,859.5,299.2
			L859.5,299.2z"/>
		<path class="st9" d="M908.4,317.9c-1-6.3-11.2-7.6-16.2-7.4c-3.6,2.5,0,21-6.1,28.9c-6.1,7.8,1.2,12,6.1,15.7
			c4.9,3.7,6.5,15.3,13.8,16.9s16.6,0,14.6-9.5s-10.5-2.1-16.2-18.6C898.7,327.4,909.6,325.8,908.4,317.9L908.4,317.9z"/>
		<path class="st9" d="M897.5,308.3c-2,8,0.8,10.6,2.5,10.9c5.8,2.8,5.6-16.4,6.7-22.7c1.2-6.3-9.2-7.2-9.2-4.6
			S900,298.2,897.5,308.3L897.5,308.3z"/>
		<path class="st8" d="M888.2,336.1c1.5,0,2.6,1.8,3.1,3c0.5,1.1,0.8,2.3,1,3.5c0.3,2,0.5,4.4,0.1,6.4c-0.3,1.6-0.7,3.1-1.2,4.6"/>
		<path class="st8" d="M917.6,358.1h-3.2c-1.7,0-3,0.7-4.5,1.5c-2.1,1.1-3.4,3.9-4.1,6.1c-0.5,1.5-0.7,3.9,0.1,5.2"/>
		<path class="st9" d="M870.8,311c-0.4-6.4-9.8-4.7-14.5-3c-3.5,1,1,14.5-2,24s0,8,5.5,16s16.5,5,19-3.5s-2.5-5.5-8-12.5
			S871.3,319,870.8,311L870.8,311z"/>
		<path class="st8" d="M855.4,332.1c5.1,0,8.5,3.2,9.8,8c1,3.7,0.1,7.1-1.6,10.3"/>
		<path class="st8" d="M875.1,336.7c0,0.3-0.2,0.7-0.2,1c-0.1,0.8-0.2,1.6-0.1,2.4c0.1,0.7,0.2,1.2,0.6,1.8c0.3,0.5,0.7,0.8,1.1,1.2
			c0.4,0.4,0.9,0.9,1.4,1.2"/>
		<path class="st9" d="M979.3,322c0.4-8,12.8-10,19-10c8.5,2.5,0,27,5,39s-3,12.5-10.5,23s-15.5,20.5-26,20s-9-9-5.5-12.5
			s10.5-12,18-24.5C986.8,344.5,978.8,332,979.3,322L979.3,322z"/>
		<path class="st8" d="M963.1,380.6c1.9,0,4.1-0.3,5.9,0.6c1.6,0.8,3.2,2.2,4.3,3.5c1.5,1.8,2.4,4.9,2.4,7.3"/>
		<path class="st8" d="M1001.5,348.6c-1.6,2.4-3.7,5.4-4.1,8.4c-0.2,1.6-0.2,3.2,0,4.8c0.1,1.2,0.7,2.5,1.2,3.6"/>
		<path class="st8" d="M982.8,324c0,2.1,1.2,4,1.2,6.1"/>
		<path class="st8" d="M988.7,323.2c0,0.9,0,1.9,0.2,2.8"/>
		<path class="st8" d="M998.1,319.7c0,1.7-0.2,3.4-0.2,5.1"/>
		<path class="st8" d="M893.4,321.7v6.1"/>
		<path class="st8" d="M897.5,325v1.7"/>
		<path class="st8" d="M857.6,310.7c0,2.7-0.1,5.5,0.1,8.2"/>
		<path class="st8" d="M859.7,310.5c0,1.9,0,3.9,0.1,5.8c0.1,1.3,0.2,2.5,0.2,3.8"/>
		<path class="st8" d="M904.7,322.7c-2.5,2.2-3.3,5.2-4.1,8.4"/>
		<path class="st9" d="M1025.3,307.2c-2-11.2,5.2-12.3,9-11.5c9,0,10.5,9.5,8,18.5s3,12,6,22.5s-14,33.5-23,30.5c-9-3-5.5-9,0-19.5
			S1027.8,321.2,1025.3,307.2L1025.3,307.2z"/>
		<path class="st9" d="M1037.1,300c2,6.1-0.8,8.1-2.5,8.3c-5.8,2.2-5.6-12.4-6.7-17.2c-1.1-4.8,9.2-5.5,9.2-3.5
			S1034.6,292.4,1037.1,300L1037.1,300z"/>
		<path class="st8" d="M1022.3,353.9c3.4,0,6.4-0.4,8.6,2.8c1.1,1.6,1.2,4.3,1.2,6.2"/>
		<path class="st8" d="M1028.2,305.2c0,1.1,0.4,2.1,0.7,3.2c0.6,2.6,1.2,5.1,1.8,7.7"/>
		<path class="st8" d="M1032,307.5c0,1.3,0.2,2.5,0.4,3.8c0.2,1.5,0.3,3.1,0.4,4.6"/>
		<path class="st8" d="M1036.8,308.3v5.4"/>
		<path class="st3" d="M854.8,291c36.3,1.3,125.1,3.2,189.6,0"/>
		<path class="st10" d="M817.8,688.5h484.2c32.6,0,59,26.4,59,59v44c0,32.6-26.4,59-59,59H817.8c-32.6,0-59-26.4-59-59v-44
			C758.8,714.9,785.2,688.5,817.8,688.5z"/>
		<path class="st1" d="M1154.9,848.2c0-23,19.2-41.7,43-41.7h168.1c23.8,0,43,18.7,43,41.7v36.9c0,23-19.2,41.7-43,41.7h-168.1
			c-23.8,0-43-18.7-43-41.7L1154.9,848.2L1154.9,848.2z"/>
		<path class="st4" d="M1154.9,842.5c0-27.6,22.4-50,50-50H1359c27.6,0,50,22.4,50,50c0-19.9-19.2-36-43-36h-168.1
			C1174.1,806.5,1154.9,822.6,1154.9,842.5L1154.9,842.5z M1409,923.5h-254.1H1409z M1154.9,923.5v-124V923.5z M1409,799.5v124
			V799.5z"/>
		<path class="st1" d="M718.7,851.5c0-23.7,19.3-43,43-43h171.1c23.7,0,43,19.3,43,43v38c0,23.7-19.3,43-43,43H761.8
			c-23.7,0-43-19.3-43-43V851.5z"/>
		<path class="st4" d="M718.7,848.8c0-28.5,22.4-51.6,50-51.6h157c27.6,0,50,23.1,50,51.6c0-20.5-19.3-37.2-43-37.2H761.8
			C738,811.7,718.8,828.3,718.7,848.8L718.7,848.8z M975.8,932.5H718.7H975.8L975.8,932.5z M718.7,932.5V804.4V932.5z M975.8,804.4
			v128.1V804.4z"/>
		<path class="st4" d="M920.8,845.5c0-27.6,22.4-50,50-50h185.1c27.6,0,50,22.4,50,50c0-19.9-19.2-36-43-36H963.8
			C940.1,809.5,920.8,825.6,920.8,845.5L920.8,845.5z M1205.9,926.5H920.8H1205.9z M920.8,926.5h285.1"/>
		<path class="st3" d="M770.8,922.5h591.2"/>
		<rect x="1765.6" y="709" class="st6" width="10" height="215"/>
		<rect x="2101.7" y="703" class="st6" width="10" height="227"/>
		<path class="st3" d="M2642.9,718.5h399.6"/>
		<path class="st9" d="M2978,450v134l32,25c20.8-38,24.3-121.8,23.5-159H2978z"/>
		<path class="st9" d="M2949.5,639c0,12.4-6.7,51.5-10,69.5h78l-10.5-127h-135.5C2880,646,2949.5,623.5,2949.5,639L2949.5,639z"/>
		<path class="st3" d="M2977.5,457.5h56"/>
		<path class="st9" d="M2870.9,578h103c-7.8-2.5-29.3-7.4-52.5-7S2878.1,575.8,2870.9,578L2870.9,578z"/>
		<rect x="2435.8" y="4" class="st6" width="7" height="919"/>
		<rect x="2645.9" y="411" class="st3" width="248.1" height="118"/>
		<path class="st9" d="M2658.2,506.6c-13-24.4-11.6-71.7-9.2-92.3c19.5-7,80.2,0,73.7,12.7c-6.5,12.7-4.3,64.7,0,83.4
			s21.1,23.9,15.7,29.5c-5.4,5.6-9.2,0-20,0s-4.3,5.6-16.2,5.6s-7.6-5.6-17.9-5.6s-16.2,9.4-26,0
			C2648.4,530.5,2674.4,537.1,2658.2,506.6L2658.2,506.6z"/>
		<path class="st9" d="M2883.6,506.6c16.8-24.4,14.9-71.7,11.9-92.3c-25.2-7-103.7,0-95.3,12.7s5.6,64.7,0,83.4
			s-27.3,23.9-20.3,29.5c7,5.6,11.9,0,25.9,0s5.6,5.6,21,5.6s9.8-5.6,23.1-5.6s21,9.4,33.6,0
			C2896.1,530.5,2862.5,537.1,2883.6,506.6L2883.6,506.6z"/>
		<path class="st8" d="M2658.2,467.6c0,5.1-0.2,9.7,1.7,14.5c2.1,5.7,5.6,10.7,9.2,15.5c8.3,11,11.7,26.4,5.4,39"/>
		<path class="st8" d="M2685.4,478.5c5.4,6.5,9.1,15.7,12,23.5c3.1,8.3,4.4,17.3,3.1,26.1"/>
		<path class="st8" d="M2686.6,499.1c0.6,2.2,2.4,3.9,3,6.2c0.8,2.8,1.9,5.7,2.3,8.6c0.4,3.5,0.5,7.7-0.6,11.1
			c-0.8,2.4-2.4,4.3-2.9,6.8"/>
		<path class="st8" d="M2815.2,480.9c0,9.8,0.3,19.7-1.2,29.5c-1,6.7-2.5,13.4-5.3,19.5c-0.5,1.2-2.2,4.4-2.2,3.1"/>
		<path class="st8" d="M2850.8,463.1c0,11.3,0.5,22.7-0.4,34c-0.8,11-2.8,22-6.9,32.3c-1.1,2.8-2.1,4.9-4.5,6.6"/>
		<path class="st8" d="M2842.5,495.2c0,3.8,0.1,7.6-0.3,11.4c-1,10.7-4.2,19.8-8.8,29.4"/>
		<path class="st8" d="M2869.9,496.1c0,5.5-1.7,10.5-3.3,15.7c-2,6.6-3.3,13-3.7,19.9"/>
		<path class="st8" d="M2873.8,508.2c-0.2,4.9-3.3,9.1-3.4,14.1c-0.1,4.1,0,7,2.6,10.2"/>
		<path class="st8" d="M2806.5,510c0,10.5-9.5,20-20,20"/>
		<path class="st3" d="M2206.2,811c-2-54.7,4.6-165.7,47-172.5c53-8.5-41,2.5-36,172.5"/>
		<rect x="2130.7" y="814" class="st6" width="87" height="7"/>
		<rect x="2138.2" y="825.5" class="st11" width="4" height="99"/>
		<rect x="2211.2" y="825.5" class="st11" width="4" height="99"/>
		<rect x="1645.8" y="815" class="st3" width="87" height="7"/>
		<rect x="1720.1" y="826.5" class="st11" width="4" height="99"/>
		<rect x="1648.3" y="826.5" class="st11" width="4" height="99"/>
		<path class="st8" d="M1790,669.2c0-1.8-0.4-4.2,0.2-5.9c0.5-1.2,2.3-1.1,3.3-1.1c2.5-0.2,4.9-0.1,7.4-0.1h20.3
			c4.6,0,9.3,0.1,13.9,0c7.8-0.3,15.5-1.1,23.3-1.7c7.8-0.7,16.9-2,23.6,3.2c1.5,1.1,3.6,3.6,3.6,5.6"/>
		<path class="st3" d="M1877.8,660.5c-2-6-4.8-18,0-18h17c0.5,0,4,18.5-3,27"/>
		<path class="st3" d="M2041.7,651c0,8.4,1.3,15.8,2,18.5h15c1.6-2.8,1.7-20.2,1.5-28.5h-18.5L2041.7,651L2041.7,651z"/>
		<path class="st6" d="M2054.2,647.7c0,9.4,1.4,17.8,2.1,20.8h15.3c1.6-3.1,1.7-22.6,1.5-32h-18.9L2054.2,647.7L2054.2,647.7z"/>
		<path class="st6" d="M1814.1,648.7c0,9.4,1.4,17.8,2.1,20.8h15.3c1.6-3.1,1.7-22.6,1.5-32h-18.9V648.7z"/>
		<path class="st6" d="M1773,671.4c7.5,5.7,15,9.7,17.8,11l9.3-12.2c-1.5-3.2-17-15.1-24.5-20.6l-11.5,15.1L1773,671.4L1773,671.4z"
			/>
		<path class="st6" d="M1712.6,672h441.1c8.3,0,15,6.7,15,15l0,0c0,8.3-6.7,15-15,15h-441.2c-8.3,0-15-6.7-15-15l0,0
			C1697.6,678.7,1704.3,672,1712.6,672L1712.6,672z"/>
		<path class="st12" d="M296.1,923c0.4-1.6,1.5-9.3,2-13c91,11,144.6-3.5,144.6,0c0,2.8,3,9.8,4.5,13
			C411.1,929.5,295.6,925,296.1,923L296.1,923z"/>
		<path class="st12" d="M430.6,924.1c0.4-1.6,1.5-9.3,2-13c91,11,144.5-3.5,144.5,0c0,2.8,3,9.8,4.5,13
			C545.7,930.6,430.1,926.1,430.6,924.1z"/>
		<path class="st12" d="M346.8,909.5c-0.8,1.8,1,3.4,2,4c3.5,0,5,0,7.9-1.7c3-1.7,11.4-2.3,15.9-1.7s6.4-3.4,4-3.4s-4-1.1-9.9-1.1
			s-5.4,2.9-9.9,2.9C352.2,908.4,347.8,907.2,346.8,909.5L346.8,909.5z"/>
		<path class="st13" d="M352,913.5h-0.9v1c0,0.4,0.2,0.6,0.3,0.7c0.1,0.1,0.2,0.2,0.3,0.2c0.1,0.1,0.3,0.2,0.4,0.2
			c0.3,0.1,0.7,0.3,1.2,0.4c0.9,0.3,2.2,0.7,3.7,1c2.8,0.7,6.2,1.5,8.5,1.9c2.4,0.4,3.7,1.8,4.8,3.2c0.1,0.2,0.3,0.4,0.5,0.6
			c0.4,0.5,0.7,1,1.1,1.4c0.6,0.6,1.3,1.2,2.3,1.2c0.5,0,1.2,0.1,2,0.3c0.3,0.1,0.7,0.1,1,0.2c0.5,0.1,0.9,0.2,1.3,0.3
			s0.7,0.1,1,0.1s0.7,0,1-0.1c0.2-0.1,0.4-0.2,0.6-0.4s0.3-0.6,0.3-0.8c0-0.5-0.3-0.9-0.5-1.2c-0.8-1-1.1-1.6-1.3-2.3
			c-0.1-0.7-0.1-1.6,0.4-3.3c0.6-2.1,0-3.9-0.8-5.3c-0.4-0.7-0.8-1.3-1.2-1.8v-0.1c-0.4-0.6-0.7-1.1-1-1.5c-0.1-0.2-0.3-0.5-0.4-0.7
			c-0.2-0.2-0.5-0.5-1-0.5c-0.4,0-0.7,0.2-0.8,0.3c-0.1,0.1-0.2,0.2-0.3,0.2l-0.1,0.1c-0.2,0.2-0.4,0.3-0.8,0.4
			c-0.4,0.1-1,0.2-1.8,0.1c-0.4-0.1-0.8-0.1-1.2-0.2c-3.3-0.4-5.8-0.8-9.2,0.2c-1.8,0.5-4.2,1.6-6,2.4c-0.5,0.2-0.9,0.4-1.3,0.6
			c-0.4,0.2-0.8,0.4-1.1,0.5c-0.3,0.1-0.6,0.3-0.8,0.3C352.1,913.5,352,913.5,352,913.5L352,913.5z M351.9,913.5L351.9,913.5z"/>
		<path class="st14" d="M358.1,916c0.4,0,0.8,0,1.2-0.1c0.9-0.1,1.6-0.6,2.5-0.9c0.9-0.3,2.1-0.6,3-0.3c0.4,0.1,0.8,0.3,1,0.7
			c0.2,0.3,0.2,0.7,0.5,0.9c0.6,0.6,2.2,0.5,2.3,1.5c0,0.3-0.1,0.4-0.1,0.6"/>
		<path class="st14" d="M371.9,912.8c-0.8,0-1.6,0.4-1.4,1.3c0.1,0.6,0.5,0.9,1,1.2c0.4,0.2,1.2,0.3,1.4,0.7
			c0.3,0.5,0.1,1.2,0.3,1.8c0.2,0.6,1,0.7,1.5,0.6c1-0.1,2.1-1.1,2-2.2c-0.1-1-0.8-1.3-1.4-1.8c-0.3-0.2-0.5-0.6-0.7-0.9
			c-0.1-0.2-0.2-0.5-0.3-0.7c-0.2-0.5-0.9-0.4-1.3-0.4c-0.6,0-0.9,0.4-1.4,0.7"/>
		<path class="st14" d="M371.6,922.1c1-0.6,2.2,0,2.8,0.8c0.3,0.4,0.5,1.1,1,1.4c0.3,0.1,0.9,0.1,1.1,0.3"/>
		<path class="st14" d="M360.3,911h0.8c0.6,0.1,1,0.6,1.5,0.9c0.4,0.2,0.8,0.3,1.3,0.2c0.6,0,1.2,0,1.7-0.3c0.4-0.2,0.7-0.5,1.1-0.7
			s0.9-0.1,1.3,0c0.6,0,0.6-0.6,0.5-1"/>
		<path class="st12" d="M298.6,910.6v-1.1c15.5,0.7,46.8,2,48,2"/>
		<path class="st12" d="M377.6,911.5c19.5-1.8,59.1-5.4,61.5-5s3.3,2.5,3.5,3.5"/>
		<path class="st15" d="M1203.4,799c0.4-1.6-0.5-9.3,0-13c91,11,144.6-3.5,144.6,0c0,2.8,5,9.8,6.5,13
			C1318.4,805.5,1202.9,801,1203.4,799z"/>
		<path class="st16" d="M1270.4,786c-0.8,1.6,1,3,2,3.5c3.5,0,5,0,8-1.5s11.5-2,16-1.5s6.5-3,4-3s-4-1-10-1s-5.5,2.5-10,2.5
			S1271.4,784,1270.4,786L1270.4,786z"/>
		<path class="st13" d="M1289.4,794c-4.4-0.8-10.8-3-13.5-4c0.5,0,6-2.5,9.5-3.5s6-0.5,10,0s2.5-1,4.5-0.5s1,5.5,0,9s2.5,3.5,4,5.5
			s-3.5,0-6,0S1294.9,795,1289.4,794z"/>
		<path class="st14" d="M1282,792c0.4,0,0.8,0,1.2-0.1c0.9-0.1,1.6-0.6,2.5-0.9c0.9-0.3,2.1-0.6,3.1-0.3c0.4,0.1,0.8,0.3,1.1,0.7
			c0.2,0.3,0.2,0.7,0.4,0.9c0.6,0.6,2.2,0.5,2.3,1.5c0,0.3-0.2,0.4-0.2,0.6"/>
		<path class="st14" d="M1295.7,788.8c-0.8,0-1.6,0.4-1.4,1.3c0.1,0.6,0.5,0.9,1,1.2c0.4,0.2,1.2,0.3,1.4,0.7
			c0.3,0.5,0.2,1.2,0.3,1.8c0.2,0.6,1,0.7,1.5,0.6c1-0.1,2.1-1.1,2-2.2c-0.2-1-0.8-1.3-1.4-1.8c-0.3-0.2-0.5-0.6-0.7-0.9
			c-0.1-0.2-0.2-0.5-0.3-0.7c-0.2-0.5-0.9-0.4-1.3-0.4c-0.6,0-0.9,0.4-1.4,0.7"/>
		<path class="st14" d="M1295.4,798.1c1-0.6,2.2,0,2.8,0.8c0.3,0.4,0.5,1.1,1,1.4c0.3,0.1,0.9,0.1,1.1,0.3"/>
		<path class="st14" d="M1284.1,787.2h0.8c0.6,0.1,1,0.6,1.5,0.9c0.4,0.2,0.8,0.3,1.3,0.2c0.6,0,1.2,0,1.7-0.3
			c0.4-0.2,0.7-0.5,1.1-0.7s0.9-0.1,1.3,0c0.6,0,0.6-0.6,0.5-1"/>
		<path class="st17" d="M1204.4,784v-11c51.5,8,61,8,80.5,6.5"/>
		<path class="st17" d="M1284.9,779.5c19.5-1.8,59.1-5.4,61.5-5s1.8,10.5,2,11.5"/>
		<path class="st12" d="M530.2,911.5c-3.2,2,3.7,2.5,7.5,2.5c1,0,7-2.5,13.5-3.5s7,0,6-2.5s-11.5-3-16,0S534.2,909,530.2,911.5
			L530.2,911.5z"/>
		<path class="st18" d="M556.2,920.5c-0.8-2.8-12.3-5.5-18-6.5c1.6-1.6,13.3-3.7,19-4.5c2.2,1.8,6.5,6.6,6.5,11c0,5.5,5,5,3.5,6
			S557.2,924,556.2,920.5z"/>
		<path class="st14" d="M545.8,915.3h1.2c0.7-0.1,1.3-0.3,2-0.4c0.8-0.1,1.7-0.2,2.5-0.2c0.3,0,0.7,0,0.9,0.1
			c0.3,0.2,0.6,0.6,0.8,0.8c0.5,0.5,1.1,0.7,1.1,1.5c0,0.7-0.5,0.8-1.2,1"/>
		<path class="st14" d="M551.8,911c0.7,0,1.2,0.4,1.6,0.8c1,0.9,1.8,2.1,3.4,1.8c0.8-0.2,1.6-0.9,2.5-0.8c0.1,0,0.2,0.1,0.4,0.1"/>
		<path class="st14" d="M561.5,919h-2c-0.4,0-0.9,0.1-1.1,0.5c-0.6,1.1,1.2,1.8,1.7,2.7c0.3,0.7,0,1.2,0.1,1.9s1.3,0.8,1.9,0.8
			c0.8,0,1.6-0.5,1.3-1.4c-0.1-0.4-0.5-0.7-0.7-1.1c-0.2-0.3-0.4-0.7-0.6-1.1c-0.3-0.8,0.2-1.9-0.4-2.7"/>
		<path class="st19" d="M499.2,912.5c4.4-2,10.5,0.8,13,2.5c0.7,1.7,0.9,4.8-3.5,4c-5.5-1-10.5,4-15,7s-7-3-2-6
			S493.7,915,499.2,912.5L499.2,912.5z"/>
		<path class="st14" d="M491.6,920.1c-0.3,0.6-0.8,1.2-0.4,1.9s1.1,0.6,1.7,0.4c0.7-0.3,1.4-0.7,2.1-0.7c0.7-0.1,1.5,0,2.1-0.3
			c0.6-0.4,0.2-1.2,0-1.7c-0.3-0.5-0.8-0.8-1.3-1.1c-0.6-0.4-0.8-0.7-0.6-1.4"/>
		<path class="st14" d="M502.4,913.9c-0.2,0.1-0.9,0.6-0.8,0.9c0.3,0.5,1.2,0.4,1.7,0.7c0.5,0.2,0.9,0.6,1.3,0.8
			c0.5,0.2,1.4,0.3,1.9,0c0.2-0.2,0.4-0.4,0.6-0.7c0.2-0.6-0.2-0.9-0.6-1.2c-0.4-0.2-0.8-0.5-1.3-0.5c-0.2,0-0.4,0-0.7-0.1
			c-0.4-0.2-0.8-0.5-1.3-0.5c-0.3,0-0.6,0.3-0.9,0.3"/>
		<path class="st14" d="M508.5,913.6c0.7,0.2,1.8,0.3,2.4,0.9c0.2,0.3,0.1,0.9,0.1,1.2c-0.2,0.8-0.8,1.5-1.4,2.1
			c-0.1,0.1-0.9,0.7-0.5,0.9"/>
		<path class="st14" d="M500.3,920.8c0.1-0.6,0-1.2,0.1-1.8c0.1-0.3,0.2-0.6,0.4-0.8c0.3-0.2,0.8-0.2,1.1-0.2c0.4,0,0.7,0.3,1,0.6
			s0.5,0.3,0.9,0.3"/>
		<path class="st12" d="M460.6,913.5c21-1.7,63.8-5.1,67-5.5c4-0.5,24-5,29.5-4s16-1,16.5,6"/>
		<path class="st20" d="M1258.1,754.5c-4.2,0.5-3.3,5.5-2.3,8.3c1.2,3.3,3,6.9,0.7,10"/>
		<path class="st20" d="M1266.9,743.5v1.2c0,1.1,1,1.1,1.5,1.8c1.3,1.6,0.8,4-0.1,5.6"/>
		<path class="st20" d="M1299.2,752.5c-0.7,0.8-0.2,3.1,0.2,3.9c0.8,2.1,3.1,4.6,1.2,6.7"/>
		<path class="st20" d="M1304.3,738.5c-0.3,1.3-0.6,2.9-0.3,4.2c0.6,2.1,2.5,3.9,3.7,5.7c1.3,2.1,2.4,4.4,2.4,6.9
			c0,1.7-0.5,3.1-1,4.7"/>
		<path class="st14" d="M501.3,896.4c-1.1,0.6-0.4,3,0.2,3.7c0.8,1,1.3,1.7,1.6,3c0.1,0.7,0.5,1.9,0,2.4"/>
		<path class="st14" d="M505.3,900c0,1.2,0.8,2.1,1.3,3.2c0.3,0.8,0.3,1.8,0.1,2.6"/>
		<path class="st14" d="M550.5,887.9c0,1.8-0.6,4.8,0.4,6.3c1.6,2.4,2.6,2,2.1,5.3"/>
		<path class="st14" d="M347.9,889.5c-2.2,0.2-2.5,3.3-2.1,4.9c0.3,1.4,1.4,2.4,1.7,3.8c0.2,0.8,0.2,1.5,0.2,2.4"/>
		<path class="st14" d="M364,893.7c0,1.2,0.5,2,1.1,3c0.9,1.3,0.7,4.2,0.1,5.6"/>
		<path class="st14" d="M371,895.5c-0.8,2.1-0.3,3.8,0.6,5.8c0.2,0.5,0.3,0.8,0.3,1.3"/>
		<path class="st14" d="M454.4,899c-1,1.4-0.9,3.8-0.4,5.3c0.4,1.1,1.1,1.9,1.5,2.9c0.6,1.4,0.7,2.8,0.8,4.3"/>
		<path class="st12" d="M377.6,908.1c0.4-1.6,1.4-9.4,1.9-13c86.8,11,137.9-3.5,137.9,0c0,2.8,2.9,9.9,4.3,13
			C487.4,914.6,377.1,910.1,377.6,908.1z"/>
		<path class="st12" d="M421.1,895.4c-0.8,1.6,1,3,2,3.5c3.5,0,5,0,8-1.5s11.5-2,16-1.5s6.5-3,4-3s-4-1-10-1s-5.5,2.5-10,2.5
			S422.2,893.4,421.1,895.4L421.1,895.4z"/>
		<path class="st13" d="M440.1,903.4c-4.4-0.8-10.8-3-13.5-4c0.5,0,6-2.5,9.5-3.5s6-0.5,10,0s2.5-1,4.5-0.5s1,5.5,0,9s2.5,3.5,4,5.5
			s-3.5,0-6,0S445.6,904.4,440.1,903.4z"/>
		<path class="st14" d="M432.6,901.4c0.4,0,0.8,0,1.2-0.1c0.9-0.1,1.6-0.6,2.5-0.9c0.9-0.3,2.1-0.6,3-0.3c0.4,0.1,0.8,0.3,1,0.7
			c0.2,0.3,0.2,0.7,0.5,0.9c0.6,0.6,2.2,0.5,2.3,1.5c0,0.3-0.1,0.4-0.1,0.6"/>
		<path class="st14" d="M446.5,898.2c-0.8,0-1.6,0.4-1.4,1.3c0.1,0.6,0.5,0.9,1,1.2c0.4,0.2,1.2,0.3,1.4,0.7
			c0.3,0.5,0.1,1.2,0.3,1.8c0.2,0.6,1,0.7,1.5,0.6c1-0.1,2.1-1.1,2-2.2c-0.1-1-0.8-1.3-1.4-1.8c-0.3-0.2-0.5-0.6-0.7-0.9
			c-0.1-0.2-0.2-0.5-0.3-0.7c-0.2-0.5-0.9-0.4-1.3-0.4c-0.6,0-0.9,0.4-1.4,0.7"/>
		<path class="st14" d="M446.1,907.5c1-0.6,2.2,0,2.8,0.8c0.3,0.4,0.5,1.1,1,1.4c0.3,0.1,0.9,0.1,1.1,0.3"/>
		<path class="st14" d="M434.8,896.5h0.8c0.6,0.1,1,0.6,1.5,0.9c0.4,0.2,0.8,0.3,1.3,0.2c0.6,0,1.2,0,1.7-0.3
			c0.4-0.2,0.7-0.5,1.1-0.7s0.9-0.1,1.3,0c0.6,0,0.6-0.6,0.5-1"/>
		<path class="st12" d="M380.6,895.2v-1.7c12.9,1,39,3,40,3"/>
		<path class="st12" d="M452.1,896.9c19.5-1.8,59.1-5.4,61.5-5c2.4,0.4,3.3,2.5,3.5,3.5"/>
		<path class="st14" d="M422.4,874.6c-2.2,0.2-2.5,3.3-2.1,4.9c0.3,1.4,1.4,2.4,1.7,3.8c0.2,0.8,0.2,1.5,0.2,2.4"/>
		<path class="st14" d="M438.5,879.1c0,1.2,0.5,2,1.1,3c0.9,1.4,0.7,4.2,0.1,5.6"/>
		<path class="st14" d="M445.2,882.8c-0.8,2.1-0.3,3.8,0.6,5.8c0.2,0.5,0.3,0.8,0.3,1.3"/>
		<path class="st14" d="M528.9,884.4c-1,1.4-0.9,3.8-0.4,5.3c0.4,1.1,1.1,1.9,1.5,2.9c0.6,1.4,0.7,2.8,0.8,4.3"/>
		<path class="st3" d="M1657.3,813c2-54.7-4.6-165.7-47-172.5c-53-8.5,41,2.5,36,172.5"/>
		<path class="st21" d="M2501.3,937.8v-60.4h60.5v-53.3h77.5V715.5H3040"/>
		<path class="st21" d="M2501.3,877.4h60.5v-19.3"/>
		<path class="st21" d="M2656.4,728.2l6.5,10.2 M2662.9,738.3l-6.5,5.6 M2662.9,738.3l11,3 M2662.9,738.3l11-10.2l-11-5.1h14"/>
		<path class="st21" d="M2751.4,823.6l28.5-17.3l-14-20.3 M2765.9,786l35-12.7 M2765.9,786l-9-4.6 M2765.9,786v6.1"/>
		<path class="st21" d="M2821.4,734.3l9.2,4.1 M2831.4,751l8.5-8.6l-9.2-4.1 M2830.6,738.3l5.2-4.1"/>
		<path class="st21" d="M2562.8,874.4l33.5,23.3l-21,3.5"/>
		<path class="st21" d="M2586.9,890.1l12-6.1"/>
		<path class="st21" d="M2728.4,876.4l-12,13 M2704.4,902.3l12-13 M2716.4,889.3l-8.5-5.3 M2716.4,889.3v-8.9l5.5-4.1"/>
		<path class="st21" d="M2912.5,791.6l24.5,12.2 M2937,803.8l-5-22.8l22-9.6 M2937,803.8h8 M2945,803.8v9.6 M2945,803.8v-6.1h9"/>
		<line class="st22" x1="2639" y1="823.6" x2="3042.2" y2="825.6"/>
		<line class="st21" x1="2639.4" y1="769.8" x2="3041.5" y2="771.8"/>
		<path class="st23" d="M2562.3,876.4h479.2"/>
		<path class="st21" d="M2562.3,875.9v56.8"/>
		<path class="st21" d="M2613.4,824.1v103.5"/>
		<path class="st21" d="M2690.4,717.5v103.5"/>
		<path class="st21" d="M2821.4,823.1v103.5"/>
		<path class="st21" d="M2898.4,719.6v103.5"/>
		<path class="st21" d="M2665.4,824.1v104.5"/>
		<path class="st21" d="M2742.4,717.5v104.5"/>
		<path class="st21" d="M2873.4,823.1v104.5"/>
		<path class="st21" d="M2950.5,719.6v104.5"/>
		<path class="st21" d="M2718.4,824.1v104.5"/>
		<path class="st21" d="M2795.4,718.5v104.5"/>
		<path class="st21" d="M2926.5,823.1v104.5"/>
		<path class="st21" d="M3003.5,719.6v104.5"/>
		<path class="st21" d="M2770.4,822.1v104.5"/>
		<path class="st21" d="M2847.4,718.5v104.5"/>
		<path class="st24" d="M2978.5,824.7v100.9"/>
		<path class="st21" d="M3025.5,824.1v104.5"/>
		<path class="st1" d="M1200.2,904.8c3.6-6.3,5.7-13.5,5.7-21.3v-38c0-23.7-19.2-43-43-43H963.8c-23.7,0-43,19.3-43,43v38
			c0,7.7,2.1,15,5.7,21.3h-21.4v26h316.2v-26H1200.2L1200.2,904.8z"/>
		<rect x="2490.3" y="933.8" class="st4" width="27" height="5"/>
		<rect x="3027.5" y="933.8" class="st4" width="14" height="23"/>
		<rect x="1.5" y="933.5" class="st4" width="8" height="22.9"/>
		<rect x="1353" y="918" class="st1" width="28.2" height="4.8"/>
		<rect x="3033.6" y="712.3" class="st1" width="7.9" height="4.7"/>
	</g>
</g>
</svg>
