<?xml version="1.0" encoding="UTF-8"?>
<svg id="Livello_2" data-name="Livello 2" xmlns="http://www.w3.org/2000/svg" width="3042.47" height="858.94" xmlns:xlink="http://www.w3.org/1999/xlink" viewBox="0 0 3042.47 858.94">
  <defs>
    <style>
      .cls-1 {
        stroke-width: 4px;
      }

      .cls-1, .cls-2, .cls-3, .cls-4, .cls-5, .cls-6, .cls-7, .cls-8, .cls-9, .cls-10, .cls-11, .cls-12, .cls-13, .cls-14, .cls-15, .cls-16, .cls-17, .cls-18 {
        stroke: #59865f;
      }

      .cls-1, .cls-19, .cls-4, .cls-6, .cls-20, .cls-10, .cls-21, .cls-12, .cls-13, .cls-15, .cls-16, .cls-17, .cls-18 {
        fill: none;
      }

      .cls-2 {
        stroke-width: 6.99px;
      }

      .cls-2, .cls-22, .cls-23, .cls-8, .cls-9, .cls-14 {
        fill: #3a523d;
      }

      .cls-3, .cls-22, .cls-4, .cls-6, .cls-8, .cls-21 {
        stroke-width: 7px;
      }

      .cls-3, .cls-7, .cls-24, .cls-25 {
        fill: #59865f;
      }

      .cls-22, .cls-19, .cls-21, .cls-25 {
        stroke: #3a523d;
      }

      .cls-19, .cls-5, .cls-9, .cls-11, .cls-13, .cls-15, .cls-25 {
        stroke-width: 2px;
      }

      .cls-19, .cls-6, .cls-15 {
        stroke-linecap: round;
      }

      .cls-23, .cls-20, .cls-24 {
        stroke-width: 0px;
      }

      .cls-5 {
        fill: #69bb5d;
      }

      .cls-7 {
        stroke-width: 6.59px;
      }

      .cls-10 {
        stroke-width: 6.93px;
      }

      .cls-11 {
        fill: #69bb5c;
      }

      .cls-26 {
        clip-path: url(#clippath);
      }

      .cls-12 {
        stroke-width: 7.05px;
      }

      .cls-14 {
        stroke-width: 1px;
      }

      .cls-16 {
        stroke-width: 7.08px;
      }

      .cls-17 {
        stroke-width: 7.06px;
      }

      .cls-18 {
        stroke-width: .94px;
      }
    </style>
    <clipPath id="clippath">
      <rect class="cls-20" x="1.47" y=".47" width="3040" height="858"/>
    </clipPath>
  </defs>
  <g class="cls-26">
    <g>
      <rect class="cls-20" x=".47" y="47.47" width="1972.65" height="752"/>
      <rect class="cls-4" x="1108.33" y="74.97" width="23.01" height="328"/>
      <rect class="cls-23" x="1.55" y=".47" width="3039.86" height="858"/>
      <rect class="cls-18" x=".47" y=".47" width="3041" height="858"/>
      <rect class="cls-8" x="789.23" y="114.97" width="46.02" height="109"/>
      <path class="cls-4" d="M718.71,427.47V54.47h1583.52v373H718.71Z"/>
      <rect class="cls-2" x="4.47" y="824.97" width="3034" height="30"/>
      <rect class="cls-8" x="736.21" y="74.97" width="1540.51" height="328"/>
      <rect class="cls-4" x="1101.33" y="74.97" width="23.01" height="328"/>
      <rect class="cls-4" x="1886.59" y="74.97" width="23.01" height="328"/>
      <rect class="cls-4" x="1490.46" y="74.97" width="23.01" height="328"/>
      <rect class="cls-8" x="1513.47" y="270.97" width="46.02" height="132"/>
      <rect class="cls-8" x="1513.47" y="197.97" width="46.02" height="74"/>
      <rect class="cls-8" x="1605.5" y="74.97" width="47.02" height="108"/>
      <rect class="cls-8" x="1605.5" y="262.97" width="47.02" height="140"/>
      <rect class="cls-8" x="1605.5" y="182.97" width="47.02" height="81"/>
      <rect class="cls-8" x="1559.48" y="74.97" width="46.02" height="230"/>
      <rect class="cls-8" x="1559.48" y="230.97" width="46.02" height="172"/>
      <rect class="cls-8" x="1697.53" y="114.97" width="48.02" height="109"/>
      <rect class="cls-8" x="1651.51" y="74.97" width="46.02" height="230"/>
      <rect class="cls-8" x="1651.51" y="230.97" width="46.02" height="172"/>
      <rect class="cls-8" x="1793.56" y="262.97" width="46.02" height="140"/>
      <rect class="cls-8" x="1793.56" y="189.97" width="46.02" height="74"/>
      <rect class="cls-8" x="1747.54" y="74.97" width="46.02" height="230"/>
      <rect class="cls-8" x="1747.54" y="230.97" width="46.02" height="172"/>
      <rect class="cls-8" x="1747.54" y="114.97" width="46.02" height="109"/>
      <rect class="cls-8" x="1744.54" y="74.97" width="46.02" height="230"/>
      <rect class="cls-8" x="1744.54" y="230.97" width="46.02" height="172"/>
      <rect class="cls-8" x="1839.57" y="74.97" width="46.02" height="230"/>
      <rect class="cls-8" x="1839.57" y="230.97" width="46.02" height="172"/>
      <rect class="cls-8" x="736.21" y="74.97" width="46.02" height="108"/>
      <rect class="cls-8" x="736.21" y="255.97" width="46.02" height="147"/>
      <rect class="cls-8" x="736.21" y="181.97" width="46.02" height="74"/>
      <rect class="cls-8" x="828.24" y="270.97" width="46.02" height="132"/>
      <rect class="cls-8" x="828.24" y="197.97" width="46.02" height="74"/>
      <rect class="cls-8" x="782.23" y="74.97" width="46.02" height="230"/>
      <rect class="cls-8" x="782.23" y="222.97" width="46.02" height="180"/>
      <rect class="cls-8" x="783.23" y="114.97" width="45.01" height="109"/>
      <rect class="cls-8" x="874.26" y="74.97" width="47.02" height="230"/>
      <rect class="cls-8" x="874.26" y="230.97" width="47.02" height="172"/>
      <rect class="cls-8" x="1013.3" y="270.97" width="46.02" height="132"/>
      <rect class="cls-8" x="1009.3" y="196.97" width="46.02" height="74"/>
      <rect class="cls-8" x="967.29" y="74.97" width="46.02" height="230"/>
      <rect class="cls-8" x="967.29" y="230.97" width="46.02" height="172"/>
      <rect class="cls-8" x="921.27" y="74.97" width="46.02" height="230"/>
      <rect class="cls-8" x="921.27" y="303.97" width="46.02" height="99"/>
      <rect class="cls-8" x="1055.32" y="114.97" width="46.02" height="109"/>
      <rect class="cls-8" x="1055.32" y="74.97" width="46.02" height="230"/>
      <rect class="cls-8" x="1055.32" y="230.97" width="46.02" height="172"/>
      <rect class="cls-8" x="1124.34" y="270.97" width="47.02" height="132"/>
      <rect class="cls-8" x="1124.34" y="198.97" width="47.02" height="74"/>
      <rect class="cls-8" x="1216.37" y="74.97" width="47.02" height="108"/>
      <rect class="cls-8" x="1217.37" y="256.97" width="46.02" height="146"/>
      <rect class="cls-8" x="1217.37" y="182.97" width="46.02" height="77"/>
      <rect class="cls-8" x="1171.36" y="74.97" width="46.02" height="230"/>
      <rect class="cls-8" x="1171.36" y="230.97" width="46.02" height="172"/>
      <rect class="cls-8" x="1262.39" y="74.97" width="46.02" height="230"/>
      <rect class="cls-8" x="1262.39" y="230.97" width="46.02" height="172"/>
      <rect class="cls-8" x="1397.43" y="270.97" width="47.02" height="132"/>
      <rect class="cls-8" x="1397.43" y="196.97" width="47.02" height="74"/>
      <rect class="cls-8" x="1351.41" y="74.97" width="46.02" height="230"/>
      <rect class="cls-8" x="1355.42" y="230.97" width="42.01" height="172"/>
      <rect class="cls-8" x="1351.41" y="114.97" width="46.02" height="109"/>
      <rect class="cls-8" x="1308.4" y="74.97" width="46.02" height="230"/>
      <rect class="cls-8" x="1444.44" y="74.97" width="46.02" height="230"/>
      <rect class="cls-8" x="1444.44" y="230.97" width="46.02" height="172"/>
      <rect class="cls-8" x="1910.6" y="189.97" width="46.02" height="74"/>
      <rect class="cls-8" x="2001.63" y="74.97" width="47.02" height="108"/>
      <rect class="cls-8" x="2001.63" y="270.97" width="47.02" height="132"/>
      <rect class="cls-8" x="2001.63" y="182.97" width="47.02" height="88"/>
      <rect class="cls-8" x="1956.61" y="74.97" width="45.01" height="230"/>
      <rect class="cls-8" x="1956.61" y="230.97" width="45.01" height="172"/>
      <rect class="cls-8" x="2048.64" y="74.97" width="45.01" height="230"/>
      <rect class="cls-8" x="2048.64" y="230.97" width="45.01" height="172"/>
      <rect class="cls-8" x="2140.67" y="270.97" width="45.01" height="132"/>
      <rect class="cls-8" x="2140.67" y="196.97" width="45.01" height="74"/>
      <rect class="cls-8" x="2185.69" y="74.97" width="45.01" height="156"/>
      <rect class="cls-8" x="2093.66" y="74.97" width="46.02" height="230"/>
      <rect class="cls-8" x="2715.86" y="329.97" width="45.01" height="50"/>
      <rect class="cls-8" x="2715.86" y="309.97" width="45.01" height="110"/>
      <rect class="cls-8" x="2820.9" y="366.97" width="45.01" height="33"/>
      <rect class="cls-8" x="2767.88" y="329.97" width="46.02" height="50"/>
      <rect class="cls-8" x="2767.88" y="309.97" width="46.02" height="110"/>
      <rect class="cls-8" x="2093.66" y="270.97" width="46.02" height="132"/>
      <rect class="cls-8" x="2230.7" y="74.97" width="46.02" height="230"/>
      <rect class="cls-8" x="2230.7" y="197.97" width="46.02" height="205"/>
      <path class="cls-8" d="M941.08,120.37c4.7-2.9,10.6-2.9,15.31,0l79.13,49.3c12.4,7.7,6.9,26.8-7.7,26.8h-158.15c-14.6,0-20.01-19.1-7.7-26.8l79.13-49.3h-.02Z"/>
      <path class="cls-6" d="M946.98,118.17c-3.5,0-6.3,1.7-9.4,3.2-6.7,3.3-13,7-18.91,11.7-8.1,6.4-14.9,14.2-21.41,22.2-7.1,8.7-13.8,17.8-17.41,28.5-1.1,3.4-3.7,8.6-3.7,12.3"/>
      <path class="cls-6" d="M945.68,116.87c-.2.8-2.7.5-3.4.7-4.6,1.5-8.4,4.7-11.8,8.2-5.4,5.5-7.6,11.6-11,18.4-3.3,6.5-6.3,13.2-8.2,20.3-2.9,10.4-5,21.4-5,32.2"/>
      <path class="cls-6" d="M946.08,119.07c-.4,2.7-2.5,5.4-3.6,7.8-2.2,4.8-3.9,9.5-4.9,14.8-2.2,11.2-3.7,22.6-3.7,34.1,0,6.9.5,14.2.5,20.8"/>
      <path class="cls-6" d="M939.78,119.47c-1.9.6-3.7,4.6-4.4,6.2-2.2,5.1-4.8,10.1-6.5,15.5-3.8,12.4-7.7,25.3-8.8,38.3-.3,3.4-.2,6.9-.2,10.3,0,1.3-.3,2.9,0,4.2.4,1.8.8,3.8,1,5.7"/>
      <path class="cls-6" d="M862.65,195.97c-.4-3.7-.7-7.4-.2-11.1.8-5,3.7-9.3,6-13.6,2.2-3.9,5.1-6.9,7.8-10.4,1-1.3,2-2.1,3.2-3.2s2.5-3.1,4.1-3.6"/>
      <path class="cls-6" d="M946.78,117.87c3.5,0,6.3,1.7,9.4,3.2,6.7,3.3,13,7,18.91,11.7,8.1,6.4,14.9,14.2,21.41,22.2,7.1,8.7,13.8,17.8,17.41,28.5,1.1,3.4,3.7,8.6,3.7,12.3"/>
      <path class="cls-6" d="M948.18,116.47c.2.8,2.7.5,3.4.7,4.6,1.5,8.4,4.7,11.8,8.2,5.4,5.5,7.6,11.6,11,18.4,3.3,6.5,6.3,13.2,8.2,20.3,2.9,10.4,5,21.4,5,32.2"/>
      <path class="cls-6" d="M947.68,118.77c.4,2.7,2.5,5.4,3.6,7.8,2.2,4.8,3.9,9.5,4.9,14.8,2.2,11.2,3.7,22.6,3.7,34.1,0,6.8-.5,14.2-.5,20.8"/>
      <path class="cls-6" d="M953.78,118.47c1.8.6,3.5,4.7,4.2,6.2,2.1,5.2,4.6,10.2,6.2,15.7,3.6,12.6,7.3,25.7,8.4,38.8.3,3.5.2,6.9.2,10.4,0,1.3.3,2.9,0,4.2-.4,1.8-.8,3.8-.9,5.7"/>
      <path class="cls-6" d="M1031.31,195.47c.4-3.9.8-8,.2-11.9-.9-5.3-4.3-10-7-14.6-2.5-4.2-6-7.4-9.2-11.1-1.1-1.4-2.3-2.3-3.7-3.5s-2.9-3.3-4.7-3.9"/>
      <path class="cls-3" d="M994.1,203.27c2,8-.8,10.6-2.5,10.9-5.8,2.8-5.6-16.4-6.7-22.7-1.2-6.3,9.2-7.2,9.2-4.6s-2.5,6.3,0,16.4h0Z"/>
      <path class="cls-3" d="M859.45,194.17c-2,6.7.8,8.8,2.5,9,5.8,2.4,5.6-13.6,6.7-18.8,1.2-5.2-9.2-6-9.2-3.8s2.5,5.3,0,13.6h0Z"/>
      <path class="cls-3" d="M908.37,212.87c-1-6.3-11.2-7.6-16.21-7.4-3.6,2.5,0,21-6.1,28.9-6.1,7.8,1.2,12,6.1,15.7,4.9,3.7,6.5,15.3,13.8,16.9s16.61,0,14.6-9.5-10.5-2.1-16.21-18.6c-5.7-16.5,5.2-18.1,4-26h.02Z"/>
      <path class="cls-3" d="M897.47,203.27c-2,8,.8,10.6,2.5,10.9,5.8,2.8,5.6-16.4,6.7-22.7,1.2-6.3-9.2-7.2-9.2-4.6s2.5,6.3,0,16.4h0Z"/>
      <path class="cls-6" d="M888.16,231.07c1.5,0,2.6,1.8,3.1,3,.5,1.1.8,2.3,1,3.5.3,2,.5,4.4.1,6.4-.3,1.6-.7,3.1-1.2,4.6"/>
      <path class="cls-6" d="M917.57,253.07h-3.2c-1.7,0-3,.7-4.5,1.5-2.1,1.1-3.4,3.9-4.1,6.1-.5,1.5-.7,3.9.1,5.2"/>
      <path class="cls-3" d="M870.76,205.97c-.4-6.4-9.8-4.7-14.5-3-3.5,1,1,14.5-2,24s0,8,5.5,16,16.51,5,19.01-3.5-2.5-5.5-8-12.5.5-13,0-21h-.01Z"/>
      <path class="cls-6" d="M855.35,227.07c5.1,0,8.5,3.2,9.8,8,1,3.7.1,7.1-1.6,10.3"/>
      <path class="cls-6" d="M875.06,231.67c0,.3-.2.7-.2,1-.1.8-.2,1.6-.1,2.4.1.7.2,1.2.6,1.8.3.5.7.8,1.1,1.2.4.4.9.9,1.4,1.2"/>
      <path class="cls-3" d="M979.29,216.97c.4-8,12.8-10,19.01-10,8.5,2.5,0,27,5,39s-3,12.5-10.5,23-15.51,20.5-26.01,20-9-9-5.5-12.5,10.5-12,18.01-24.5c7.5-12.5-.5-25,0-35h-.01Z"/>
      <path class="cls-6" d="M963.09,275.57c1.9,0,4.1-.3,5.9.6,1.6.8,3.2,2.2,4.3,3.5,1.5,1.8,2.4,4.9,2.4,7.3"/>
      <path class="cls-6" d="M1001.5,243.57c-1.6,2.4-3.7,5.4-4.1,8.4-.2,1.6-.2,3.2,0,4.8.1,1.2.7,2.5,1.2,3.6"/>
      <path class="cls-6" d="M982.79,218.97c0,2.1,1.2,4,1.2,6.1"/>
      <path class="cls-6" d="M988.7,218.17c0,.9,0,1.9.2,2.8"/>
      <path class="cls-6" d="M998.1,214.67c0,1.7-.2,3.4-.2,5.1"/>
      <path class="cls-6" d="M893.36,216.67v6.1"/>
      <path class="cls-6" d="M897.47,219.97v1.7"/>
      <path class="cls-6" d="M857.55,205.67c0,2.7-.1,5.5.1,8.2"/>
      <path class="cls-6" d="M859.65,205.47c0,1.9,0,3.9.1,5.8.1,1.3.2,2.5.2,3.8"/>
      <path class="cls-6" d="M904.67,217.67c-2.5,2.2-3.3,5.2-4.1,8.4"/>
      <path class="cls-3" d="M1025.31,202.17c-2-11.2,5.2-12.3,9-11.5,9,0,10.5,9.5,8,18.5s3,12,6,22.5-14,33.5-23.01,30.5c-9-3-5.5-9,0-19.5s2.5-26.5,0-40.5h.01Z"/>
      <path class="cls-3" d="M1037.11,194.97c2,6.1-.8,8.1-2.5,8.3-5.8,2.2-5.6-12.4-6.7-17.2-1.1-4.8,9.2-5.5,9.2-3.5s-2.5,4.8,0,12.4h0Z"/>
      <path class="cls-6" d="M1022.31,248.87c3.4,0,6.4-.4,8.6,2.8,1.1,1.6,1.2,4.3,1.2,6.2"/>
      <path class="cls-6" d="M1028.21,200.17c0,1.1.4,2.1.7,3.2.6,2.6,1.2,5.1,1.8,7.7"/>
      <path class="cls-6" d="M1032.01,202.47c0,1.3.2,2.5.4,3.8.2,1.5.3,3.1.4,4.6"/>
      <path class="cls-6" d="M1036.81,203.27v5.4"/>
      <path class="cls-4" d="M854.75,185.97c36.31,1.3,125.14,3.2,189.56,0"/>
      <path class="cls-25" d="M817.74,583.47h484.16c32.61,0,59.02,26.4,59.02,59v44c0,32.6-26.41,59-59.02,59h-484.16c-32.61,0-59.02-26.4-59.02-59v-44c0-32.6,26.41-59,59.02-59Z"/>
      <path class="cls-24" d="M1154.85,743.19c0-22.99,19.21-41.72,43.01-41.72h168.06c23.81,0,43.01,18.72,43.01,41.72v36.87c0,22.99-19.21,41.72-43.01,41.72h-168.06c-23.81,0-43.01-18.72-43.01-41.72v-36.87h0Z"/>
      <path class="cls-23" d="M1154.85,737.47c0-27.6,22.41-50,50.02-50h154.05c27.61,0,50.02,22.4,50.02,50,0-19.9-19.21-36-43.01-36h-168.06c-23.81,0-43.01,16.1-43.01,36h-.01ZM1408.93,818.47h-254.08,254.08ZM1154.85,818.47v-124,124ZM1408.93,694.47v124-124Z"/>
      <path class="cls-24" d="M718.71,746.47c0-23.7,19.31-43,43.01-43h171.06c23.71,0,43.01,19.3,43.01,43v38c0,23.7-19.31,43-43.01,43h-171.06c-23.71,0-43.01-19.3-43.01-43v-38Z"/>
      <path class="cls-23" d="M718.71,743.82c0-28.5,22.41-51.64,50.02-51.64h157.05c27.61,0,50.02,23.13,50.02,51.64,0-20.55-19.31-37.18-43.01-37.18h-171.06c-23.71,0-43.01,16.63-43.01,37.18h-.01ZM975.79,827.47h-257.08,257.08ZM718.71,827.47v-128.06,128.06ZM975.79,699.41v128.06-128.06Z"/>
      <path class="cls-23" d="M920.77,740.47c0-27.6,22.41-50,50.02-50h185.06c27.61,0,50.02,22.4,50.02,50,0-19.9-19.21-36-43.01-36h-199.07c-23.71,0-43.01,16.1-43.01,36h-.01ZM1205.87,821.47h-285.09,285.09ZM920.77,821.47h285.1"/>
      <path class="cls-4" d="M770.72,817.47h591.19"/>
      <rect class="cls-8" x="1765.55" y="603.97" width="10" height="215"/>
      <rect class="cls-8" x="2101.66" y="597.97" width="10" height="227"/>
      <path class="cls-4" d="M2642.84,613.47h399.63"/>
      <path class="cls-3" d="M2977.95,344.97v134l32.01,25c20.81-38,24.31-121.8,23.51-159h-55.52Z"/>
      <path class="cls-3" d="M2949.45,533.97c0,12.4-6.7,51.5-10,69.5h78.03l-10.5-127h-135.54c8.5,64.5,78.03,42,78.03,57.5h-.02Z"/>
      <path class="cls-4" d="M2977.45,352.47h56.02"/>
      <path class="cls-3" d="M2870.91,472.97h103.03c-7.8-2.5-29.31-7.4-52.52-7s-43.31,4.8-50.52,7h.01Z"/>
      <rect class="cls-7" x="2435.77" y="3.4" width="7" height="814.58"/>
      <rect class="cls-4" x="2645.84" y="305.97" width="248.08" height="118"/>
      <path class="cls-3" d="M2658.14,401.57c-13-24.4-11.6-71.7-9.2-92.3,19.51-7,80.23,0,73.72,12.7-6.5,12.7-4.3,64.7,0,83.4s21.11,23.9,15.71,29.5c-5.4,5.6-9.2,0-20.01,0s-4.3,5.6-16.21,5.6-7.6-5.6-17.91-5.6-16.21,9.4-26.01,0c-9.9-9.4,16.11-2.8-.1-33.3h.01Z"/>
      <path class="cls-3" d="M2883.52,401.57c16.81-24.4,14.9-71.7,11.9-92.3-25.21-7-103.73,0-95.33,12.7s5.6,64.7,0,83.4-27.31,23.9-20.31,29.5c7,5.6,11.9,0,25.91,0s5.6,5.6,21.01,5.6,9.8-5.6,23.11-5.6,21.01,9.4,33.61,0c12.7-9.4-20.91-2.8.1-33.3h0Z"/>
      <path class="cls-6" d="M2658.14,362.57c0,5.1-.2,9.7,1.7,14.5,2.1,5.7,5.6,10.7,9.2,15.5,8.3,11,11.7,26.4,5.4,39"/>
      <path class="cls-6" d="M2685.35,373.47c5.4,6.5,9.1,15.7,12,23.5,3.1,8.3,4.4,17.3,3.1,26.1"/>
      <path class="cls-6" d="M2686.55,394.07c.6,2.2,2.4,3.9,3,6.2.8,2.8,1.9,5.7,2.3,8.6.4,3.5.5,7.7-.6,11.1-.8,2.4-2.4,4.3-2.9,6.8"/>
      <path class="cls-6" d="M2815.2,375.87c0,9.8.3,19.7-1.2,29.5-1,6.7-2.5,13.4-5.3,19.5-.5,1.2-2.2,4.4-2.2,3.1"/>
      <path class="cls-6" d="M2850.81,358.07c0,11.3.5,22.7-.4,34-.8,11-2.8,22-6.9,32.3-1.1,2.8-2.1,4.9-4.5,6.6"/>
      <path class="cls-6" d="M2842.5,390.17c0,3.8.1,7.6-.3,11.4-1,10.7-4.2,19.8-8.8,29.4"/>
      <path class="cls-6" d="M2869.91,391.07c0,5.5-1.7,10.5-3.3,15.7-2,6.6-3.3,13-3.7,19.9"/>
      <path class="cls-6" d="M2873.81,403.17c-.2,4.9-3.3,9.1-3.4,14.1-.1,4.1,0,7,2.6,10.2"/>
      <path class="cls-6" d="M2806.49,404.97c0,10.5-9.5,20-20.01,20"/>
      <path class="cls-4" d="M2206.2,705.97c-2-54.7,4.6-165.7,47.02-172.5,53.02-8.5-41.01,2.5-36.01,172.5"/>
      <rect class="cls-8" x="2130.67" y="708.97" width="87.03" height="7"/>
      <rect class="cls-1" x="2138.17" y="720.47" width="4" height="99"/>
      <rect class="cls-1" x="2211.2" y="720.47" width="4" height="99"/>
      <rect class="cls-4" x="1645.81" y="709.97" width="87.03" height="7"/>
      <rect class="cls-1" x="1720.04" y="721.47" width="4" height="99"/>
      <rect class="cls-1" x="1648.31" y="721.47" width="4" height="99"/>
      <path class="cls-6" d="M1789.96,564.17c0-1.8-.4-4.2.2-5.9.5-1.2,2.3-1.1,3.3-1.1,2.5-.2,4.9-.1,7.4-.1h20.31c4.6,0,9.3.1,13.9,0,7.8-.3,15.51-1.1,23.31-1.7,7.8-.7,16.91-2,23.61,3.2,1.5,1.1,3.6,3.6,3.6,5.6"/>
      <path class="cls-4" d="M1877.79,555.47c-2-6-4.8-18,0-18h17.01c.5,0,4,18.5-3,27"/>
      <path class="cls-4" d="M2041.64,545.97c0,8.4,1.3,15.8,2,18.5h15c1.6-2.8,1.7-20.2,1.5-28.5h-18.51v10h.01Z"/>
      <path class="cls-8" d="M2054.15,542.67c0,9.4,1.4,17.8,2.1,20.8h15.31c1.6-3.1,1.7-22.6,1.5-32h-18.91v11.2h0Z"/>
      <path class="cls-8" d="M1814.07,543.67c0,9.4,1.4,17.8,2.1,20.8h15.31c1.6-3.1,1.7-22.6,1.5-32h-18.91v11.2Z"/>
      <path class="cls-8" d="M1772.95,566.37c7.5,5.7,15,9.7,17.81,11l9.3-12.2c-1.5-3.2-17.01-15.1-24.51-20.6l-11.5,15.1,8.9,6.7h0Z"/>
      <path class="cls-8" d="M1712.53,566.97h441.15c8.3,0,15,6.7,15,15h0c0,8.3-6.7,15-15,15h-441.15c-8.3,0-15-6.7-15-15h0c0-8.3,6.7-15,15-15h0Z"/>
      <path class="cls-13" d="M296.07,817.97c.4-1.6,1.5-9.3,2-13,91.03,11,144.55-3.5,144.55,0,0,2.8,3,9.8,4.5,13-36.01,6.5-151.55,2-151.05,0h0Z"/>
      <path class="cls-13" d="M430.61,819.07c.4-1.6,1.5-9.3,2-13,91.03,11,144.55-3.5,144.55,0,0,2.8,3,9.8,4.5,13-36.01,6.5-151.55,2-151.05,0Z"/>
      <path class="cls-13" d="M346.78,804.47c-.8,1.8,1,3.4,2,4,3.5,0,5,0,7.9-1.7,3-1.7,11.4-2.3,15.91-1.7s6.4-3.4,4-3.4-4-1.1-9.9-1.1-5.4,2.9-9.9,2.9c-4.6-.1-9-1.3-10,1h-.01Z"/>
      <path class="cls-9" d="M351.99,808.47h-.9v1c0,.4.2.6.3.7.1.1.2.2.3.2.1.1.3.2.4.2.3.1.7.3,1.2.4.9.3,2.2.7,3.7,1,2.8.7,6.2,1.5,8.5,1.9,2.4.4,3.7,1.8,4.8,3.2.1.2.3.4.5.6.4.5.7,1,1.1,1.4.6.6,1.3,1.2,2.3,1.2.5,0,1.2.1,2,.3.3.1.7.1,1,.2.5.1.9.2,1.3.3s.7.1,1,.1.7,0,1-.1c.2-.1.4-.2.6-.4s.3-.6.3-.8c0-.5-.3-.9-.5-1.2-.8-1-1.1-1.6-1.3-2.3-.1-.7-.1-1.6.4-3.3.6-2.1,0-3.9-.8-5.3-.4-.7-.8-1.3-1.2-1.8v-.1c-.4-.6-.7-1.1-1-1.5-.1-.2-.3-.5-.4-.7-.2-.2-.5-.5-1-.5-.4,0-.7.2-.8.3-.1.1-.2.2-.3.2l-.1.1c-.2.2-.4.3-.8.4-.4.1-1,.2-1.8.1-.4-.1-.8-.1-1.2-.2-3.3-.4-5.8-.8-9.2.2-1.8.5-4.2,1.6-6,2.4-.5.2-.9.4-1.3.6-.4.2-.8.4-1.1.5-.3.1-.6.3-.8.3-.1.4-.2.4-.2.4h0ZM351.89,808.47h0Z"/>
      <path class="cls-15" d="M358.09,810.97c.4,0,.8,0,1.2-.1.9-.1,1.6-.6,2.5-.9.9-.3,2.1-.6,3-.3.4.1.8.3,1,.7.2.3.2.7.5.9.6.6,2.2.5,2.3,1.5,0,.3-.1.4-.1.6"/>
      <path class="cls-15" d="M371.89,807.77c-.8,0-1.6.4-1.4,1.3.1.6.5.9,1,1.2.4.2,1.2.3,1.4.7.3.5.1,1.2.3,1.8.2.6,1,.7,1.5.6,1-.1,2.1-1.1,2-2.2-.1-1-.8-1.3-1.4-1.8-.3-.2-.5-.6-.7-.9-.1-.2-.2-.5-.3-.7-.2-.5-.9-.4-1.3-.4-.6,0-.9.4-1.4.7"/>
      <path class="cls-15" d="M371.59,817.07c1-.6,2.2,0,2.8.8.3.4.5,1.1,1,1.4.3.1.9.1,1.1.3"/>
      <path class="cls-15" d="M360.29,805.97h.8c.6.1,1,.6,1.5.9.4.2.8.3,1.3.2.6,0,1.2,0,1.7-.3.4-.2.7-.5,1.1-.7s.9-.1,1.3,0c.6,0,.6-.6.5-1"/>
      <path class="cls-13" d="M298.57,805.57v-1.1c15.51.7,46.82,2,48.02,2"/>
      <path class="cls-13" d="M377.59,806.47c19.51-1.8,59.12-5.4,61.52-5s3.3,2.5,3.5,3.5"/>
      <path class="cls-22" d="M1203.37,693.97c.4-1.6-.5-9.3,0-13,91.03,11,144.55-3.5,144.55,0,0,2.8,5,9.8,6.5,13-36.01,6.5-151.55,2-151.05,0Z"/>
      <path class="cls-14" d="M1270.39,680.97c-.8,1.6,1,3,2,3.5,3.5,0,5,0,8-1.5s11.5-2,16.01-1.5,6.5-3,4-3-4-1-10-1-5.5,2.5-10,2.5-9-1-10,1h-.01Z"/>
      <path class="cls-9" d="M1289.39,688.97c-4.4-.8-10.8-3-13.5-4,.5,0,6-2.5,9.5-3.5s6-.5,10,0,2.5-1,4.5-.5,1,5.5,0,9,2.5,3.5,4,5.5-3.5,0-6,0-3-5.5-8.5-6.5Z"/>
      <path class="cls-15" d="M1281.99,686.97c.4,0,.8,0,1.2-.1.9-.1,1.6-.6,2.5-.9.9-.3,2.1-.6,3.1-.3.4.1.8.3,1.1.7.2.3.2.7.4.9.6.6,2.2.5,2.3,1.5,0,.3-.2.4-.2.6"/>
      <path class="cls-15" d="M1295.7,683.77c-.8,0-1.6.4-1.4,1.3.1.6.5.9,1,1.2.4.2,1.2.3,1.4.7.3.5.2,1.2.3,1.8.2.6,1,.7,1.5.6,1-.1,2.1-1.1,2-2.2-.2-1-.8-1.3-1.4-1.8-.3-.2-.5-.6-.7-.9-.1-.2-.2-.5-.3-.7-.2-.5-.9-.4-1.3-.4-.6,0-.9.4-1.4.7"/>
      <path class="cls-15" d="M1295.4,693.07c1-.6,2.2,0,2.8.8.3.4.5,1.1,1,1.4.3.1.9.1,1.1.3"/>
      <path class="cls-15" d="M1284.09,682.17h.8c.6.1,1,.6,1.5.9.4.2.8.3,1.3.2.6,0,1.2,0,1.7-.3.4-.2.7-.5,1.1-.7s.9-.1,1.3,0c.6,0,.6-.6.5-1"/>
      <path class="cls-21" d="M1204.37,678.97v-11c51.52,8,61.02,8,80.53,6.5"/>
      <path class="cls-21" d="M1284.89,674.47c19.51-1.8,59.12-5.4,61.52-5s1.8,10.5,2,11.5"/>
      <path class="cls-13" d="M530.14,806.47c-3.2,2,3.7,2.5,7.5,2.5,1,0,7-2.5,13.5-3.5s7,0,6-2.5-11.5-3-16.01,0-7,1-11,3.5h.01Z"/>
      <path class="cls-5" d="M556.15,815.47c-.8-2.8-12.3-5.5-18.01-6.5,1.6-1.6,13.3-3.7,19.01-4.5,2.2,1.8,6.5,6.6,6.5,11,0,5.5,5,5,3.5,6s-10-2.5-11-6Z"/>
      <path class="cls-15" d="M545.75,810.27h1.2c.7-.1,1.3-.3,2-.4.8-.1,1.7-.2,2.5-.2.3,0,.7,0,.9.1.3.2.6.6.8.8.5.5,1.1.7,1.1,1.5,0,.7-.5.8-1.2,1"/>
      <path class="cls-15" d="M551.75,805.97c.7,0,1.2.4,1.6.8,1,.9,1.8,2.1,3.4,1.8.8-.2,1.6-.9,2.5-.8.1,0,.2.1.4.1"/>
      <path class="cls-15" d="M561.45,813.97h-2c-.4,0-.9.1-1.1.5-.6,1.1,1.2,1.8,1.7,2.7.3.7,0,1.2.1,1.9s1.3.8,1.9.8c.8,0,1.6-.5,1.3-1.4-.1-.4-.5-.7-.7-1.1-.2-.3-.4-.7-.6-1.1-.3-.8.2-1.9-.4-2.7"/>
      <path class="cls-11" d="M499.13,807.47c4.4-2,10.5.8,13,2.5.7,1.7.9,4.8-3.5,4-5.5-1-10.5,4-15,7s-7-3-2-6,2-5,7.5-7.5h0Z"/>
      <path class="cls-15" d="M491.53,815.07c-.3.6-.8,1.2-.4,1.9s1.1.6,1.7.4c.7-.3,1.4-.7,2.1-.7.7-.1,1.5,0,2.1-.3.6-.4.2-1.2,0-1.7-.3-.5-.8-.8-1.3-1.1-.6-.4-.8-.7-.6-1.4"/>
      <path class="cls-15" d="M502.34,808.87c-.2.1-.9.6-.8.9.3.5,1.2.4,1.7.7.5.2.9.6,1.3.8.5.2,1.4.3,1.9,0,.2-.2.4-.4.6-.7.2-.6-.2-.9-.6-1.2-.4-.2-.8-.5-1.3-.5-.2,0-.4,0-.7-.1-.4-.2-.8-.5-1.3-.5-.3,0-.6.3-.9.3"/>
      <path class="cls-15" d="M508.44,808.57c.7.2,1.8.3,2.4.9.2.3.1.9.1,1.2-.2.8-.8,1.5-1.4,2.1-.1.1-.9.7-.5.9"/>
      <path class="cls-15" d="M500.23,815.77c.1-.6,0-1.2.1-1.8.1-.3.2-.6.4-.8.3-.2.8-.2,1.1-.2.4,0,.7.3,1,.6s.5.3.9.3"/>
      <path class="cls-13" d="M460.62,808.47c21.01-1.7,63.82-5.1,67.02-5.5,4-.5,24.01-5,29.51-4s16.01-1,16.51,6"/>
      <path class="cls-19" d="M1258.08,649.47c-4.2.5-3.3,5.5-2.3,8.3,1.2,3.3,3,6.9.7,10"/>
      <path class="cls-19" d="M1266.89,638.47v1.2c0,1.1,1,1.1,1.5,1.8,1.3,1.6.8,4-.1,5.6"/>
      <path class="cls-19" d="M1299.2,647.47c-.7.8-.2,3.1.2,3.9.8,2.1,3.1,4.6,1.2,6.7"/>
      <path class="cls-19" d="M1304.3,633.47c-.3,1.3-.6,2.9-.3,4.2.6,2.1,2.5,3.9,3.7,5.7,1.3,2.1,2.4,4.4,2.4,6.9,0,1.7-.5,3.1-1,4.7"/>
      <path class="cls-15" d="M501.23,791.37c-1.1.6-.4,3,.2,3.7.8,1,1.3,1.7,1.6,3,.1.7.5,1.9,0,2.4"/>
      <path class="cls-15" d="M505.24,794.97c0,1.2.8,2.1,1.3,3.2.3.8.3,1.8.1,2.6"/>
      <path class="cls-15" d="M550.45,782.87c0,1.8-.6,4.8.4,6.3,1.6,2.4,2.6,2,2.1,5.3"/>
      <path class="cls-15" d="M347.88,784.47c-2.2.2-2.5,3.3-2.1,4.9.3,1.4,1.4,2.4,1.7,3.8.2.8.2,1.5.2,2.4"/>
      <path class="cls-15" d="M363.99,788.67c0,1.2.5,2,1.1,3,.9,1.3.7,4.2.1,5.6"/>
      <path class="cls-15" d="M370.99,790.47c-.8,2.1-.3,3.8.6,5.8.2.5.3.8.3,1.3"/>
      <path class="cls-15" d="M454.32,793.97c-1,1.4-.9,3.8-.4,5.3.4,1.1,1.1,1.9,1.5,2.9.6,1.4.7,2.8.8,4.3"/>
      <path class="cls-13" d="M377.59,803.07c.4-1.6,1.4-9.4,1.9-13,86.83,11,137.85-3.5,137.85,0,0,2.8,2.9,9.9,4.3,13-34.31,6.5-144.55,2-144.05,0Z"/>
      <path class="cls-13" d="M421.11,790.37c-.8,1.6,1,3,2,3.5,3.5,0,5,0,8-1.5s11.5-2,16.01-1.5,6.5-3,4-3-4-1-10-1-5.5,2.5-10,2.5-9-1-10,1h-.01Z"/>
      <path class="cls-9" d="M440.11,798.37c-4.4-.8-10.8-3-13.5-4,.5,0,6-2.5,9.5-3.5s6-.5,10,0,2.5-1,4.5-.5,1,5.5,0,9,2.5,3.5,4,5.5-3.5,0-6,0-3-5.5-8.5-6.5Z"/>
      <path class="cls-15" d="M432.61,796.37c.4,0,.8,0,1.2-.1.9-.1,1.6-.6,2.5-.9.9-.3,2.1-.6,3-.3.4.1.8.3,1,.7.2.3.2.7.5.9.6.6,2.2.5,2.3,1.5,0,.3-.1.4-.1.6"/>
      <path class="cls-15" d="M446.42,793.17c-.8,0-1.6.4-1.4,1.3.1.6.5.9,1,1.2.4.2,1.2.3,1.4.7.3.5.1,1.2.3,1.8.2.6,1,.7,1.5.6,1-.1,2.1-1.1,2-2.2-.1-1-.8-1.3-1.4-1.8-.3-.2-.5-.6-.7-.9-.1-.2-.2-.5-.3-.7-.2-.5-.9-.4-1.3-.4-.6,0-.9.4-1.4.7"/>
      <path class="cls-15" d="M446.12,802.47c1-.6,2.2,0,2.8.8.3.4.5,1.1,1,1.4.3.1.9.1,1.1.3"/>
      <path class="cls-15" d="M434.81,791.47h.8c.6.1,1,.6,1.5.9.4.2.8.3,1.3.2.6,0,1.2,0,1.7-.3.4-.2.7-.5,1.1-.7s.9-.1,1.3,0c.6,0,.6-.6.5-1"/>
      <path class="cls-13" d="M380.6,790.17v-1.7c12.9,1,39.01,3,40.01,3"/>
      <path class="cls-13" d="M452.12,791.87c19.51-1.8,59.12-5.4,61.52-5,2.4.4,3.3,2.5,3.5,3.5"/>
      <path class="cls-15" d="M422.41,769.57c-2.2.2-2.5,3.3-2.1,4.9.3,1.4,1.4,2.4,1.7,3.8.2.8.2,1.5.2,2.4"/>
      <path class="cls-15" d="M438.51,774.07c0,1.2.5,2,1.1,3,.9,1.4.7,4.2.1,5.6"/>
      <path class="cls-15" d="M445.22,777.77c-.8,2.1-.3,3.8.6,5.8.2.5.3.8.3,1.3"/>
      <path class="cls-15" d="M528.84,779.37c-1,1.4-.9,3.8-.4,5.3.4,1.1,1.1,1.9,1.5,2.9.6,1.4.7,2.8.8,4.3"/>
      <path class="cls-4" d="M1657.31,707.97c2-54.7-4.6-165.7-47.02-172.5-53.02-8.5,41.01,2.5,36.01,172.5"/>
      <path class="cls-12" d="M2501.29,832.77v-60.4h60.52v-53.29h77.53v-108.61h400.63"/>
      <path class="cls-12" d="M2501.29,772.37h60.52v-19.29"/>
      <path class="cls-12" d="M2656.34,623.16l6.5,10.15M2662.84,633.31l-6.5,5.58M2662.84,633.31l11,3.05M2662.84,633.31l11-10.15-11-5.08h14"/>
      <path class="cls-12" d="M2751.37,718.57l28.51-17.26-14-20.3M2765.88,681.02l35.01-12.69M2765.88,681.02l-9-4.57M2765.88,681.02v6.09"/>
      <path class="cls-12" d="M2821.4,629.25l9.2,4.06M2831.4,646l8.5-8.63-9.2-4.06M2830.6,633.31l5.2-4.06"/>
      <path class="cls-12" d="M2562.81,769.33l33.51,23.35-21.01,3.55"/>
      <path class="cls-12" d="M2586.82,785.06l12-6.09"/>
      <path class="cls-12" d="M2728.37,771.36l-12,12.99M2704.36,797.24l12-12.99M2716.36,784.25l-8.5-5.28M2716.36,784.25v-8.93l5.5-4.06"/>
      <path class="cls-12" d="M2912.43,686.6l24.51,12.18M2936.93,698.78l-5-22.84,22.01-9.64M2936.93,698.78h8M2944.94,698.78v9.64M2944.94,698.78v-6.09h9"/>
      <line class="cls-17" x1="2639.01" y1="718.58" x2="3042.14" y2="720.61"/>
      <line class="cls-12" x1="2639.34" y1="664.78" x2="3041.47" y2="666.81"/>
      <path class="cls-16" d="M2562.31,771.36h479.16"/>
      <path class="cls-12" d="M2562.31,770.85v56.84"/>
      <path class="cls-12" d="M2613.33,719.08v103.54"/>
      <path class="cls-12" d="M2690.35,612.5v103.54"/>
      <path class="cls-12" d="M2821.4,718.07v103.54"/>
      <path class="cls-12" d="M2898.42,614.53v103.54"/>
      <path class="cls-12" d="M2665.35,719.08v104.55"/>
      <path class="cls-12" d="M2742.37,612.5v104.55"/>
      <path class="cls-12" d="M2873.41,718.07v104.55"/>
      <path class="cls-12" d="M2950.44,614.53v104.55"/>
      <path class="cls-12" d="M2718.36,719.08v104.55"/>
      <path class="cls-12" d="M2795.39,613.52v104.55"/>
      <path class="cls-12" d="M2926.43,718.07v104.55"/>
      <path class="cls-12" d="M3003.46,614.53v104.55"/>
      <path class="cls-12" d="M2770.38,717.05v104.55"/>
      <path class="cls-12" d="M2847.41,613.52v104.55"/>
      <path class="cls-10" d="M2978.45,719.7v100.89"/>
      <path class="cls-12" d="M3025.46,719.08v104.55"/>
      <path class="cls-24" d="M1200.21,799.77c3.59-6.28,5.65-13.55,5.65-21.3v-38c0-23.7-19.21-43-43.01-43h-199.07c-23.71,0-43.01,19.3-43.01,43v38c0,7.74,2.07,15.01,5.67,21.3h-21.38v26h316.21v-26h-21.06,0Z"/>
      <rect class="cls-23" x="2490.29" y="828.77" width="27.01" height="5"/>
      <rect class="cls-23" x="3027.47" y="828.77" width="14" height="23"/>
      <rect class="cls-23" x="1.47" y="828.42" width="8" height="22.9"/>
      <rect class="cls-24" x="1352.93" y="813.02" width="28.2" height="4.78"/>
      <rect class="cls-24" x="3033.52" y="607.25" width="7.95" height="4.7"/>
    </g>
  </g>
</svg>