<?xml version="1.0" encoding="UTF-8"?>
<svg id="Livello_2" data-name="Livello 2" xmlns="http://www.w3.org/2000/svg" width="3041" height="858.37" xmlns:xlink="http://www.w3.org/1999/xlink" viewBox="0 0 3041 858.37">
  <defs>
    <style>
      .cls-1 {
        stroke-width: 1px;
      }

      .cls-1, .cls-2, .cls-3, .cls-4, .cls-5, .cls-6, .cls-7, .cls-8, .cls-9, .cls-10, .cls-11, .cls-12, .cls-13, .cls-14, .cls-15, .cls-16, .cls-17 {
        stroke: #59865f;
      }

      .cls-1, .cls-2, .cls-18, .cls-10, .cls-19, .cls-13 {
        fill: #3a523d;
      }

      .cls-2, .cls-7, .cls-9, .cls-20, .cls-21, .cls-14, .cls-15 {
        stroke-width: 2px;
      }

      .cls-3 {
        stroke-width: 7.05px;
      }

      .cls-3, .cls-4, .cls-6, .cls-7, .cls-8, .cls-22, .cls-9, .cls-21, .cls-12, .cls-23, .cls-16, .cls-17 {
        fill: none;
      }

      .cls-4 {
        stroke-width: 7.07px;
      }

      .cls-5 {
        stroke-width: 6.58px;
      }

      .cls-5, .cls-24, .cls-20, .cls-11 {
        fill: #59865f;
      }

      .cls-18, .cls-22, .cls-24 {
        stroke-width: 0px;
      }

      .cls-6 {
        stroke-width: 7.04px;
      }

      .cls-8 {
        stroke-width: 6.92px;
      }

      .cls-9, .cls-21, .cls-12 {
        stroke-linecap: round;
      }

      .cls-10 {
        stroke-width: 6.99px;
      }

      .cls-20, .cls-19, .cls-21, .cls-23 {
        stroke: #3a523d;
      }

      .cls-19, .cls-11, .cls-12, .cls-13, .cls-23, .cls-16 {
        stroke-width: 6.99px;
      }

      .cls-25 {
        clip-path: url(#clippath);
      }

      .cls-14 {
        fill: #69bb5d;
      }

      .cls-15 {
        fill: #69bb5c;
      }

      .cls-17 {
        stroke-width: 4px;
      }
    </style>
    <clipPath id="clippath">
      <rect class="cls-22" x="1" y=".37" width="3040" height="858"/>
    </clipPath>
  </defs>
  <g class="cls-25">
    <g>
      <rect class="cls-22" y="47.37" width="1968.04" height="752"/>
      <rect class="cls-16" x="1105.27" y="74.87" width="22.96" height="328"/>
      <rect class="cls-18" x="1.07" y=".37" width="3039.93" height="858"/>
      <rect class="cls-22" x="0" y=".37" width="3041" height="858"/>
      <rect class="cls-13" x="786.92" y="114.87" width="45.91" height="109"/>
      <path class="cls-16" d="M716.56,427.37V54.37h1579.82v373H716.56Z"/>
      <rect class="cls-10" x="4.6" y="824.87" width="3032.81" height="30"/>
      <rect class="cls-13" x="734.02" y="74.87" width="1536.91" height="328"/>
      <rect class="cls-16" x="1098.29" y="74.87" width="22.96" height="328"/>
      <rect class="cls-16" x="1881.71" y="74.87" width="22.96" height="328"/>
      <rect class="cls-16" x="1486.51" y="74.87" width="22.96" height="328"/>
      <rect class="cls-13" x="1509.47" y="270.87" width="45.91" height="132"/>
      <rect class="cls-13" x="1509.47" y="197.87" width="45.91" height="74"/>
      <rect class="cls-13" x="1601.28" y="74.87" width="46.91" height="108"/>
      <rect class="cls-13" x="1601.28" y="262.87" width="46.91" height="140"/>
      <rect class="cls-13" x="1601.28" y="182.87" width="46.91" height="81"/>
      <rect class="cls-13" x="1555.37" y="74.87" width="45.91" height="230"/>
      <rect class="cls-13" x="1555.37" y="230.87" width="45.91" height="172"/>
      <rect class="cls-13" x="1693.1" y="114.87" width="47.91" height="109"/>
      <rect class="cls-13" x="1647.18" y="74.87" width="45.91" height="230"/>
      <rect class="cls-13" x="1647.18" y="230.87" width="45.91" height="172"/>
      <rect class="cls-13" x="1788.9" y="262.87" width="45.91" height="140"/>
      <rect class="cls-13" x="1788.9" y="189.87" width="45.91" height="74"/>
      <rect class="cls-13" x="1742.99" y="74.87" width="45.91" height="230"/>
      <rect class="cls-13" x="1742.99" y="230.87" width="45.91" height="172"/>
      <rect class="cls-13" x="1742.99" y="114.87" width="45.91" height="109"/>
      <rect class="cls-13" x="1740" y="74.87" width="45.91" height="230"/>
      <rect class="cls-13" x="1740" y="230.87" width="45.91" height="172"/>
      <rect class="cls-13" x="1834.8" y="74.87" width="45.91" height="230"/>
      <rect class="cls-13" x="1834.8" y="230.87" width="45.91" height="172"/>
      <rect class="cls-13" x="734.02" y="74.87" width="45.91" height="108"/>
      <rect class="cls-13" x="734.02" y="255.87" width="45.91" height="147"/>
      <rect class="cls-13" x="734.02" y="181.87" width="45.91" height="74"/>
      <rect class="cls-13" x="825.84" y="270.87" width="45.91" height="132"/>
      <rect class="cls-13" x="825.84" y="197.87" width="45.91" height="74"/>
      <rect class="cls-13" x="779.93" y="74.87" width="45.91" height="230"/>
      <rect class="cls-13" x="779.93" y="222.87" width="45.91" height="180"/>
      <rect class="cls-13" x="780.93" y="114.87" width="44.9" height="109"/>
      <rect class="cls-13" x="871.75" y="74.87" width="46.91" height="230"/>
      <rect class="cls-13" x="871.75" y="230.87" width="46.91" height="172"/>
      <rect class="cls-13" x="1010.46" y="270.87" width="45.91" height="132"/>
      <rect class="cls-13" x="1006.47" y="196.87" width="45.91" height="74"/>
      <rect class="cls-13" x="964.56" y="74.87" width="45.91" height="230"/>
      <rect class="cls-13" x="964.56" y="230.87" width="45.91" height="172"/>
      <rect class="cls-13" x="918.65" y="74.87" width="45.91" height="230"/>
      <rect class="cls-13" x="918.65" y="303.87" width="45.91" height="99"/>
      <rect class="cls-13" x="1052.39" y="114.87" width="45.91" height="109"/>
      <rect class="cls-13" x="1052.39" y="74.87" width="45.91" height="230"/>
      <rect class="cls-13" x="1052.39" y="230.87" width="45.91" height="172"/>
      <rect class="cls-13" x="1121.25" y="270.87" width="46.91" height="132"/>
      <rect class="cls-13" x="1121.25" y="198.87" width="46.91" height="74"/>
      <rect class="cls-13" x="1213.06" y="74.87" width="46.91" height="108"/>
      <rect class="cls-13" x="1214.06" y="256.87" width="45.91" height="146"/>
      <rect class="cls-13" x="1214.06" y="182.87" width="45.91" height="77"/>
      <rect class="cls-13" x="1168.16" y="74.87" width="45.91" height="230"/>
      <rect class="cls-13" x="1168.16" y="230.87" width="45.91" height="172"/>
      <rect class="cls-13" x="1258.97" y="74.87" width="45.91" height="230"/>
      <rect class="cls-13" x="1258.97" y="230.87" width="45.91" height="172"/>
      <rect class="cls-13" x="1393.7" y="270.87" width="46.91" height="132"/>
      <rect class="cls-13" x="1393.7" y="196.87" width="46.91" height="74"/>
      <rect class="cls-13" x="1347.78" y="74.87" width="45.91" height="230"/>
      <rect class="cls-13" x="1351.79" y="230.87" width="41.91" height="172"/>
      <rect class="cls-13" x="1347.78" y="114.87" width="45.91" height="109"/>
      <rect class="cls-13" x="1304.88" y="74.87" width="45.91" height="230"/>
      <rect class="cls-13" x="1440.6" y="74.87" width="45.91" height="230"/>
      <rect class="cls-13" x="1440.6" y="230.87" width="45.91" height="172"/>
      <rect class="cls-13" x="1905.67" y="189.87" width="45.91" height="74"/>
      <rect class="cls-13" x="1996.49" y="74.87" width="46.91" height="108"/>
      <rect class="cls-13" x="1996.49" y="270.87" width="46.91" height="132"/>
      <rect class="cls-13" x="1996.49" y="182.87" width="46.91" height="88"/>
      <rect class="cls-13" x="1951.57" y="74.87" width="44.9" height="230"/>
      <rect class="cls-13" x="1951.57" y="230.87" width="44.9" height="172"/>
      <rect class="cls-13" x="2043.39" y="74.87" width="44.9" height="230"/>
      <rect class="cls-13" x="2043.39" y="230.87" width="44.9" height="172"/>
      <rect class="cls-13" x="2135.2" y="270.87" width="44.9" height="132"/>
      <rect class="cls-13" x="2135.2" y="196.87" width="44.9" height="74"/>
      <rect class="cls-13" x="2180.12" y="74.87" width="44.9" height="156"/>
      <rect class="cls-13" x="2088.3" y="74.87" width="45.91" height="230"/>
      <rect class="cls-13" x="2709.05" y="329.87" width="44.9" height="50"/>
      <rect class="cls-13" x="2709.05" y="309.87" width="44.9" height="110"/>
      <rect class="cls-13" x="2813.84" y="366.87" width="44.9" height="33"/>
      <rect class="cls-13" x="2760.95" y="329.87" width="45.91" height="50"/>
      <rect class="cls-13" x="2760.95" y="309.87" width="45.91" height="110"/>
      <rect class="cls-13" x="2088.3" y="270.87" width="45.91" height="132"/>
      <rect class="cls-13" x="2225.02" y="74.87" width="45.91" height="230"/>
      <rect class="cls-13" x="2225.02" y="197.87" width="45.91" height="205"/>
      <path class="cls-13" d="M938.41,120.27c4.69-2.9,10.58-2.9,15.27,0l78.95,49.3c12.37,7.7,6.88,26.8-7.68,26.8h-157.78c-14.57,0-19.96-19.1-7.68-26.8l78.95-49.3h-.02Z"/>
      <path class="cls-12" d="M944.3,118.07c-3.49,0-6.29,1.7-9.38,3.2-6.68,3.3-12.97,7-18.87,11.7-8.08,6.4-14.87,14.2-21.36,22.2-7.08,8.7-13.77,17.8-17.37,28.5-1.1,3.4-3.69,8.6-3.69,12.3"/>
      <path class="cls-12" d="M943,116.77c-.2.8-2.69.5-3.39.7-4.59,1.5-8.38,4.7-11.77,8.2-5.39,5.5-7.58,11.6-10.97,18.4-3.29,6.5-6.29,13.2-8.18,20.3-2.89,10.4-4.99,21.4-4.99,32.2"/>
      <path class="cls-12" d="M943.4,118.97c-.4,2.7-2.49,5.4-3.59,7.8-2.19,4.8-3.89,9.5-4.89,14.8-2.19,11.2-3.69,22.6-3.69,34.1,0,6.9.5,14.2.5,20.8"/>
      <path class="cls-12" d="M937.12,119.37c-1.9.6-3.69,4.6-4.39,6.2-2.19,5.1-4.79,10.1-6.48,15.5-3.79,12.4-7.68,25.3-8.78,38.3-.3,3.4-.2,6.9-.2,10.3,0,1.3-.3,2.9,0,4.2.4,1.8.8,3.8,1,5.7"/>
      <path class="cls-12" d="M860.17,195.87c-.4-3.7-.7-7.4-.2-11.1.8-5,3.69-9.3,5.99-13.6,2.19-3.9,5.09-6.9,7.78-10.4,1-1.3,2-2.1,3.19-3.2s2.49-3.1,4.09-3.6"/>
      <path class="cls-12" d="M944.1,117.77c3.49,0,6.29,1.7,9.38,3.2,6.68,3.3,12.97,7,18.87,11.7,8.08,6.4,14.87,14.2,21.36,22.2,7.08,8.7,13.77,17.8,17.37,28.5,1.1,3.4,3.69,8.6,3.69,12.3"/>
      <path class="cls-12" d="M945.5,116.37c.2.8,2.69.5,3.39.7,4.59,1.5,8.38,4.7,11.77,8.2,5.39,5.5,7.58,11.6,10.97,18.4,3.29,6.5,6.29,13.2,8.18,20.3,2.89,10.4,4.99,21.4,4.99,32.2"/>
      <path class="cls-12" d="M945,118.67c.4,2.7,2.49,5.4,3.59,7.8,2.19,4.8,3.89,9.5,4.89,14.8,2.19,11.2,3.69,22.6,3.69,34.1,0,6.8-.5,14.2-.5,20.8"/>
      <path class="cls-12" d="M951.08,118.37c1.8.6,3.49,4.7,4.19,6.2,2.1,5.2,4.59,10.2,6.19,15.7,3.59,12.6,7.28,25.7,8.38,38.8.3,3.5.2,6.9.2,10.4,0,1.3.3,2.9,0,4.2-.4,1.8-.8,3.8-.9,5.7"/>
      <path class="cls-12" d="M1028.43,195.37c.4-3.9.8-8,.2-11.9-.9-5.3-4.29-10-6.98-14.6-2.49-4.2-5.99-7.4-9.18-11.1-1.1-1.4-2.29-2.3-3.69-3.5s-2.89-3.3-4.69-3.9"/>
      <path class="cls-11" d="M991.31,203.17c2,8-.8,10.6-2.49,10.9-5.79,2.8-5.59-16.4-6.68-22.7-1.2-6.3,9.18-7.2,9.18-4.6s-2.49,6.3,0,16.4h0Z"/>
      <path class="cls-11" d="M856.97,194.07c-2,6.7.8,8.8,2.49,9,5.79,2.4,5.59-13.6,6.68-18.8,1.2-5.2-9.18-6-9.18-3.8s2.49,5.3,0,13.6h0Z"/>
      <path class="cls-11" d="M905.78,212.77c-1-6.3-11.17-7.6-16.17-7.4-3.59,2.5,0,21-6.09,28.9-6.09,7.8,1.2,12,6.09,15.7,4.89,3.7,6.48,15.3,13.77,16.9s16.57,0,14.57-9.5-10.48-2.1-16.17-18.6c-5.69-16.5,5.19-18.1,3.99-26h.02Z"/>
      <path class="cls-11" d="M894.9,203.17c-2,8,.8,10.6,2.49,10.9,5.79,2.8,5.59-16.4,6.68-22.7,1.2-6.3-9.18-7.2-9.18-4.6s2.49,6.3,0,16.4h0Z"/>
      <path class="cls-12" d="M885.62,230.97c1.5,0,2.59,1.8,3.09,3,.5,1.1.8,2.3,1,3.5.3,2,.5,4.4.1,6.4-.3,1.6-.7,3.1-1.2,4.6"/>
      <path class="cls-12" d="M914.96,252.97h-3.19c-1.7,0-2.99.7-4.49,1.5-2.1,1.1-3.39,3.9-4.09,6.1-.5,1.5-.7,3.9.1,5.2"/>
      <path class="cls-11" d="M868.26,205.87c-.4-6.4-9.78-4.7-14.47-3-3.49,1,1,14.5-2,24s0,8,5.49,16,16.47,5,18.97-3.5-2.49-5.5-7.98-12.5c-5.49-7,.5-13,0-21h0Z"/>
      <path class="cls-12" d="M852.88,226.97c5.09,0,8.48,3.2,9.78,8,1,3.7.1,7.1-1.6,10.3"/>
      <path class="cls-12" d="M872.55,231.57c0,.3-.2.7-.2,1-.1.8-.2,1.6-.1,2.4.1.7.2,1.2.6,1.8.3.5.7.8,1.1,1.2.4.4.9.9,1.4,1.2"/>
      <path class="cls-11" d="M976.53,216.87c.4-8,12.77-10,18.97-10,8.48,2.5,0,27,4.99,39s-2.99,12.5-10.48,23-15.47,20.5-25.95,20-8.98-9-5.49-12.5,10.48-12,17.97-24.5c7.48-12.5-.5-25,0-35h0Z"/>
      <path class="cls-12" d="M960.37,275.47c1.9,0,4.09-.3,5.89.6,1.6.8,3.19,2.2,4.29,3.5,1.5,1.8,2.39,4.9,2.39,7.3"/>
      <path class="cls-12" d="M998.69,243.47c-1.6,2.4-3.69,5.4-4.09,8.4-.2,1.6-.2,3.2,0,4.8.1,1.2.7,2.5,1.2,3.6"/>
      <path class="cls-12" d="M980.03,218.87c0,2.1,1.2,4,1.2,6.1"/>
      <path class="cls-12" d="M985.92,218.07c0,.9,0,1.9.2,2.8"/>
      <path class="cls-12" d="M995.3,214.57c0,1.7-.2,3.4-.2,5.1"/>
      <path class="cls-12" d="M890.8,216.57v6.1"/>
      <path class="cls-12" d="M894.9,219.87v1.7"/>
      <path class="cls-12" d="M855.08,205.57c0,2.7-.1,5.5.1,8.2"/>
      <path class="cls-12" d="M857.17,205.37c0,1.9,0,3.9.1,5.8.1,1.3.2,2.5.2,3.8"/>
      <path class="cls-12" d="M902.09,217.57c-2.49,2.2-3.29,5.2-4.09,8.4"/>
      <path class="cls-11" d="M1022.45,202.07c-2-11.2,5.19-12.3,8.98-11.5,8.98,0,10.48,9.5,7.98,18.5s2.99,12,5.99,22.5-13.97,33.5-22.96,30.5c-8.98-3-5.49-9,0-19.5s2.49-26.5,0-40.5h0Z"/>
      <path class="cls-11" d="M1034.22,194.87c2,6.1-.8,8.1-2.49,8.3-5.79,2.2-5.59-12.4-6.68-17.2-1.1-4.8,9.18-5.5,9.18-3.5s-2.49,4.8,0,12.4h0Z"/>
      <path class="cls-12" d="M1019.45,248.77c3.39,0,6.39-.4,8.58,2.8,1.1,1.6,1.2,4.3,1.2,6.2"/>
      <path class="cls-12" d="M1025.34,200.07c0,1.1.4,2.1.7,3.2.6,2.6,1.2,5.1,1.8,7.7"/>
      <path class="cls-12" d="M1029.13,202.37c0,1.3.2,2.5.4,3.8.2,1.5.3,3.1.4,4.6"/>
      <path class="cls-12" d="M1033.92,203.17v5.4"/>
      <path class="cls-16" d="M852.28,185.87c36.23,1.3,124.85,3.2,189.12,0"/>
      <path class="cls-20" d="M815.36,583.37h483.03c32.53,0,58.88,26.4,58.88,59v44c0,32.6-26.35,59-58.88,59h-483.03c-32.53,0-58.88-26.4-58.88-59v-44c0-32.6,26.35-59,58.88-59Z"/>
      <path class="cls-24" d="M1151.68,743.09c0-22.99,19.17-41.72,42.91-41.72h167.67c23.75,0,42.91,18.72,42.91,41.72v36.87c0,22.99-19.17,41.72-42.91,41.72h-167.67c-23.75,0-42.91-18.72-42.91-41.72v-36.87h0Z"/>
      <path class="cls-18" d="M1151.68,737.37c0-27.6,22.36-50,49.9-50h153.69c27.55,0,49.9,22.4,49.9,50,0-19.9-19.17-36-42.91-36h-167.67c-23.75,0-42.91,16.1-42.91,36h-.01ZM1405.17,818.37h-253.49,253.49ZM1151.68,818.37v-124,124ZM1405.17,694.37v124-124Z"/>
      <path class="cls-24" d="M716.56,746.37c0-23.7,19.26-43,42.91-43h170.66c23.65,0,42.91,19.3,42.91,43v38c0,23.7-19.26,43-42.91,43h-170.66c-23.65,0-42.91-19.3-42.91-43v-38Z"/>
      <path class="cls-18" d="M716.56,743.72c0-28.5,22.36-51.64,49.9-51.64h156.68c27.55,0,49.9,23.13,49.9,51.64,0-20.55-19.26-37.18-42.91-37.18h-170.66c-23.65,0-42.91,16.63-42.91,37.18h0ZM973.04,827.37h-256.48,256.48ZM716.56,827.37v-128.06,128.06ZM973.04,699.31v128.06-128.06Z"/>
      <path class="cls-18" d="M918.15,740.37c0-27.6,22.36-50,49.9-50h184.63c27.55,0,49.9,22.4,49.9,50,0-19.9-19.17-36-42.91-36h-198.61c-23.65,0-42.91,16.1-42.91,36h0ZM1202.58,821.37h-284.42,284.42ZM918.15,821.37h284.43"/>
      <path class="cls-16" d="M768.45,817.37h589.81"/>
      <rect class="cls-13" x="1760.96" y="603.87" width="9.98" height="215"/>
      <rect class="cls-13" x="2096.28" y="597.87" width="9.98" height="227"/>
      <path class="cls-16" d="M2636.2,613.37h398.7"/>
      <path class="cls-11" d="M2970.53,344.87v134l31.94,25c20.76-38,24.25-121.8,23.46-159h-55.39Z"/>
      <path class="cls-11" d="M2942.09,533.87c0,12.4-6.68,51.5-9.98,69.5h77.85l-10.48-127h-135.22c8.48,64.5,77.85,42,77.85,57.5h-.02Z"/>
      <path class="cls-16" d="M2970.03,352.37h55.89"/>
      <path class="cls-11" d="M2863.74,472.87h102.79c-7.78-2.5-29.24-7.4-52.4-7s-43.21,4.8-50.4,7h0Z"/>
      <rect class="cls-5" x="2429.61" y="3.29" width="6.98" height="814.58"/>
      <rect class="cls-16" x="2639.19" y="305.87" width="247.5" height="118"/>
      <path class="cls-11" d="M2651.46,401.47c-12.97-24.4-11.57-71.7-9.18-92.3,19.46-7,80.04,0,73.55,12.7-6.48,12.7-4.29,64.7,0,83.4s21.06,23.9,15.67,29.5c-5.39,5.6-9.18,0-19.96,0s-4.29,5.6-16.17,5.6-7.58-5.6-17.87-5.6-16.17,9.4-25.95,0c-9.88-9.4,16.07-2.8-.1-33.3h0Z"/>
      <path class="cls-11" d="M2876.32,401.47c16.77-24.4,14.87-71.7,11.87-92.3-25.15-7-103.49,0-95.11,12.7s5.59,64.7,0,83.4-27.25,23.9-20.26,29.5c6.98,5.6,11.87,0,25.85,0s5.59,5.6,20.96,5.6,9.78-5.6,23.06-5.6,20.96,9.4,33.53,0c12.67-9.4-20.86-2.8.1-33.3h0Z"/>
      <path class="cls-12" d="M2651.46,362.47c0,5.1-.2,9.7,1.7,14.5,2.1,5.7,5.59,10.7,9.18,15.5,8.28,11,11.67,26.4,5.39,39"/>
      <path class="cls-12" d="M2678.61,373.37c5.39,6.5,9.08,15.7,11.97,23.5,3.09,8.3,4.39,17.3,3.09,26.1"/>
      <path class="cls-12" d="M2679.81,393.97c.6,2.2,2.39,3.9,2.99,6.2.8,2.8,1.9,5.7,2.29,8.6.4,3.5.5,7.7-.6,11.1-.8,2.4-2.39,4.3-2.89,6.8"/>
      <path class="cls-12" d="M2808.16,375.77c0,9.8.3,19.7-1.2,29.5-1,6.7-2.49,13.4-5.29,19.5-.5,1.2-2.19,4.4-2.19,3.1"/>
      <path class="cls-12" d="M2843.68,357.97c0,11.3.5,22.7-.4,34-.8,11-2.79,22-6.88,32.3-1.1,2.8-2.1,4.9-4.49,6.6"/>
      <path class="cls-12" d="M2835.39,390.07c0,3.8.1,7.6-.3,11.4-1,10.7-4.19,19.8-8.78,29.4"/>
      <path class="cls-12" d="M2862.74,390.97c0,5.5-1.7,10.5-3.29,15.7-2,6.6-3.29,13-3.69,19.9"/>
      <path class="cls-12" d="M2866.63,403.07c-.2,4.9-3.29,9.1-3.39,14.1-.1,4.1,0,7,2.59,10.2"/>
      <path class="cls-12" d="M2799.47,404.87c0,10.5-9.48,20-19.96,20"/>
      <path class="cls-16" d="M2200.58,705.87c-2-54.7,4.59-165.7,46.91-172.5,52.9-8.5-40.91,2.5-35.93,172.5"/>
      <rect class="cls-13" x="2125.22" y="708.87" width="86.83" height="7"/>
      <rect class="cls-17" x="2132.71" y="720.37" width="3.99" height="99"/>
      <rect class="cls-17" x="2205.57" y="720.37" width="3.99" height="99"/>
      <rect class="cls-16" x="1641.5" y="709.87" width="86.83" height="7"/>
      <rect class="cls-17" x="1715.55" y="721.37" width="3.99" height="99"/>
      <rect class="cls-17" x="1643.99" y="721.37" width="3.99" height="99"/>
      <path class="cls-12" d="M1785.31,564.07c0-1.8-.4-4.2.2-5.9.5-1.2,2.29-1.1,3.29-1.1,2.49-.2,4.89-.1,7.38-.1h20.26c4.59,0,9.28.1,13.87,0,7.78-.3,15.47-1.1,23.26-1.7,7.78-.7,16.87-2,23.55,3.2,1.5,1.1,3.59,3.6,3.59,5.6"/>
      <path class="cls-16" d="M1872.94,555.37c-2-6-4.79-18,0-18h16.97c.5,0,3.99,18.5-2.99,27"/>
      <path class="cls-16" d="M2036.4,545.87c0,8.4,1.3,15.8,2,18.5h14.96c1.6-2.8,1.7-20.2,1.5-28.5h-18.47v10h.01Z"/>
      <path class="cls-13" d="M2048.88,542.57c0,9.4,1.4,17.8,2.1,20.8h15.27c1.6-3.1,1.7-22.6,1.5-32h-18.87v11.2h0Z"/>
      <path class="cls-13" d="M1809.36,543.57c0,9.4,1.4,17.8,2.1,20.8h15.27c1.6-3.1,1.7-22.6,1.5-32h-18.87v11.2Z"/>
      <path class="cls-13" d="M1768.34,566.27c7.48,5.7,14.96,9.7,17.77,11l9.28-12.2c-1.5-3.2-16.97-15.1-24.45-20.6l-11.47,15.1,8.88,6.7h0Z"/>
      <path class="cls-13" d="M1708.06,566.87h440.12c8.28,0,14.96,6.7,14.96,15h0c0,8.3-6.68,15-14.96,15h-440.12c-8.28,0-14.96-6.7-14.96-15h0c0-8.3,6.68-15,14.96-15h0Z"/>
      <path class="cls-7" d="M294.91,817.87c.4-1.6,1.5-9.3,2-13,90.82,11,144.21-3.5,144.21,0,0,2.8,2.99,9.8,4.49,13-35.93,6.5-151.2,2-150.7,0h0Z"/>
      <path class="cls-7" d="M429.14,818.97c.4-1.6,1.5-9.3,2-13,90.82,11,144.21-3.5,144.21,0,0,2.8,2.99,9.8,4.49,13-35.93,6.5-151.2,2-150.7,0Z"/>
      <path class="cls-7" d="M345.5,804.37c-.8,1.8,1,3.4,2,4,3.49,0,4.99,0,7.88-1.7,2.99-1.7,11.37-2.3,15.87-1.7s6.39-3.4,3.99-3.4-3.99-1.1-9.88-1.1-5.39,2.9-9.88,2.9c-4.59-.1-8.98-1.3-9.98,1h0Z"/>
      <path class="cls-2" d="M350.7,808.37h-.9v1c0,.4.2.6.3.7.1.1.2.2.3.2.1.1.3.2.4.2.3.1.7.3,1.2.4.9.3,2.19.7,3.69,1,2.79.7,6.19,1.5,8.48,1.9,2.39.4,3.69,1.8,4.79,3.2.1.2.3.4.5.6.4.5.7,1,1.1,1.4.6.6,1.3,1.2,2.29,1.2.5,0,1.2.1,2,.3.3.1.7.1,1,.2.5.1.9.2,1.3.3s.7.1,1,.1.7,0,1-.1c.2-.1.4-.2.6-.4s.3-.6.3-.8c0-.5-.3-.9-.5-1.2-.8-1-1.1-1.6-1.3-2.3-.1-.7-.1-1.6.4-3.3.6-2.1,0-3.9-.8-5.3-.4-.7-.8-1.3-1.2-1.8v-.1c-.4-.6-.7-1.1-1-1.5-.1-.2-.3-.5-.4-.7-.2-.2-.5-.5-1-.5-.4,0-.7.2-.8.3-.1.1-.2.2-.3.2l-.1.1c-.2.2-.4.3-.8.4-.4.1-1,.2-1.8.1-.4-.1-.8-.1-1.2-.2-3.29-.4-5.79-.8-9.18.2-1.8.5-4.19,1.6-5.99,2.4-.5.2-.9.4-1.3.6-.4.2-.8.4-1.1.5-.3.1-.6.3-.8.3-.1.4-.2.4-.2.4h0ZM350.6,808.37h0Z"/>
      <path class="cls-9" d="M356.78,810.87c.4,0,.8,0,1.2-.1.9-.1,1.6-.6,2.49-.9.9-.3,2.1-.6,2.99-.3.4.1.8.3,1,.7.2.3.2.7.5.9.6.6,2.19.5,2.29,1.5,0,.3-.1.4-.1.6"/>
      <path class="cls-9" d="M370.55,807.67c-.8,0-1.6.4-1.4,1.3.1.6.5.9,1,1.2.4.2,1.2.3,1.4.7.3.5.1,1.2.3,1.8.2.6,1,.7,1.5.6,1-.1,2.1-1.1,2-2.2-.1-1-.8-1.3-1.4-1.8-.3-.2-.5-.6-.7-.9-.1-.2-.2-.5-.3-.7-.2-.5-.9-.4-1.3-.4-.6,0-.9.4-1.4.7"/>
      <path class="cls-9" d="M370.25,816.97c1-.6,2.19,0,2.79.8.3.4.5,1.1,1,1.4.3.1.9.1,1.1.3"/>
      <path class="cls-9" d="M358.98,805.87h.8c.6.1,1,.6,1.5.9.4.2.8.3,1.3.2.6,0,1.2,0,1.7-.3.4-.2.7-.5,1.1-.7s.9-.1,1.3,0c.6,0,.6-.6.5-1"/>
      <path class="cls-7" d="M297.4,805.47v-1.1c15.47.7,46.71,2,47.91,2"/>
      <path class="cls-7" d="M376.24,806.37c19.46-1.8,58.98-5.4,61.38-5s3.29,2.5,3.49,3.5"/>
      <path class="cls-19" d="M1200.09,693.87c.4-1.6-.5-9.3,0-13,90.82,11,144.21-3.5,144.21,0,0,2.8,4.99,9.8,6.48,13-35.93,6.5-151.2,2-150.7,0Z"/>
      <path class="cls-1" d="M1266.95,680.87c-.8,1.6,1,3,2,3.5,3.49,0,4.99,0,7.98-1.5s11.47-2,15.97-1.5,6.48-3,3.99-3-3.99-1-9.98-1-5.49,2.5-9.98,2.5-8.98-1-9.98,1h0Z"/>
      <path class="cls-2" d="M1285.91,688.87c-4.39-.8-10.77-3-13.47-4,.5,0,5.99-2.5,9.48-3.5s5.99-.5,9.98,0,2.49-1,4.49-.5,1,5.5,0,9,2.49,3.5,3.99,5.5-3.49,0-5.99,0-2.99-5.5-8.48-6.5Z"/>
      <path class="cls-9" d="M1278.53,686.87c.4,0,.8,0,1.2-.1.9-.1,1.6-.6,2.49-.9.9-.3,2.1-.6,3.09-.3.4.1.8.3,1.1.7.2.3.2.7.4.9.6.6,2.19.5,2.29,1.5,0,.3-.2.4-.2.6"/>
      <path class="cls-9" d="M1292.2,683.67c-.8,0-1.6.4-1.4,1.3.1.6.5.9,1,1.2.4.2,1.2.3,1.4.7.3.5.2,1.2.3,1.8.2.6,1,.7,1.5.6,1-.1,2.1-1.1,2-2.2-.2-1-.8-1.3-1.4-1.8-.3-.2-.5-.6-.7-.9-.1-.2-.2-.5-.3-.7-.2-.5-.9-.4-1.3-.4-.6,0-.9.4-1.4.7"/>
      <path class="cls-9" d="M1291.91,692.97c1-.6,2.19,0,2.79.8.3.4.5,1.1,1,1.4.3.1.9.1,1.1.3"/>
      <path class="cls-9" d="M1280.62,682.07h.8c.6.1,1,.6,1.5.9.4.2.8.3,1.3.2.6,0,1.2,0,1.7-.3.4-.2.7-.5,1.1-.7s.9-.1,1.3,0c.6,0,.6-.6.5-1"/>
      <path class="cls-23" d="M1201.09,678.87v-11c51.4,8,60.88,8,80.34,6.5"/>
      <path class="cls-23" d="M1281.42,674.37c19.46-1.8,58.98-5.4,61.38-5s1.8,10.5,2,11.5"/>
      <path class="cls-7" d="M528.43,806.37c-3.19,2,3.69,2.5,7.48,2.5,1,0,6.98-2.5,13.47-3.5s6.98,0,5.99-2.5-11.47-3-15.97,0-6.98,1-10.97,3.5h0Z"/>
      <path class="cls-14" d="M554.38,815.37c-.8-2.8-12.27-5.5-17.97-6.5,1.6-1.6,13.27-3.7,18.97-4.5,2.19,1.8,6.48,6.6,6.48,11,0,5.5,4.99,5,3.49,6s-9.98-2.5-10.97-6Z"/>
      <path class="cls-9" d="M544.01,810.17h1.2c.7-.1,1.3-.3,2-.4.8-.1,1.7-.2,2.49-.2.3,0,.7,0,.9.1.3.2.6.6.8.8.5.5,1.1.7,1.1,1.5,0,.7-.5.8-1.2,1"/>
      <path class="cls-9" d="M549.99,805.87c.7,0,1.2.4,1.6.8,1,.9,1.8,2.1,3.39,1.8.8-.2,1.6-.9,2.49-.8.1,0,.2.1.4.1"/>
      <path class="cls-9" d="M559.67,813.87h-2c-.4,0-.9.1-1.1.5-.6,1.1,1.2,1.8,1.7,2.7.3.7,0,1.2.1,1.9s1.3.8,1.9.8c.8,0,1.6-.5,1.3-1.4-.1-.4-.5-.7-.7-1.1-.2-.3-.4-.7-.6-1.1-.3-.8.2-1.9-.4-2.7"/>
      <path class="cls-15" d="M497.5,807.37c4.39-2,10.48.8,12.97,2.5.7,1.7.9,4.8-3.49,4-5.49-1-10.48,4-14.96,7s-6.98-3-2-6,2-5,7.48-7.5h0Z"/>
      <path class="cls-9" d="M489.91,814.97c-.3.6-.8,1.2-.4,1.9s1.1.6,1.7.4c.7-.3,1.4-.7,2.1-.7.7-.1,1.5,0,2.1-.3.6-.4.2-1.2,0-1.7-.3-.5-.8-.8-1.3-1.1-.6-.4-.8-.7-.6-1.4"/>
      <path class="cls-9" d="M500.7,808.77c-.2.1-.9.6-.8.9.3.5,1.2.4,1.7.7.5.2.9.6,1.3.8.5.2,1.4.3,1.9,0,.2-.2.4-.4.6-.7.2-.6-.2-.9-.6-1.2-.4-.2-.8-.5-1.3-.5-.2,0-.4,0-.7-.1-.4-.2-.8-.5-1.3-.5-.3,0-.6.3-.9.3"/>
      <path class="cls-9" d="M506.78,808.47c.7.2,1.8.3,2.39.9.2.3.1.9.1,1.2-.2.8-.8,1.5-1.4,2.1-.1.1-.9.7-.5.9"/>
      <path class="cls-9" d="M498.59,815.67c.1-.6,0-1.2.1-1.8.1-.3.2-.6.4-.8.3-.2.8-.2,1.1-.2.4,0,.7.3,1,.6s.5.3.9.3"/>
      <path class="cls-7" d="M459.08,808.37c20.96-1.7,63.67-5.1,66.86-5.5,3.99-.5,23.95-5,29.44-4s15.97-1,16.47,6"/>
      <path class="cls-21" d="M1254.67,649.37c-4.19.5-3.29,5.5-2.29,8.3,1.2,3.3,2.99,6.9.7,10"/>
      <path class="cls-21" d="M1263.46,638.37v1.2c0,1.1,1,1.1,1.5,1.8,1.3,1.6.8,4-.1,5.6"/>
      <path class="cls-21" d="M1295.7,647.37c-.7.8-.2,3.1.2,3.9.8,2.1,3.09,4.6,1.2,6.7"/>
      <path class="cls-21" d="M1300.78,633.37c-.3,1.3-.6,2.9-.3,4.2.6,2.1,2.49,3.9,3.69,5.7,1.3,2.1,2.39,4.4,2.39,6.9,0,1.7-.5,3.1-1,4.7"/>
      <path class="cls-9" d="M499.59,791.27c-1.1.6-.4,3,.2,3.7.8,1,1.3,1.7,1.6,3,.1.7.5,1.9,0,2.4"/>
      <path class="cls-9" d="M503.59,794.87c0,1.2.8,2.1,1.3,3.2.3.8.3,1.8.1,2.6"/>
      <path class="cls-9" d="M548.7,782.77c0,1.8-.6,4.8.4,6.3,1.6,2.4,2.59,2,2.1,5.3"/>
      <path class="cls-9" d="M346.6,784.37c-2.19.2-2.49,3.3-2.1,4.9.3,1.4,1.4,2.4,1.7,3.8.2.8.2,1.5.2,2.4"/>
      <path class="cls-9" d="M362.67,788.57c0,1.2.5,2,1.1,3,.9,1.3.7,4.2.1,5.6"/>
      <path class="cls-9" d="M369.65,790.37c-.8,2.1-.3,3.8.6,5.8.2.5.3.8.3,1.3"/>
      <path class="cls-9" d="M452.79,793.87c-1,1.4-.9,3.8-.4,5.3.4,1.1,1.1,1.9,1.5,2.9.6,1.4.7,2.8.8,4.3"/>
      <path class="cls-7" d="M376.24,802.97c.4-1.6,1.4-9.4,1.9-13,86.63,11,137.53-3.5,137.53,0,0,2.8,2.89,9.9,4.29,13-34.23,6.5-144.21,2-143.71,0Z"/>
      <path class="cls-7" d="M419.66,790.27c-.8,1.6,1,3,2,3.5,3.49,0,4.99,0,7.98-1.5s11.47-2,15.97-1.5,6.48-3,3.99-3-3.99-1-9.98-1-5.49,2.5-9.98,2.5-8.98-1-9.98,1h0Z"/>
      <path class="cls-2" d="M438.61,798.27c-4.39-.8-10.77-3-13.47-4,.5,0,5.99-2.5,9.48-3.5s5.99-.5,9.98,0,2.49-1,4.49-.5,1,5.5,0,9,2.49,3.5,3.99,5.5-3.49,0-5.99,0-2.99-5.5-8.48-6.5Z"/>
      <path class="cls-9" d="M431.13,796.27c.4,0,.8,0,1.2-.1.9-.1,1.6-.6,2.49-.9.9-.3,2.1-.6,2.99-.3.4.1.8.3,1,.7.2.3.2.7.5.9.6.6,2.19.5,2.29,1.5,0,.3-.1.4-.1.6"/>
      <path class="cls-9" d="M444.91,793.07c-.8,0-1.6.4-1.4,1.3.1.6.5.9,1,1.2.4.2,1.2.3,1.4.7.3.5.1,1.2.3,1.8.2.6,1,.7,1.5.6,1-.1,2.1-1.1,2-2.2-.1-1-.8-1.3-1.4-1.8-.3-.2-.5-.6-.7-.9-.1-.2-.2-.5-.3-.7-.2-.5-.9-.4-1.3-.4-.6,0-.9.4-1.4.7"/>
      <path class="cls-9" d="M444.61,802.37c1-.6,2.19,0,2.79.8.3.4.5,1.1,1,1.4.3.1.9.1,1.1.3"/>
      <path class="cls-9" d="M433.33,791.37h.8c.6.1,1,.6,1.5.9.4.2.8.3,1.3.2.6,0,1.2,0,1.7-.3.4-.2.7-.5,1.1-.7s.9-.1,1.3,0c.6,0,.6-.6.5-1"/>
      <path class="cls-7" d="M379.24,790.07v-1.7c12.87,1,38.92,3,39.92,3"/>
      <path class="cls-7" d="M450.6,791.77c19.46-1.8,58.98-5.4,61.38-5,2.39.4,3.29,2.5,3.49,3.5"/>
      <path class="cls-9" d="M420.95,769.47c-2.19.2-2.49,3.3-2.1,4.9.3,1.4,1.4,2.4,1.7,3.8.2.8.2,1.5.2,2.4"/>
      <path class="cls-9" d="M437.02,773.97c0,1.2.5,2,1.1,3,.9,1.4.7,4.2.1,5.6"/>
      <path class="cls-9" d="M443.71,777.67c-.8,2.1-.3,3.8.6,5.8.2.5.3.8.3,1.3"/>
      <path class="cls-9" d="M527.14,779.27c-1,1.4-.9,3.8-.4,5.3.4,1.1,1.1,1.9,1.5,2.9.6,1.4.7,2.8.8,4.3"/>
      <path class="cls-16" d="M1652.97,707.87c2-54.7-4.59-165.7-46.91-172.5-52.9-8.5,40.91,2.5,35.93,172.5"/>
      <path class="cls-6" d="M2494.98,832.67v-60.4h60.38v-53.29h77.35v-108.61h399.69"/>
      <path class="cls-6" d="M2494.98,772.27h60.38v-19.29"/>
      <path class="cls-6" d="M2649.67,623.06l6.48,10.15M2656.15,633.21l-6.48,5.58M2656.15,633.21l10.97,3.05M2656.15,633.21l10.97-10.15-10.97-5.08h13.97"/>
      <path class="cls-6" d="M2744.47,718.47l28.44-17.26-13.97-20.3M2758.95,680.92l34.93-12.69M2758.95,680.92l-8.98-4.57M2758.95,680.92v6.09"/>
      <path class="cls-6" d="M2814.34,629.15l9.18,4.06M2824.32,645.9l8.48-8.63-9.18-4.06M2823.52,633.21l5.19-4.06"/>
      <path class="cls-6" d="M2556.36,769.23l33.43,23.35-20.96,3.55"/>
      <path class="cls-6" d="M2580.31,784.96l11.97-6.09"/>
      <path class="cls-6" d="M2721.53,771.26l-11.97,12.99M2697.57,797.14l11.97-12.99M2709.55,784.15l-8.48-5.28M2709.55,784.15v-8.93l5.49-4.06"/>
      <path class="cls-6" d="M2905.16,686.5l24.45,12.18M2929.6,698.68l-4.99-22.84,21.96-9.64M2929.6,698.68h7.98M2937.59,698.68v9.64M2937.59,698.68v-6.09h8.98"/>
      <line class="cls-3" x1="2632.38" y1="718.48" x2="3034.57" y2="720.51"/>
      <line class="cls-6" x1="2632.71" y1="664.68" x2="3033.9" y2="666.71"/>
      <path class="cls-4" d="M2555.86,771.26h478.04"/>
      <path class="cls-6" d="M2555.86,770.75v56.84"/>
      <path class="cls-6" d="M2606.76,718.98v103.54"/>
      <path class="cls-6" d="M2683.6,612.4v103.54"/>
      <path class="cls-6" d="M2814.34,717.97v103.54"/>
      <path class="cls-6" d="M2891.18,614.43v103.54"/>
      <path class="cls-6" d="M2658.66,718.98v104.55"/>
      <path class="cls-6" d="M2735.5,612.4v104.55"/>
      <path class="cls-6" d="M2866.23,717.97v104.55"/>
      <path class="cls-6" d="M2943.08,614.43v104.55"/>
      <path class="cls-6" d="M2711.54,718.98v104.55"/>
      <path class="cls-6" d="M2788.39,613.42v104.55"/>
      <path class="cls-6" d="M2919.13,717.97v104.55"/>
      <path class="cls-6" d="M2995.98,614.43v104.55"/>
      <path class="cls-6" d="M2763.44,716.95v104.55"/>
      <path class="cls-6" d="M2840.29,613.42v104.55"/>
      <path class="cls-8" d="M2971.02,719.6v100.89"/>
      <path class="cls-6" d="M3017.92,718.98v104.55"/>
      <path class="cls-24" d="M1196.94,799.67c3.58-6.28,5.64-13.55,5.64-21.3v-38c0-23.7-19.17-43-42.91-43h-198.61c-23.65,0-42.91,19.3-42.91,43v38c0,7.74,2.07,15.01,5.66,21.3h-21.33v26h315.47v-26h-21.01,0Z"/>
      <rect class="cls-18" x="2484" y="828.67" width="26.95" height="5"/>
      <rect class="cls-18" x="3026.91" y="828.37" width="13.97" height="23"/>
      <rect class="cls-18" x="1" y="828.42" width="7.98" height="22.9"/>
      <rect class="cls-24" x="1349.3" y="812.92" width="28.13" height="4.78"/>
      <rect class="cls-24" x="3025.97" y="607.15" width="7.93" height="4.7"/>
    </g>
  </g>
</svg>