<?xml version="1.0" encoding="UTF-8"?>
<svg id="Livello_1" data-name="Livello 1" xmlns="http://www.w3.org/2000/svg" width="3042" height="860.47" xmlns:xlink="http://www.w3.org/1999/xlink" viewBox="0 0 3042 860.47">
  <defs>
    <style>
      .cls-1 {
        stroke-width: 10px;
      }

      .cls-1, .cls-2, .cls-3, .cls-4, .cls-5 {
        stroke: #365455;
      }

      .cls-1, .cls-4, .cls-6, .cls-7 {
        fill: #121a1c;
      }

      .cls-8, .cls-2, .cls-9, .cls-10 {
        fill: #365455;
      }

      .cls-8, .cls-2, .cls-10, .cls-4, .cls-5, .cls-7 {
        stroke-width: 5px;
      }

      .cls-8, .cls-10, .cls-7 {
        stroke: #121a1c;
      }

      .cls-11, .cls-9, .cls-6 {
        stroke-width: 0px;
      }

      .cls-11, .cls-3, .cls-5 {
        fill: none;
      }

      .cls-12 {
        clip-path: url(#clippath);
      }

      .cls-10 {
        stroke-linecap: round;
      }

      .cls-10, .cls-5 {
        stroke-linejoin: round;
      }

      .cls-3 {
        stroke-width: 1px;
      }
    </style>
    <clipPath id="clippath">
      <rect class="cls-11" y=".47" width="3041.31" height="860"/>
    </clipPath>
  </defs>
  <g class="cls-12">
    <g>
      <path class="cls-4" d="M2.5,857.96V2.98h3036.31v854.99H2.5Z"/>
      <path class="cls-4" d="M2705.06,217.17h47.72c6.8,0,12.31,5.41,12.31,11.93v70.97c0,6.52-5.4,11.93-12.31,11.93h-47.72c-6.8,0-12.31-5.41-12.31-11.93v-70.97c.1-6.52,5.5-11.93,12.31-11.93Z"/>
      <path class="cls-4" d="M2.5,857.96v-432.71h804.25v432.71H2.5Z"/>
      <path class="cls-4" d="M220.39,724.65v-183.83h358.15v183.83H220.39Z"/>
      <path class="cls-4" d="M580.55,535.82H218.49L10.1,425.26h788.74l-218.29,110.56Z"/>
      <path class="cls-4" d="M218.59,729.67h361.86l219.59,128.3H8.9l209.69-128.3Z"/>
      <path class="cls-4" d="M583.55,725.76v-185.83l223.2-113.06v429.3l-223.2-130.4Z"/>
      <path class="cls-4" d="M2.5,426.96l212.89,112.96v185.83L2.5,855.96v-429Z"/>
      <path class="cls-8" d="M609.86,800.73c2.4-.4,5-1.2,7.5-2.31v45.51l-424.78,2.51v-106.45h143.16c1.9,6.01,4.9,11.83,7.1,16.14.3.5.5,1,.7,1.4.1.2.3.9.3,2s-.1,2.51-.4,4.11c-.5,3.21-1.5,7.12-2.6,11.23,0,.2-.1.4-.1.6-1,3.81-2,7.82-2.6,11.33-.3,1.8-.6,3.61-.7,5.21-.1,1.6,0,3.11.4,4.51.5,1.8,1.8,3.01,3.3,3.71,1.4.7,3.1,1.1,4.8,1.2,3.4.3,7.7-.1,11.91-.8,8.4-1.5,17.61-4.41,21.51-6.52.1-.1.5-.2,1.4-.4.8-.2,1.9-.4,3.2-.5,2.6-.3,6-.6,9.9-.8,7.8-.4,17.71-.6,27.41-.6s19.51.2,27.01.5c3.8.2,7,.4,9.4.6,1.2.1,2.2.2,2.9.4.6.1.8.2.9.2h0c.6.3,1.5.5,2.2.6.8.1,1.8.3,2.9.4,2.2.2,5.2.4,8.5.6,6.7.3,15.41.4,24.21.4s17.91-.1,25.61-.4c7.5-.3,13.91-.7,17.01-1.3,2.7-.5,7.4-.8,13.11-.7,5.7,0,12.21.4,18.61,1,6.4.6,12.51,1.4,17.31,2.41,2.4.5,4.5,1,6,1.6,1.7.6,2.5,1.1,2.8,1.3,1.3,1.3,3,1.8,4.6,2,1.8-.2,3.6-.3,5.5-.7Z"/>
      <path class="cls-8" d="M529.13,690.37l80.93,44.6H199.79l80.93-44.6h248.41Z"/>
      <path class="cls-8" d="M468,555.86h-137.76c-3.2,0-5.6-2.51-5.6-5.41v-7.52c0-.7.6-1.3,1.4-1.3h146.16c.8,0,1.4.7,1.4,1.3v7.52c0,2.91-2.4,5.41-5.6,5.41h0Z"/>
      <path class="cls-5" d="M3041.31,804.94h-1163.2v-67.46h-514.52v111.46h-534.13v-441.03H45.02V28.24"/>
      <path class="cls-5" d="M53.72,28.24v369.96h786.34v440.72h513.22v-112.16h533.73v68.96l956.41.6-.3-57.63h145.26V28.24"/>
      <path class="cls-4" d="M40.42,324.72v-3.51h17.11v3.51h-17.11Z"/>
      <path class="cls-4" d="M1348.98,755.13h19.61c.1,0,.2,0,.3.1q.1.1.1.2v6.01q0,.1-.1.2c-.1.1-.2.1-.3.1h-19.61c-.1,0-.2,0-.3-.1q-.1-.1-.1-.2v-6.01q0-.1.1-.2c.1-.1.2-.1.3-.1Z"/>
      <path class="cls-4" d="M1871.7,755.13h19.61c.1,0,.2,0,.3.1q.1.1.1.2v6.01q0,.1-.1.2t-.3.1h-19.61c-.1,0-.2,0-.3-.1q-.1-.1-.1-.2v-6.01q0-.1.1-.2c.1-.1.2-.1.3-.1Z"/>
      <path class="cls-4" d="M1348.98,771.26h19.61c.1,0,.2,0,.3.1q.1.1.1.2v6.01q0,.1-.1.2c-.1.1-.2.1-.3.1h-19.61c-.1,0-.2,0-.3-.1q-.1-.1-.1-.2v-6.01q0-.1.1-.2c.1,0,.2-.1.3-.1Z"/>
      <path class="cls-4" d="M2825.61,790.81v19.14q0,.1-.1.2c-.1.1-.2.1-.3.1h-6.1c-.1,0-.2,0-.3-.1s-.1-.1-.1-.2v-19.14q0-.1.1-.2t.3-.1h6.1c.1,0,.2,0,.3.1.1.1.1.2.1.2Z"/>
      <path class="cls-4" d="M2998.99,645.27h-19.61c-.1,0-.2,0-.3-.1s-.1-.1-.1-.2v-6.01q0-.1.1-.2t.3-.1h19.61c.1,0,.2,0,.3.1s.1.1.1.2v6.01q0,.1-.1.2c-.1.1-.2.1-.3.1Z"/>
      <path class="cls-4" d="M2731.37,196.03h-24.31c-.1,0-.2,0-.3-.1s-.1-.1-.1-.2v-2.91q0-.1.1-.2c.1-.1.2-.1.3-.1h24.31c.1,0,.2,0,.3.1s.1.1.1.2v2.91q0,.1-.1.2c-.1,0-.2.1-.3.1Z"/>
      <path class="cls-4" d="M2731.37,182.89h-24.31c-.1,0-.2,0-.3-.1s-.1-.1-.1-.2v-2.91q0-.1.1-.2c.1-.1.2-.1.3-.1h24.31c.1,0,.2,0,.3.1s.1.1.1.2v2.91q0,.1-.1.2c-.1.1-.2.1-.3.1Z"/>
      <path class="cls-5" d="M2728.57,28.24v759.87h79.33v-22.25h14.31v30.47"/>
      <path class="cls-2" d="M2700.96,221.99h0l35.72,5.71h0c5.3.9,9.5,5.71,9.5,10.42v69.66c0,4.41-3.6,7.52-8.7,6.72l-35.72-5.71c-5.3-.9-9.5-5.71-9.5-10.42v-69.66c0-4.41,3.7-7.52,8.7-6.72Z"/>
      <path class="cls-9" d="M2728.07,269.8l12.61,2.81c.4.1.7.4.7.9v1.7c0,.6-.5,1-1.1.8l-12.61-2.91c-.4-.1-.7-.4-.7-.8v-1.6c0-.6.6-1,1.1-.9Z"/>
      <path class="cls-6" d="M2728.07,269.8l1.1-4.91h0l-1.1,4.91ZM2740.78,272.6l1.1-4.91h0l-1.1,4.91ZM2740.28,276.01l1.1-4.91h0l-1.1,4.91ZM2727.67,273.1l1.1-4.91h0l-1.1,4.91ZM2726.97,274.71l12.61,2.81,2.2-9.82-12.61-2.81-2.2,9.82ZM2739.68,277.51c-1.8-.4-3.2-2-3.2-4.01h10c0-2.81-2-5.11-4.6-5.71l-2.2,9.72ZM2736.48,273.51v1.7h10v-1.7h-10ZM2736.48,275.21c0-2.91,2.6-4.61,5-4.01l-2.3,9.72c3.5.8,7.2-1.7,7.2-5.71h-9.9ZM2741.48,271.1l-12.61-2.91-2.3,9.72,12.61,2.91,2.3-9.72ZM2728.77,268.19c1.8.4,3.2,2,3.2,4.01h-10c0,2.81,2,5.11,4.6,5.71l2.2-9.72ZM2731.97,272.2v-1.6h-10v1.6h10ZM2731.97,270.7c0,2.81-2.6,4.51-5,4.01l2.1-9.82c-3.5-.8-7.2,1.8-7.2,5.71h10.1v.1Z"/>
      <path class="cls-4" d="M2419.74,64.22h-291.73c-3.2,0-5.6-2.51-5.6-5.41v-26.76c0-.7.6-1.3,1.4-1.3h300.13c.8,0,1.4.7,1.4,1.3v26.76c0,2.91-2.4,5.41-5.6,5.41h0Z"/>
      <path class="cls-5" d="M2719.27,28.24l-.1,186.53"/>
      <path class="cls-5" d="M2709.67,28.24v186.53"/>
      <path class="cls-5" d="M2767.69,242.53h13.61V28.24"/>
      <path class="cls-4" d="M2002.86,390.98h127.86v290.78h-127.86v-290.78Z"/>
      <path class="cls-4" d="M1105.48,493.82h160.67v316.54h-160.67v-316.54Z"/>
      <path class="cls-2" d="M1117.28,506.15h139.46v294.79h-139.46v-294.79Z"/>
      <path class="cls-4" d="M2135.72,683.36v-294.28l76.33-137.02v525.62l-76.33-94.32Z"/>
      <path class="cls-4" d="M1997.96,683.26l-88.84,95.32.1-527.43,88.74,138.02v294.08h0Z"/>
      <path class="cls-10" d="M1957.24,569.99l-19.41,7.72v-71.67l19.41,7.72v56.23Z"/>
      <path class="cls-4" d="M2001.46,686.77h130.56l77.23,95.52h-296.93l89.14-95.52Z"/>
      <path class="cls-4" d="M2210.25,244.94l-78.53,141.03h-129.96l-90.54-141.03h299.03Z"/>
      <path class="cls-4" d="M1213.42,506.55h-51.92c-3.2,0-5.6-2.51-5.6-5.41v-7.52c0-.7.6-1.3,1.4-1.3h60.33c.8,0,1.4.7,1.4,1.3v7.52c0,2.91-2.4,5.41-5.6,5.41h0Z"/>
      <path class="cls-8" d="M2097.2,404.81h-60.43c-3.2,0-5.6-2.51-5.6-5.41v-7.52c0-.7.6-1.3,1.4-1.3h68.83c.8,0,1.4.7,1.4,1.3v7.52c0,3.01-2.4,5.41-5.6,5.41h0Z"/>
      <path class="cls-1" d="M2184.24,629.33c-.1-3.61-2.7-6.21-6.2-6.21h-35.72c-3.4,0-6,2.61-6.1,5.91v3.01c-6.2-.8-8.9,1.5-8.9,7.42v44.4h-45.42c-.7,0-1.5,0-2.3.1-2.8.3-4.8,2.1-5.5,4.71-.6,2.21.3,4.01,1.6,5.71-2.9,3.71-2.2,7.42,1.6,9.82.5.3,1,1,1.1,1.6,1.9,9.62,8.7,15.54,18.71,16.34,2.3.2,3.4,1,3.4,2.61,0,1.5-1,2.41-3.2,2.61-2.7.3-4.8,1.8-5.3,4.31s-.3,5.11-.4,7.82h57.02c0-2.51.1-4.91,0-7.22-.1-1.9.4-3.51,1.3-5.21,5-9.62,9.9-19.14,14.81-28.87.8-1.5,1.6-2.1,3.4-2.1,4.9.1,7.3-2.31,7.3-7.22v-44.9h2.2c4.2-.1,6.7-2.61,6.8-6.72-.2-2.61-.2-5.21-.2-7.92h0ZM2139.52,682.26v-38.49c2,.1,3.7.3,5.5.4v48.31h-8.1c2.8-3.11,2.6-6.72,2.6-10.22ZM2079.59,687.47c.6-.1,1.2-.1,1.9-.1h46.02c3,0,3.3-.3,3.3-3.31v-46.41c.1-1.4,1-2.31,2.4-2.41,1.5-.1,2.5.8,2.8,2.21.1.5.1,1.1.1,1.6v45.71c0,4.91-2.8,7.72-7.9,7.72h-48.42c-1.4-.2-2.3-1-2.3-2.51-.1-1.4.8-2.21,2.1-2.51ZM2160.63,698.19c-4.4,8.62-8.7,17.34-13.31,25.86-1.7,3.11-2.8,6.21-2.3,9.72.3,1.9-.5,2.31-2.4,2.31-15.11-.1-30.21,0-45.32,0h-2c-.6-3.91,0-4.71,3.5-5.31,2.8-.5,5-2.91,5.2-5.71.2-2.61-1.8-5.41-4.5-6.01-1.4-.3-2.9-.3-4.3-.5-7.5-1.2-12.91-7.02-13.41-14.43-.1-.8-.1-1.7-.2-2.61-.7,0-1.3,0-1.9-.1-1.4-.3-2.4-1.1-2.4-2.61s1-2.31,2.5-2.51h81.74c-.3.7-.6,1.3-.9,1.9ZM2171.73,648.18v40.29c0,3.41-.7,4.11-4.1,4.11h-15.81c-2.2,0-3.2-.9-3.2-2.91v-31.87c0-.2.1-.3.2-.8,1.5,0,3-.1,4.4.1.5.1,1.1.7,1.5,1.2,1.6,2.31,4.4,3.51,7,2.91,2.7-.7,4.6-3.01,4.7-5.71.1-2.71-1.7-5.11-4.3-6.01-2.5-.8-5.5,0-6.9,2.41-.9,1.6-2.1,1.8-3.7,1.7-.9-.1-1.7,0-2.8,0,0-2.51-.1-5.01,0-7.42.1-1.3,1.2-2.1,2.6-2.1h17.61c1.6,0,2.5,1,2.7,2.51.1.5.1,1,.1,1.6ZM2157.53,655.29c0-1.4,1.2-2.61,2.6-2.61s2.7,1.2,2.7,2.61-1.2,2.51-2.6,2.61c-1.5-.1-2.7-1.2-2.7-2.61ZM2180.54,637.25c0,2.31-.9,3.21-3.3,3.21h-34.21c-2.5,0-3.4-.9-3.4-3.31v-7.32c0-2.31,1-3.21,3.3-3.31h34.31c2.2,0,3.2,1,3.2,3.11.2,2.61.2,5.11.1,7.62Z"/>
      <path class="cls-7" d="M2157.63,698.59h-77.63c.1,0,.2.1.3.1h1.6l2.2.1.1,2.21c.1.9.1,1.8.2,2.61.4,6.21,4.9,11.13,11.3,12.13l61.93-17.14ZM2157.63,698.59c-.9,1.9-1.9,3.71-2.8,5.61-3.2,6.21-6.3,12.43-9.6,18.64h0c-1.7,3.11-3.1,6.62-2.7,10.72-11.5-.1-23.01,0-34.51,0h-10.2c.3-.1.7-.2,1.5-.4,3.9-.6,7.1-4.01,7.3-8.02l51.02-26.56ZM2100.2,716.54c3.9,1,6.6,4.71,6.4,8.62l-6.4-8.62ZM2100.2,716.54c-.9-.2-1.8-.3-2.5-.4h-.4c-.6,0-1.1-.1-1.5-.2l4.4.6ZM2079.99,698.79h0ZM2097.7,733.48h0ZM2143.42,733.58h0Z"/>
      <path class="cls-7" d="M2162.23,663.61c3.7-1,6.5-4.11,6.6-8.02h0c.1-3.91-2.4-7.22-6.1-8.42h0c-3.4-1.1-7.7-.1-9.8,3.51-.1.2-.2.3-.3.4,0,0-.1,0-.1.1h0s-.3.1-.9,0h-.5c0-1.6,0-3.01.1-4.51h18.01c0,.1.1.2.1.3v41.5h0c0,.8,0,1.2-.1,1.5-.3.1-.8.1-1.5.1h-15.71c-.4,0-.6,0-.7-.1v-30.57h1.3c0,.1.1.1.1.2,1.9,3.21,5.8,4.91,9.5,4.01ZM2162.23,663.61h0l-.6-2.41.6,2.41h0ZM2151.02,689.97h0ZM2152.33,659.3h0ZM2169.13,646.47h0Z"/>
      <path class="cls-7" d="M2177.34,629.13h-34.31c-.4,0-.7,0-.8.1,0,.1-.1.3-.1.7v7.22l35.22-8.02ZM2177.34,629.13c.3,0,.5,0,.7.1,0,.1.1.3.1.6h0M2177.34,629.13l.7.7M2178.04,629.73v7.42c0,.3,0,.5-.1.7M2178.04,629.73v8.12M2178.04,637.85c-.1,0-.4.1-.7.1l.7-.1ZM2142.32,629.03h0ZM2142.12,629.23h0ZM2178.14,629.23h0ZM2177.94,629.03h0ZM2177.24,637.95h-34.21c-.4,0-.7,0-.9-.1,0-.1-.1-.4-.1-.7l35.22.8Z"/>
      <path class="cls-7" d="M2142.02,656.7v-10.32h.6v43.5h-1.3c.8-2.51.8-5.01.8-7.02v-.7h0c-.1-8.42-.1-16.94-.1-25.46Z"/>
      <path class="cls-8" d="M2128.22,690.07h0c2.1,0,3.3-.6,4.1-1.3.7-.7,1.3-1.9,1.3-3.91h2.5v-46.11c0-.4,0-.8-.1-1.2l-7.8,52.52ZM2128.22,690.07h-48.22s.1,0,.2-.1h47.32c.7,0,1.5,0,2.2-.1s1.6-.4,2.4-1.1c.7-.8,1-1.7,1.1-2.41s.1-1.4.1-2.21v-46.21l-5.1,52.12Z"/>
      <path class="cls-6" d="M1953.04,627.33v-19.95c.3,0,.6-.1.9-.1h7.6c.5,0,1.1.3,1.4.6,1,.8,1.8,1.8,2.7,2.61,1,1,2.2,1,3.1.2.8-.9.8-2-.2-3.01-1.2-1.2-2.4-2.51-3.8-3.61-.5-.4-1.3-.8-2-.8-2.9-.1-5.7,0-8.6,0h-1.2v-3.91h6.2c1.1,0,1.9-.9,1.9-2,0-1-.8-1.9-1.9-1.9h-8.5c-1.1,0-1.8.8-1.9,1.9v29.87c-.4,0-.8.1-1.1.1h-8.6c-1.8,0-2.5.7-2.5,2.41.1,3.61-.1,7.22.3,10.83,1.1,9.22,9.2,17.24,18.71,18.44,2.7.3,5.4.2,8.2.3h1.3c0,2.61.3,5.01-.1,7.42-.4,2.71-3,4.51-6.1,4.51h-12.21c-1.1.1-1.8,1-1.8,2s.8,1.9,1.9,1.9c.9.1,1.8,0,2.7,0h9.5c6.1,0,10.4-4.31,10.5-10.22v-5.71c.5,0,.9-.1,1.3-.1h25.01c11.2,0,20.31-7.22,22.41-18.04.4-2.21.3-4.61.4-6.82v-4.81c0-1.5-.7-2.21-2.3-2.21h-61.53l-1.7.1h0ZM2014.37,631.34v5.91c-.1,10.02-8.1,17.94-18.31,18.04-12.31.1-24.61.1-36.92,0-8,0-14.81-4.91-17.41-12.13-1.3-3.81-1-7.72-1-11.63,0-.1.1-.1.1-.2h73.53Z"/>
      <path class="cls-9" d="M1953.04,627.33l3.5,3.61,1.5-1.5v-2.1h-5ZM1953.04,607.48l-.4-5.01-4.6.4v4.61h5ZM1961.44,607.38l-.1,5.01h0l.1-5.01ZM1962.94,607.98l3.3-3.81h0l-3.3,3.81ZM1965.65,610.59l3.4-3.61h0l-3.4,3.61ZM1968.75,610.79l-3.5-3.51h0l3.5,3.51ZM1968.55,607.78l-3.5,3.61h0l3.5-3.61ZM1964.74,604.17l3.2-3.81h0l-3.2,3.81ZM1962.74,603.37l-.1,5.01h0l.1-5.01ZM1953.04,603.37h-5v5.01h5v-5.01ZM1953.04,599.36l-.2-5.01-4.8.2v4.81h5ZM1954.14,599.36v5.01h0v-5.01ZM1959.24,599.36l-.2-5.01h0l.2,5.01ZM1961.14,597.36l5-.1h0l-5,.1ZM1959.24,595.45l-.1,5.01h0l.1-5.01ZM1950.74,595.45l.1,5.01h0l-.1-5.01ZM1948.84,597.36l-5-.3h0l5,.3ZM1948.84,627.23l.3,5.01,4.7-.3v-4.71h-5ZM1936.53,629.73l-5,.1h0l5-.1ZM1936.83,640.56l-5,.6h0l5-.6ZM1955.54,659l.6-5.01h0l-.6,5.01ZM1963.74,659.3l.2-5.01h0l-.2,5.01ZM1965.04,659.3h5v-5.01h-5v5.01ZM1964.94,666.72l-4.9-.7h0l4.9.7ZM1958.84,671.23v-5.01h0v5.01ZM1947.64,671.23v5.01h0v-5.01ZM1946.54,671.33l.5,5.01h0l-.5-5.01ZM1944.74,673.24h5-5ZM1946.64,675.24l.3-5.01h0l-.3,5.01ZM1958.84,675.24v5.01h0v-5.01ZM1969.35,665.02h-5,5ZM1969.35,659.3l-.2-5.01-4.7.2v4.81h4.9ZM1995.56,659.3v5.01h0v-5.01ZM2017.97,641.26l4.9,1h0l-4.9-1ZM2018.37,634.44l5,.2h0l-5-.2ZM2018.37,629.63l-5,.1h0l5-.1ZM2016.07,627.33l-.1,5.01h0l.1-5.01ZM1953.04,627.33l-3.5-3.61-8.7,8.62h12.21v-5.01ZM2014.37,631.34h5v-5.01h-5v5.01ZM2014.37,637.25h5-5ZM1995.96,655.29v5.01h0v-5.01ZM1959.04,655.29v-5.01h0v5.01ZM1941.63,643.17l-4.7,1.7h0l4.7-1.7ZM1940.73,631.54l5,.1h-5v-.1ZM1940.83,631.34v-5.01h-2.7l-1.5,2.31,4.2,2.71ZM1958.04,627.33v-19.95h-10v19.95h10ZM1953.44,612.39h.5v-10.02c-.6,0-1.2.1-1.3.1l.8,9.92ZM1953.94,612.39h7.5l.2-10.02c-2.6-.1-5.2,0-7.7,0v10.02ZM1961.44,612.39c-.6,0-.9-.1-1.1-.2-.2-.1-.4-.2-.6-.4l6.4-7.62c-1-.9-2.7-1.7-4.6-1.8l-.1,10.02ZM1959.64,611.79c.9.8,1.2,1.2,2.6,2.51l6.8-7.32c-.5-.5-1.9-1.9-2.9-2.81l-6.5,7.62ZM1962.24,614.2c1.2,1.1,2.8,2,4.8,2.1,2.1.1,4-.8,5.3-2.1l-7.1-7.02c.5-.5,1.3-.9,2.3-.9.9,0,1.4.5,1.6.6l-6.9,7.32ZM1972.35,614.3c1.3-1.3,2.2-3.21,2-5.31-.1-2-1.1-3.71-2.3-4.81l-7,7.12c-.1-.1-.6-.7-.7-1.7-.1-1.1.4-2,.8-2.41l7.2,7.12ZM1972.05,604.27c-1.1-1.1-2.5-2.61-4.1-3.91l-6.4,7.62c1.1,1,2.1,2,3.5,3.31l7-7.02ZM1968.05,600.37c-1.3-1.1-3.2-1.9-5.1-2l-.2,10.02c-.4,0-.6-.1-.6-.1-.1,0-.2-.1-.4-.3l6.3-7.62ZM1962.94,598.36c-3-.1-6,0-8.7,0v10.02h8.5l.2-10.02ZM1954.14,598.36h0q-.1,0,0,0h-.1v10.02h0v-10.02h.1ZM1958.04,603.37v-3.91h-10v3.91h10ZM1953.24,604.37h.9v-10.02h-1.3l.4,10.02ZM1954.14,604.37h5.2l-.4-10.02c-1.6.1-3,0-4.9,0l.1,10.02ZM1959.34,604.37c4-.1,6.8-3.41,6.7-7.12l-10,.1c0-.7.2-1.5.8-2.1.6-.6,1.4-1,2.1-1l.4,10.12ZM1966.15,597.26c-.1-3.51-2.8-6.82-6.8-6.82l-.1,10.02c-1.8,0-3-1.6-3-3.01l9.9-.2ZM1959.34,590.44h-8.7l.2,10.02h8.3l.2-10.02ZM1950.64,590.44c-1.8,0-3.5.7-4.8,2.1-1.3,1.3-1.9,3.01-2,4.61l10,.5c0,.5-.2,1.2-.9,1.9-.7.7-1.5,1-2.2,1l-.1-10.12ZM1943.84,597.16v2.41h10v-2l-10-.4ZM1943.84,599.56h0v51.21h10v-51.31h-10v.1ZM1943.84,625.93h0q0,.1,0,0,0,.1,0,0,0,.1,0,0,0,.1,0,0,0,.1,0,0,0,.1,0,0,0,.1,0,0,0,.1,0,0,0,.1,0,0,0,.1,0,0,0,.1,0,0,0,.1,0,0,0,.1,0,0,0,.1,0,0,0,.1,0,0,0,.1,0,0,0,.1,0,0,0,.1,0,0,0,.1,0,0,0,.1,0,0,0,.1,0,0,0,.1,0,0,0,.1,0,0,0,.1,0,0,0,.1,0,0,0,.1,0,0,0,.1,0,0,0,.1,0,0,0,.1,0,0,0,.1,0,0,0,.1,0,0,0,.1,0,0,0,.1,0,0,0,.1,0,0,0,.1,0,0v.1h10-10v-.1ZM1948.54,622.32h-.9v10.02c.6,0,1.2,0,1.4-.1l-.5-9.92ZM1947.64,622.32h0s-.1,0,0,0h-.1v10.02h0v-10.02h.1ZM1939.03,622.32c-1.3,0-3.6.2-5.4,2-1.9,1.8-2.1,4.11-2.1,5.51l10-.1c0-.4.1.8-1,1.8-1,1-2,.8-1.5.8v-10.02ZM1931.53,629.83c0,3.21-.1,7.42.3,11.33l9.9-1.1c-.4-3.21-.2-6.31-.3-10.32l-9.9.1ZM1931.93,641.16c1.4,11.63,11.4,21.35,23.11,22.75l1.2-9.92c-7.3-.9-13.61-7.22-14.41-14.03l-9.9,1.2ZM1954.94,663.91c3,.4,6.4.3,8.6.3l.3-10.02c-3.2-.1-5.3,0-7.7-.3l-1.2,10.02ZM1963.54,664.31h1.4v-10.02h-1.1l-.3,10.02ZM1960.04,659.3c0,3.31.2,4.81,0,6.72l9.9,1.4c.4-2.81.1-6.31.1-8.12h-10ZM1960.04,666.02v-.2l-.1.1c-.2.1-.6.3-1.2.3l.1,10.02c4.6,0,10.2-2.81,11.1-8.92l-9.9-1.3ZM1958.74,666.22h-11.2v10.02h11.2v-10.02ZM1947.64,666.22s-.9,0-1.6.1l1.1,9.92q-.1,0,0,0h.5v-10.02ZM1946.04,666.32c-3.4.4-6.3,3.21-6.3,7.02l10-.1c0,1.8-1.3,2.91-2.6,3.01l-1.1-9.92ZM1939.73,673.24c0,3.71,2.9,6.72,6.5,6.92l.6-10.02c1.5.1,2.8,1.4,2.8,3.01h-9.9v.1ZM1946.24,680.25c1.1.1,2.4,0,3,0v-10.02h-2.4l-.6,10.02ZM1949.34,680.25h9.6v-10.02h-9.5v10.02h-.1ZM1958.84,680.25c8.7,0,15.41-6.41,15.41-15.24l-10-.1c0,3.11-2.1,5.21-5.5,5.21l.1,10.12ZM1974.35,665.02v-5.71h-10v5.61l10,.1ZM1969.55,664.31c.8,0,.8-.1,1-.1v-10.02c-.5,0-1.4.1-1.5.1l.5,10.02ZM1970.55,664.31s.1,0,0,0q.1,0,0,0h1.4v-10.02h-1.3v10.02h-.1ZM1995.56,664.31c13.51,0,24.71-8.82,27.31-22.05l-9.8-1.9c-1.6,8.32-8.5,13.93-17.51,13.93v10.02ZM2022.87,642.26c.5-2.71.4-5.91.5-7.62l-10-.3c-.1,2.91,0,4.31-.3,6.01l9.8,1.9ZM2023.37,634.65c.1-1.8,0-3.51,0-5.11l-10,.1v4.61l10,.4ZM2023.37,629.53c0-1.5-.4-3.61-2.1-5.21-1.6-1.6-3.7-1.9-5.1-2l-.2,10.02c.1,0-.7,0-1.6-.8-.4-.4-.7-.9-.8-1.3-.1-.4-.1-.6-.1-.6l9.9-.1ZM2016.17,622.32h-1.1v10.02h.8l.3-10.02ZM2015.17,622.32h-51.21v10.02h51.21v-10.02ZM1954.54,622.32h-1.5v10.02h1.5v-10.02ZM1956.54,630.94h0l-7-7.22h0l7,7.22ZM2009.36,631.34v5.81l10,.1v-5.91h-10ZM2009.36,637.25c-.1,7.22-5.8,13.03-13.41,13.03l.1,10.02c12.91-.1,23.21-10.12,23.31-22.95l-10-.1ZM1995.96,650.28c-12.31.1-24.61.1-36.82,0v10.02c12.31.1,24.61.1,37.02,0l-.2-10.02ZM1959.14,650.28c-5.9,0-10.9-3.61-12.71-8.82l-9.4,3.41c3.3,9.22,12.11,15.44,22.11,15.44v-10.02ZM1946.34,641.46c-1-2.71-.7-5.41-.7-9.92l-10-.1c0,3.31-.5,8.52,1.2,13.33l9.5-3.31ZM1945.74,631.54c0,1.2-.4,2.1-.7,2.51-.2.4-.5.7-.5.7,0,0-.1.1,0,.1h0l.1-.1c.1-.1.3-.3.5-.7l-8.4-5.41c.2-.3.4-.5.4-.6,0,0,0-.1,0,0l-.1.1c-.1.1-.3.4-.6.8-.2.4-.7,1.3-.7,2.61h10ZM1940.83,636.35h73.53v-10.02h-73.53v10.02ZM2014.37,636.35h0v-10.02h0v10.02Z"/>
      <path class="cls-9" d="M2014.37,631.34h-73.53c0,.1-.1.1-.1.2,0,3.91-.4,7.82,1,11.63,2.6,7.22,9.4,12.13,17.41,12.13,12.31.1,24.61.1,36.92,0,10.3-.1,18.31-8.02,18.41-18.04-.1-1.9-.1-3.91-.1-5.91h0Z"/>
      <path class="cls-4" d="M1389.1,217.17h47.72c6.8,0,12.31,5.41,12.31,11.93v70.97c0,6.52-5.4,11.93-12.31,11.93h-47.72c-6.8,0-12.31-5.41-12.31-11.93v-70.97c.1-6.52,5.5-11.93,12.31-11.93Z"/>
      <path class="cls-4" d="M1407.31,196.03h-16.21c-.1,0-.2,0-.3-.1q-.1-.1-.1-.2v-2.91q0-.1.1-.2t.3-.1h16.21c.1,0,.2,0,.3.1q.1.1.1.2v2.91q0,.1-.1.2c-.1,0-.2.1-.3.1Z"/>
      <path class="cls-4" d="M1407.31,182.89h-16.21c-.1,0-.2,0-.3-.1q-.1-.1-.1-.2v-2.91q0-.1.1-.2t.3-.1h16.21c.1,0,.2,0,.3.1q.1.1.1.2v2.91q0,.1-.1.2c-.1.1-.2.1-.3.1Z"/>
      <path class="cls-4" d="M1457.03,246.84h-6.1c-.1,0-.2,0-.3-.1q-.1-.1-.1-.2v-7.52q0-.1.1-.2t.3-.1h6.1c.1,0,.2,0,.3.1q.1.1.1.2v7.52q0,.1-.1.2c-.1.1-.2.1-.3.1Z"/>
      <path class="cls-2" d="M1385,221.99h0l35.72,5.71h0c5.3.9,9.5,5.71,9.5,10.42v69.66c0,4.41-3.6,7.52-8.7,6.72l-35.72-5.71c-5.3-.9-9.5-5.71-9.5-10.42v-69.66c0-4.41,3.7-7.52,8.7-6.72Z"/>
      <path class="cls-6" d="M1412.11,269.8l12.61,2.81c.4.1.7.4.7.9v1.7c0,.6-.5,1-1.1.8l-12.61-2.91c-.4-.1-.7-.4-.7-.8v-1.6c0-.6.5-1,1.1-.9Z"/>
      <path class="cls-6" d="M1412.11,269.8l1.1-4.91h0l-1.1,4.91ZM1424.71,272.6l1.1-4.91h0l-1.1,4.91ZM1424.31,276.01l1.1-4.91h0l-1.1,4.91ZM1411.71,273.1l1.1-4.91h0l-1.1,4.91ZM1411.01,274.71l12.61,2.81,2.2-9.82-12.61-2.81-2.2,9.82ZM1423.71,277.51c-1.8-.4-3.2-2-3.2-4.01h10c0-2.81-2-5.11-4.6-5.71l-2.2,9.72ZM1420.51,273.51v1.7h10v-1.7h-10ZM1420.51,275.21c0-2.91,2.7-4.61,5-4.01l-2.3,9.72c3.5.8,7.2-1.7,7.2-5.71h-9.9ZM1425.51,271.1l-12.61-2.91-2.3,9.72,12.61,2.91,2.3-9.72ZM1412.81,268.19c1.8.4,3.2,2,3.2,4.01h-10c0,2.81,2,5.11,4.6,5.71l2.2-9.72ZM1416.01,272.2v-1.6h-10v1.6h10ZM1416.01,270.7c0,2.81-2.6,4.51-5,4.01l2.1-9.82c-3.5-.8-7.2,1.8-7.2,5.71h10.1v.1Z"/>
      <path class="cls-5" d="M1403.3,28.24l-.1,186.53"/>
      <path class="cls-5" d="M1393.7,28.24v186.53"/>
      <path class="cls-5" d="M1451.72,242.53h13.61V28.24"/>
      <path class="cls-5" d="M1436.82,314.5v386.9h79.13v25.46"/>
      <path class="cls-4" d="M1510.15,720.44h10.7c.7,0,1.2.6,1.2,1.1v7.42c0,.5-.5,1.1-1.2,1.1h-10.7c-.7,0-1.2-.6-1.2-1.1v-7.42c0-.6.5-1.1,1.2-1.1Z"/>
      <path class="cls-4" d="M1872.91,857.96v-45.81h370.86v45.81h-370.86Z"/>
      <path class="cls-4" d="M2213.45,787.5l25.41,19.65h-360.25l29.21-19.65h305.63Z"/>
      <path class="cls-4" d="M1084.97,857.96v-25.76h201.89v25.76h-201.89Z"/>
      <path class="cls-4" d="M1270.75,815.77l12.21,11.43h-193.48l14.01-11.43h167.27Z"/>
      <path class="cls-4" d="M903.79,64.22h-291.63c-3.2,0-5.6-2.51-5.6-5.41v-26.76c0-.7.6-1.3,1.4-1.3h300.13c.8,0,1.4.7,1.4,1.3v26.76c-.1,2.91-2.5,5.41-5.7,5.41h0Z"/>
      <path class="cls-10" d="M347.05,695.99c-7,2.1-10.9,4.01-12.61,7.72-3.2,6.62,3.9,11.53,3.9,24.66,0,8.42-2.9,8.32-3.2,18.54-.2,9.02,2,11.23,2.4,20.05.5,13.53-5.4,16.94-3.2,20.85,5.2,9.22,37.22-7.32,77.33-6.21,32.61.9,37.32,12.53,69.43,16.14,44.22,5.01,59.43-26.46,87.64-15.44,18.21,7.12,24.91,23.25,39.52,20.85,10-1.7,17.41-10.42,20.51-17.74,9.4-21.55-8.7-51.12-29.21-64.75-8.7-5.81-9.4-3.11-27.61-13.13-20.51-11.33-22.61-16.44-33.91-19.24-12.41-3.11-17.11,1.2-37.92,3.81-5.5.7-7.6.7-52.92-.8-20.21-.7-40.52.4-60.83-.8.1.1-18.31-1-39.32,5.51Z"/>
      <path class="cls-9" d="M253.01,722.95c1.1,2.91,8.1,1.2,28.41,1.5,20.31.4,27.21,2.31,30.81-2.31,3.4-4.41-.3-9.42,4.7-16.94,3.2-4.81,6.9-5.91,6.3-7.72-.6-2-5.7-1.6-20.51-2.31-11.71-.5-13.01-1-16.61,0-4.1,1.2-6.7,3.01-14.21,9.22-13.11,11.03-19.61,16.54-18.91,18.54Z"/>
    </g>
  </g>
  <rect class="cls-3" x="2.5" y=".5" width="3039" height="857"/>
</svg>