<?xml version="1.0" encoding="UTF-8"?>
<svg id="Livello_2" data-name="Livello 2" xmlns="http://www.w3.org/2000/svg" width="3040" height="858" xmlns:xlink="http://www.w3.org/1999/xlink" viewBox="0 0 3040 858">
  <defs>
    <style>
      .cls-1 {
        stroke-width: 30px;
      }

      .cls-1, .cls-2, .cls-3, .cls-4, .cls-5, .cls-6, .cls-7, .cls-8 {
        stroke-miterlimit: 10;
      }

      .cls-1, .cls-2, .cls-3, .cls-4, .cls-5, .cls-6, .cls-7, .cls-8, .cls-9 {
        stroke: #967048;
      }

      .cls-1, .cls-10 {
        fill: #c1976b;
      }

      .cls-2 {
        stroke-width: 6.98px;
      }

      .cls-2, .cls-3, .cls-4, .cls-11, .cls-6, .cls-7, .cls-8, .cls-9 {
        fill: none;
      }

      .cls-3 {
        stroke-width: 6.75px;
      }

      .cls-4 {
        stroke-width: 7.34px;
      }

      .cls-11, .cls-12, .cls-10, .cls-13 {
        stroke-width: 0px;
      }

      .cls-5, .cls-12, .cls-13 {
        fill: #967048;
      }

      .cls-5, .cls-8, .cls-9 {
        stroke-width: 7px;
      }

      .cls-6 {
        stroke-width: 6.93px;
      }

      .cls-14 {
        clip-path: url(#clippath);
      }

      .cls-13 {
        isolation: isolate;
        opacity: .32;
      }

      .cls-7 {
        stroke-width: 7.46px;
      }

      .cls-9 {
        stroke-linecap: round;
        stroke-linejoin: round;
      }
    </style>
    <clipPath id="clippath">
      <rect class="cls-11" width="3040" height="858"/>
    </clipPath>
  </defs>
  <g class="cls-14">
    <rect class="cls-10" x="0" y="0" width="3040" height="858"/>
    <path class="cls-8" d="M1711.97,636.04h-195.58v186.46h195.58v-186.46Z"/>
    <path class="cls-10" d="M2131.14,635.3h-418.19v187.2h418.19v-187.2Z"/>
    <path class="cls-8" d="M1516.39,636.04h-27.38v186.46h27.38v-186.46Z"/>
    <path class="cls-7" d="M1483.14,614.02v20.55h741.64v-20.55h-741.64Z"/>
    <path class="cls-6" d="M2220.28,820.94h5v-183.41h-5v183.41Z"/>
    <path class="cls-5" d="M1922.6,665.94c-1.01-16.77,11.19-24.73,23.89-46.82,16.72-29.08,13.29-37.9,27.07-45.4,14.01-7.63,35.41-7.58,47.77,1.42,11.03,8.04,6.16,16.87,17.52,45.4,10.33,25.95,14.45,26.04,16.72,36.18,8.76,39.02-56.53,37.6-62.1,38.31-6.86.87-43,0-62.1-14.18-5.87-4.36-8.52-10.91-8.76-14.9h-.01Z"/>
    <path class="cls-12" d="M1959.43,692.9l-43.2,129.11h9.56l40.65-128.52-7.01-.59Z"/>
    <path class="cls-12" d="M1959.32,692.18l-.46-.04-43.69,130.57h11.21l8.08-25.53,2.24-7.1,8.98-28.38,1.8-5.67,13.69-43.28.44-1.42,1.13-3.55.44-1.42,4.02-12.7.02-.07.24-.75-8.14-.69ZM1917.29,821.31l42.71-127.65,5.42.46-40.23,127.19h-7.9Z"/>
    <path class="cls-12" d="M2017.2,692.9l43.2,129.82h-9.56l-40.65-129.23,7.01-.59Z"/>
    <path class="cls-12" d="M2018.01,692.86l-.05-.15-.19-.56-8.61.72.35,1.11,3.9,12.4.45,1.42,1.11,3.55.45,1.42,13.62,43.28,1.78,5.67,11.17,35.48,8.09,25.72.16.52h11.22l-43.45-130.57ZM2016.62,693.66l42.71,128.36h-7.89l-40.24-127.91,5.42-.46Z"/>
    <path class="cls-12" d="M2014.96,706.39h-52.55v1.42h52.55v-1.42Z"/>
    <path class="cls-8" d="M2030.09,756.04h-1.05"/>
    <path class="cls-8" d="M1947.48,756.04h-.99"/>
    <path class="cls-12" d="M2014.97,711.35h-53.36l1.13-3.55h51.12l1.11,3.55Z"/>
    <path class="cls-12" d="M2015.76,711.35h-54.94v1.42h54.94v-1.42Z"/>
    <path class="cls-5" d="M2030.82,761.72h-85.14l1.8-5.68h81.56l1.78,5.68Z"/>
    <path class="cls-5" d="M2042.14,796.46h-107l2.26-5.68h102.51l2.23,5.68Z"/>
    <path class="cls-8" d="M2031.68,761.71h-.86"/>
    <path class="cls-8" d="M1945.68,761.71h-.79"/>
    <path class="cls-5" d="M1752.6,665.94c-1.01-16.77,11.19-24.73,23.89-46.82,16.72-29.08,13.29-37.9,27.07-45.4,14.01-7.63,35.41-7.58,47.77,1.42,11.03,8.04,6.16,16.87,17.52,45.4,10.33,25.95,14.45,26.04,16.72,36.18,8.76,39.02-56.53,37.6-62.1,38.31-6.86.87-43,0-62.1-14.18-5.87-4.36-8.52-10.91-8.76-14.9h-.01Z"/>
    <path class="cls-12" d="M1789.43,692.9l-43.2,129.11h9.56l40.65-128.52-7.01-.59Z"/>
    <path class="cls-12" d="M1789.32,692.18l-.46-.04-43.69,130.57h11.21l8.08-25.53,2.24-7.1,8.98-28.38,1.8-5.67,13.69-43.28.44-1.42,1.13-3.55.44-1.42,4.02-12.7.02-.07.24-.75-8.14-.69ZM1747.29,821.31l42.71-127.65,5.42.46-40.23,127.19h-7.9Z"/>
    <path class="cls-12" d="M1847.2,692.9l43.2,129.82h-9.56l-40.65-129.23,7.01-.59Z"/>
    <path class="cls-12" d="M1848.01,692.86l-.05-.15-.19-.56-8.61.72.35,1.11,3.9,12.4.45,1.42,1.11,3.55.45,1.42,13.62,43.28,1.78,5.67,11.17,35.48,8.09,25.72.16.52h11.22l-43.45-130.57ZM1846.62,693.66l42.71,128.36h-7.89l-40.24-127.91,5.42-.46Z"/>
    <path class="cls-12" d="M1844.96,706.39h-52.55v1.42h52.55v-1.42Z"/>
    <path class="cls-8" d="M1860.09,756.04h-1.05"/>
    <path class="cls-8" d="M1777.48,756.04h-.99"/>
    <path class="cls-12" d="M1844.97,711.35h-53.36l1.13-3.55h51.12l1.11,3.55Z"/>
    <path class="cls-12" d="M1845.76,711.35h-54.94v1.42h54.94v-1.42Z"/>
    <path class="cls-5" d="M1860.82,761.72h-85.14l1.8-5.68h81.56l1.78,5.68Z"/>
    <path class="cls-5" d="M1872.14,796.46h-107l2.26-5.68h102.51l2.23,5.68Z"/>
    <path class="cls-8" d="M1861.68,761.71h-.86"/>
    <path class="cls-8" d="M1775.68,761.71h-.79"/>
    <path class="cls-5" d="M1582.6,665.05c-1.01-16.77,11.19-24.73,23.89-46.82,16.72-29.08,13.29-37.9,27.07-45.4,14.01-7.63,35.41-7.58,47.77,1.42,11.03,8.04,6.16,16.87,17.52,45.4,10.33,25.94,14.45,26.04,16.72,36.18,8.76,39.02-56.53,37.6-62.1,38.31-6.86.87-43,0-62.1-14.18-5.87-4.36-8.52-10.9-8.76-14.9h-.01Z"/>
    <path class="cls-12" d="M1619.43,692.01l-43.2,129.11h9.56l40.65-128.52-7.01-.59Z"/>
    <path class="cls-12" d="M1619.32,691.29l-.46-.04-43.69,130.57h11.21l8.08-25.53,2.24-7.1,8.98-28.38,1.8-5.68,13.69-43.27.44-1.42,1.13-3.55.44-1.42,4.02-12.7.02-.07.24-.75-8.14-.69ZM1577.29,820.42l42.71-127.65,5.42.45-40.23,127.19h-7.9Z"/>
    <path class="cls-12" d="M1677.2,692.01l43.2,129.82h-9.56l-40.65-129.23,7.01-.59Z"/>
    <path class="cls-12" d="M1678.01,691.97l-.05-.15-.19-.56-8.61.72.35,1.11,3.9,12.4.45,1.42,1.11,3.55.45,1.42,13.62,43.27,1.78,5.68,11.17,35.48,8.09,25.72.16.52h11.22l-43.45-130.57ZM1676.62,692.77l42.71,128.36h-7.89l-40.24-127.91,5.42-.45Z"/>
    <path class="cls-12" d="M1674.96,705.49h-52.55v1.42h52.55v-1.42Z"/>
    <path class="cls-8" d="M1690.09,755.15h-1.05"/>
    <path class="cls-12" d="M1436.92,691.04l-33.98,133,10.16-.74,31.32-132.21-7.5-.05Z"/>
    <path class="cls-8" d="M1607.48,755.15h-.99"/>
    <path class="cls-12" d="M1674.97,710.46h-53.36l1.13-3.55h51.12l1.11,3.55Z"/>
    <path class="cls-12" d="M1675.76,710.46h-54.94v1.42h54.94v-1.42Z"/>
    <path class="cls-5" d="M1690.82,760.82h-85.14l1.8-5.68h81.56l1.78,5.68Z"/>
    <path class="cls-5" d="M1702.14,795.57h-107l2.26-5.67h102.51l2.23,5.67Z"/>
    <path class="cls-8" d="M1691.68,760.82h-.86"/>
    <path class="cls-8" d="M1605.68,760.82h-.79"/>
    <path class="cls-8" d="M1712.31,10.64h-9.55v298.66h9.55V10.64Z"/>
    <path class="cls-9" d="M1651.01,397.26c4.89-26.85,16.03-39.15,25.48-45.4,5.19-3.43,11.32-6,15.92-12.77,6.71-9.87,5.34-21.57,3.18-29.79h25.48c-2.19,5.28-4.31,13.11-1.59,21.29,3.1,9.31,10.84,14.19,15.92,18.44,8.65,7.23,20.2,23.07,23.89,48.24-35.56.94-72.72-.95-108.29,0h.01Z"/>
    <path class="cls-8" d="M1654.2,384.5h101.91"/>
    <path class="cls-8" d="M1697.99,322.78h20.7"/>
    <path class="cls-8" d="M1730.63,1.42h-47.77v8.51h47.77V1.42Z"/>
    <path class="cls-8" d="M1932.07,9.75h-9.55v298.66h9.55V9.75Z"/>
    <path class="cls-9" d="M1870.77,396.37c4.89-26.85,16.03-39.15,25.48-45.4,5.19-3.43,11.32-6.01,15.92-12.77,6.71-9.87,5.34-21.57,3.18-29.79h25.48c-2.19,5.28-4.31,13.11-1.59,21.29,3.1,9.31,10.84,14.19,15.92,18.44,8.65,7.24,20.2,23.07,23.89,48.24-35.56.95-72.72-.94-108.29,0h.01Z"/>
    <path class="cls-8" d="M1873.95,383.61h101.92"/>
    <path class="cls-8" d="M1917.74,321.89h20.7"/>
    <path class="cls-8" d="M1950.38.53h-47.77v8.51h47.77V.53Z"/>
    <path class="cls-8" d="M2148.64,10.11h-9.55v298.66h9.55V10.11Z"/>
    <path class="cls-9" d="M2087.34,396.74c4.89-26.85,16.03-39.15,25.48-45.4,5.19-3.43,11.32-6.01,15.92-12.77,6.71-9.87,5.34-21.57,3.18-29.79h25.48c-2.19,5.28-4.31,13.11-1.59,21.29,3.1,9.31,10.84,14.19,15.92,18.44,8.65,7.23,20.2,23.07,23.89,48.24-35.56.95-72.72-.94-108.29,0h.01Z"/>
    <path class="cls-8" d="M2090.52,383.97h101.92"/>
    <path class="cls-8" d="M2134.31,322.25h20.7"/>
    <path class="cls-8" d="M2166.95.89h-47.77v8.51h47.77V.89Z"/>
    <path class="cls-12" d="M1480.7,682.44l44.64,139.75h-9.55l-40.66-138.41,5.57-1.34Z"/>
    <path class="cls-12" d="M1481.49,682.25l-.22-.7-7.14,1.71,21.01,71.54.42,1.42,1.25,4.26.42,1.42,7.87,26.8.5,1.73,1.58,5.36.51,1.74,7.46,25.4h11.27l-44.93-140.68ZM1480.13,683.34l44.12,138.13h-7.83l-40.29-137.17,4-.96Z"/>
    <path class="cls-12" d="M1496.63,754.81h-71.66v1.42h71.66v-1.42Z"/>
    <path class="cls-12" d="M1511,797.73h-93l.92-12.79h90.4l1.68,12.79Z"/>
    <path class="cls-8" d="M1433,708.32h50.96"/>
    <path class="cls-12" d="M1497,762.67h-72l.69-10.69h70.05l1.26,10.69Z"/>
    <path class="cls-12" d="M1498.22,759.2h-73.25v3.46h73.25v-3.46Z"/>
    <path class="cls-5" d="M1410.64,680.32c-5.79-10.81-6.67-20.13-7.96-35.47-2.03-24.13-1.59-25.54-3.18-36.89-1.72-12.28-11.15-21.29-9.55-22.7,1.75-1.56,3.91-.78,6.37,1.42,9.55,8.51,13.85,19.78,23.89,45.4,8.57,21.86,12.85,32.8,20.7,36.89,15.23,7.93,27.07-2.83,55.73,2.83,3.22.64,25.03,6.62,25.48,15.61.11,2.24-1.1,3.63-3.18,4.26-3.6,1.1-12.56-5.21-19.11-8.51-7.91-3.98-16.39-4.53-36.63,7.09-22.07,12.69-26.92,8.59-31.85,7.09-10.11-3.06-16.7-9.56-20.7-17.03h-.01Z"/>
    <path class="cls-3" d="M989.14,771.27H366.64v49.33h622.5v-49.33Z"/>
    <path class="cls-8" d="M988.31,232.63H366.64v538.79h621.67V232.63Z"/>
    <path class="cls-8" d="M960.06,262.84H394.9v70.49h565.16v-70.49Z"/>
    <path class="cls-8" d="M960.06,363.55H394.9v70.49h565.16v-70.49Z"/>
    <path class="cls-8" d="M960.06,469.29H394.9v70.49h565.16v-70.49Z"/>
    <path class="cls-8" d="M960.06,569.99H394.9v70.49h565.16v-70.49Z"/>
    <path class="cls-8" d="M960.06,670.7H394.9v70.49h565.16v-70.49Z"/>
    <path class="cls-8" d="M468.37,640.5c-1.82-.66-12.23-4.58-16.95-15.1-4.37-9.74-.82-18.3,0-20.15h118.68c1,2.82,3.37,10.76,0,20.15-2.95,8.21-8.71,13.14-11.3,15.1h-90.43Z"/>
    <path class="cls-8" d="M792.23,539.78c-1.51-.89-10.15-6.22-14.07-20.5-3.63-13.21-.68-24.84,0-27.33h98.5c.83,3.82,2.79,14.6,0,27.33-2.45,11.15-7.23,17.83-9.38,20.5h-75.05Z"/>
    <path class="cls-8" d="M500.48,333.34c-1.18-.7-7.89-4.91-10.94-16.19-2.82-10.43-.53-19.61,0-21.58h76.61c.65,3.02,2.17,11.53,0,21.58-1.9,8.8-5.63,14.08-7.3,16.19h-58.37Z"/>
    <path class="cls-2" d="M677.48,433.81c3.26-3.56,8.56-10.33,11.3-20.04,3.15-11.17,1.28-20.47,0-25.05h67.82c-1.96,8.8-.96,15.88,0,20.04,1.26,5.44,3.31,14.31,11.3,20.04,5.81,4.17,11.36,4.24,11.3,5.01h-101.73.01Z"/>
    <path class="cls-8" d="M801.82,277.95h-33.91v52.87h33.91v-52.87Z"/>
    <path class="cls-8" d="M852.68,277.95h-33.91v52.87h33.91v-52.87Z"/>
    <path class="cls-8" d="M903.54,277.95h-33.91v52.87h33.91v-52.87Z"/>
    <path class="cls-8" d="M592.71,685.81h-33.91v52.87h33.91v-52.87Z"/>
    <path class="cls-8" d="M643.57,685.81h-33.91v52.87h33.91v-52.87Z"/>
    <path class="cls-8" d="M694.43,685.81h-33.91v52.87h33.91v-52.87Z"/>
    <path class="cls-4" d="M683.13,585.11h-62.17v55.38h62.17v-55.38Z"/>
    <path class="cls-8" d="M807.47,640.5l-5.66-25.18h124.34l-5.65,25.18h-113.03Z"/>
    <path class="cls-8" d="M541.84,533.2v-5.61c0-5.19,1.72-10.25,4.95-14.56,3.81-5.09,3.6-11.77-.52-16.66l-10.08-11.97h56.52l-9.95,11.81c-4.2,4.99-4.41,11.8-.53,16.98,3.15,4.21,4.82,9.14,4.82,14.2v5.18c0,3.98-3.62,7.21-8.09,7.21h-29.73c-4.08,0-7.39-2.95-7.39-6.58Z"/>
    <path class="cls-8" d="M609.66,533.2v-5.61c0-5.19,1.72-10.25,4.95-14.56,3.81-5.09,3.6-11.77-.52-16.66l-10.08-11.97h56.52l-9.95,11.81c-4.2,4.99-4.41,11.8-.53,16.98,3.15,4.21,4.82,9.14,4.82,14.2v5.18c0,3.98-3.62,7.21-8.09,7.21h-29.73c-4.08,0-7.39-2.95-7.39-6.58Z"/>
    <path class="cls-8" d="M476.85,434.04c20.29,0,36.74-13.53,36.74-30.21s-16.45-30.21-36.74-30.21-36.74,13.53-36.74,30.21,16.45,30.21,36.74,30.21Z"/>
    <path class="cls-8" d="M561.62,434.04c20.29,0,36.74-13.53,36.74-30.21s-16.45-30.21-36.74-30.21-36.74,13.53-36.74,30.21,16.45,30.21,36.74,30.21Z"/>
    <path class="cls-8" d="M895.07,741.2c20.29,0,36.74-13.53,36.74-30.21s-16.45-30.21-36.74-30.21-36.74,13.53-36.74,30.21,16.45,30.21,36.74,30.21Z"/>
    <path class="cls-13" d="M2951.25,229.12h-202.11v181.76h202.11v-181.76Z"/>
    <path class="cls-5" d="M2951.25,208.23h-183.22v187.25h183.22v-187.25Z"/>
    <path class="cls-10" d="M2928.64,229.57h-137v147.9h137v-147.9Z"/>
    <path class="cls-13" d="M2707.25,324.45h-202.11v155.03h202.11v-155.03Z"/>
    <path class="cls-5" d="M2707.25,303.56h-183.22v158.09h183.22v-158.09Z"/>
    <path class="cls-10" d="M2684.64,324.9h-137v115.38h137v-115.38Z"/>
    <path class="cls-13" d="M2718.25,10.15h-231.11v228.77h231.11V10.15Z"/>
    <path class="cls-1" d="M2707,0h-191v216.51h191V0Z"/>
    <g>
      <path class="cls-8" d="M3039.64,822.9H.64v34.79h3039v-34.79Z"/>
      <rect class="cls-10" x="3035.91" y="826.48" width="4.09" height="27.69"/>
      <rect class="cls-10" y="826.39" width="4.19" height="27.78"/>
    </g>
  </g>
</svg>