<svg width="3040" height="858" viewBox="0 0 3040 858" fill="none" xmlns="http://www.w3.org/2000/svg">
<g clip-path="url(#clip0_499_16164)">
<rect width="3040" height="858" fill="#C1976B"/>
<path d="M1711.97 636.043H1516.39V822.504H1711.97V636.043Z" stroke="#967048" stroke-width="7" stroke-miterlimit="10"/>
<path d="M2131.14 635.303H1712.95V822.504H2131.14V635.303Z" fill="#C1976B"/>
<path d="M1516.39 636.043H1489.01V822.504H1516.39V636.043Z" stroke="#967048" stroke-width="7" stroke-miterlimit="10"/>
<path d="M1483.14 614.018V634.572H2135.41V614.018H1483.14Z" stroke="#967048" stroke-width="7" stroke-miterlimit="10"/>
<path d="M2130.15 821.613H2135.15V634.51H2130.15V821.613Z" stroke="#967048" stroke-width="7" stroke-miterlimit="10"/>
<path d="M1922.6 665.944C1921.59 649.176 1933.79 641.211 1946.49 619.124C1963.21 590.042 1959.78 581.222 1973.56 573.72C1987.57 566.093 2008.97 566.138 2021.33 575.137C2032.36 583.173 2027.49 592.003 2038.85 620.54C2049.18 646.485 2053.3 646.583 2055.57 656.722C2064.33 695.738 1999.04 694.321 1993.47 695.034C1986.61 695.907 1950.47 695.034 1931.37 680.85C1925.5 676.493 1922.85 669.944 1922.61 665.953L1922.6 665.944Z" fill="#967048" stroke="#967048" stroke-width="7" stroke-miterlimit="10"/>
<path d="M1959.43 692.904L1916.23 822.014H1925.79L1966.44 693.492L1959.43 692.904Z" fill="#967048"/>
<path d="M1959.32 692.182L1958.86 692.146L1915.17 822.718H1926.38L1934.46 797.191L1936.7 790.09L1945.68 761.713L1947.48 756.038L1961.17 712.763L1961.61 711.347L1962.74 707.801L1963.18 706.384L1967.2 693.688L1967.22 693.617L1967.46 692.868L1959.32 692.182ZM1917.29 821.31L1960 693.661L1965.42 694.116L1925.19 821.31H1917.29Z" fill="#967048"/>
<path d="M2017.2 692.904L2060.4 822.727H2050.84L2010.19 693.492L2017.2 692.904Z" fill="#967048"/>
<path d="M2018.01 692.859L2017.96 692.708L2017.77 692.146L2009.16 692.868L2009.51 693.982L2013.41 706.384L2013.86 707.801L2014.97 711.347L2015.42 712.763L2029.04 756.038L2030.82 761.713L2041.99 797.191L2050.08 822.914L2050.24 823.43H2061.46L2018.01 692.859ZM2016.62 693.661L2059.33 822.023H2051.44L2011.2 694.116L2016.62 693.661Z" fill="#967048"/>
<path d="M2014.96 706.385H1962.41V707.801H2014.96V706.385Z" fill="#967048"/>
<path d="M2030.09 756.039H2029.86H2029.04" stroke="#967048" stroke-width="7" stroke-miterlimit="10"/>
<path d="M1947.48 756.039H1946.65H1946.49" stroke="#967048" stroke-width="7" stroke-miterlimit="10"/>
<path d="M2014.97 711.347H1961.61L1962.74 707.801H2013.86L2014.97 711.347Z" fill="#967048"/>
<path d="M2015.76 711.348H1960.82V712.764H2015.76V711.348Z" fill="#967048"/>
<path d="M2030.82 761.715H1945.68L1947.48 756.039H2029.04L2030.82 761.715Z" fill="#967048" stroke="#967048" stroke-width="7" stroke-miterlimit="10"/>
<path d="M2042.14 796.461H1935.14L1937.4 790.785H2039.91L2042.14 796.461Z" fill="#967048" stroke="#967048" stroke-width="7" stroke-miterlimit="10"/>
<path d="M2031.68 761.713H2031.64H2030.82" stroke="#967048" stroke-width="7" stroke-miterlimit="10"/>
<path d="M1945.68 761.713H1944.89" stroke="#967048" stroke-width="7" stroke-miterlimit="10"/>
<path d="M1752.6 665.944C1751.59 649.176 1763.79 641.211 1776.49 619.124C1793.21 590.042 1789.78 581.222 1803.56 573.72C1817.57 566.093 1838.97 566.138 1851.33 575.137C1862.36 583.173 1857.49 592.003 1868.85 620.54C1879.18 646.485 1883.3 646.583 1885.57 656.722C1894.33 695.738 1829.04 694.321 1823.47 695.034C1816.61 695.907 1780.47 695.034 1761.37 680.85C1755.5 676.493 1752.85 669.944 1752.61 665.953L1752.6 665.944Z" fill="#967048" stroke="#967048" stroke-width="7" stroke-miterlimit="10"/>
<path d="M1789.43 692.904L1746.23 822.014H1755.79L1796.44 693.492L1789.43 692.904Z" fill="#967048"/>
<path d="M1789.32 692.182L1788.86 692.146L1745.17 822.718H1756.38L1764.46 797.191L1766.7 790.09L1775.68 761.713L1777.48 756.038L1791.17 712.763L1791.61 711.347L1792.74 707.801L1793.18 706.384L1797.2 693.688L1797.22 693.617L1797.46 692.868L1789.32 692.182ZM1747.29 821.31L1790 693.661L1795.42 694.116L1755.19 821.31H1747.29Z" fill="#967048"/>
<path d="M1847.2 692.904L1890.4 822.727H1880.84L1840.19 693.492L1847.2 692.904Z" fill="#967048"/>
<path d="M1848.01 692.859L1847.96 692.708L1847.77 692.146L1839.16 692.868L1839.51 693.982L1843.41 706.384L1843.86 707.801L1844.97 711.347L1845.42 712.763L1859.04 756.038L1860.82 761.713L1871.99 797.191L1880.08 822.914L1880.24 823.43H1891.46L1848.01 692.859ZM1846.62 693.661L1889.33 822.023H1881.44L1841.2 694.116L1846.62 693.661Z" fill="#967048"/>
<path d="M1844.96 706.385H1792.41V707.801H1844.96V706.385Z" fill="#967048"/>
<path d="M1860.09 756.039H1859.86H1859.04" stroke="#967048" stroke-width="7" stroke-miterlimit="10"/>
<path d="M1777.48 756.039H1776.65H1776.49" stroke="#967048" stroke-width="7" stroke-miterlimit="10"/>
<path d="M1844.97 711.347H1791.61L1792.74 707.801H1843.86L1844.97 711.347Z" fill="#967048"/>
<path d="M1845.76 711.348H1790.82V712.764H1845.76V711.348Z" fill="#967048"/>
<path d="M1860.82 761.715H1775.68L1777.48 756.039H1859.04L1860.82 761.715Z" fill="#967048" stroke="#967048" stroke-width="7" stroke-miterlimit="10"/>
<path d="M1872.14 796.461H1765.14L1767.4 790.785H1869.91L1872.14 796.461Z" fill="#967048" stroke="#967048" stroke-width="7" stroke-miterlimit="10"/>
<path d="M1861.68 761.713H1861.64H1860.82" stroke="#967048" stroke-width="7" stroke-miterlimit="10"/>
<path d="M1775.68 761.713H1774.89" stroke="#967048" stroke-width="7" stroke-miterlimit="10"/>
<path d="M1582.6 665.053C1581.59 648.285 1593.79 640.32 1606.49 618.233C1623.21 589.152 1619.78 580.331 1633.56 572.829C1647.57 565.203 1668.97 565.247 1681.33 574.246C1692.36 582.282 1687.49 591.112 1698.85 619.65C1709.18 645.594 1713.3 645.692 1715.57 655.832C1724.33 694.847 1659.04 693.43 1653.47 694.143C1646.61 695.016 1610.47 694.143 1591.37 679.959C1585.5 675.602 1582.85 669.054 1582.61 665.062L1582.6 665.053Z" fill="#967048" stroke="#967048" stroke-width="7" stroke-miterlimit="10"/>
<path d="M1619.43 692.014L1576.23 821.123H1585.79L1626.44 692.602L1619.43 692.014Z" fill="#967048"/>
<path d="M1619.32 691.292L1618.86 691.256L1575.17 821.827H1586.38L1594.46 796.301L1596.7 789.2L1605.68 760.822L1607.48 755.147L1621.17 711.873L1621.61 710.456L1622.74 706.91L1623.18 705.494L1627.2 692.797L1627.22 692.726L1627.46 691.978L1619.32 691.292ZM1577.29 820.419L1620 692.771L1625.42 693.225L1585.19 820.419H1577.29Z" fill="#967048"/>
<path d="M1677.2 692.014L1720.4 821.836H1710.84L1670.19 692.602L1677.2 692.014Z" fill="#967048"/>
<path d="M1678.01 691.969L1677.96 691.817L1677.77 691.256L1669.16 691.978L1669.51 693.091L1673.41 705.494L1673.86 706.91L1674.97 710.456L1675.42 711.873L1689.04 755.147L1690.82 760.822L1701.99 796.301L1710.08 822.023L1710.24 822.54H1721.46L1678.01 691.969ZM1676.62 692.771L1719.33 821.132H1711.44L1671.2 693.225L1676.62 692.771Z" fill="#967048"/>
<path d="M1674.96 705.494H1622.41V706.911H1674.96V705.494Z" fill="#967048"/>
<path d="M1690.09 755.148H1689.86H1689.04" stroke="#967048" stroke-width="7" stroke-miterlimit="10"/>
<path d="M1436.92 691.043L1402.94 824.046L1413.1 823.303L1444.42 691.089L1436.92 691.043Z" fill="#967048"/>
<path d="M1607.48 755.148H1606.65H1606.49" stroke="#967048" stroke-width="7" stroke-miterlimit="10"/>
<path d="M1674.97 710.456H1621.61L1622.74 706.91H1673.86L1674.97 710.456Z" fill="#967048"/>
<path d="M1675.76 710.457H1620.82V711.874H1675.76V710.457Z" fill="#967048"/>
<path d="M1690.82 760.824H1605.68L1607.48 755.148H1689.04L1690.82 760.824Z" fill="#967048" stroke="#967048" stroke-width="7" stroke-miterlimit="10"/>
<path d="M1702.14 795.57H1595.14L1597.4 789.895H1699.91L1702.14 795.57Z" fill="#967048" stroke="#967048" stroke-width="7" stroke-miterlimit="10"/>
<path d="M1691.68 760.822H1691.64H1690.82" stroke="#967048" stroke-width="7" stroke-miterlimit="10"/>
<path d="M1605.68 760.822H1604.89" stroke="#967048" stroke-width="7" stroke-miterlimit="10"/>
<path d="M3039.64 822.904H0.640137V857.696H3039.64V822.904Z" stroke="#967048" stroke-width="7" stroke-miterlimit="10"/>
<path d="M1712.31 10.6367H1702.76V309.297H1712.31V10.6367Z" stroke="#967048" stroke-width="7" stroke-miterlimit="10"/>
<path d="M1651.01 397.264C1655.9 370.41 1667.04 358.115 1676.49 351.86C1681.68 348.43 1687.81 345.855 1692.41 339.093C1699.12 329.221 1697.75 317.522 1695.59 309.299H1721.07C1718.88 314.582 1716.76 322.405 1719.48 330.584C1722.58 339.895 1730.32 344.777 1735.4 349.027C1744.05 356.262 1755.6 372.094 1759.29 397.264C1723.73 398.208 1686.57 396.319 1651 397.264H1651.01Z" stroke="#967048" stroke-width="7" stroke-miterlimit="10"/>
<path d="M1654.2 384.496H1756.11" stroke="#967048" stroke-width="7" stroke-miterlimit="10"/>
<path d="M1697.99 322.779H1718.69" stroke="#967048" stroke-width="7" stroke-miterlimit="10"/>
<path d="M1730.63 1.41602H1682.86V9.92473H1730.63V1.41602Z" stroke="#967048" stroke-width="7" stroke-miterlimit="10"/>
<path d="M1932.07 9.74609H1922.52V308.407H1932.07V9.74609Z" stroke="#967048" stroke-width="7" stroke-miterlimit="10"/>
<path d="M1870.77 396.373C1875.66 369.52 1886.8 357.224 1896.25 350.97C1901.44 347.539 1907.57 344.965 1912.17 338.202C1918.88 328.33 1917.51 316.632 1915.35 308.408H1940.83C1938.64 313.692 1936.52 321.514 1939.24 329.693C1942.34 339.004 1950.08 343.886 1955.16 348.136C1963.81 355.371 1975.36 371.203 1979.05 396.373C1943.49 397.318 1906.33 395.429 1870.76 396.373H1870.77Z" stroke="#967048" stroke-width="7" stroke-miterlimit="10"/>
<path d="M1873.95 383.605H1975.87" stroke="#967048" stroke-width="7" stroke-miterlimit="10"/>
<path d="M1917.74 321.889H1938.44" stroke="#967048" stroke-width="7" stroke-miterlimit="10"/>
<path d="M1950.38 0.525391H1902.61V9.03411H1950.38V0.525391Z" stroke="#967048" stroke-width="7" stroke-miterlimit="10"/>
<path d="M2148.64 10.1113H2139.09V308.772H2148.64V10.1113Z" stroke="#967048" stroke-width="7" stroke-miterlimit="10"/>
<path d="M2087.34 396.738C2092.23 369.885 2103.37 357.589 2112.82 351.335C2118.01 347.905 2124.14 345.33 2128.74 338.567C2135.45 328.695 2134.08 316.997 2131.92 308.773H2157.4C2155.21 314.057 2153.09 321.88 2155.81 330.059C2158.91 339.369 2166.65 344.252 2171.73 348.502C2180.38 355.736 2191.93 371.569 2195.62 396.738C2160.06 397.683 2122.9 395.794 2087.33 396.738H2087.34Z" stroke="#967048" stroke-width="7" stroke-miterlimit="10"/>
<path d="M2090.52 383.971H2192.44" stroke="#967048" stroke-width="7" stroke-miterlimit="10"/>
<path d="M2134.31 322.254H2155.01" stroke="#967048" stroke-width="7" stroke-miterlimit="10"/>
<path d="M2166.95 0.890625H2119.18V9.39935H2166.95V0.890625Z" stroke="#967048" stroke-width="7" stroke-miterlimit="10"/>
<path d="M1480.7 682.443L1525.34 822.191H1515.79L1475.13 683.78L1480.7 682.443Z" fill="#967048"/>
<path d="M1481.49 682.248L1481.27 681.553L1474.13 683.263L1495.14 754.808L1495.56 756.225L1496.81 760.483L1497.23 761.9L1505.1 788.7L1505.6 790.429L1507.18 795.792L1507.69 797.53L1515.15 822.931H1526.42L1481.49 682.248ZM1480.13 683.335L1524.25 821.47H1516.42L1476.13 684.297L1480.13 683.335Z" fill="#967048"/>
<path d="M1496.63 754.809H1424.97V756.225H1496.63V754.809Z" fill="#967048"/>
<path d="M1511 795.633H1418L1418.92 784.941H1509.32L1511 795.633Z" fill="#967048"/>
<path d="M1433 708.318H1458.48H1483.96" stroke="#967048" stroke-width="7" stroke-miterlimit="10"/>
<path d="M1497 762.668H1425L1425.69 751.977H1495.74L1497 762.668Z" fill="#967048"/>
<path d="M1498.22 759.203H1424.97V761.903H1498.22V759.203Z" fill="#967048"/>
<path d="M1410.64 680.315C1404.85 669.508 1403.97 660.188 1402.68 644.846C1400.65 620.718 1401.09 619.311 1399.5 607.96C1397.78 595.682 1388.35 586.675 1389.95 585.258C1391.7 583.699 1393.86 584.483 1396.32 586.675C1405.87 595.183 1410.17 606.454 1420.21 632.078C1428.78 653.942 1433.06 664.875 1440.91 668.964C1456.14 676.894 1467.98 666.131 1496.64 671.797C1499.86 672.439 1521.67 678.417 1522.12 687.407C1522.23 689.652 1521.02 691.033 1518.94 691.666C1515.34 692.762 1506.38 686.454 1499.83 683.157C1491.92 679.175 1483.44 678.622 1463.2 690.249C1441.13 702.937 1436.28 698.838 1431.35 697.341C1421.24 694.277 1414.65 687.781 1410.65 680.315H1410.64Z" fill="#967048" stroke="#967048" stroke-width="7" stroke-miterlimit="10"/>
<path d="M989.14 771.273H366.64V824.286H989.14V771.273Z" stroke="#967048" stroke-width="7" stroke-miterlimit="10"/>
<path d="M988.31 232.631H366.64V771.416H988.31V232.631Z" stroke="#967048" stroke-width="7" stroke-miterlimit="10"/>
<path d="M960.06 262.844H394.9V333.337H960.06V262.844Z" stroke="#967048" stroke-width="7" stroke-miterlimit="10"/>
<path d="M960.06 363.549H394.9V434.042H960.06V363.549Z" stroke="#967048" stroke-width="7" stroke-miterlimit="10"/>
<path d="M960.06 469.289H394.9V539.782H960.06V469.289Z" stroke="#967048" stroke-width="7" stroke-miterlimit="10"/>
<path d="M960.06 569.994H394.9V640.487H960.06V569.994Z" stroke="#967048" stroke-width="7" stroke-miterlimit="10"/>
<path d="M960.06 670.701H394.9V741.194H960.06V670.701Z" stroke="#967048" stroke-width="7" stroke-miterlimit="10"/>
<path d="M468.37 640.497C466.55 639.837 456.14 635.917 451.42 625.395C447.05 615.656 450.6 607.094 451.42 605.25H570.1C571.1 608.065 573.47 616.013 570.1 625.395C567.15 633.609 561.39 638.536 558.8 640.497H468.37Z" stroke="#967048" stroke-width="7" stroke-miterlimit="10"/>
<path d="M792.23 539.783C790.72 538.892 782.08 533.564 778.16 519.282C774.53 506.069 777.48 494.442 778.16 491.947H876.66C877.49 495.77 879.45 506.55 876.66 519.282C874.21 530.428 869.43 537.11 867.28 539.783H792.23Z" stroke="#967048" stroke-width="7" stroke-miterlimit="10"/>
<path d="M500.48 333.336C499.3 332.633 492.59 328.427 489.54 317.148C486.72 306.714 489.01 297.537 489.54 295.568H566.15C566.8 298.589 568.32 307.097 566.15 317.148C564.25 325.95 560.52 331.225 558.85 333.336H500.48Z" stroke="#967048" stroke-width="7" stroke-miterlimit="10"/>
<path d="M677.48 434.042C680.74 430.46 686.04 423.662 688.78 413.897C691.93 402.671 690.06 393.325 688.78 388.719H756.6C754.64 397.566 755.64 404.676 756.6 408.863C757.86 414.334 759.91 423.244 767.9 429.008C773.71 433.196 779.26 433.267 779.2 434.042C779.09 435.619 756.41 436.287 677.47 434.042H677.48Z" stroke="#967048" stroke-width="7" stroke-miterlimit="10"/>
<path d="M801.82 277.945H767.91V330.815H801.82V277.945Z" stroke="#967048" stroke-width="7" stroke-miterlimit="10"/>
<path d="M852.68 277.945H818.77V330.815H852.68V277.945Z" stroke="#967048" stroke-width="7" stroke-miterlimit="10"/>
<path d="M903.54 277.945H869.63V330.815H903.54V277.945Z" stroke="#967048" stroke-width="7" stroke-miterlimit="10"/>
<path d="M592.71 685.812H558.8V738.682H592.71V685.812Z" stroke="#967048" stroke-width="7" stroke-miterlimit="10"/>
<path d="M643.57 685.812H609.66V738.682H643.57V685.812Z" stroke="#967048" stroke-width="7" stroke-miterlimit="10"/>
<path d="M694.43 685.812H660.52V738.682H694.43V685.812Z" stroke="#967048" stroke-width="7" stroke-miterlimit="10"/>
<path d="M683.13 585.105H620.96V635.463H683.13V585.105Z" stroke="#967048" stroke-width="7" stroke-miterlimit="10"/>
<path d="M807.47 640.497L801.81 615.318H926.15L920.5 640.497H807.47Z" stroke="#967048" stroke-width="7" stroke-miterlimit="10"/>
<path d="M541.84 533.198V527.585C541.84 522.399 543.56 517.339 546.79 513.026C550.6 507.939 550.39 501.257 546.27 496.365L536.19 484.391H592.71L582.76 496.205C578.56 501.194 578.35 508.001 582.23 513.187C585.38 517.392 587.05 522.328 587.05 527.389V532.574C587.05 536.557 583.43 539.782 578.96 539.782H549.23C545.15 539.782 541.84 536.833 541.84 533.198Z" stroke="#967048" stroke-width="7" stroke-miterlimit="10"/>
<path d="M609.66 533.198V527.585C609.66 522.399 611.38 517.339 614.61 513.026C618.42 507.939 618.21 501.257 614.09 496.365L604.01 484.391H660.53L650.58 496.205C646.38 501.194 646.17 508.001 650.05 513.187C653.2 517.392 654.87 522.328 654.87 527.389V532.574C654.87 536.557 651.25 539.782 646.78 539.782H617.05C612.97 539.782 609.66 536.833 609.66 533.198Z" stroke="#967048" stroke-width="7" stroke-miterlimit="10"/>
<path d="M476.85 434.042C497.141 434.042 513.59 420.516 513.59 403.83C513.59 387.144 497.141 373.617 476.85 373.617C456.559 373.617 440.11 387.144 440.11 403.83C440.11 420.516 456.559 434.042 476.85 434.042Z" stroke="#967048" stroke-width="7" stroke-miterlimit="10"/>
<path d="M561.62 434.042C581.911 434.042 598.36 420.516 598.36 403.83C598.36 387.144 581.911 373.617 561.62 373.617C541.329 373.617 524.88 387.144 524.88 403.83C524.88 420.516 541.329 434.042 561.62 434.042Z" stroke="#967048" stroke-width="7" stroke-miterlimit="10"/>
<path d="M895.07 741.203C915.361 741.203 931.81 727.676 931.81 710.99C931.81 694.304 915.361 680.777 895.07 680.777C874.779 680.777 858.33 694.304 858.33 710.99C858.33 727.676 874.779 741.203 895.07 741.203Z" stroke="#967048" stroke-width="7" stroke-miterlimit="10"/>
<path opacity="0.32" d="M2951.25 229.121H2749.14V410.878H2951.25V229.121Z" fill="#967048"/>
<path d="M2951.25 208.229H2768.03V395.483H2951.25V208.229Z" fill="#967048" stroke="#967048" stroke-width="7" stroke-miterlimit="10"/>
<path d="M2928.64 229.566H2791.64V377.467H2928.64V229.566Z" fill="#C1976B"/>
<path opacity="0.32" d="M2707.25 324.455H2505.14V479.483H2707.25V324.455Z" fill="#967048"/>
<path d="M2707.25 303.561H2524.03V461.654H2707.25V303.561Z" fill="#967048" stroke="#967048" stroke-width="7" stroke-miterlimit="10"/>
<path d="M2684.64 324.9H2547.64V440.28H2684.64V324.9Z" fill="#C1976B"/>
<path opacity="0.32" d="M2718.25 10.1484H2487.14V238.922H2718.25V10.1484Z" fill="#967048"/>
<path d="M2707 0H2516V216.505H2707V0Z" fill="#C1976B" stroke="#967048" stroke-width="30" stroke-miterlimit="10"/>
</g>
<defs>
<clipPath id="clip0_499_16164">
<rect width="3040" height="858" fill="white"/>
</clipPath>
</defs>
</svg>
