<?xml version="1.0" encoding="UTF-8"?>
<svg id="Livello_1" data-name="Livello 1" xmlns="http://www.w3.org/2000/svg" width="3042.5" height="964" xmlns:xlink="http://www.w3.org/1999/xlink" viewBox="0 0 3042.5 964">
  <defs>
    <style>
      .cls-1 {
        stroke-width: 6.99px;
      }

      .cls-1, .cls-2, .cls-3, .cls-4, .cls-5, .cls-6, .cls-7, .cls-8, .cls-9, .cls-10, .cls-11, .cls-12, .cls-13, .cls-14, .cls-15, .cls-16, .cls-17 {
        stroke: #59865f;
      }

      .cls-1, .cls-7, .cls-8, .cls-9, .cls-18, .cls-19 {
        fill: #3a523d;
      }

      .cls-2 {
        fill: #69bb5c;
      }

      .cls-2, .cls-8, .cls-20, .cls-12, .cls-13, .cls-21, .cls-17 {
        stroke-width: 2px;
      }

      .cls-3, .cls-6, .cls-9, .cls-22, .cls-11, .cls-19 {
        stroke-width: 7px;
      }

      .cls-3, .cls-23, .cls-21 {
        fill: #59865f;
      }

      .cls-4 {
        stroke-width: 7.06px;
      }

      .cls-4, .cls-5, .cls-6, .cls-22, .cls-24, .cls-10, .cls-20, .cls-11, .cls-13, .cls-14, .cls-15, .cls-16, .cls-17 {
        fill: none;
      }

      .cls-5 {
        stroke-width: 7.05px;
      }

      .cls-7, .cls-16 {
        stroke-width: 1px;
      }

      .cls-18, .cls-24, .cls-23 {
        stroke-width: 0px;
      }

      .cls-22, .cls-20, .cls-19, .cls-21 {
        stroke: #3a523d;
      }

      .cls-10 {
        stroke-width: 7.08px;
      }

      .cls-20, .cls-11, .cls-13 {
        stroke-linecap: round;
      }

      .cls-12 {
        fill: #69bb5d;
      }

      .cls-25 {
        clip-path: url(#clippath);
      }

      .cls-14 {
        stroke-width: 6.93px;
      }

      .cls-15 {
        stroke-width: 4px;
      }
    </style>
    <clipPath id="clippath">
      <rect class="cls-24" x="1.5" y="105.5" width="3040" height="858"/>
    </clipPath>
  </defs>
  <g class="cls-25">
    <rect class="cls-23" x=".5" y="105.5" width="3040" height="858"/>
    <rect class="cls-24" x=".5" y="152.5" width="1972.65" height="752"/>
    <rect class="cls-6" x="1108.36" y="180" width="23.01" height="328"/>
    <rect class="cls-18" x=".5" y="105.5" width="3041" height="858"/>
    <rect class="cls-16" x=".5" y=".5" width="3041" height="963"/>
    <rect class="cls-9" x="789.26" y="220" width="46.02" height="109"/>
    <path class="cls-6" d="M718.74,532.5V159.5h1583.52v373H718.74Z"/>
    <rect class="cls-1" x="4.5" y="930" width="3034" height="30"/>
    <rect class="cls-9" x="736.24" y="180" width="1540.51" height="328"/>
    <rect class="cls-6" x="1101.36" y="180" width="23.01" height="328"/>
    <rect class="cls-6" x="1886.62" y="180" width="23.01" height="328"/>
    <rect class="cls-6" x="1490.49" y="180" width="23.01" height="328"/>
    <rect class="cls-9" x="1513.5" y="376" width="46.02" height="132"/>
    <rect class="cls-9" x="1513.5" y="303" width="46.02" height="74"/>
    <rect class="cls-9" x="1605.53" y="180" width="47.02" height="108"/>
    <rect class="cls-9" x="1605.53" y="368" width="47.02" height="140"/>
    <rect class="cls-9" x="1605.53" y="288" width="47.02" height="81"/>
    <rect class="cls-9" x="1559.51" y="180" width="46.02" height="230"/>
    <rect class="cls-9" x="1559.51" y="336" width="46.02" height="172"/>
    <rect class="cls-9" x="1697.56" y="220" width="48.02" height="109"/>
    <rect class="cls-9" x="1651.54" y="180" width="46.02" height="230"/>
    <rect class="cls-9" x="1651.54" y="336" width="46.02" height="172"/>
    <rect class="cls-9" x="1793.59" y="368" width="46.02" height="140"/>
    <rect class="cls-9" x="1793.59" y="295" width="46.02" height="74"/>
    <rect class="cls-9" x="1747.57" y="180" width="46.02" height="230"/>
    <rect class="cls-9" x="1747.57" y="336" width="46.02" height="172"/>
    <rect class="cls-9" x="1747.57" y="220" width="46.02" height="109"/>
    <rect class="cls-9" x="1744.57" y="180" width="46.02" height="230"/>
    <rect class="cls-9" x="1744.57" y="336" width="46.02" height="172"/>
    <rect class="cls-9" x="1839.6" y="180" width="46.02" height="230"/>
    <rect class="cls-9" x="1839.6" y="336" width="46.02" height="172"/>
    <rect class="cls-9" x="736.24" y="180" width="46.02" height="108"/>
    <rect class="cls-9" x="736.24" y="361" width="46.02" height="147"/>
    <rect class="cls-9" x="736.24" y="287" width="46.02" height="74"/>
    <rect class="cls-9" x="828.27" y="376" width="46.02" height="132"/>
    <rect class="cls-9" x="828.27" y="303" width="46.02" height="74"/>
    <rect class="cls-9" x="782.26" y="180" width="46.02" height="230"/>
    <rect class="cls-9" x="782.26" y="328" width="46.02" height="180"/>
    <rect class="cls-9" x="783.26" y="220" width="45.01" height="109"/>
    <rect class="cls-9" x="874.29" y="180" width="47.02" height="230"/>
    <rect class="cls-9" x="874.29" y="336" width="47.02" height="172"/>
    <rect class="cls-9" x="1013.33" y="376" width="46.02" height="132"/>
    <rect class="cls-9" x="1009.33" y="302" width="46.02" height="74"/>
    <rect class="cls-9" x="967.32" y="180" width="46.02" height="230"/>
    <rect class="cls-9" x="967.32" y="336" width="46.02" height="172"/>
    <rect class="cls-9" x="921.3" y="180" width="46.02" height="230"/>
    <rect class="cls-9" x="921.3" y="409" width="46.02" height="99"/>
    <rect class="cls-9" x="1055.35" y="220" width="46.02" height="109"/>
    <rect class="cls-9" x="1055.35" y="180" width="46.02" height="230"/>
    <rect class="cls-9" x="1055.35" y="336" width="46.02" height="172"/>
    <rect class="cls-9" x="1124.37" y="376" width="47.02" height="132"/>
    <rect class="cls-9" x="1124.37" y="304" width="47.02" height="74"/>
    <rect class="cls-9" x="1216.4" y="180" width="47.02" height="108"/>
    <rect class="cls-9" x="1217.4" y="362" width="46.02" height="146"/>
    <rect class="cls-9" x="1217.4" y="288" width="46.02" height="77"/>
    <rect class="cls-9" x="1171.39" y="180" width="46.02" height="230"/>
    <rect class="cls-9" x="1171.39" y="336" width="46.02" height="172"/>
    <rect class="cls-9" x="1262.42" y="180" width="46.02" height="230"/>
    <rect class="cls-9" x="1262.42" y="336" width="46.02" height="172"/>
    <rect class="cls-9" x="1397.46" y="376" width="47.02" height="132"/>
    <rect class="cls-9" x="1397.46" y="302" width="47.02" height="74"/>
    <rect class="cls-9" x="1351.44" y="180" width="46.02" height="230"/>
    <rect class="cls-9" x="1355.45" y="336" width="42.01" height="172"/>
    <rect class="cls-9" x="1351.44" y="220" width="46.02" height="109"/>
    <rect class="cls-9" x="1308.43" y="180" width="46.02" height="230"/>
    <rect class="cls-9" x="1444.47" y="180" width="46.02" height="230"/>
    <rect class="cls-9" x="1444.47" y="336" width="46.02" height="172"/>
    <rect class="cls-9" x="1910.63" y="295" width="46.02" height="74"/>
    <rect class="cls-9" x="2001.66" y="180" width="47.02" height="108"/>
    <rect class="cls-9" x="2001.66" y="376" width="47.02" height="132"/>
    <rect class="cls-9" x="2001.66" y="288" width="47.02" height="88"/>
    <rect class="cls-9" x="1956.64" y="180" width="45.01" height="230"/>
    <rect class="cls-9" x="1956.64" y="336" width="45.01" height="172"/>
    <rect class="cls-9" x="2048.67" y="180" width="45.01" height="230"/>
    <rect class="cls-9" x="2048.67" y="336" width="45.01" height="172"/>
    <rect class="cls-9" x="2140.7" y="376" width="45.01" height="132"/>
    <rect class="cls-9" x="2140.7" y="302" width="45.01" height="74"/>
    <rect class="cls-9" x="2185.72" y="180" width="45.01" height="156"/>
    <rect class="cls-9" x="2093.69" y="180" width="46.02" height="230"/>
    <rect class="cls-9" x="2715.89" y="435" width="45.01" height="50"/>
    <rect class="cls-9" x="2715.89" y="415" width="45.01" height="110"/>
    <rect class="cls-9" x="2820.93" y="472" width="45.01" height="33"/>
    <rect class="cls-9" x="2767.91" y="435" width="46.02" height="50"/>
    <rect class="cls-9" x="2767.91" y="415" width="46.02" height="110"/>
    <rect class="cls-9" x="2093.69" y="376" width="46.02" height="132"/>
    <rect class="cls-9" x="2230.73" y="180" width="46.02" height="230"/>
    <rect class="cls-9" x="2230.73" y="303" width="46.02" height="205"/>
    <path class="cls-9" d="M941.11,225.4c4.7-2.9,10.6-2.9,15.31,0l79.13,49.3c12.4,7.7,6.9,26.8-7.7,26.8h-158.15c-14.6,0-20.01-19.1-7.7-26.8l79.13-49.3Z"/>
    <path class="cls-11" d="M947.01,223.2c-3.5,0-6.3,1.7-9.4,3.2-6.7,3.3-13,7-18.91,11.7-8.1,6.4-14.9,14.2-21.41,22.2-7.1,8.7-13.8,17.8-17.41,28.5-1.1,3.4-3.7,8.6-3.7,12.3"/>
    <path class="cls-11" d="M945.71,221.9c-.2.8-2.7.5-3.4.7-4.6,1.5-8.4,4.7-11.8,8.2-5.4,5.5-7.6,11.6-11,18.4-3.3,6.5-6.3,13.2-8.2,20.3-2.9,10.4-5,21.4-5,32.2"/>
    <path class="cls-11" d="M946.11,224.1c-.4,2.7-2.5,5.4-3.6,7.8-2.2,4.8-3.9,9.5-4.9,14.8-2.2,11.2-3.7,22.6-3.7,34.1,0,6.9.5,14.2.5,20.8"/>
    <path class="cls-11" d="M939.81,224.5c-1.9.6-3.7,4.6-4.4,6.2-2.2,5.1-4.8,10.1-6.5,15.5-3.8,12.4-7.7,25.3-8.8,38.3-.3,3.4-.2,6.9-.2,10.3,0,1.3-.3,2.9,0,4.2.4,1.8.8,3.8,1,5.7"/>
    <path class="cls-11" d="M862.68,301c-.4-3.7-.7-7.4-.2-11.1.8-5,3.7-9.3,6-13.6,2.2-3.9,5.1-6.9,7.8-10.4,1-1.3,2-2.1,3.2-3.2,1.2-1.1,2.5-3.1,4.1-3.6"/>
    <path class="cls-11" d="M946.81,222.9c3.5,0,6.3,1.7,9.4,3.2,6.7,3.3,13,7,18.91,11.7,8.1,6.4,14.9,14.2,21.41,22.2,7.1,8.7,13.8,17.8,17.41,28.5,1.1,3.4,3.7,8.6,3.7,12.3"/>
    <path class="cls-11" d="M948.21,221.5c.2.8,2.7.5,3.4.7,4.6,1.5,8.4,4.7,11.8,8.2,5.4,5.5,7.6,11.6,11,18.4,3.3,6.5,6.3,13.2,8.2,20.3,2.9,10.4,5,21.4,5,32.2"/>
    <path class="cls-11" d="M947.71,223.8c.4,2.7,2.5,5.4,3.6,7.8,2.2,4.8,3.9,9.5,4.9,14.8,2.2,11.2,3.7,22.6,3.7,34.1,0,6.8-.5,14.2-.5,20.8"/>
    <path class="cls-11" d="M953.81,223.5c1.8.6,3.5,4.7,4.2,6.2,2.1,5.2,4.6,10.2,6.2,15.7,3.6,12.6,7.3,25.7,8.4,38.8.3,3.5.2,6.9.2,10.4,0,1.3.3,2.9,0,4.2-.4,1.8-.8,3.8-.9,5.7"/>
    <path class="cls-11" d="M1031.34,300.5c.4-3.9.8-8,.2-11.9-.9-5.3-4.3-10-7-14.6-2.5-4.2-6-7.4-9.2-11.1-1.1-1.4-2.3-2.3-3.7-3.5s-2.9-3.3-4.7-3.9"/>
    <path class="cls-3" d="M994.13,308.3c2,8-.8,10.6-2.5,10.9-5.8,2.8-5.6-16.4-6.7-22.7-1.2-6.3,9.2-7.2,9.2-4.6s-2.5,6.3,0,16.4Z"/>
    <path class="cls-3" d="M859.48,299.2c-2,6.7.8,8.8,2.5,9,5.8,2.4,5.6-13.6,6.7-18.8,1.2-5.2-9.2-6-9.2-3.8s2.5,5.3,0,13.6Z"/>
    <path class="cls-3" d="M908.4,317.9c-1-6.3-11.2-7.6-16.21-7.4-3.6,2.5,0,21-6.1,28.9-6.1,7.8,1.2,12,6.1,15.7,4.9,3.7,6.5,15.3,13.8,16.9s16.61,0,14.6-9.5-10.5-2.1-16.21-18.6c-5.7-16.5,5.2-18.1,4-26Z"/>
    <path class="cls-3" d="M897.5,308.3c-2,8,.8,10.6,2.5,10.9,5.8,2.8,5.6-16.4,6.7-22.7,1.2-6.3-9.2-7.2-9.2-4.6s2.5,6.3,0,16.4Z"/>
    <path class="cls-11" d="M888.19,336.1c1.5,0,2.6,1.8,3.1,3,.5,1.1.8,2.3,1,3.5.3,2,.5,4.4.1,6.4-.3,1.6-.7,3.1-1.2,4.6"/>
    <path class="cls-11" d="M917.6,358.1h-3.2c-1.7,0-3,.7-4.5,1.5-2.1,1.1-3.4,3.9-4.1,6.1-.5,1.5-.7,3.9.1,5.2"/>
    <path class="cls-3" d="M870.79,311c-.4-6.4-9.8-4.7-14.5-3-3.5,1,1,14.5-2,24-3,9.5,0,8,5.5,16s16.51,5,19.01-3.5-2.5-5.5-8-12.5.5-13,0-21Z"/>
    <path class="cls-11" d="M855.38,332.1c5.1,0,8.5,3.2,9.8,8,1,3.7.1,7.1-1.6,10.3"/>
    <path class="cls-11" d="M875.09,336.7c0,.3-.2.7-.2,1-.1.8-.2,1.6-.1,2.4.1.7.2,1.2.6,1.8.3.5.7.8,1.1,1.2.4.4.9.9,1.4,1.2"/>
    <path class="cls-3" d="M979.32,322c.4-8,12.8-10,19.01-10,8.5,2.5,0,27,5,39,5,12-3,12.5-10.5,23-7.5,10.5-15.51,20.5-26.01,20s-9-9-5.5-12.5,10.5-12,18.01-24.5c7.5-12.5-.5-25,0-35Z"/>
    <path class="cls-11" d="M963.12,380.6c1.9,0,4.1-.3,5.9.6,1.6.8,3.2,2.2,4.3,3.5,1.5,1.8,2.4,4.9,2.4,7.3"/>
    <path class="cls-11" d="M1001.53,348.6c-1.6,2.4-3.7,5.4-4.1,8.4-.2,1.6-.2,3.2,0,4.8.1,1.2.7,2.5,1.2,3.6"/>
    <path class="cls-11" d="M982.82,324c0,2.1,1.2,4,1.2,6.1"/>
    <path class="cls-11" d="M988.73,323.2c0,.9,0,1.9.2,2.8"/>
    <path class="cls-11" d="M998.13,319.7c0,1.7-.2,3.4-.2,5.1"/>
    <path class="cls-11" d="M893.39,321.7v6.1"/>
    <path class="cls-11" d="M897.5,325v1.7"/>
    <path class="cls-11" d="M857.58,310.7c0,2.7-.1,5.5.1,8.2"/>
    <path class="cls-11" d="M859.68,310.5c0,1.9,0,3.9.1,5.8.1,1.3.2,2.5.2,3.8"/>
    <path class="cls-11" d="M904.7,322.7c-2.5,2.2-3.3,5.2-4.1,8.4"/>
    <path class="cls-3" d="M1025.34,307.2c-2-11.2,5.2-12.3,9-11.5,9,0,10.5,9.5,8,18.5s3,12,6,22.5-14,33.5-23.01,30.5c-9-3-5.5-9,0-19.5,5.5-10.5,2.5-26.5,0-40.5Z"/>
    <path class="cls-3" d="M1037.14,300c2,6.1-.8,8.1-2.5,8.3-5.8,2.2-5.6-12.4-6.7-17.2-1.1-4.8,9.2-5.5,9.2-3.5s-2.5,4.8,0,12.4Z"/>
    <path class="cls-11" d="M1022.34,353.9c3.4,0,6.4-.4,8.6,2.8,1.1,1.6,1.2,4.3,1.2,6.2"/>
    <path class="cls-11" d="M1028.24,305.2c0,1.1.4,2.1.7,3.2.6,2.6,1.2,5.1,1.8,7.7"/>
    <path class="cls-11" d="M1032.04,307.5c0,1.3.2,2.5.4,3.8.2,1.5.3,3.1.4,4.6"/>
    <path class="cls-11" d="M1036.84,308.3v5.4"/>
    <path class="cls-6" d="M854.78,291c36.31,1.3,125.14,3.2,189.56,0"/>
    <path class="cls-21" d="M817.77,688.5h484.16c32.61,0,59.02,26.4,59.02,59v44c0,32.6-26.41,59-59.02,59h-484.16c-32.61,0-59.02-26.4-59.02-59v-44c0-32.6,26.41-59,59.02-59Z"/>
    <path class="cls-23" d="M1154.88,848.22c0-22.99,19.21-41.72,43.01-41.72h168.06c23.81,0,43.01,18.72,43.01,41.72v36.87c0,22.99-19.21,41.72-43.01,41.72h-168.06c-23.81,0-43.01-18.72-43.01-41.72v-36.87Z"/>
    <path class="cls-18" d="M1154.88,842.5c0-27.6,22.41-50,50.02-50h154.05c27.61,0,50.02,22.4,50.02,50,0-19.9-19.21-36-43.01-36h-168.06c-23.81,0-43.01,16.1-43.01,36ZM1408.96,923.5h-254.08,254.08ZM1154.88,923.5v-124,124ZM1408.96,799.5v124-124Z"/>
    <path class="cls-23" d="M718.74,851.5c0-23.7,19.31-43,43.01-43h171.06c23.71,0,43.01,19.3,43.01,43v38c0,23.7-19.31,43-43.01,43h-171.06c-23.71,0-43.01-19.3-43.01-43v-38Z"/>
    <path class="cls-18" d="M718.74,848.85c0-28.5,22.41-51.64,50.02-51.64h157.05c27.61,0,50.02,23.13,50.02,51.64,0-20.55-19.31-37.18-43.01-37.18h-171.06c-23.71,0-43.01,16.63-43.01,37.18ZM975.82,932.5h-257.08,257.08ZM718.74,932.5v-128.06,128.06ZM975.82,804.44v128.06-128.06Z"/>
    <path class="cls-18" d="M920.8,845.5c0-27.6,22.41-50,50.02-50h185.06c27.61,0,50.02,22.4,50.02,50,0-19.9-19.21-36-43.01-36h-199.07c-23.71,0-43.01,16.1-43.01,36ZM1205.9,926.5h-285.09,285.09ZM920.8,926.5,1205.9,926.5"/>
    <path class="cls-6" d="M770.75,922.5h591.19"/>
    <rect class="cls-9" x="1765.58" y="709" width="10" height="215"/>
    <rect class="cls-9" x="2101.69" y="703" width="10" height="227"/>
    <path class="cls-6" d="M2642.87,718.5h399.63"/>
    <path class="cls-3" d="M2977.98,450v134l32.01,25c20.81-38,24.31-121.8,23.51-159h-55.52Z"/>
    <path class="cls-3" d="M2949.48,639c0,12.4-6.7,51.5-10,69.5h78.03l-10.5-127h-135.54c8.5,64.5,78.03,42,78.03,57.5Z"/>
    <path class="cls-6" d="M2977.48,457.5h56.02"/>
    <path class="cls-3" d="M2870.94,578h103.03c-7.8-2.5-29.31-7.4-52.52-7s-43.31,4.8-50.52,7Z"/>
    <rect class="cls-9" x="2435.8" y="4" width="7" height="919"/>
    <rect class="cls-6" x="2645.87" y="411" width="248.08" height="118"/>
    <path class="cls-3" d="M2658.17,506.6c-13-24.4-11.6-71.7-9.2-92.3,19.51-7,80.23,0,73.72,12.7-6.5,12.7-4.3,64.7,0,83.4,4.3,18.7,21.11,23.9,15.71,29.5-5.4,5.6-9.2,0-20.01,0s-4.3,5.6-16.21,5.6-7.6-5.6-17.91-5.6-16.21,9.4-26.01,0c-9.9-9.4,16.11-2.8-.1-33.3Z"/>
    <path class="cls-3" d="M2883.55,506.6c16.81-24.4,14.9-71.7,11.9-92.3-25.21-7-103.73,0-95.33,12.7,8.4,12.7,5.6,64.7,0,83.4-5.6,18.7-27.31,23.9-20.31,29.5,7,5.6,11.9,0,25.91,0s5.6,5.6,21.01,5.6,9.8-5.6,23.11-5.6,21.01,9.4,33.61,0c12.7-9.4-20.91-2.8.1-33.3Z"/>
    <path class="cls-11" d="M2658.17,467.6c0,5.1-.2,9.7,1.7,14.5,2.1,5.7,5.6,10.7,9.2,15.5,8.3,11,11.7,26.4,5.4,39"/>
    <path class="cls-11" d="M2685.38,478.5c5.4,6.5,9.1,15.7,12,23.5,3.1,8.3,4.4,17.3,3.1,26.1"/>
    <path class="cls-11" d="M2686.58,499.1c.6,2.2,2.4,3.9,3,6.2.8,2.8,1.9,5.7,2.3,8.6.4,3.5.5,7.7-.6,11.1-.8,2.4-2.4,4.3-2.9,6.8"/>
    <path class="cls-11" d="M2815.23,480.9c0,9.8.3,19.7-1.2,29.5-1,6.7-2.5,13.4-5.3,19.5-.5,1.2-2.2,4.4-2.2,3.1"/>
    <path class="cls-11" d="M2850.84,463.1c0,11.3.5,22.7-.4,34-.8,11-2.8,22-6.9,32.3-1.1,2.8-2.1,4.9-4.5,6.6"/>
    <path class="cls-11" d="M2842.53,495.2c0,3.8.1,7.6-.3,11.4-1,10.7-4.2,19.8-8.8,29.4"/>
    <path class="cls-11" d="M2869.94,496.1c0,5.5-1.7,10.5-3.3,15.7-2,6.6-3.3,13-3.7,19.9"/>
    <path class="cls-11" d="M2873.84,508.2c-.2,4.9-3.3,9.1-3.4,14.1-.1,4.1,0,7,2.6,10.2"/>
    <path class="cls-11" d="M2806.52,510c0,10.5-9.5,20-20.01,20"/>
    <path class="cls-6" d="M2206.23,811c-2-54.7,4.6-165.7,47.02-172.5,53.02-8.5-41.01,2.5-36.01,172.5"/>
    <rect class="cls-9" x="2130.7" y="814" width="87.03" height="7"/>
    <rect class="cls-15" x="2138.2" y="825.5" width="4" height="99"/>
    <rect class="cls-15" x="2211.23" y="825.5" width="4" height="99"/>
    <rect class="cls-6" x="1645.84" y="815" width="87.03" height="7"/>
    <rect class="cls-15" x="1720.07" y="826.5" width="4" height="99"/>
    <rect class="cls-15" x="1648.34" y="826.5" width="4" height="99"/>
    <path class="cls-11" d="M1789.99,669.2c0-1.8-.4-4.2.2-5.9.5-1.2,2.3-1.1,3.3-1.1,2.5-.2,4.9-.1,7.4-.1h20.31c4.6,0,9.3.1,13.9,0,7.8-.3,15.51-1.1,23.31-1.7,7.8-.7,16.91-2,23.61,3.2,1.5,1.1,3.6,3.6,3.6,5.6"/>
    <path class="cls-6" d="M1877.82,660.5c-2-6-4.8-18,0-18h17.01c.5,0,4,18.5-3,27"/>
    <path class="cls-6" d="M2041.67,651c0,8.4,1.3,15.8,2,18.5h15c1.6-2.8,1.7-20.2,1.5-28.5h-18.51v10Z"/>
    <path class="cls-9" d="M2054.18,647.7c0,9.4,1.4,17.8,2.1,20.8h15.31c1.6-3.1,1.7-22.6,1.5-32h-18.91v11.2Z"/>
    <path class="cls-9" d="M1814.1,648.7c0,9.4,1.4,17.8,2.1,20.8h15.31c1.6-3.1,1.7-22.6,1.5-32h-18.91v11.2Z"/>
    <path class="cls-9" d="M1772.98,671.4c7.5,5.7,15,9.7,17.81,11l9.3-12.2c-1.5-3.2-17.01-15.1-24.51-20.6l-11.5,15.1,8.9,6.7Z"/>
    <path class="cls-9" d="M1712.56,672h441.15c8.3,0,15,6.7,15,15h0c0,8.3-6.7,15-15,15h-441.15c-8.3,0-15-6.7-15-15h0c0-8.3,6.7-15,15-15Z"/>
    <path class="cls-17" d="M296.1,923c.4-1.6,1.5-9.3,2-13,91.03,11,144.55-3.5,144.55,0,0,2.8,3,9.8,4.5,13-36.01,6.5-151.55,2-151.05,0Z"/>
    <path class="cls-17" d="M430.64,924.1c.4-1.6,1.5-9.3,2-13,91.03,11,144.55-3.5,144.55,0,0,2.8,3,9.8,4.5,13-36.01,6.5-151.55,2-151.05,0Z"/>
    <path class="cls-17" d="M346.81,909.5c-.8,1.8,1,3.4,2,4,3.5,0,5,0,7.9-1.7,3-1.7,11.4-2.3,15.91-1.7s6.4-3.4,4-3.4-4-1.1-9.9-1.1-5.4,2.9-9.9,2.9c-4.6-.1-9-1.3-10,1Z"/>
    <path class="cls-8" d="M352.02,913.5h-.9v1c0,.4.2.6.3.7.1.1.2.2.3.2.1.1.3.2.4.2.3.1.7.3,1.2.4.9.3,2.2.7,3.7,1,2.8.7,6.2,1.5,8.5,1.9,2.4.4,3.7,1.8,4.8,3.2.1.2.3.4.5.6.4.5.7,1,1.1,1.4.6.6,1.3,1.2,2.3,1.2.5,0,1.2.1,2,.3.3.1.7.1,1,.2.5.1.9.2,1.3.3s.7.1,1,.1.7,0,1-.1c.2-.1.4-.2.6-.4s.3-.6.3-.8c0-.5-.3-.9-.5-1.2-.8-1-1.1-1.6-1.3-2.3-.1-.7-.1-1.6.4-3.3.6-2.1,0-3.9-.8-5.3-.4-.7-.8-1.3-1.2-1.8v-.1c-.4-.6-.7-1.1-1-1.5-.1-.2-.3-.5-.4-.7-.2-.2-.5-.5-1-.5-.4,0-.7.2-.8.3-.1.1-.2.2-.3.2l-.1.1c-.2.2-.4.3-.8.4-.4.1-1,.2-1.8.1-.4-.1-.8-.1-1.2-.2-3.3-.4-5.8-.8-9.2.2-1.8.5-4.2,1.6-6,2.4-.5.2-.9.4-1.3.6-.4.2-.8.4-1.1.5-.3.1-.6.3-.8.3-.1.4-.2.4-.2.4ZM351.92,913.5h0Z"/>
    <path class="cls-13" d="M358.12,916c.4,0,.8,0,1.2-.1.9-.1,1.6-.6,2.5-.9.9-.3,2.1-.6,3-.3.4.1.8.3,1,.7.2.3.2.7.5.9.6.6,2.2.5,2.3,1.5,0,.3-.1.4-.1.6"/>
    <path class="cls-13" d="M371.92,912.8c-.8,0-1.6.4-1.4,1.3.1.6.5.9,1,1.2.4.2,1.2.3,1.4.7.3.5.1,1.2.3,1.8.2.6,1,.7,1.5.6,1-.1,2.1-1.1,2-2.2-.1-1-.8-1.3-1.4-1.8-.3-.2-.5-.6-.7-.9-.1-.2-.2-.5-.3-.7-.2-.5-.9-.4-1.3-.4-.6,0-.9.4-1.4.7"/>
    <path class="cls-13" d="M371.62,922.1c1-.6,2.2,0,2.8.8.3.4.5,1.1,1,1.4.3.1.9.1,1.1.3"/>
    <path class="cls-13" d="M360.32,911h.8c.6.1,1,.6,1.5.9.4.2.8.3,1.3.2.6,0,1.2,0,1.7-.3.4-.2.7-.5,1.1-.7s.9-.1,1.3,0c.6,0,.6-.6.5-1"/>
    <path class="cls-17" d="M298.6,910.6v-1.1c15.51.7,46.82,2,48.02,2"/>
    <path class="cls-17" d="M377.62,911.5c19.51-1.8,59.12-5.4,61.52-5s3.3,2.5,3.5,3.5"/>
    <path class="cls-19" d="M1203.4,799c.4-1.6-.5-9.3,0-13,91.03,11,144.55-3.5,144.55,0,0,2.8,5,9.8,6.5,13-36.01,6.5-151.55,2-151.05,0Z"/>
    <path class="cls-7" d="M1270.42,786c-.8,1.6,1,3,2,3.5,3.5,0,5,0,8-1.5s11.5-2,16.01-1.5,6.5-3,4-3-4-1-10-1-5.5,2.5-10,2.5-9-1-10,1Z"/>
    <path class="cls-8" d="M1289.42,794c-4.4-.8-10.8-3-13.5-4,.5,0,6-2.5,9.5-3.5s6-.5,10,0,2.5-1,4.5-.5,1,5.5,0,9,2.5,3.5,4,5.5-3.5,0-6,0-3-5.5-8.5-6.5Z"/>
    <path class="cls-13" d="M1282.02,792c.4,0,.8,0,1.2-.1.9-.1,1.6-.6,2.5-.9.9-.3,2.1-.6,3.1-.3.4.1.8.3,1.1.7.2.3.2.7.4.9.6.6,2.2.5,2.3,1.5,0,.3-.2.4-.2.6"/>
    <path class="cls-13" d="M1295.73,788.8c-.8,0-1.6.4-1.4,1.3.1.6.5.9,1,1.2.4.2,1.2.3,1.4.7.3.5.2,1.2.3,1.8.2.6,1,.7,1.5.6,1-.1,2.1-1.1,2-2.2-.2-1-.8-1.3-1.4-1.8-.3-.2-.5-.6-.7-.9-.1-.2-.2-.5-.3-.7-.2-.5-.9-.4-1.3-.4-.6,0-.9.4-1.4.7"/>
    <path class="cls-13" d="M1295.43,798.1c1-.6,2.2,0,2.8.8.3.4.5,1.1,1,1.4.3.1.9.1,1.1.3"/>
    <path class="cls-13" d="M1284.12,787.2h.8c.6.1,1,.6,1.5.9.4.2.8.3,1.3.2.6,0,1.2,0,1.7-.3.4-.2.7-.5,1.1-.7s.9-.1,1.3,0c.6,0,.6-.6.5-1"/>
    <path class="cls-22" d="M1204.4,784v-11c51.52,8,61.02,8,80.53,6.5"/>
    <path class="cls-22" d="M1284.92,779.5c19.51-1.8,59.12-5.4,61.52-5s1.8,10.5,2,11.5"/>
    <path class="cls-17" d="M530.17,911.5c-3.2,2,3.7,2.5,7.5,2.5,1,0,7-2.5,13.5-3.5,6.5-1,7,0,6-2.5s-11.5-3-16.01,0-7,1-11,3.5Z"/>
    <path class="cls-12" d="M556.18,920.5c-.8-2.8-12.3-5.5-18.01-6.5,1.6-1.6,13.3-3.7,19.01-4.5,2.2,1.8,6.5,6.6,6.5,11,0,5.5,5,5,3.5,6s-10-2.5-11-6Z"/>
    <path class="cls-13" d="M545.78,915.3h1.2c.7-.1,1.3-.3,2-.4.8-.1,1.7-.2,2.5-.2.3,0,.7,0,.9.1.3.2.6.6.8.8.5.5,1.1.7,1.1,1.5,0,.7-.5.8-1.2,1"/>
    <path class="cls-13" d="M551.78,911c.7,0,1.2.4,1.6.8,1,.9,1.8,2.1,3.4,1.8.8-.2,1.6-.9,2.5-.8.1,0,.2.1.4.1"/>
    <path class="cls-13" d="M561.48,919h-2c-.4,0-.9.1-1.1.5-.6,1.1,1.2,1.8,1.7,2.7.3.7,0,1.2.1,1.9s1.3.8,1.9.8c.8,0,1.6-.5,1.3-1.4-.1-.4-.5-.7-.7-1.1-.2-.3-.4-.7-.6-1.1-.3-.8.2-1.9-.4-2.7"/>
    <path class="cls-2" d="M499.16,912.5c4.4-2,10.5.8,13,2.5.7,1.7.9,4.8-3.5,4-5.5-1-10.5,4-15,7s-7-3-2-6c5-3,2-5,7.5-7.5Z"/>
    <path class="cls-13" d="M491.56,920.1c-.3.6-.8,1.2-.4,1.9s1.1.6,1.7.4c.7-.3,1.4-.7,2.1-.7.7-.1,1.5,0,2.1-.3.6-.4.2-1.2,0-1.7-.3-.5-.8-.8-1.3-1.1-.6-.4-.8-.7-.6-1.4"/>
    <path class="cls-13" d="M502.37,913.9c-.2.1-.9.6-.8.9.3.5,1.2.4,1.7.7.5.2.9.6,1.3.8.5.2,1.4.3,1.9,0,.2-.2.4-.4.6-.7.2-.6-.2-.9-.6-1.2-.4-.2-.8-.5-1.3-.5-.2,0-.4,0-.7-.1-.4-.2-.8-.5-1.3-.5-.3,0-.6.3-.9.3"/>
    <path class="cls-13" d="M508.47,913.6c.7.2,1.8.3,2.4.9.2.3.1.9.1,1.2-.2.8-.8,1.5-1.4,2.1-.1.1-.9.7-.5.9"/>
    <path class="cls-13" d="M500.26,920.8c.1-.6,0-1.2.1-1.8.1-.3.2-.6.4-.8.3-.2.8-.2,1.1-.2.4,0,.7.3,1,.6s.5.3.9.3"/>
    <path class="cls-17" d="M460.65,913.5c21.01-1.7,63.82-5.1,67.02-5.5,4-.5,24.01-5,29.51-4s16.01-1,16.51,6"/>
    <path class="cls-20" d="M1258.11,754.5c-4.2.5-3.3,5.5-2.3,8.3,1.2,3.3,3,6.9.7,10"/>
    <path class="cls-20" d="M1266.92,743.5v1.2c0,1.1,1,1.1,1.5,1.8,1.3,1.6.8,4-.1,5.6"/>
    <path class="cls-20" d="M1299.23,752.5c-.7.8-.2,3.1.2,3.9.8,2.1,3.1,4.6,1.2,6.7"/>
    <path class="cls-20" d="M1304.33,738.5c-.3,1.3-.6,2.9-.3,4.2.6,2.1,2.5,3.9,3.7,5.7,1.3,2.1,2.4,4.4,2.4,6.9,0,1.7-.5,3.1-1,4.7"/>
    <path class="cls-13" d="M501.26,896.4c-1.1.6-.4,3,.2,3.7.8,1,1.3,1.7,1.6,3,.1.7.5,1.9,0,2.4"/>
    <path class="cls-13" d="M505.27,900c0,1.2.8,2.1,1.3,3.2.3.8.3,1.8.1,2.6"/>
    <path class="cls-13" d="M550.48,887.9c0,1.8-.6,4.8.4,6.3,1.6,2.4,2.6,2,2.1,5.3"/>
    <path class="cls-13" d="M347.91,889.5c-2.2.2-2.5,3.3-2.1,4.9.3,1.4,1.4,2.4,1.7,3.8.2.8.2,1.5.2,2.4"/>
    <path class="cls-13" d="M364.02,893.7c0,1.2.5,2,1.1,3,.9,1.3.7,4.2.1,5.6"/>
    <path class="cls-13" d="M371.02,895.5c-.8,2.1-.3,3.8.6,5.8.2.5.3.8.3,1.3"/>
    <path class="cls-13" d="M454.35,899c-1,1.4-.9,3.8-.4,5.3.4,1.1,1.1,1.9,1.5,2.9.6,1.4.7,2.8.8,4.3"/>
    <path class="cls-17" d="M377.62,908.1c.4-1.6,1.4-9.4,1.9-13,86.83,11,137.85-3.5,137.85,0,0,2.8,2.9,9.9,4.3,13-34.31,6.5-144.55,2-144.05,0Z"/>
    <path class="cls-17" d="M421.14,895.4c-.8,1.6,1,3,2,3.5,3.5,0,5,0,8-1.5s11.5-2,16.01-1.5,6.5-3,4-3-4-1-10-1-5.5,2.5-10,2.5-9-1-10,1Z"/>
    <path class="cls-8" d="M440.14,903.4c-4.4-.8-10.8-3-13.5-4,.5,0,6-2.5,9.5-3.5s6-.5,10,0,2.5-1,4.5-.5,1,5.5,0,9,2.5,3.5,4,5.5-3.5,0-6,0-3-5.5-8.5-6.5Z"/>
    <path class="cls-13" d="M432.64,901.4c.4,0,.8,0,1.2-.1.9-.1,1.6-.6,2.5-.9.9-.3,2.1-.6,3-.3.4.1.8.3,1,.7.2.3.2.7.5.9.6.6,2.2.5,2.3,1.5,0,.3-.1.4-.1.6"/>
    <path class="cls-13" d="M446.45,898.2c-.8,0-1.6.4-1.4,1.3.1.6.5.9,1,1.2.4.2,1.2.3,1.4.7.3.5.1,1.2.3,1.8.2.6,1,.7,1.5.6,1-.1,2.1-1.1,2-2.2-.1-1-.8-1.3-1.4-1.8-.3-.2-.5-.6-.7-.9-.1-.2-.2-.5-.3-.7-.2-.5-.9-.4-1.3-.4-.6,0-.9.4-1.4.7"/>
    <path class="cls-13" d="M446.15,907.5c1-.6,2.2,0,2.8.8.3.4.5,1.1,1,1.4.3.1.9.1,1.1.3"/>
    <path class="cls-13" d="M434.84,896.5h.8c.6.1,1,.6,1.5.9.4.2.8.3,1.3.2.6,0,1.2,0,1.7-.3.4-.2.7-.5,1.1-.7s.9-.1,1.3,0c.6,0,.6-.6.5-1"/>
    <path class="cls-17" d="M380.63,895.2v-1.7c12.9,1,39.01,3,40.01,3"/>
    <path class="cls-17" d="M452.15,896.9c19.51-1.8,59.12-5.4,61.52-5,2.4.4,3.3,2.5,3.5,3.5"/>
    <path class="cls-13" d="M422.44,874.6c-2.2.2-2.5,3.3-2.1,4.9.3,1.4,1.4,2.4,1.7,3.8.2.8.2,1.5.2,2.4"/>
    <path class="cls-13" d="M438.54,879.1c0,1.2.5,2,1.1,3,.9,1.4.7,4.2.1,5.6"/>
    <path class="cls-13" d="M445.25,882.8c-.8,2.1-.3,3.8.6,5.8.2.5.3.8.3,1.3"/>
    <path class="cls-13" d="M528.87,884.4c-1,1.4-.9,3.8-.4,5.3.4,1.1,1.1,1.9,1.5,2.9.6,1.4.7,2.8.8,4.3"/>
    <path class="cls-6" d="M1657.34,813c2-54.7-4.6-165.7-47.02-172.5-53.02-8.5,41.01,2.5,36.01,172.5"/>
    <path class="cls-5" d="M2501.32,937.8v-60.4h60.52v-53.29h77.53v-108.61h400.63"/>
    <path class="cls-5" d="M2501.32,877.4h60.52v-19.29"/>
    <path class="cls-5" d="M2656.37,728.19l6.5,10.15M2662.87,738.34l-6.5,5.58M2662.87,738.34l11,3.05M2662.87,738.34l11-10.15-11-5.08h14"/>
    <path class="cls-5" d="M2751.4,823.6l28.51-17.26-14-20.3M2765.91,786.05l35.01-12.69M2765.91,786.05l-9-4.57M2765.91,786.05v6.09"/>
    <path class="cls-5" d="M2821.43,734.28l9.2,4.06M2831.43,751.03l8.5-8.63-9.2-4.06M2830.63,738.34l5.2-4.06"/>
    <path class="cls-5" d="M2562.84,874.36l33.51,23.35-21.01,3.55"/>
    <path class="cls-5" d="M2586.85,890.09l12-6.09"/>
    <path class="cls-5" d="M2728.4,876.39l-12,12.99M2704.39,902.27l12-12.99M2716.39,889.28l-8.5-5.28M2716.39,889.28v-8.93l5.5-4.06"/>
    <path class="cls-5" d="M2912.46,791.63l24.51,12.18M2936.96,803.81l-5-22.84,22.01-9.64M2936.96,803.81h8M2944.97,803.81v9.64M2944.97,803.81v-6.09h9"/>
    <line class="cls-4" x1="2639.04" y1="823.61" x2="3042.17" y2="825.64"/>
    <line class="cls-5" x1="2639.37" y1="769.81" x2="3041.5" y2="771.84"/>
    <path class="cls-10" d="M2562.34,876.39h479.16"/>
    <path class="cls-5" d="M2562.34,875.88v56.84"/>
    <path class="cls-5" d="M2613.36,824.11v103.54"/>
    <path class="cls-5" d="M2690.38,717.53v103.54"/>
    <path class="cls-5" d="M2821.43,823.1v103.54"/>
    <path class="cls-5" d="M2898.45,719.56v103.54"/>
    <path class="cls-5" d="M2665.38,824.11v104.55"/>
    <path class="cls-5" d="M2742.4,717.53v104.55"/>
    <path class="cls-5" d="M2873.44,823.1v104.55"/>
    <path class="cls-5" d="M2950.47,719.56v104.55"/>
    <path class="cls-5" d="M2718.39,824.11v104.55"/>
    <path class="cls-5" d="M2795.42,718.55v104.55"/>
    <path class="cls-5" d="M2926.46,823.1v104.55"/>
    <path class="cls-5" d="M3003.49,719.56v104.55"/>
    <path class="cls-5" d="M2770.41,822.08v104.55"/>
    <path class="cls-5" d="M2847.44,718.55v104.55"/>
    <path class="cls-14" d="M2978.48,824.73v100.89"/>
    <path class="cls-5" d="M3025.49,824.11v104.55"/>
    <path class="cls-23" d="M1200.24,904.8c3.59-6.28,5.65-13.55,5.65-21.3v-38c0-23.7-19.21-43-43.01-43h-199.07c-23.71,0-43.01,19.3-43.01,43v38c0,7.74,2.07,15.01,5.67,21.3h-21.38v26h316.21v-26h-21.06Z"/>
    <rect class="cls-18" x="2490.32" y="933.8" width="27.01" height="5"/>
    <rect class="cls-18" x="3027.5" y="933.8" width="14" height="23"/>
    <rect class="cls-18" x="1.5" y="933.45" width="8" height="22.9"/>
    <rect class="cls-23" x="1352.96" y="918.05" width="28.2" height="4.78"/>
    <rect class="cls-23" x="3033.55" y="712.28" width="7.95" height="4.7"/>
  </g>
</svg>