<?xml version="1.0" encoding="utf-8"?>
<!-- Generator: Adobe Illustrator 28.0.0, SVG Export Plug-In . SVG Version: 6.00 Build 0)  -->
<svg version="1.1" id="Layer_1" xmlns="http://www.w3.org/2000/svg" xmlns:xlink="http://www.w3.org/1999/xlink" x="0px" y="0px"
	 viewBox="0 0 3047 300" style="enable-background:new 0 0 3047 300;" xml:space="preserve">
<style type="text/css">
	.st0{opacity:0.5;}
	.st1{fill:none;stroke:#FFFFFF;stroke-width:10;stroke-miterlimit:10;}
	.st2{fill:none;stroke:#FFFFFF;stroke-width:10;stroke-miterlimit:10;stroke-dasharray:102.2069,102.2069;}
	.st3{fill:#D3D3D3;}
</style>
<g>
	
		<image style="overflow:visible;enable-background:new    ;" width="3153" height="578" xlink:href="3E744A2EEA06EE68.png"  transform="matrix(1 0 0 1 -53 -139)">
	</image>
</g>
<g class="st0">
	<g>
		<line class="st1" x1="-17" y1="150" x2="33" y2="150"/>
		<line class="st2" x1="135.2" y1="150" x2="2945.9" y2="150"/>
		<line class="st1" x1="2997" y1="150" x2="3047" y2="150"/>
	</g>
</g>
<g>
	<rect x="-4.9" y="287.7" class="st3" width="83.6" height="33.2"/>
	<rect x="85.2" y="287.7" class="st3" width="83.6" height="33.2"/>
	<rect x="175.3" y="287.7" class="st3" width="83.6" height="33.2"/>
	<rect x="265.4" y="287.7" class="st3" width="83.6" height="33.2"/>
	<rect x="355.5" y="287.7" class="st3" width="83.6" height="33.2"/>
	<rect x="445.6" y="287.7" class="st3" width="83.6" height="33.2"/>
	<rect x="535.7" y="287.7" class="st3" width="83.6" height="33.2"/>
	<rect x="625.7" y="287.7" class="st3" width="83.6" height="33.2"/>
	<rect x="715.8" y="287.7" class="st3" width="83.6" height="33.2"/>
	<rect x="805.9" y="287.7" class="st3" width="83.6" height="33.2"/>
	<rect x="896" y="287.7" class="st3" width="83.6" height="33.2"/>
	<rect x="986.1" y="287.7" class="st3" width="83.6" height="33.2"/>
	<rect x="1076.2" y="287.7" class="st3" width="83.6" height="33.2"/>
	<rect x="1166.3" y="287.7" class="st3" width="83.6" height="33.2"/>
	<rect x="1256.4" y="287.7" class="st3" width="83.6" height="33.2"/>
	<rect x="1346.5" y="287.7" class="st3" width="83.6" height="33.2"/>
	<rect x="1436.6" y="287.7" class="st3" width="83.6" height="33.2"/>
	<rect x="1526.7" y="287.7" class="st3" width="83.6" height="33.2"/>
	<rect x="1616.8" y="287.7" class="st3" width="83.6" height="33.2"/>
	<rect x="1706.9" y="287.7" class="st3" width="83.6" height="33.2"/>
	<rect x="1797" y="287.7" class="st3" width="83.6" height="33.2"/>
	<rect x="1887.1" y="287.7" class="st3" width="83.6" height="33.2"/>
	<rect x="1977.2" y="287.7" class="st3" width="83.6" height="33.2"/>
	<rect x="2067.3" y="287.7" class="st3" width="83.6" height="33.2"/>
	<rect x="2157.4" y="287.7" class="st3" width="83.6" height="33.2"/>
	<rect x="2247.5" y="287.7" class="st3" width="83.6" height="33.2"/>
	<rect x="2337.6" y="287.7" class="st3" width="83.6" height="33.2"/>
	<rect x="2427.7" y="287.7" class="st3" width="83.6" height="33.2"/>
	<rect x="2517.8" y="287.7" class="st3" width="83.6" height="33.2"/>
	<rect x="2607.9" y="287.7" class="st3" width="83.6" height="33.2"/>
	<rect x="2698" y="287.7" class="st3" width="83.6" height="33.2"/>
	<rect x="2788.1" y="287.7" class="st3" width="83.6" height="33.2"/>
	<rect x="2878.2" y="287.7" class="st3" width="83.6" height="33.2"/>
	<rect x="2968.3" y="287.7" class="st3" width="83.6" height="33.2"/>
</g>
<g>
	<rect x="-4.9" y="-20.9" class="st3" width="83.6" height="33.2"/>
	<rect x="85.2" y="-20.9" class="st3" width="83.6" height="33.2"/>
	<rect x="175.3" y="-20.9" class="st3" width="83.6" height="33.2"/>
	<rect x="265.4" y="-20.9" class="st3" width="83.6" height="33.2"/>
	<rect x="355.5" y="-20.9" class="st3" width="83.6" height="33.2"/>
	<rect x="445.6" y="-20.9" class="st3" width="83.6" height="33.2"/>
	<rect x="535.7" y="-20.9" class="st3" width="83.6" height="33.2"/>
	<rect x="625.7" y="-20.9" class="st3" width="83.6" height="33.2"/>
	<rect x="715.8" y="-20.9" class="st3" width="83.6" height="33.2"/>
	<rect x="805.9" y="-20.9" class="st3" width="83.6" height="33.2"/>
	<rect x="896" y="-20.9" class="st3" width="83.6" height="33.2"/>
	<rect x="986.1" y="-20.9" class="st3" width="83.6" height="33.2"/>
	<rect x="1076.2" y="-20.9" class="st3" width="83.6" height="33.2"/>
	<rect x="1166.3" y="-20.9" class="st3" width="83.6" height="33.2"/>
	<rect x="1256.4" y="-20.9" class="st3" width="83.6" height="33.2"/>
	<rect x="1346.5" y="-20.9" class="st3" width="83.6" height="33.2"/>
	<rect x="1436.6" y="-20.9" class="st3" width="83.6" height="33.2"/>
	<rect x="1526.7" y="-20.9" class="st3" width="83.6" height="33.2"/>
	<rect x="1616.8" y="-20.9" class="st3" width="83.6" height="33.2"/>
	<rect x="1706.9" y="-20.9" class="st3" width="83.6" height="33.2"/>
	<rect x="1797" y="-20.9" class="st3" width="83.6" height="33.2"/>
	<rect x="1887.1" y="-20.9" class="st3" width="83.6" height="33.2"/>
	<rect x="1977.2" y="-20.9" class="st3" width="83.6" height="33.2"/>
	<rect x="2067.3" y="-20.9" class="st3" width="83.6" height="33.2"/>
	<rect x="2157.4" y="-20.9" class="st3" width="83.6" height="33.2"/>
	<rect x="2247.5" y="-20.9" class="st3" width="83.6" height="33.2"/>
	<rect x="2337.6" y="-20.9" class="st3" width="83.6" height="33.2"/>
	<rect x="2427.7" y="-20.9" class="st3" width="83.6" height="33.2"/>
	<rect x="2517.8" y="-20.9" class="st3" width="83.6" height="33.2"/>
	<rect x="2607.9" y="-20.9" class="st3" width="83.6" height="33.2"/>
	<rect x="2698" y="-20.9" class="st3" width="83.6" height="33.2"/>
	<rect x="2788.1" y="-20.9" class="st3" width="83.6" height="33.2"/>
	<rect x="2878.2" y="-20.9" class="st3" width="83.6" height="33.2"/>
	<rect x="2968.3" y="-20.9" class="st3" width="83.6" height="33.2"/>
</g>
</svg>
