<?xml version="1.0" encoding="utf-8"?>
<!-- Generator: Adobe Illustrator 28.1.0, SVG Export Plug-In . SVG Version: 6.00 Build 0)  -->
<svg version="1.1" id="Layer_1" xmlns="http://www.w3.org/2000/svg" xmlns:xlink="http://www.w3.org/1999/xlink" x="0px" y="0px"
	 viewBox="0 0 3040 858" style="enable-background:new 0 0 3040 858;" xml:space="preserve">
<style type="text/css">
	.st0{clip-path:url(#SVGID_00000091013662351614007460000012687698528532872884_);}
	.st1{fill:#59865F;}
	.st2{fill:none;}
	.st3{fill:none;stroke:#59865F;stroke-width:7;}
	.st4{fill:#3A523D;}
	.st5{fill:none;stroke:#59865F;}
	.st6{fill:#3A523D;stroke:#59865F;stroke-width:7;}
	.st7{fill:none;stroke:#59865F;stroke-width:7;stroke-linecap:round;}
	.st8{fill:#59865F;stroke:#59865F;stroke-width:7;}
	.st9{fill:#59865F;stroke:#3A523D;stroke-width:2;}
	.st10{fill:none;stroke:#59865F;stroke-width:4;}
	.st11{fill:none;stroke:#59865F;stroke-width:2;}
	.st12{fill:#3A523D;stroke:#59865F;stroke-width:2;}
	.st13{fill:none;stroke:#59865F;stroke-width:2;stroke-linecap:round;}
	.st14{fill:#3A523D;stroke:#3A523D;stroke-width:7;}
	.st15{fill:#3A523D;stroke:#59865F;}
	.st16{fill:none;stroke:#3A523D;stroke-width:7;}
	.st17{fill:#69BB5D;stroke:#59865F;stroke-width:2;}
	.st18{fill:#69BB5C;stroke:#59865F;stroke-width:2;}
	.st19{fill:none;stroke:#3A523D;stroke-width:2;stroke-linecap:round;}
</style>
<g>
	<g>
		<defs>
			<rect id="SVGID_1_" width="3040" height="858"/>
		</defs>
		<clipPath id="SVGID_00000112634415391910973460000003033877065674345657_">
			<use xlink:href="#SVGID_1_"  style="overflow:visible;"/>
		</clipPath>
		<g style="clip-path:url(#SVGID_00000112634415391910973460000003033877065674345657_);">
			<rect class="st1" width="3039" height="858"/>
			<rect y="47" class="st2" width="1972" height="752"/>
			<rect x="1107.5" y="74.5" class="st3" width="23" height="328"/>
			<rect y="-105" class="st4" width="3040" height="963"/>
			<rect y="-105" class="st5" width="3040" height="963"/>
			<rect x="788.5" y="114.5" class="st6" width="46" height="109"/>
			<path class="st3" d="M718,427V54h1583v373H718z"/>
			<rect x="-8.5" y="824.5" class="st6" width="3047" height="30"/>
			<rect x="735.5" y="74.5" class="st6" width="1540" height="328"/>
			<rect x="1100.5" y="74.5" class="st3" width="23" height="328"/>
			<rect x="1885.5" y="74.5" class="st3" width="23" height="328"/>
			<rect x="1489.5" y="74.5" class="st3" width="23" height="328"/>
			<rect x="1512.5" y="270.5" class="st6" width="46" height="132"/>
			<rect x="1512.5" y="197.5" class="st6" width="46" height="74"/>
			<rect x="1604.5" y="74.5" class="st6" width="47" height="108"/>
			<rect x="1604.5" y="262.5" class="st6" width="47" height="140"/>
			<rect x="1604.5" y="182.5" class="st6" width="47" height="81"/>
			<rect x="1558.5" y="74.5" class="st6" width="46" height="230"/>
			<rect x="1558.5" y="230.5" class="st6" width="46" height="172"/>
			<rect x="1696.5" y="114.5" class="st6" width="48" height="109"/>
			<rect x="1650.5" y="74.5" class="st6" width="46" height="230"/>
			<rect x="1650.5" y="230.5" class="st6" width="46" height="172"/>
			<rect x="1792.5" y="262.5" class="st6" width="46" height="140"/>
			<rect x="1792.5" y="189.5" class="st6" width="46" height="74"/>
			<rect x="1746.5" y="74.5" class="st6" width="46" height="230"/>
			<rect x="1746.5" y="230.5" class="st6" width="46" height="172"/>
			<rect x="1746.5" y="114.5" class="st6" width="46" height="109"/>
			<rect x="1743.5" y="74.5" class="st6" width="46" height="230"/>
			<rect x="1743.5" y="230.5" class="st6" width="46" height="172"/>
			<rect x="1838.5" y="74.5" class="st6" width="46" height="230"/>
			<rect x="1838.5" y="230.5" class="st6" width="46" height="172"/>
			<rect x="735.5" y="74.5" class="st6" width="46" height="108"/>
			<rect x="735.5" y="255.5" class="st6" width="46" height="147"/>
			<rect x="735.5" y="181.5" class="st6" width="46" height="74"/>
			<rect x="827.5" y="270.5" class="st6" width="46" height="132"/>
			<rect x="827.5" y="197.5" class="st6" width="46" height="74"/>
			<rect x="781.5" y="74.5" class="st6" width="46" height="230"/>
			<rect x="781.5" y="222.5" class="st6" width="46" height="180"/>
			<rect x="782.5" y="114.5" class="st6" width="45" height="109"/>
			<rect x="873.5" y="74.5" class="st6" width="47" height="230"/>
			<rect x="873.5" y="230.5" class="st6" width="47" height="172"/>
			<rect x="1012.5" y="270.5" class="st6" width="46" height="132"/>
			<rect x="1008.5" y="196.5" class="st6" width="46" height="74"/>
			<rect x="966.5" y="74.5" class="st6" width="46" height="230"/>
			<rect x="966.5" y="230.5" class="st6" width="46" height="172"/>
			<rect x="920.5" y="74.5" class="st6" width="46" height="230"/>
			<rect x="920.5" y="303.5" class="st6" width="46" height="99"/>
			<rect x="1054.5" y="114.5" class="st6" width="46" height="109"/>
			<rect x="1054.5" y="74.5" class="st6" width="46" height="230"/>
			<rect x="1054.5" y="230.5" class="st6" width="46" height="172"/>
			<rect x="1123.5" y="270.5" class="st6" width="47" height="132"/>
			<rect x="1123.5" y="198.5" class="st6" width="47" height="74"/>
			<rect x="1215.5" y="74.5" class="st6" width="47" height="108"/>
			<rect x="1216.5" y="256.5" class="st6" width="46" height="146"/>
			<rect x="1216.5" y="182.5" class="st6" width="46" height="77"/>
			<rect x="1170.5" y="74.5" class="st6" width="46" height="230"/>
			<rect x="1170.5" y="230.5" class="st6" width="46" height="172"/>
			<rect x="1261.5" y="74.5" class="st6" width="46" height="230"/>
			<rect x="1261.5" y="230.5" class="st6" width="46" height="172"/>
			<rect x="1396.5" y="270.5" class="st6" width="47" height="132"/>
			<rect x="1396.5" y="196.5" class="st6" width="47" height="74"/>
			<rect x="1350.5" y="74.5" class="st6" width="46" height="230"/>
			<rect x="1354.5" y="230.5" class="st6" width="42" height="172"/>
			<rect x="1350.5" y="114.5" class="st6" width="46" height="109"/>
			<rect x="1307.5" y="74.5" class="st6" width="46" height="230"/>
			<rect x="1443.5" y="74.5" class="st6" width="46" height="230"/>
			<rect x="1443.5" y="230.5" class="st6" width="46" height="172"/>
			<rect x="1909.5" y="189.5" class="st6" width="46" height="74"/>
			<rect x="2000.5" y="74.5" class="st6" width="47" height="108"/>
			<rect x="2000.5" y="270.5" class="st6" width="47" height="132"/>
			<rect x="2000.5" y="182.5" class="st6" width="47" height="88"/>
			<rect x="1955.5" y="74.5" class="st6" width="45" height="230"/>
			<rect x="1955.5" y="230.5" class="st6" width="45" height="172"/>
			<rect x="2047.5" y="74.5" class="st6" width="45" height="230"/>
			<rect x="2047.5" y="230.5" class="st6" width="45" height="172"/>
			<rect x="2139.5" y="270.5" class="st6" width="45" height="132"/>
			<rect x="2139.5" y="196.5" class="st6" width="45" height="74"/>
			<rect x="2184.5" y="74.5" class="st6" width="45" height="156"/>
			<rect x="2092.5" y="74.5" class="st6" width="46" height="230"/>
			<rect x="2714.5" y="329.5" class="st6" width="45" height="50"/>
			<rect x="2714.5" y="309.5" class="st6" width="45" height="110"/>
			<rect x="2819.5" y="366.5" class="st6" width="45" height="33"/>
			<rect x="2766.5" y="329.5" class="st6" width="46" height="50"/>
			<rect x="2766.5" y="309.5" class="st6" width="46" height="110"/>
			<rect x="2092.5" y="270.5" class="st6" width="46" height="132"/>
			<rect x="2229.5" y="74.5" class="st6" width="46" height="230"/>
			<rect x="2229.5" y="197.5" class="st6" width="46" height="205"/>
			<path class="st6" d="M940.3,119.9c4.7-2.9,10.6-2.9,15.3,0l79.1,49.3c12.4,7.7,6.9,26.8-7.7,26.8H868.9c-14.6,0-20-19.1-7.7-26.8
				L940.3,119.9z"/>
			<path class="st7" d="M946.2,117.7c-3.5,0-6.3,1.7-9.4,3.2c-6.7,3.3-13,7-18.9,11.7c-8.1,6.4-14.9,14.2-21.4,22.2
				c-7.1,8.7-13.8,17.8-17.4,28.5c-1.1,3.4-3.7,8.6-3.7,12.3"/>
			<path class="st7" d="M944.9,116.4c-0.2,0.8-2.7,0.5-3.4,0.7c-4.6,1.5-8.4,4.7-11.8,8.2c-5.4,5.5-7.6,11.6-11,18.4
				c-3.3,6.5-6.3,13.2-8.2,20.3c-2.9,10.4-5,21.4-5,32.2"/>
			<path class="st7" d="M945.3,118.6c-0.4,2.7-2.5,5.4-3.6,7.8c-2.2,4.8-3.9,9.5-4.9,14.8c-2.2,11.2-3.7,22.6-3.7,34.1
				c0,6.9,0.5,14.2,0.5,20.8"/>
			<path class="st7" d="M939,119c-1.9,0.6-3.7,4.6-4.4,6.2c-2.2,5.1-4.8,10.1-6.5,15.5c-3.8,12.4-7.7,25.3-8.8,38.3
				c-0.3,3.4-0.2,6.9-0.2,10.3c0,1.3-0.3,2.9,0,4.2c0.4,1.8,0.8,3.8,1,5.7"/>
			<path class="st7" d="M861.9,195.5c-0.4-3.7-0.7-7.4-0.2-11.1c0.8-5,3.7-9.3,6-13.6c2.2-3.9,5.1-6.9,7.8-10.4c1-1.3,2-2.1,3.2-3.2
				c1.2-1.1,2.5-3.1,4.1-3.6"/>
			<path class="st7" d="M946,117.4c3.5,0,6.3,1.7,9.4,3.2c6.7,3.3,13,7,18.9,11.7c8.1,6.4,14.9,14.2,21.4,22.2
				c7.1,8.7,13.8,17.8,17.4,28.5c1.1,3.4,3.7,8.6,3.7,12.3"/>
			<path class="st7" d="M947.4,116c0.2,0.8,2.7,0.5,3.4,0.7c4.6,1.5,8.4,4.7,11.8,8.2c5.4,5.5,7.6,11.6,11,18.4
				c3.3,6.5,6.3,13.2,8.2,20.3c2.9,10.4,5,21.4,5,32.2"/>
			<path class="st7" d="M946.9,118.3c0.4,2.7,2.5,5.4,3.6,7.8c2.2,4.8,3.9,9.5,4.9,14.8c2.2,11.2,3.7,22.6,3.7,34.1
				c0,6.8-0.5,14.2-0.5,20.8"/>
			<path class="st7" d="M953,118c1.8,0.6,3.5,4.7,4.2,6.2c2.1,5.2,4.6,10.2,6.2,15.7c3.6,12.6,7.3,25.7,8.4,38.8
				c0.3,3.5,0.2,6.9,0.2,10.4c0,1.3,0.3,2.9,0,4.2c-0.4,1.8-0.8,3.8-0.9,5.7"/>
			<path class="st7" d="M1030.5,195c0.4-3.9,0.8-8,0.2-11.9c-0.9-5.3-4.3-10-7-14.6c-2.5-4.2-6-7.4-9.2-11.1
				c-1.1-1.4-2.3-2.3-3.7-3.5s-2.9-3.3-4.7-3.9"/>
			<path class="st8" d="M993.3,202.8c2,8-0.8,10.6-2.5,10.9c-5.8,2.8-5.6-16.4-6.7-22.7c-1.2-6.3,9.2-7.2,9.2-4.6
				C993.3,189,990.8,192.7,993.3,202.8z"/>
			<path class="st8" d="M858.7,193.7c-2,6.7,0.8,8.8,2.5,9c5.8,2.4,5.6-13.6,6.7-18.8c1.2-5.2-9.2-6-9.2-3.8
				C858.7,182.3,861.2,185.4,858.7,193.7z"/>
			<path class="st8" d="M907.6,212.4c-1-6.3-11.2-7.6-16.2-7.4c-3.6,2.5,0,21-6.1,28.9c-6.1,7.8,1.2,12,6.1,15.7
				c4.9,3.7,6.5,15.3,13.8,16.9s16.6,0,14.6-9.5s-10.5-2.1-16.2-18.6C897.9,221.9,908.8,220.3,907.6,212.4z"/>
			<path class="st8" d="M896.7,202.8c-2,8,0.8,10.6,2.5,10.9c5.8,2.8,5.6-16.4,6.7-22.7c1.2-6.3-9.2-7.2-9.2-4.6
				C896.7,189,899.2,192.7,896.7,202.8z"/>
			<path class="st7" d="M887.4,230.6c1.5,0,2.6,1.8,3.1,3c0.5,1.1,0.8,2.3,1,3.5c0.3,2,0.5,4.4,0.1,6.4c-0.3,1.6-0.7,3.1-1.2,4.6"/>
			<path class="st7" d="M916.8,252.6c-1.1,0-2.1,0-3.2,0c-1.7,0-3,0.7-4.5,1.5c-2.1,1.1-3.4,3.9-4.1,6.1c-0.5,1.5-0.7,3.9,0.1,5.2"
				/>
			<path class="st8" d="M870,205.5c-0.4-6.4-9.8-4.7-14.5-3c-3.5,1,1,14.5-2,24s0,8,5.5,16s16.5,5,19-3.5s-2.5-5.5-8-12.5
				S870.5,213.5,870,205.5z"/>
			<path class="st7" d="M854.6,226.6c5.1,0,8.5,3.2,9.8,8c1,3.7,0.1,7.1-1.6,10.3"/>
			<path class="st7" d="M874.3,231.2c0,0.3-0.2,0.7-0.2,1c-0.1,0.8-0.2,1.6-0.1,2.4c0.1,0.7,0.2,1.2,0.6,1.8
				c0.3,0.5,0.7,0.8,1.1,1.2c0.4,0.4,0.9,0.9,1.4,1.2"/>
			<path class="st8" d="M978.5,216.5c0.4-8,12.8-10,19-10c8.5,2.5,0,27,5,39s-3,12.5-10.5,23s-15.5,20.5-26,20s-9-9-5.5-12.5
				s10.5-12,18-24.5S978,226.5,978.5,216.5z"/>
			<path class="st7" d="M962.3,275.1c1.9,0,4.1-0.3,5.9,0.6c1.6,0.8,3.2,2.2,4.3,3.5c1.5,1.8,2.4,4.9,2.4,7.3"/>
			<path class="st7" d="M1000.7,243.1c-1.6,2.4-3.7,5.4-4.1,8.4c-0.2,1.6-0.2,3.2,0,4.8c0.1,1.2,0.7,2.5,1.2,3.6"/>
			<path class="st7" d="M982,218.5c0,2.1,1.2,4,1.2,6.1"/>
			<path class="st7" d="M987.9,217.7c0,0.9,0,1.9,0.2,2.8"/>
			<path class="st7" d="M997.3,214.2c0,1.7-0.2,3.4-0.2,5.1"/>
			<path class="st7" d="M892.6,216.2v6.1"/>
			<path class="st7" d="M896.7,219.5v1.7"/>
			<path class="st7" d="M856.8,205.2c0,2.7-0.1,5.5,0.1,8.2"/>
			<path class="st7" d="M858.9,205c0,1.9,0,3.9,0.1,5.8c0.1,1.3,0.2,2.5,0.2,3.8"/>
			<path class="st7" d="M903.9,217.2c-2.5,2.2-3.3,5.2-4.1,8.4"/>
			<path class="st8" d="M1024.5,201.7c-2-11.2,5.2-12.3,9-11.5c9,0,10.5,9.5,8,18.5s3,12,6,22.5s-14,33.5-23,30.5s-5.5-9,0-19.5
				S1027,215.7,1024.5,201.7z"/>
			<path class="st8" d="M1036.3,194.5c2,6.1-0.8,8.1-2.5,8.3c-5.8,2.2-5.6-12.4-6.7-17.2s9.2-5.5,9.2-3.5
				C1036.3,184,1033.8,186.9,1036.3,194.5z"/>
			<path class="st7" d="M1021.5,248.4c3.4,0,6.4-0.4,8.6,2.8c1.1,1.6,1.2,4.3,1.2,6.2"/>
			<path class="st7" d="M1027.4,199.7c0,1.1,0.4,2.1,0.7,3.2c0.6,2.6,1.2,5.1,1.8,7.7"/>
			<path class="st7" d="M1031.2,202c0,1.3,0.2,2.5,0.4,3.8c0.2,1.5,0.3,3.1,0.4,4.6"/>
			<path class="st7" d="M1036,202.8v5.4"/>
			<path class="st3" d="M854,185.5c36.3,1.3,125.1,3.2,189.5,0"/>
			<path class="st9" d="M817,583h484c32.6,0,59,26.4,59,59v44c0,32.6-26.4,59-59,59H817c-32.6,0-59-26.4-59-59v-44
				C758,609.4,784.4,583,817,583z"/>
			<path class="st1" d="M1154,737c0-23.7,19.2-43,43-43h168c23.8,0,43,19.3,43,43v38c0,23.7-19.2,43-43,43h-168
				c-23.8,0-43-19.3-43-43V737z"/>
			<path class="st4" d="M1154,737c0-27.6,22.4-50,50-50h154c27.6,0,50,22.4,50,50c0-19.9-19.2-36-43-36h-168
				C1173.2,701,1154,717.1,1154,737z M1408,818h-254H1408z M1154,818V694V818z M1408,694v124V694z"/>
			<path class="st1" d="M718,746c0-23.7,19.3-43,43-43h171c23.7,0,43,19.3,43,43v38c0,23.7-19.3,43-43,43H761c-23.7,0-43-19.3-43-43
				V746z"/>
			<path class="st4" d="M718,746c0-27.6,22.4-50,50-50h157c27.6,0,50,22.4,50,50c0-19.9-19.3-36-43-36H761
				C737.3,710,718,726.1,718,746z M975,827H718H975z M718,827V703V827z M975,703v124V703z"/>
			<path class="st1" d="M920,740c0-23.7,19.3-43,43-43h199c23.8,0,43,19.3,43,43v38c0,23.7-19.2,43-43,43H963c-23.7,0-43-19.3-43-43
				V740z"/>
			<path class="st4" d="M920,740c0-27.6,22.4-50,50-50h185c27.6,0,50,22.4,50,50c0-19.9-19.2-36-43-36H963
				C939.3,704,920,720.1,920,740z M1205,821H920H1205z M920,821V697V821z M1205,697v124V697z"/>
			<path class="st3" d="M770,817h591"/>
			<rect x="1764.5" y="603.5" class="st6" width="10" height="215"/>
			<rect x="2100.5" y="597.5" class="st6" width="10" height="227"/>
			<path class="st3" d="M2503,832v-59.5h60.5V720h77.5V613h400.5"/>
			<path class="st3" d="M2503,772.5h60.5v-19"/>
			<path class="st3" d="M2563.5,720h77.5v-13.5"/>
			<path class="st3" d="M2641.5,613H3041"/>
			<path class="st8" d="M2976.5,344.5v134l32,25c20.8-38,24.3-121.8,23.5-159H2976.5z"/>
			<path class="st8" d="M2948,533.5c0,12.4-6.7,51.5-10,69.5h78l-10.5-127H2870C2878.5,540.5,2948,518,2948,533.5z"/>
			<path class="st3" d="M2976,352h56"/>
			<path class="st8" d="M2869.5,472.5h103c-7.8-2.5-29.3-7.4-52.5-7S2876.7,470.3,2869.5,472.5z"/>
			<rect x="2434.5" y="-101.5" class="st6" width="7" height="919"/>
			<rect x="2644.5" y="305.5" class="st3" width="248" height="118"/>
			<path class="st8" d="M2656.8,401.1c-13-24.4-11.6-71.7-9.2-92.3c19.5-7,80.2,0,73.7,12.7s-4.3,64.7,0,83.4
				c4.3,18.7,21.1,23.9,15.7,29.5c-5.4,5.6-9.2,0-20,0s-4.3,5.6-16.2,5.6s-7.6-5.6-17.9-5.6c-10.3,0-16.2,9.4-26,0
				C2647,425,2673,431.6,2656.8,401.1z"/>
			<path class="st8" d="M2882.1,401.1c16.8-24.4,14.9-71.7,11.9-92.3c-25.2-7-103.7,0-95.3,12.7s5.6,64.7,0,83.4
				c-5.6,18.7-27.3,23.9-20.3,29.5s11.9,0,25.9,0s5.6,5.6,21,5.6s9.8-5.6,23.1-5.6s21,9.4,33.6,0
				C2894.7,425,2861.1,431.6,2882.1,401.1z"/>
			<path class="st7" d="M2656.8,362.1c0,5.1-0.2,9.7,1.7,14.5c2.1,5.7,5.6,10.7,9.2,15.5c8.3,11,11.7,26.4,5.4,39"/>
			<path class="st7" d="M2684,373c5.4,6.5,9.1,15.7,12,23.5c3.1,8.3,4.4,17.3,3.1,26.1"/>
			<path class="st7" d="M2685.2,393.6c0.6,2.2,2.4,3.9,3,6.2c0.8,2.8,1.9,5.7,2.3,8.6c0.4,3.5,0.5,7.7-0.6,11.1
				c-0.8,2.4-2.4,4.3-2.9,6.8"/>
			<path class="st7" d="M2813.8,375.4c0,9.8,0.3,19.7-1.2,29.5c-1,6.7-2.5,13.4-5.3,19.5c-0.5,1.2-2.2,4.4-2.2,3.1"/>
			<path class="st7" d="M2849.4,357.6c0,11.3,0.5,22.7-0.4,34c-0.8,11-2.8,22-6.9,32.3c-1.1,2.8-2.1,4.9-4.5,6.6"/>
			<path class="st7" d="M2841.1,389.7c0,3.8,0.1,7.6-0.3,11.4c-1,10.7-4.2,19.8-8.8,29.4"/>
			<path class="st7" d="M2868.5,390.6c0,5.5-1.7,10.5-3.3,15.7c-2,6.6-3.3,13-3.7,19.9"/>
			<path class="st7" d="M2872.4,402.7c-0.2,4.9-3.3,9.1-3.4,14.1c-0.1,4.1,0,7,2.6,10.2"/>
			<path class="st7" d="M2805.1,404.5c0,10.5-9.5,20-20,20"/>
			<path class="st3" d="M2658,625.5l6.5,10 M2664.5,635.5l-6.5,5.5 M2664.5,635.5l11,3 M2664.5,635.5l11-10l-11-5h14"/>
			<path class="st3" d="M2753,719.5l28.5-17l-14-20 M2767.5,682.5l35-12.5 M2767.5,682.5l-9-4.5 M2767.5,682.5v6"/>
			<path class="st3" d="M2823,631.5l9.2,4 M2833,648l8.5-8.5l-9.2-4 M2832.2,635.5l5.2-4"/>
			<path class="st3" d="M2564.5,769.5l33.5,23l-21,3.5"/>
			<path class="st3" d="M2588.5,785l12-6"/>
			<path class="st3" d="M2730,771.5l-12,12.8 M2706,797l12-12.8 M2718,784.2l-8.5-5.2 M2718,784.2v-8.8l5.5-4"/>
			<path class="st3" d="M2914,688l24.5,12 M2938.5,700l-5-22.5l22-9.5 M2938.5,700h8 M2946.5,700v9.5 M2946.5,700v-6h9"/>
			<path class="st3" d="M2205,705.5c-2-54.7,4.6-165.7,47-172.5c53-8.5-41,2.5-36,172.5"/>
			<rect x="2129.5" y="708.5" class="st6" width="87" height="7"/>
			<rect x="2137" y="720" class="st10" width="4" height="99"/>
			<rect x="2210" y="720" class="st10" width="4" height="99"/>
			<rect x="1644.8" y="709.5" class="st3" width="87" height="7"/>
			<rect x="1719" y="721" class="st10" width="4" height="99"/>
			<rect x="1647.3" y="721" class="st10" width="4" height="99"/>
			<path class="st7" d="M1788.9,563.7c0-1.8-0.4-4.2,0.2-5.9c0.5-1.2,2.3-1.1,3.3-1.1c2.5-0.2,4.9-0.1,7.4-0.1c6.8,0,13.5,0,20.3,0
				c4.6,0,9.3,0.1,13.9,0c7.8-0.3,15.5-1.1,23.3-1.7c7.8-0.7,16.9-2,23.6,3.2c1.5,1.1,3.6,3.6,3.6,5.6"/>
			<path class="st3" d="M1876.7,555c-2-6-4.8-18,0-18c6,0,16.5,0,17,0s4,18.5-3,27"/>
			<path class="st3" d="M2040.5,545.5c0,8.4,1.3,15.8,2,18.5h15c1.6-2.8,1.7-20.2,1.5-28.5h-18.5V545.5z"/>
			<path class="st6" d="M2053,542.2c0,9.4,1.4,17.8,2.1,20.8h15.3c1.6-3.1,1.7-22.6,1.5-32H2053V542.2z"/>
			<path class="st6" d="M1813,543.2c0,9.4,1.4,17.8,2.1,20.8h15.3c1.6-3.1,1.7-22.6,1.5-32H1813V543.2z"/>
			<path class="st6" d="M1771.9,565.9c7.5,5.7,15,9.7,17.8,11l9.3-12.2c-1.5-3.2-17-15.1-24.5-20.6l-11.5,15.1L1771.9,565.9z"/>
			<path class="st6" d="M1711.5,566.5h441c8.3,0,15,6.7,15,15l0,0c0,8.3-6.7,15-15,15h-441c-8.3,0-15-6.7-15-15l0,0
				C1696.5,573.2,1703.2,566.5,1711.5,566.5z"/>
			<path class="st11" d="M295.5,817.5c0.4-1.6,1.5-9.3,2-13c91,11,144.5-3.5,144.5,0c0,2.8,3,9.8,4.5,13
				C410.5,824,295,819.5,295.5,817.5z"/>
			<path class="st11" d="M430,818.6c0.4-1.6,1.5-9.3,2-13c91,11,144.5-3.5,144.5,0c0,2.8,3,9.8,4.5,13
				C545,825.1,429.5,820.6,430,818.6z"/>
			<path class="st11" d="M346.2,804c-0.8,1.8,1,3.4,2,4c3.5,0,5,0,7.9-1.7c3-1.7,11.4-2.3,15.9-1.7s6.4-3.4,4-3.4
				c-2.5,0-4-1.1-9.9-1.1s-5.4,2.9-9.9,2.9C351.6,802.9,347.2,801.7,346.2,804z"/>
			<path class="st12" d="M351.4,808h-0.9v1c0,0.4,0.2,0.6,0.3,0.7c0.1,0.1,0.2,0.2,0.3,0.2c0.1,0.1,0.3,0.2,0.4,0.2
				c0.3,0.1,0.7,0.3,1.2,0.4c0.9,0.3,2.2,0.7,3.7,1c2.8,0.7,6.2,1.5,8.5,1.9c2.4,0.4,3.7,1.8,4.8,3.2c0.1,0.2,0.3,0.4,0.5,0.6
				c0.4,0.5,0.7,1,1.1,1.4c0.6,0.6,1.3,1.2,2.3,1.2c0.5,0,1.2,0.1,2,0.3c0.3,0.1,0.7,0.1,1,0.2c0.5,0.1,0.9,0.2,1.3,0.3
				s0.7,0.1,1,0.1s0.7,0,1-0.1c0.2-0.1,0.4-0.2,0.6-0.4s0.3-0.6,0.3-0.8c0-0.5-0.3-0.9-0.5-1.2c-0.8-1-1.1-1.6-1.3-2.3
				c-0.1-0.7-0.1-1.6,0.4-3.3c0.6-2.1,0-3.9-0.8-5.3c-0.4-0.7-0.8-1.3-1.2-1.8c0,0,0,0,0-0.1c-0.4-0.6-0.7-1.1-1-1.5
				c-0.1-0.2-0.3-0.5-0.4-0.7c-0.2-0.2-0.5-0.5-1-0.5c-0.4,0-0.7,0.2-0.8,0.3c-0.1,0.1-0.2,0.2-0.3,0.2l-0.1,0.1
				c-0.2,0.2-0.4,0.3-0.8,0.4c-0.4,0.1-1,0.2-1.8,0.1c-0.4-0.1-0.8-0.1-1.2-0.2c-3.3-0.4-5.8-0.8-9.2,0.2c-1.8,0.5-4.2,1.6-6,2.4
				c-0.5,0.2-0.9,0.4-1.3,0.6c-0.4,0.2-0.8,0.4-1.1,0.5c-0.3,0.1-0.6,0.3-0.8,0.3C351.5,808,351.4,808,351.4,808z M351.3,808
				L351.3,808L351.3,808z"/>
			<path class="st13" d="M357.5,810.5c0.4,0,0.8,0,1.2-0.1c0.9-0.1,1.6-0.6,2.5-0.9c0.9-0.3,2.1-0.6,3-0.3c0.4,0.1,0.8,0.3,1,0.7
				c0.2,0.3,0.2,0.7,0.5,0.9c0.6,0.6,2.2,0.5,2.3,1.5c0,0.3-0.1,0.4-0.1,0.6"/>
			<path class="st13" d="M371.3,807.3c-0.8,0-1.6,0.4-1.4,1.3c0.1,0.6,0.5,0.9,1,1.2c0.4,0.2,1.2,0.3,1.4,0.7
				c0.3,0.5,0.1,1.2,0.3,1.8c0.2,0.6,1,0.7,1.5,0.6c1-0.1,2.1-1.1,2-2.2c-0.1-1-0.8-1.3-1.4-1.8c-0.3-0.2-0.5-0.6-0.7-0.9
				c-0.1-0.2-0.2-0.5-0.3-0.7c-0.2-0.5-0.9-0.4-1.3-0.4c-0.6,0-0.9,0.4-1.4,0.7"/>
			<path class="st13" d="M371,816.6c1-0.6,2.2,0,2.8,0.8c0.3,0.4,0.5,1.1,1,1.4c0.3,0.1,0.9,0.1,1.1,0.3"/>
			<path class="st13" d="M359.7,805.5c0.3,0,0.5,0,0.8,0c0.6,0.1,1,0.6,1.5,0.9c0.4,0.2,0.8,0.3,1.3,0.2c0.6,0,1.2,0,1.7-0.3
				c0.4-0.2,0.7-0.5,1.1-0.7s0.9-0.1,1.3,0c0.6,0,0.6-0.6,0.5-1"/>
			<path class="st11" d="M298,805.1V804c15.5,0.7,46.8,2,48,2"/>
			<path class="st11" d="M377,806c19.5-1.8,59.1-5.4,61.5-5s3.3,2.5,3.5,3.5"/>
			<path class="st14" d="M1202.5,693.5c0.4-1.6-0.5-9.3,0-13c91,11,144.5-3.5,144.5,0c0,2.8,5,9.8,6.5,13
				C1317.5,700,1202,695.5,1202.5,693.5z"/>
			<path class="st15" d="M1269.5,680.5c-0.8,1.6,1,3,2,3.5c3.5,0,5,0,8-1.5s11.5-2,16-1.5s6.5-3,4-3s-4-1-10-1s-5.5,2.5-10,2.5
				S1270.5,678.5,1269.5,680.5z"/>
			<path class="st12" d="M1288.5,688.5c-4.4-0.8-10.8-3-13.5-4c0.5,0,6-2.5,9.5-3.5s6-0.5,10,0s2.5-1,4.5-0.5s1,5.5,0,9
				s2.5,3.5,4,5.5s-3.5,0-6,0S1294,689.5,1288.5,688.5z"/>
			<path class="st13" d="M1281.1,686.5c0.4,0,0.8,0,1.2-0.1c0.9-0.1,1.6-0.6,2.5-0.9c0.9-0.3,2.1-0.6,3.1-0.3
				c0.4,0.1,0.8,0.3,1.1,0.7c0.2,0.3,0.2,0.7,0.4,0.9c0.6,0.6,2.2,0.5,2.3,1.5c0,0.3-0.2,0.4-0.2,0.6"/>
			<path class="st13" d="M1294.8,683.3c-0.8,0-1.6,0.4-1.4,1.3c0.1,0.6,0.5,0.9,1,1.2c0.4,0.2,1.2,0.3,1.4,0.7
				c0.3,0.5,0.2,1.2,0.3,1.8c0.2,0.6,1,0.7,1.5,0.6c1-0.1,2.1-1.1,2-2.2c-0.2-1-0.8-1.3-1.4-1.8c-0.3-0.2-0.5-0.6-0.7-0.9
				c-0.1-0.2-0.2-0.5-0.3-0.7c-0.2-0.5-0.9-0.4-1.3-0.4c-0.6,0-0.9,0.4-1.4,0.7"/>
			<path class="st13" d="M1294.5,692.6c1-0.6,2.2,0,2.8,0.8c0.3,0.4,0.5,1.1,1,1.4c0.3,0.1,0.9,0.1,1.1,0.3"/>
			<path class="st13" d="M1283.2,681.7c0.3,0,0.5,0,0.8,0c0.6,0.1,1,0.6,1.5,0.9c0.4,0.2,0.8,0.3,1.3,0.2c0.6,0,1.2,0,1.7-0.3
				c0.4-0.2,0.7-0.5,1.1-0.7s0.9-0.1,1.3,0c0.6,0,0.6-0.6,0.5-1"/>
			<path class="st16" d="M1203.5,678.5v-11c51.5,8,61,8,80.5,6.5"/>
			<path class="st16" d="M1284,674c19.5-1.8,59.1-5.4,61.5-5s1.8,10.5,2,11.5"/>
			<path class="st11" d="M529.5,806c-3.2,2,3.7,2.5,7.5,2.5c1,0,7-2.5,13.5-3.5s7,0,6-2.5s-11.5-3-16,0S533.5,803.5,529.5,806z"/>
			<path class="st17" d="M555.5,815c-0.8-2.8-12.3-5.5-18-6.5c1.6-1.6,13.3-3.7,19-4.5c2.2,1.8,6.5,6.6,6.5,11c0,5.5,5,5,3.5,6
				S556.5,818.5,555.5,815z"/>
			<path class="st13" d="M545.1,809.8c0.4,0,0.8,0,1.2,0c0.7-0.1,1.3-0.3,2-0.4c0.8-0.1,1.7-0.2,2.5-0.2c0.3,0,0.7,0,0.9,0.1
				c0.3,0.2,0.6,0.6,0.8,0.8c0.5,0.5,1.1,0.7,1.1,1.5c0,0.7-0.5,0.8-1.2,1"/>
			<path class="st13" d="M551.1,805.5c0.7,0,1.2,0.4,1.6,0.8c1,0.9,1.8,2.1,3.4,1.8c0.8-0.2,1.6-0.9,2.5-0.8c0.1,0,0.2,0.1,0.4,0.1"
				/>
			<path class="st13" d="M560.8,813.5c-0.7,0-1.4,0-2,0c-0.4,0-0.9,0.1-1.1,0.5c-0.6,1.1,1.2,1.8,1.7,2.7c0.3,0.7,0,1.2,0.1,1.9
				s1.3,0.8,1.9,0.8c0.8,0,1.6-0.5,1.3-1.4c-0.1-0.4-0.5-0.7-0.7-1.1c-0.2-0.3-0.4-0.7-0.6-1.1c-0.3-0.8,0.2-1.9-0.4-2.7"/>
			<path class="st18" d="M498.5,807c4.4-2,10.5,0.8,13,2.5c0.7,1.7,0.9,4.8-3.5,4c-5.5-1-10.5,4-15,7s-7-3-2-6S493,809.5,498.5,807z
				"/>
			<path class="st13" d="M490.9,814.6c-0.3,0.6-0.8,1.2-0.4,1.9s1.1,0.6,1.7,0.4c0.7-0.3,1.4-0.7,2.1-0.7c0.7-0.1,1.5,0,2.1-0.3
				c0.6-0.4,0.2-1.2,0-1.7c-0.3-0.5-0.8-0.8-1.3-1.1c-0.6-0.4-0.8-0.7-0.6-1.4"/>
			<path class="st13" d="M501.7,808.4c-0.2,0.1-0.9,0.6-0.8,0.9c0.3,0.5,1.2,0.4,1.7,0.7c0.5,0.2,0.9,0.6,1.3,0.8
				c0.5,0.2,1.4,0.3,1.9,0c0.2-0.2,0.4-0.4,0.6-0.7c0.2-0.6-0.2-0.9-0.6-1.2c-0.4-0.2-0.8-0.5-1.3-0.5c-0.2,0-0.4,0-0.7-0.1
				c-0.4-0.2-0.8-0.5-1.3-0.5c-0.3,0-0.6,0.3-0.9,0.3"/>
			<path class="st13" d="M507.8,808.1c0.7,0.2,1.8,0.3,2.4,0.9c0.2,0.3,0.1,0.9,0.1,1.2c-0.2,0.8-0.8,1.5-1.4,2.1
				c-0.1,0.1-0.9,0.7-0.5,0.9"/>
			<path class="st13" d="M499.6,815.3c0.1-0.6,0-1.2,0.1-1.8c0.1-0.3,0.2-0.6,0.4-0.8c0.3-0.2,0.8-0.2,1.1-0.2c0.4,0,0.7,0.3,1,0.6
				s0.5,0.3,0.9,0.3"/>
			<path class="st11" d="M460,808c21-1.7,63.8-5.1,67-5.5c4-0.5,24-5,29.5-4s16-1,16.5,6"/>
			<path class="st19" d="M1257.2,649c-4.2,0.5-3.3,5.5-2.3,8.3c1.2,3.3,3,6.9,0.7,10"/>
			<path class="st19" d="M1266,638c0,0.4,0,0.8,0,1.2c0,1.1,1,1.1,1.5,1.8c1.3,1.6,0.8,4-0.1,5.6"/>
			<path class="st19" d="M1298.3,647c-0.7,0.8-0.2,3.1,0.2,3.9c0.8,2.1,3.1,4.6,1.2,6.7"/>
			<path class="st19" d="M1303.4,633c-0.3,1.3-0.6,2.9-0.3,4.2c0.6,2.1,2.5,3.9,3.7,5.7c1.3,2.1,2.4,4.4,2.4,6.9
				c0,1.7-0.5,3.1-1,4.7"/>
			<path class="st13" d="M500.6,790.9c-1.1,0.6-0.4,3,0.2,3.7c0.8,1,1.3,1.7,1.6,3c0.1,0.7,0.5,1.9,0,2.4"/>
			<path class="st13" d="M504.6,794.5c0,1.2,0.8,2.1,1.3,3.2c0.3,0.8,0.3,1.8,0.1,2.6"/>
			<path class="st13" d="M549.8,782.4c0,1.8-0.6,4.8,0.4,6.3c1.6,2.4,2.6,2,2.1,5.3"/>
			<path class="st13" d="M347.3,784c-2.2,0.2-2.5,3.3-2.1,4.9c0.3,1.4,1.4,2.4,1.7,3.8c0.2,0.8,0.2,1.5,0.2,2.4"/>
			<path class="st13" d="M363.4,788.2c0,1.2,0.5,2,1.1,3c0.9,1.3,0.7,4.2,0.1,5.6"/>
			<path class="st13" d="M370.4,790c-0.8,2.1-0.3,3.8,0.6,5.8c0.2,0.5,0.3,0.8,0.3,1.3"/>
			<path class="st13" d="M453.7,793.5c-1,1.4-0.9,3.8-0.4,5.3c0.4,1.1,1.1,1.9,1.5,2.9c0.6,1.4,0.7,2.8,0.8,4.3"/>
			<path class="st11" d="M377,802.6c0.4-1.6,1.4-9.4,1.9-13c86.8,11,137.8-3.5,137.8,0c0,2.8,2.9,9.9,4.3,13
				C486.7,809.1,376.5,804.6,377,802.6z"/>
			<path class="st11" d="M420.5,789.9c-0.8,1.6,1,3,2,3.5c3.5,0,5,0,8-1.5s11.5-2,16-1.5s6.5-3,4-3s-4-1-10-1s-5.5,2.5-10,2.5
				S421.5,787.9,420.5,789.9z"/>
			<path class="st12" d="M439.5,797.9c-4.4-0.8-10.8-3-13.5-4c0.5,0,6-2.5,9.5-3.5s6-0.5,10,0s2.5-1,4.5-0.5s1,5.5,0,9
				s2.5,3.5,4,5.5s-3.5,0-6,0S445,798.9,439.5,797.9z"/>
			<path class="st13" d="M432,795.9c0.4,0,0.8,0,1.2-0.1c0.9-0.1,1.6-0.6,2.5-0.9c0.9-0.3,2.1-0.6,3-0.3c0.4,0.1,0.8,0.3,1,0.7
				c0.2,0.3,0.2,0.7,0.5,0.9c0.6,0.6,2.2,0.5,2.3,1.5c0,0.3-0.1,0.4-0.1,0.6"/>
			<path class="st13" d="M445.8,792.7c-0.8,0-1.6,0.4-1.4,1.3c0.1,0.6,0.5,0.9,1,1.2c0.4,0.2,1.2,0.3,1.4,0.7
				c0.3,0.5,0.1,1.2,0.3,1.8c0.2,0.6,1,0.7,1.5,0.6c1-0.1,2.1-1.1,2-2.2c-0.1-1-0.8-1.3-1.4-1.8c-0.3-0.2-0.5-0.6-0.7-0.9
				c-0.1-0.2-0.2-0.5-0.3-0.7c-0.2-0.5-0.9-0.4-1.3-0.4c-0.6,0-0.9,0.4-1.4,0.7"/>
			<path class="st13" d="M445.5,802c1-0.6,2.2,0,2.8,0.8c0.3,0.4,0.5,1.1,1,1.4c0.3,0.1,0.9,0.1,1.1,0.3"/>
			<path class="st13" d="M434.2,791c0.3,0,0.5,0,0.8,0c0.6,0.1,1,0.6,1.5,0.9c0.4,0.2,0.8,0.3,1.3,0.2c0.6,0,1.2,0,1.7-0.3
				c0.4-0.2,0.7-0.5,1.1-0.7s0.9-0.1,1.3,0c0.6,0,0.6-0.6,0.5-1"/>
			<path class="st11" d="M380,789.7V788c12.9,1,39,3,40,3"/>
			<path class="st11" d="M451.5,791.4c19.5-1.8,59.1-5.4,61.5-5c2.4,0.4,3.3,2.5,3.5,3.5"/>
			<path class="st13" d="M421.8,769.1c-2.2,0.2-2.5,3.3-2.1,4.9c0.3,1.4,1.4,2.4,1.7,3.8c0.2,0.8,0.2,1.5,0.2,2.4"/>
			<path class="st13" d="M437.9,773.6c0,1.2,0.5,2,1.1,3c0.9,1.4,0.7,4.2,0.1,5.6"/>
			<path class="st13" d="M444.6,777.3c-0.8,2.1-0.3,3.8,0.6,5.8c0.2,0.5,0.3,0.8,0.3,1.3"/>
			<path class="st13" d="M528.2,778.9c-1,1.4-0.9,3.8-0.4,5.3c0.4,1.1,1.1,1.9,1.5,2.9c0.6,1.4,0.7,2.8,0.8,4.3"/>
			<path class="st3" d="M1656.3,707.5c2-54.7-4.6-165.7-47-172.5c-53-8.5,41,2.5,36,172.5"/>
			<line class="st3" x1="2640" y1="719.5" x2="3042" y2="721.5"/>
			<line class="st3" x1="2641" y1="666.5" x2="3043" y2="668.5"/>
			<path class="st3" d="M2564,771.5h475.5"/>
			<path class="st3" d="M2564,771v56"/>
			<path class="st3" d="M2615,720v102"/>
			<path class="st3" d="M2692,615v102"/>
			<path class="st3" d="M2823,719v102"/>
			<path class="st3" d="M2900,617v102"/>
			<path class="st3" d="M2667,720v103"/>
			<path class="st3" d="M2744,615v103"/>
			<path class="st3" d="M2875,719v103"/>
			<path class="st3" d="M2952,617v103"/>
			<path class="st3" d="M2720,720v103"/>
			<path class="st3" d="M2797,616v103"/>
			<path class="st3" d="M2928,719v103"/>
			<path class="st3" d="M3005,617v103"/>
			<path class="st3" d="M2772,718v103"/>
			<path class="st3" d="M2849,616v103"/>
			<path class="st3" d="M2980,717v103"/>
			<path class="st3" d="M3027,720v103"/>
		</g>
	</g>
</g>
</svg>
