<svg width="3047" height="900" viewBox="0 0 3047 900" fill="none" xmlns="http://www.w3.org/2000/svg">
<g clip-path="url(#clip0_178_132)">
<rect width="3047" height="900" fill="#FF0000"/>
<rect y="-20" width="3039" height="916" fill="#9CAA9A"/>
<path d="M3046 848H-49.113V900H3046V848Z" fill="url(#paint0_linear_178_132)" stroke="black" stroke-width="1.29" stroke-miterlimit="10"/>
<path d="M232 331L126 467V854H232V331Z" fill="url(#paint1_linear_178_132)"/>
<path d="M20 332L126 468V855H20V332Z" fill="url(#paint2_linear_178_132)"/>
<path d="M231.998 332.965L125.5 467.5L19.5 332.965L231.998 332.965Z" fill="url(#paint3_linear_178_132)"/>
<path d="M882.61 788.354H248.569V848.818H882.61V788.354Z" fill="#5D2D17" stroke="black" stroke-width="2" stroke-miterlimit="10"/>
<path d="M881.765 174H248.569V788.516H881.765V174Z" fill="#5D2D17" stroke="black" stroke-width="2" stroke-miterlimit="10"/>
<path d="M853.572 217H277.934V297.401H853.572V217Z" fill="url(#paint4_linear_178_132)"/>
<path d="M853.572 331.862H277.934V412.264H853.572V331.862Z" fill="url(#paint5_linear_178_132)"/>
<path d="M853.572 452.374H277.934V532.775H853.572V452.374Z" fill="url(#paint6_linear_178_132)"/>
<path d="M853.274 567.284H277.635V647.686H853.274V567.284Z" fill="url(#paint7_linear_178_132)"/>
<path d="M853.274 682.145H277.635V762.547H853.274V682.145Z" fill="url(#paint8_linear_178_132)"/>
<path d="M335.966 630.953L335.966 630.953C331.78 620.508 334.848 611.263 335.844 608.663H456.015C457.069 612.103 459.176 620.794 455.906 630.986L456.382 631.139L455.906 630.986C452.993 640.069 447.353 645.582 444.689 647.864H352.864C350.811 647.023 340.622 642.575 335.966 630.953Z" fill="#C1A567" stroke="black"/>
<path d="M668.786 509.99L668.786 509.99C665.262 495.627 667.874 482.912 668.694 479.432H768.213C769.088 484.083 770.876 496.009 768.136 510.013C765.713 522.356 761.04 529.854 758.815 532.992H682.782C681.005 531.798 672.64 525.717 668.786 509.99Z" fill="#C1A567" stroke="black"/>
<path d="M383.31 297.974C381.881 296.997 375.472 292.198 372.5 279.892C369.795 268.684 371.753 258.751 372.41 255.897H449.63C450.319 259.625 451.665 268.963 449.554 279.915C447.69 289.584 444.086 295.475 442.349 297.974H383.31Z" fill="#C1A567" stroke="black"/>
<path d="M647.657 414.024C631.96 414.119 606.392 413.678 566.767 412.422C570.135 408.133 575.102 400.591 577.748 390.035C580.862 377.607 579.2 367.183 577.898 361.695H645.734C643.877 371.592 644.883 379.546 645.85 384.272L645.85 384.272L645.86 384.319C647.14 390.544 649.26 400.851 657.535 407.537L657.536 407.537C660.556 409.974 663.507 411.213 665.686 411.952C666.23 412.136 666.725 412.29 667.159 412.422C667.228 412.443 667.296 412.464 667.362 412.484C667.711 412.59 668.009 412.681 668.259 412.765C668.382 412.806 668.486 412.844 668.575 412.878C668.442 412.925 668.272 412.974 668.058 413.024C667.296 413.203 666.1 413.368 664.387 413.51C660.969 413.793 655.574 413.977 647.657 414.024ZM668.925 413.054C668.925 413.054 668.922 413.052 668.917 413.046C668.923 413.052 668.926 413.054 668.925 413.054ZM668.908 412.721C668.912 412.717 668.914 412.714 668.915 412.715C668.915 412.715 668.913 412.717 668.908 412.721Z" fill="#C1A567" stroke="black"/>
<path d="M656.045 295.098V235.796H689.584V295.098H656.045Z" fill="#C1A567" stroke="black"/>
<path d="M707.918 294.949V235.648H741.456V294.949H707.918Z" fill="#C1A567" stroke="black"/>
<path d="M753.707 294.801V235.5H787.245V294.801H753.707Z" fill="#C1A567" stroke="black"/>
<path d="M445.373 759.849V700.547H478.911V759.849H445.373Z" fill="#C1A567" stroke="black"/>
<path d="M497.176 759.849V700.547H530.714V759.849H497.176Z" fill="#C1A567" stroke="black"/>
<path d="M548.979 759.849V700.547H582.517V759.849H548.979Z" fill="#C1A567" stroke="black"/>
<path d="M508.685 642.122V585.686H571.008V642.122H508.685Z" fill="#C1A567" stroke="black"/>
<path d="M812.869 647.863H698.563L692.999 620.146H818.423L812.869 647.863Z" fill="#C1A567" stroke="black"/>
<path d="M433.055 503.254L433.055 503.254C437.054 497.274 436.834 489.421 432.51 483.672C432.51 483.672 432.51 483.672 432.51 483.672L422.845 470.815H478.41L468.877 483.489L468.877 483.489C464.472 489.35 464.251 497.345 468.321 503.436L468.321 503.437C471.474 508.15 473.146 513.683 473.146 519.357V525.271C473.146 529.536 469.684 532.992 465.406 532.992H435.125C431.244 532.992 428.098 529.851 428.098 525.982V519.58C428.098 513.765 429.821 508.09 433.055 503.254Z" fill="#C1A567" stroke="black"/>
<path d="M502.133 503.254L502.133 503.254C506.132 497.274 505.911 489.421 501.587 483.672C501.587 483.672 501.587 483.672 501.587 483.672L491.922 470.815H547.487L537.955 483.489L537.955 483.489C533.549 489.35 533.329 497.345 537.399 503.436L537.399 503.437C540.552 508.15 542.224 513.683 542.224 519.357V525.271C542.224 529.536 538.762 532.992 534.484 532.992H504.203C500.322 532.992 497.176 529.851 497.176 525.982V519.58C497.176 513.765 498.898 508.09 502.133 503.254Z" fill="#C1A567" stroke="black"/>
<path d="M394.075 378.43C394.075 397.147 377.584 412.389 357.153 412.389C336.723 412.389 320.232 397.147 320.232 378.43C320.232 359.712 336.723 344.47 357.153 344.47C377.584 344.47 394.075 359.712 394.075 378.43Z" fill="#C1A567" stroke="black"/>
<path d="M484.666 378.43C484.666 397.147 468.175 412.389 447.745 412.389C427.314 412.389 410.823 397.147 410.823 378.43C410.823 359.712 427.314 344.47 447.745 344.47C468.175 344.47 484.666 359.712 484.666 378.43Z" fill="#C1A567" stroke="black"/>
<path d="M824.299 728.765C824.299 747.482 807.808 762.724 787.377 762.724C766.947 762.724 750.456 747.482 750.456 728.765C750.456 710.048 766.947 694.806 787.377 694.806C807.808 694.806 824.299 710.048 824.299 728.765Z" fill="#C1A567" stroke="black"/>
<path opacity="0.32" d="M2822.88 491.045H2665.04V650H2822.88V491.045Z" fill="#4D4D4D"/>
<path d="M2822.88 472.773H2679.79V636.535H2822.88V472.773Z" fill="white" stroke="black" stroke-width="2" stroke-miterlimit="10"/>
<path d="M2805.23 491.435H2698.23V620.78H2805.23V491.435Z" fill="#926551"/>
<path opacity="0.32" d="M3017.36 424.337H2859.51V559.916H3017.36V424.337Z" fill="#4D4D4D"/>
<path d="M3017.36 406.065H2874.27V544.324H3017.36V406.065Z" fill="white" stroke="black" stroke-width="1.84" stroke-miterlimit="10"/>
<path d="M2999.7 424.727H2892.71V525.632H2999.7V424.727Z" fill="#926551"/>
<path opacity="0.32" d="M2938.53 171.75H2758.03V371.822H2938.53V171.75Z" fill="#4D4D4D"/>
<path d="M2931.67 163H2771.54V359.316H2931.67V163Z" fill="white" stroke="black" stroke-width="2.32" stroke-miterlimit="10"/>
<path d="M2902.73 199.886H2799.51V326.808H2902.73V199.886Z" fill="#926551"/>
<path d="M1883.99 642.438H1458.05V855.952H1883.99V642.438Z" fill="#3D261B"/>
<path d="M1223.81 617.999V641.443H1888.17V617.999H1223.81Z" fill="#D7A470" stroke="black" stroke-width="2" stroke-miterlimit="10"/>
<path d="M1498.43 677.386C1497.4 658.261 1509.83 649.176 1522.76 623.985C1539.79 590.816 1536.3 580.755 1550.34 572.199C1564.61 563.5 1586.4 563.551 1598.99 573.815C1610.23 582.981 1605.27 593.051 1616.84 625.6C1627.36 655.192 1631.55 655.304 1633.87 666.868C1642.79 711.368 1576.29 709.752 1570.62 710.565C1563.63 711.561 1526.82 710.565 1507.36 694.387C1501.39 689.418 1498.69 681.949 1498.44 677.396L1498.43 677.386Z" fill="white" stroke="black" stroke-width="1.59" stroke-miterlimit="10"/>
<path d="M1535.94 708.135L1491.94 855.393H1501.68L1543.08 708.806L1535.94 708.135Z" fill="white"/>
<path d="M1535.83 707.313L1535.36 707.272L1490.86 856.196H1502.28L1510.51 827.082L1512.79 818.983L1521.94 786.617L1523.77 780.144L1537.72 730.787L1538.16 729.171L1539.32 725.127L1539.76 723.511L1543.86 709.03L1543.88 708.949L1544.12 708.095L1535.83 707.313ZM1493.02 854.591L1536.52 709L1542.05 709.518L1501.07 854.591H1493.02Z" fill="black"/>
<path d="M1594.79 708.135L1638.79 856.206H1629.05L1587.65 708.806L1594.79 708.135Z" fill="white"/>
<path d="M1595.61 708.085L1595.56 707.912L1595.37 707.272L1586.6 708.095L1586.95 709.365L1590.93 723.511L1591.38 725.127L1592.51 729.171L1592.97 730.787L1606.85 780.144L1608.66 786.617L1620.04 827.082L1628.28 856.42L1628.44 857.009H1639.87L1595.61 708.085ZM1594.19 709L1637.7 855.404H1629.66L1588.67 709.518L1594.19 709Z" fill="black"/>
<path d="M1592.5 723.511H1538.98V725.127H1592.5V723.511Z" fill="black"/>
<path d="M1607.91 780.144H1607.68H1606.84" stroke="black" stroke-width="1.59" stroke-miterlimit="10"/>
<path d="M1523.77 780.144H1522.93H1522.76" stroke="black" stroke-width="1.59" stroke-miterlimit="10"/>
<path d="M1592.51 729.171H1538.16L1539.32 725.126H1591.38L1592.51 729.171Z" fill="white"/>
<path d="M1593.32 729.171H1537.36V730.787H1593.32V729.171Z" fill="black"/>
<path d="M1608.66 786.617H1521.94L1523.77 780.144H1606.84L1608.66 786.617Z" fill="white" stroke="black" stroke-width="1.59" stroke-miterlimit="10"/>
<path d="M1620.19 826.249H1511.2L1513.51 819.775H1617.92L1620.19 826.249Z" fill="white" stroke="black" stroke-width="1.79" stroke-miterlimit="10"/>
<path d="M1609.53 786.617H1609.49H1608.66" stroke="black" stroke-width="1.59" stroke-miterlimit="10"/>
<path d="M1521.94 786.617H1521.13" stroke="black" stroke-width="1.59" stroke-miterlimit="10"/>
<path d="M1671.58 677.386C1670.55 658.261 1682.98 649.176 1695.92 623.985C1712.95 590.816 1709.45 580.755 1723.49 572.199C1737.76 563.5 1759.55 563.551 1772.14 573.815C1783.38 582.981 1778.42 593.051 1789.99 625.6C1800.51 655.192 1804.71 655.304 1807.02 666.868C1815.94 711.368 1749.44 709.752 1743.77 710.565C1736.78 711.561 1699.97 710.565 1680.52 694.387C1674.54 689.418 1671.84 681.949 1671.59 677.396L1671.58 677.386Z" fill="white" stroke="black" stroke-width="1.59" stroke-miterlimit="10"/>
<path d="M1709.1 708.135L1665.1 855.393H1674.83L1716.24 708.806L1709.1 708.135Z" fill="white"/>
<path d="M1708.98 707.313L1708.52 707.272L1664.02 856.196H1675.43L1683.66 827.082L1685.94 818.983L1695.09 786.617L1696.92 780.144L1710.87 730.787L1711.32 729.171L1712.47 725.127L1712.92 723.511L1717.01 709.03L1717.03 708.949L1717.28 708.095L1708.98 707.313ZM1666.17 854.591L1709.68 709L1715.2 709.518L1674.22 854.591H1666.17Z" fill="black"/>
<path d="M1767.94 708.135L1811.94 856.206H1802.2L1760.8 708.806L1767.94 708.135Z" fill="white"/>
<path d="M1768.76 708.085L1768.71 707.912L1768.52 707.272L1759.75 708.095L1760.1 709.365L1764.08 723.511L1764.54 725.127L1765.67 729.171L1766.12 730.787L1780 780.144L1781.81 786.617L1793.19 827.082L1801.43 856.42L1801.59 857.009H1813.02L1768.76 708.085ZM1767.35 709L1810.85 855.404H1802.81L1761.83 709.518L1767.35 709Z" fill="black"/>
<path d="M1765.66 723.511H1712.13V725.127H1765.66V723.511Z" fill="black"/>
<path d="M1781.07 780.144H1780.83H1780" stroke="black" stroke-width="1.59" stroke-miterlimit="10"/>
<path d="M1696.92 780.144H1696.08H1695.92" stroke="black" stroke-width="1.59" stroke-miterlimit="10"/>
<path d="M1765.67 729.171H1711.32L1712.47 725.126H1764.54L1765.67 729.171Z" fill="white"/>
<path d="M1766.47 729.171H1710.51V730.787H1766.47V729.171Z" fill="black"/>
<path d="M1781.81 786.617H1695.09L1696.92 780.144H1780L1781.81 786.617Z" fill="white" stroke="black" stroke-width="1.59" stroke-miterlimit="10"/>
<path d="M1793.34 826.249H1684.36L1686.66 819.775H1791.07L1793.34 826.249Z" fill="white" stroke="black" stroke-width="1.79" stroke-miterlimit="10"/>
<path d="M1782.69 786.617H1782.64H1781.81" stroke="black" stroke-width="1.59" stroke-miterlimit="10"/>
<path d="M1695.09 786.617H1694.29" stroke="black" stroke-width="1.59" stroke-miterlimit="10"/>
<path d="M1325.28 676.371C1324.25 657.246 1336.68 648.162 1349.61 622.97C1366.64 589.801 1363.15 579.741 1377.18 571.184C1391.45 562.486 1413.25 562.537 1425.84 572.8C1437.07 581.966 1432.11 592.037 1443.69 624.586C1454.21 654.178 1458.4 654.289 1460.72 665.854C1469.64 710.353 1403.14 708.737 1397.46 709.55C1390.48 710.546 1353.67 709.55 1334.21 693.372C1328.23 688.403 1325.53 680.934 1325.29 676.382L1325.28 676.371Z" fill="white" stroke="black" stroke-width="1.59" stroke-miterlimit="10"/>
<path d="M1362.79 707.119L1318.79 854.377H1328.53L1369.93 707.79L1362.79 707.119Z" fill="white"/>
<path d="M1362.68 706.297L1362.21 706.256L1317.71 855.18H1329.13L1337.36 826.066L1339.64 817.967L1348.79 785.601L1350.62 779.128L1364.56 729.771L1365.01 728.155L1366.16 724.111L1366.61 722.495L1370.71 708.014L1370.73 707.933L1370.97 707.079L1362.68 706.297ZM1319.87 853.575L1363.37 707.983L1368.89 708.502L1327.92 853.575H1319.87Z" fill="black"/>
<path d="M1421.63 707.119L1465.63 855.19H1455.9L1414.49 707.79L1421.63 707.119Z" fill="white"/>
<path d="M1422.46 707.069L1422.41 706.896L1422.21 706.256L1413.44 707.079L1413.8 708.349L1417.77 722.495L1418.23 724.111L1419.36 728.155L1419.82 729.771L1433.69 779.128L1435.51 785.601L1446.88 826.066L1455.12 855.404L1455.29 855.993H1466.71L1422.46 707.069ZM1421.04 707.983L1464.54 854.387H1456.51L1415.52 708.502L1421.04 707.983Z" fill="black"/>
<path d="M1419.35 722.495H1365.83V724.11H1419.35V722.495Z" fill="black"/>
<path d="M1434.76 779.127H1434.53H1433.69" stroke="black" stroke-width="1.59" stroke-miterlimit="10"/>
<path d="M1350.62 779.127H1349.78H1349.61" stroke="black" stroke-width="1.59" stroke-miterlimit="10"/>
<path d="M1419.36 728.155H1365.01L1366.16 724.11H1418.23L1419.36 728.155Z" fill="white"/>
<path d="M1420.17 728.155H1364.21V729.771H1420.17V728.155Z" fill="black"/>
<path d="M1435.51 785.6H1348.79L1350.62 779.127H1433.69L1435.51 785.6Z" fill="white" stroke="black" stroke-width="1.59" stroke-miterlimit="10"/>
<path d="M1447.04 825.232H1338.05L1340.35 818.759H1444.76L1447.04 825.232Z" fill="white" stroke="black" stroke-width="1.79" stroke-miterlimit="10"/>
<path d="M1436.38 785.601H1436.34H1435.51" stroke="black" stroke-width="1.59" stroke-miterlimit="10"/>
<path d="M1348.79 785.601H1347.98" stroke="black" stroke-width="1.59" stroke-miterlimit="10"/>
<path d="M1221.49 696.206L1266.96 855.597H1257.23L1215.82 697.73L1221.49 696.206Z" fill="white"/>
<path d="M1222.3 695.982L1222.07 695.189L1214.8 697.141L1236.2 778.741L1236.63 780.357L1237.9 785.215L1238.33 786.83L1246.34 817.398L1246.85 819.369L1248.46 825.487L1248.98 827.468L1256.58 856.44H1268.06L1222.3 695.982ZM1220.91 697.222L1265.85 854.774H1257.87L1216.84 698.319L1220.91 697.222Z" fill="black"/>
<path d="M1173.65 723.714H1223.12" stroke="black" stroke-width="1.59" stroke-miterlimit="10"/>
<path d="M1237.72 778.742H1164.73V780.357H1237.72V778.742Z" fill="black"/>
<path d="M1247.44 817.398H1159.86V819.37H1247.44V817.398Z" fill="black"/>
<path d="M1248.46 825.487H1159.2L1160.08 819.369H1246.85L1248.46 825.487Z" fill="white"/>
<path d="M1249.06 825.486H1158.24V827.468H1249.06V825.486Z" fill="black"/>
<path d="M1172.83 729.385H1224.74" stroke="black" stroke-width="1.59" stroke-miterlimit="10"/>
<path d="M1237.9 785.215H1165.02L1165.73 780.357H1236.63L1237.9 785.215Z" fill="white"/>
<path d="M1239.34 785.215H1164.73V786.831H1239.34V785.215Z" fill="black"/>
<path d="M1150.13 693.777C1144.23 681.451 1143.34 670.821 1142.02 653.322C1139.96 625.803 1140.4 624.198 1138.79 611.251C1137.03 597.248 1127.43 586.974 1129.06 585.359C1130.84 583.58 1133.04 584.474 1135.55 586.974C1145.27 596.679 1149.65 609.534 1159.88 638.76C1168.61 663.697 1172.97 676.166 1180.96 680.831C1196.48 689.875 1208.53 677.599 1237.73 684.062C1241.01 684.794 1263.22 691.613 1263.68 701.866C1263.79 704.427 1262.56 706.002 1260.44 706.723C1256.77 707.973 1247.65 700.779 1240.98 697.019C1232.92 692.476 1224.28 691.846 1203.67 705.108C1181.19 719.578 1176.25 714.904 1171.23 713.197C1160.93 709.701 1154.22 702.293 1150.14 693.777H1150.13Z" fill="white" stroke="black" stroke-width="1.55" stroke-miterlimit="10"/>
<path d="M1151.5 856L1172.5 715.5L1167 712.5L1140.5 856H1151.5Z" fill="white" stroke="black" stroke-width="1.5"/>
<rect x="1171" y="724" width="50" height="5" fill="white"/>
<path d="M1457.05 643.282H1257.84V855.953H1457.05V643.282Z" stroke="black" stroke-width="2" stroke-miterlimit="10"/>
<path d="M1257.67 643.119H1229.79V855.789H1257.67V643.119Z" fill="#D7A470" stroke="black" stroke-width="2" stroke-miterlimit="10"/>
<path d="M1882.98 854.937H1888.07V641.534H1882.98V854.937Z" stroke="black" stroke-width="1.75" stroke-miterlimit="10"/>
<rect x="913.995" y="217" width="847" height="626" stroke="#A36A36" stroke-width="10"/>
<rect x="1801" y="222" width="847" height="627" stroke="#A36A36" stroke-width="10"/>
<path d="M1796 218H2643.76L3047.99 896H1796V218Z" fill="url(#paint9_linear_178_132)" fill-opacity="0.51"/>
<path d="M913.72 217H1764V896H568.5L850.495 361.5L913.72 217Z" fill="url(#paint10_linear_178_132)" fill-opacity="0.51"/>
<path d="M1468.67 -7.86621H1458.95V332.774H1468.67V-7.86621Z" fill="#5D2D17" stroke="black" stroke-width="1.6" stroke-miterlimit="10"/>
<path d="M1406.24 433.103C1411.22 402.475 1422.56 388.452 1432.19 381.318C1437.47 377.405 1443.72 374.469 1448.4 366.756C1455.24 355.496 1453.84 342.153 1451.64 332.774H1477.6C1475.36 338.8 1473.21 347.722 1475.98 357.051C1479.13 367.67 1487.02 373.239 1492.19 378.086C1501 386.338 1512.77 404.396 1516.52 433.103C1480.3 434.181 1442.46 432.026 1406.23 433.103H1406.24Z" fill="#5D2D17" stroke="black" stroke-width="1.59" stroke-miterlimit="10"/>
<path d="M1409.49 418.542H1513.28" stroke="black" stroke-width="1.59" stroke-miterlimit="10"/>
<path d="M1454.09 348.15H1475.17" stroke="black" stroke-width="1.59" stroke-miterlimit="10"/>
<path d="M1227 840L1404.13 433H1518.78L1722 840H1227Z" fill="url(#paint11_linear_178_132)" fill-opacity="0.7"/>
<path d="M1450 843L1627.13 436H1741.78L1945 843H1450Z" fill="url(#paint12_linear_178_132)" fill-opacity="0.7"/>
<path d="M1667 840L1844.13 433H1958.78L2162 840H1667Z" fill="url(#paint13_linear_178_132)" fill-opacity="0.7"/>
<path d="M1692.67 -7.72559H1682.94V332.915H1692.67V-7.72559Z" fill="#5D2D17" stroke="black" stroke-width="1.6" stroke-miterlimit="10"/>
<path d="M1630.23 433.244C1635.21 402.616 1646.56 388.592 1656.18 381.458C1661.47 377.546 1667.71 374.609 1672.4 366.896C1679.23 355.637 1677.84 342.294 1675.64 332.915H1701.59C1699.36 338.941 1697.2 347.863 1699.97 357.192C1703.13 367.811 1711.01 373.38 1716.19 378.227C1725 386.478 1736.76 404.536 1740.52 433.244C1704.3 434.321 1666.45 432.167 1630.22 433.244H1630.23Z" fill="#5D2D17" stroke="black" stroke-width="1.59" stroke-miterlimit="10"/>
<path d="M1633.47 418.683H1737.28" stroke="black" stroke-width="1.59" stroke-miterlimit="10"/>
<path d="M1678.07 348.291H1699.16" stroke="black" stroke-width="1.59" stroke-miterlimit="10"/>
<path d="M1913.09 -9.48242H1903.37V331.158H1913.09V-9.48242Z" fill="#5D2D17" stroke="black" stroke-width="1.6" stroke-miterlimit="10"/>
<path d="M1850.66 431.488C1855.64 400.859 1866.98 386.836 1876.61 379.702C1881.89 375.79 1888.14 372.853 1892.82 365.14C1899.66 353.88 1898.26 340.538 1896.06 331.158H1922.01C1919.78 337.184 1917.63 346.107 1920.4 355.435C1923.55 366.055 1931.44 371.623 1936.61 376.471C1945.42 384.722 1957.19 402.78 1960.94 431.488C1924.72 432.565 1886.88 430.411 1850.65 431.488H1850.66Z" fill="#5D2D17" stroke="black" stroke-width="1.59" stroke-miterlimit="10"/>
<path d="M1853.9 416.926H1957.7" stroke="black" stroke-width="1.59" stroke-miterlimit="10"/>
<path d="M1898.5 346.534H1919.58" stroke="black" stroke-width="1.59" stroke-miterlimit="10"/>
<rect x="2111" y="732" width="499.762" height="20.9974" fill="#926551" stroke="black" stroke-width="2"/>
<rect x="2416.24" y="759.179" width="499.762" height="20.9974" fill="#926551" stroke="black" stroke-width="2"/>
<path d="M2232.96 786.357H2732.72V807.355H2232.96V786.357Z" fill="#926551" stroke="black" stroke-width="2"/>
<rect x="2202.99" y="759.179" width="23.0881" height="98.3523" fill="#3D261B" stroke="black" stroke-width="2"/>
<rect x="2739.6" y="786.357" width="23.0881" height="71.1736" fill="#3D261B" stroke="black" stroke-width="2"/>
</g>
<defs>
<linearGradient id="paint0_linear_178_132" x1="1498.44" y1="848" x2="1498.44" y2="900" gradientUnits="userSpaceOnUse">
<stop stop-color="#904900"/>
<stop offset="1" stop-color="#DBBC9D" stop-opacity="0.45"/>
</linearGradient>
<linearGradient id="paint1_linear_178_132" x1="232" y1="625.258" x2="133.285" y2="625.258" gradientUnits="userSpaceOnUse">
<stop stop-color="#454545" stop-opacity="0.35"/>
<stop offset="1" stop-color="#4B4335"/>
</linearGradient>
<linearGradient id="paint2_linear_178_132" x1="20" y1="626.258" x2="118.715" y2="626.258" gradientUnits="userSpaceOnUse">
<stop stop-color="#454545" stop-opacity="0.35"/>
<stop offset="1" stop-color="#4B4335"/>
</linearGradient>
<linearGradient id="paint3_linear_178_132" x1="112.81" y1="331.86" x2="111.699" y2="451.647" gradientUnits="userSpaceOnUse">
<stop stop-color="#454545" stop-opacity="0.35"/>
<stop offset="1" stop-color="#4B4335"/>
</linearGradient>
<linearGradient id="paint4_linear_178_132" x1="565.753" y1="217" x2="565.753" y2="297.401" gradientUnits="userSpaceOnUse">
<stop stop-color="#FCF0BE"/>
<stop offset="1" stop-color="#FF9D2A" stop-opacity="0.64"/>
</linearGradient>
<linearGradient id="paint5_linear_178_132" x1="565.753" y1="331.862" x2="565.753" y2="412.264" gradientUnits="userSpaceOnUse">
<stop stop-color="#FCF0BE"/>
<stop offset="1" stop-color="#FF9D2A" stop-opacity="0.64"/>
</linearGradient>
<linearGradient id="paint6_linear_178_132" x1="565.753" y1="452.374" x2="565.753" y2="532.775" gradientUnits="userSpaceOnUse">
<stop stop-color="#FCF0BE"/>
<stop offset="1" stop-color="#FF9D2A" stop-opacity="0.64"/>
</linearGradient>
<linearGradient id="paint7_linear_178_132" x1="565.455" y1="567.284" x2="565.455" y2="647.686" gradientUnits="userSpaceOnUse">
<stop stop-color="#FCF0BE"/>
<stop offset="1" stop-color="#FF9D2A" stop-opacity="0.64"/>
</linearGradient>
<linearGradient id="paint8_linear_178_132" x1="565.455" y1="682.145" x2="565.455" y2="762.547" gradientUnits="userSpaceOnUse">
<stop stop-color="#FCF0BE"/>
<stop offset="1" stop-color="#FF9D2A" stop-opacity="0.64"/>
</linearGradient>
<linearGradient id="paint9_linear_178_132" x1="2334.21" y1="218" x2="2334.21" y2="896" gradientUnits="userSpaceOnUse">
<stop stop-color="#FFF4DA"/>
<stop offset="1" stop-color="#FFF4DA" stop-opacity="0"/>
</linearGradient>
<linearGradient id="paint10_linear_178_132" x1="1194.77" y1="217" x2="1194.77" y2="896" gradientUnits="userSpaceOnUse">
<stop stop-color="#FFF4DA"/>
<stop offset="1" stop-color="#FFF4DA" stop-opacity="0"/>
</linearGradient>
<linearGradient id="paint11_linear_178_132" x1="1474.5" y1="433" x2="1474.5" y2="636.75" gradientUnits="userSpaceOnUse">
<stop stop-color="white"/>
<stop offset="1" stop-color="#D9D9D9" stop-opacity="0"/>
</linearGradient>
<linearGradient id="paint12_linear_178_132" x1="1697.5" y1="436" x2="1697.5" y2="639.75" gradientUnits="userSpaceOnUse">
<stop stop-color="white"/>
<stop offset="1" stop-color="#D9D9D9" stop-opacity="0"/>
</linearGradient>
<linearGradient id="paint13_linear_178_132" x1="1914.5" y1="433" x2="1914.5" y2="636.75" gradientUnits="userSpaceOnUse">
<stop stop-color="white"/>
<stop offset="1" stop-color="#D9D9D9" stop-opacity="0"/>
</linearGradient>
<clipPath id="clip0_178_132">
<rect width="3047" height="900" fill="white"/>
</clipPath>
</defs>
</svg>
