<?xml version="1.0" encoding="utf-8"?>
<!-- Generator: Adobe Illustrator 28.0.0, SVG Export Plug-In . SVG Version: 6.00 Build 0)  -->
<svg version="1.1" id="Layer_1" xmlns="http://www.w3.org/2000/svg" xmlns:xlink="http://www.w3.org/1999/xlink" x="0px" y="0px"
	 viewBox="0 0 3047 900" style="enable-background:new 0 0 3047 900;" xml:space="preserve">
<style type="text/css">
	.st0{clip-path:url(#SVGID_00000142855984454566922370000001657993471110238388_);}
	.st1{fill:#9CAA9A;}
	
		.st2{fill:url(#SVGID_00000176723168835615798520000000713456565883897275_);stroke:#000000;stroke-width:1.29;stroke-miterlimit:10;}
	.st3{fill:url(#SVGID_00000126284898203874493570000008757202316543560631_);}
	.st4{fill:url(#SVGID_00000003800905737949357740000002034461416407371708_);}
	.st5{fill:url(#SVGID_00000000902160579129489510000015281626091656094882_);}
	.st6{fill:#5D2D17;stroke:#000000;stroke-width:2;stroke-miterlimit:10;}
	.st7{fill:url(#SVGID_00000026138263973791002140000014121959924906966173_);}
	.st8{fill:url(#SVGID_00000088094712662580423780000006305511804574956705_);}
	.st9{fill:url(#SVGID_00000169549453738495379640000018258748134767124639_);}
	.st10{fill:url(#SVGID_00000065779445114459069590000013238033936822299054_);}
	.st11{fill:url(#SVGID_00000131328309052857177410000000794158596262749629_);}
	.st12{fill:#C1A567;stroke:#000000;}
	.st13{opacity:0.32;fill:#4D4D4D;enable-background:new    ;}
	.st14{fill:#FFFFFF;stroke:#000000;stroke-width:2;stroke-miterlimit:10;}
	.st15{fill:#926551;}
	.st16{fill:#FFFFFF;stroke:#000000;stroke-width:1.84;stroke-miterlimit:10;}
	.st17{fill:#FFFFFF;stroke:#000000;stroke-width:2.32;stroke-miterlimit:10;}
	.st18{fill:#3D261B;}
	.st19{fill:#D7A470;stroke:#000000;stroke-width:2;stroke-miterlimit:10;}
	.st20{fill:#FFFFFF;stroke:#000000;stroke-width:1.59;stroke-miterlimit:10;}
	.st21{fill:#FFFFFF;}
	.st22{fill:none;stroke:#000000;stroke-width:1.59;stroke-miterlimit:10;}
	.st23{fill:#FFFFFF;stroke:#000000;stroke-width:1.79;stroke-miterlimit:10;}
	.st24{fill:#FFFFFF;stroke:#000000;stroke-width:1.55;stroke-miterlimit:10;}
	.st25{fill:#FFFFFF;stroke:#000000;stroke-width:1.5;}
	.st26{fill:none;stroke:#000000;stroke-width:2;stroke-miterlimit:10;}
	.st27{fill:none;stroke:#000000;stroke-width:1.75;stroke-miterlimit:10;}
	.st28{fill:none;stroke:#A36A36;stroke-width:10;}
	.st29{fill:url(#SVGID_00000008836554882860679890000000463280972123847345_);fill-opacity:0.51;}
	.st30{fill:url(#SVGID_00000157995384191135017320000001296647298817480361_);fill-opacity:0.51;}
	.st31{fill:#5D2D17;stroke:#000000;stroke-width:1.6;stroke-miterlimit:10;}
	.st32{fill:#5D2D17;stroke:#000000;stroke-width:1.59;stroke-miterlimit:10;}
	.st33{fill:url(#SVGID_00000009582058284525837880000003837357629622824614_);fill-opacity:0.7;}
	.st34{fill:url(#SVGID_00000098917783474458567250000013504411771465124993_);fill-opacity:0.7;}
	.st35{fill:url(#SVGID_00000132051015477849673210000009824537791417897868_);fill-opacity:0.7;}
	.st36{fill:#926551;stroke:#000000;stroke-width:2;}
	.st37{fill:#3D261B;stroke:#000000;stroke-width:2;}
</style>
<g>
	<defs>
		<rect id="SVGID_1_" y="0" width="3047" height="900"/>
	</defs>
	<clipPath id="SVGID_00000179630761253805672430000001540138011443989663_">
		<use xlink:href="#SVGID_1_"  style="overflow:visible;"/>
	</clipPath>
	<g style="clip-path:url(#SVGID_00000179630761253805672430000001540138011443989663_);">
		<rect y="-16.6" class="st1" width="3045.4" height="916"/>
		
			<linearGradient id="SVGID_00000140005918855429115070000008667452723203082171_" gradientUnits="userSpaceOnUse" x1="1498.4435" y1="49.8898" x2="1498.4435" y2="-2.1102" gradientTransform="matrix(1 0 0 -1 0 897.8898)">
			<stop  offset="0" style="stop-color:#904900"/>
			<stop  offset="1" style="stop-color:#DBBC9D;stop-opacity:0.45"/>
		</linearGradient>
		
			<path style="fill:url(#SVGID_00000140005918855429115070000008667452723203082171_);stroke:#000000;stroke-width:1.29;stroke-miterlimit:10;" d="
			M3046,848H-49.1v52H3046V848z"/>
		
			<linearGradient id="SVGID_00000044866976201034346800000014893187731111574451_" gradientUnits="userSpaceOnUse" x1="232" y1="305.3898" x2="133.285" y2="305.3898" gradientTransform="matrix(1 0 0 -1 0 897.8898)">
			<stop  offset="0" style="stop-color:#454545;stop-opacity:0.35"/>
			<stop  offset="1" style="stop-color:#4B4335"/>
		</linearGradient>
		<path style="fill:url(#SVGID_00000044866976201034346800000014893187731111574451_);" d="M232,331L126,467v387h106V331z"/>
		
			<linearGradient id="SVGID_00000029047244461983026280000007019797712592290178_" gradientUnits="userSpaceOnUse" x1="20" y1="304.3898" x2="118.715" y2="304.3898" gradientTransform="matrix(1 0 0 -1 0 897.8898)">
			<stop  offset="0" style="stop-color:#454545;stop-opacity:0.35"/>
			<stop  offset="1" style="stop-color:#4B4335"/>
		</linearGradient>
		<path style="fill:url(#SVGID_00000029047244461983026280000007019797712592290178_);" d="M20,332l106,136v387H20V332z"/>
		
			<linearGradient id="SVGID_00000163767005198122343350000016327970939007902368_" gradientUnits="userSpaceOnUse" x1="125.7581" y1="565.9102" x2="124.6471" y2="446.1232" gradientTransform="matrix(1 0 0 -1 0 897.8898)">
			<stop  offset="0" style="stop-color:#454545;stop-opacity:0.35"/>
			<stop  offset="1" style="stop-color:#4B4335"/>
		</linearGradient>
		<path style="fill:url(#SVGID_00000163767005198122343350000016327970939007902368_);" d="M232,333L125.5,467.5L19.5,333H232z"/>
		<path class="st6" d="M882.6,788.4h-634v60.5h634V788.4z"/>
		<path class="st6" d="M881.8,174H248.6v614.5h633.2V174z"/>
		
			<linearGradient id="SVGID_00000109744074233025296820000000377886162252946074_" gradientUnits="userSpaceOnUse" x1="565.753" y1="680.8898" x2="565.753" y2="600.4888" gradientTransform="matrix(1 0 0 -1 0 897.8898)">
			<stop  offset="0" style="stop-color:#FCF0BE"/>
			<stop  offset="1" style="stop-color:#FF9D2A;stop-opacity:0.64"/>
		</linearGradient>
		<path style="fill:url(#SVGID_00000109744074233025296820000000377886162252946074_);" d="M853.6,217H277.9v80.4h575.6V217z"/>
		
			<linearGradient id="SVGID_00000106137824131213780490000007314674301261929141_" gradientUnits="userSpaceOnUse" x1="565.753" y1="566.0278" x2="565.753" y2="485.6258" gradientTransform="matrix(1 0 0 -1 0 897.8898)">
			<stop  offset="0" style="stop-color:#FCF0BE"/>
			<stop  offset="1" style="stop-color:#FF9D2A;stop-opacity:0.64"/>
		</linearGradient>
		<path style="fill:url(#SVGID_00000106137824131213780490000007314674301261929141_);" d="M853.6,331.9H277.9v80.4h575.6V331.9z"/>
		
			<linearGradient id="SVGID_00000107560142972344520690000000452708639790466999_" gradientUnits="userSpaceOnUse" x1="565.753" y1="445.5158" x2="565.753" y2="365.1148" gradientTransform="matrix(1 0 0 -1 0 897.8898)">
			<stop  offset="0" style="stop-color:#FCF0BE"/>
			<stop  offset="1" style="stop-color:#FF9D2A;stop-opacity:0.64"/>
		</linearGradient>
		<path style="fill:url(#SVGID_00000107560142972344520690000000452708639790466999_);" d="M853.6,452.4H277.9v80.4h575.6V452.4z"/>
		
			<linearGradient id="SVGID_00000018915162532489906810000009838442367790266766_" gradientUnits="userSpaceOnUse" x1="565.4545" y1="330.6058" x2="565.4545" y2="250.2039" gradientTransform="matrix(1 0 0 -1 0 897.8898)">
			<stop  offset="0" style="stop-color:#FCF0BE"/>
			<stop  offset="1" style="stop-color:#FF9D2A;stop-opacity:0.64"/>
		</linearGradient>
		<path style="fill:url(#SVGID_00000018915162532489906810000009838442367790266766_);" d="M853.3,567.3H277.6v80.4h575.6V567.3z"/>
		
			<linearGradient id="SVGID_00000092421902601944328090000008276422584105201546_" gradientUnits="userSpaceOnUse" x1="565.4545" y1="215.7448" x2="565.4545" y2="135.3428" gradientTransform="matrix(1 0 0 -1 0 897.8898)">
			<stop  offset="0" style="stop-color:#FCF0BE"/>
			<stop  offset="1" style="stop-color:#FF9D2A;stop-opacity:0.64"/>
		</linearGradient>
		<path style="fill:url(#SVGID_00000092421902601944328090000008276422584105201546_);" d="M853.3,682.1H277.6v80.4h575.6V682.1z"/>
		<path class="st12" d="M336,631L336,631c-4.2-10.4-1.1-19.7-0.1-22.3H456c1.1,3.4,3.2,12.1-0.1,22.3l0.5,0.2l-0.5-0.2
			c-2.9,9.1-8.6,14.6-11.2,16.9h-91.8C350.8,647,340.6,642.6,336,631z"/>
		<path class="st12" d="M668.8,510L668.8,510c-3.5-14.4-0.9-27.1-0.1-30.6h99.5c0.9,4.7,2.7,16.6-0.1,30.6
			c-2.4,12.3-7.1,19.8-9.3,23h-76C681,531.8,672.6,525.7,668.8,510z"/>
		<path class="st12" d="M383.3,298c-1.4-1-7.8-5.8-10.8-18.1c-2.7-11.2-0.7-21.1-0.1-24h77.2c0.7,3.7,2,13.1-0.1,24
			c-1.9,9.7-5.5,15.6-7.2,18.1H383.3z"/>
		<path class="st12" d="M647.7,414c-15.7,0.1-41.3-0.3-80.9-1.6c3.4-4.3,8.3-11.8,11-22.4c3.1-12.4,1.5-22.9,0.2-28.3h67.8
			c-1.9,9.9-0.9,17.9,0.1,22.6l0,0l0,0c1.3,6.2,3.4,16.5,11.7,23.2h0c3,2.4,6,3.7,8.1,4.4c0.5,0.2,1,0.3,1.5,0.5
			c0.1,0,0.1,0,0.2,0.1c0.3,0.1,0.6,0.2,0.9,0.3c0.1,0,0.2,0.1,0.3,0.1c-0.1,0-0.3,0.1-0.5,0.1c-0.8,0.2-2,0.3-3.7,0.5
			C661,413.8,655.6,414,647.7,414z M668.9,413.1C668.9,413.1,668.9,413.1,668.9,413.1C668.9,413.1,668.9,413.1,668.9,413.1z
			 M668.9,412.7C668.9,412.7,668.9,412.7,668.9,412.7C668.9,412.7,668.9,412.7,668.9,412.7z"/>
		<path class="st12" d="M656,295.1v-59.3h33.5v59.3H656z"/>
		<path class="st12" d="M707.9,294.9v-59.3h33.5v59.3H707.9z"/>
		<path class="st12" d="M753.7,294.8v-59.3h33.5v59.3H753.7z"/>
		<path class="st12" d="M445.4,759.8v-59.3h33.5v59.3H445.4z"/>
		<path class="st12" d="M497.2,759.8v-59.3h33.5v59.3H497.2z"/>
		<path class="st12" d="M549,759.8v-59.3h33.5v59.3H549z"/>
		<path class="st12" d="M508.7,642.1v-56.4H571v56.4H508.7z"/>
		<path class="st12" d="M812.9,647.9H698.6l-5.6-27.7h125.4L812.9,647.9z"/>
		<path class="st12" d="M433.1,503.3L433.1,503.3c4-6,3.8-13.8-0.5-19.6l0,0l-9.7-12.9h55.6l-9.5,12.7l0,0
			c-4.4,5.9-4.6,13.9-0.6,19.9v0c3.2,4.7,4.8,10.2,4.8,15.9v5.9c0,4.3-3.5,7.7-7.7,7.7h-30.3c-3.9,0-7-3.1-7-7v-6.4
			C428.1,513.8,429.8,508.1,433.1,503.3z"/>
		<path class="st12" d="M502.1,503.3L502.1,503.3c4-6,3.8-13.8-0.5-19.6l0,0l-9.7-12.9h55.6l-9.5,12.7l0,0
			c-4.4,5.9-4.6,13.9-0.6,19.9v0c3.2,4.7,4.8,10.2,4.8,15.9v5.9c0,4.3-3.5,7.7-7.7,7.7h-30.3c-3.9,0-7-3.1-7-7v-6.4
			C497.2,513.8,498.9,508.1,502.1,503.3z"/>
		<path class="st12" d="M394.1,378.4c0,18.7-16.5,34-36.9,34c-20.4,0-36.9-15.2-36.9-34c0-18.7,16.5-34,36.9-34
			C377.6,344.5,394.1,359.7,394.1,378.4z"/>
		<path class="st12" d="M484.7,378.4c0,18.7-16.5,34-36.9,34c-20.4,0-36.9-15.2-36.9-34c0-18.7,16.5-34,36.9-34
			C468.2,344.5,484.7,359.7,484.7,378.4z"/>
		<path class="st12" d="M824.3,728.8c0,18.7-16.5,34-36.9,34c-20.4,0-36.9-15.2-36.9-34c0-18.7,16.5-34,36.9-34
			C807.8,694.8,824.3,710,824.3,728.8z"/>
		<path class="st13" d="M2822.9,491H2665v159h157.8V491z"/>
		<path class="st14" d="M2822.9,472.8h-143.1v163.8h143.1V472.8z"/>
		<path class="st15" d="M2805.2,491.4h-107v129.3h107V491.4z"/>
		<path class="st13" d="M3017.4,424.3h-157.9v135.6h157.9V424.3z"/>
		<path class="st16" d="M3017.4,406.1h-143.1v138.3h143.1V406.1z"/>
		<path class="st15" d="M2999.7,424.7h-107v100.9h107V424.7z"/>
		<path class="st13" d="M2938.5,171.8H2758v200.1h180.5V171.8z"/>
		<path class="st17" d="M2931.7,163h-160.1v196.3h160.1V163z"/>
		<path class="st15" d="M2902.7,199.9h-103.2v126.9h103.2V199.9z"/>
		<path class="st18" d="M1884,642.4h-425.9V856H1884V642.4z"/>
		<path class="st19" d="M1223.8,618v23.4h664.4V618H1223.8z"/>
		<path class="st20" d="M1498.4,677.4c-1-19.1,11.4-28.2,24.3-53.4c17-33.2,13.5-43.2,27.6-51.8c14.3-8.7,36.1-8.6,48.7,1.6
			c11.2,9.2,6.3,19.2,17.8,51.8c10.5,29.6,14.7,29.7,17,41.3c8.9,44.5-57.6,42.9-63.2,43.7c-7,1-43.8,0-63.3-16.2
			C1501.4,689.4,1498.7,681.9,1498.4,677.4L1498.4,677.4z"/>
		<path class="st21" d="M1535.9,708.1l-44,147.3h9.7l41.4-146.6L1535.9,708.1z"/>
		<path d="M1535.8,707.3l-0.5,0l-44.5,148.9h11.4l8.2-29.1l2.3-8.1l9.1-32.4l1.8-6.5l13.9-49.4l0.4-1.6l1.2-4l0.4-1.6l4.1-14.5
			l0-0.1l0.2-0.9L1535.8,707.3z M1493,854.6l43.5-145.6l5.5,0.5l-41,145.1H1493z"/>
		<path class="st21" d="M1594.8,708.1l44,148.1h-9.7l-41.4-147.4L1594.8,708.1z"/>
		<path d="M1595.6,708.1l0-0.2l-0.2-0.6l-8.8,0.8l0.3,1.3l4,14.1l0.4,1.6l1.1,4l0.5,1.6l13.9,49.4l1.8,6.5l11.4,40.5l8.2,29.3
			l0.2,0.6h11.4L1595.6,708.1z M1594.2,709l43.5,146.4h-8l-41-145.9L1594.2,709z"/>
		<path d="M1592.5,723.5H1539v1.6h53.5V723.5z"/>
		<path class="st22" d="M1607.9,780.1h-0.2h-0.8"/>
		<path class="st22" d="M1523.8,780.1h-0.8h-0.2"/>
		<path class="st21" d="M1592.5,729.2h-54.3l1.2-4h52.1L1592.5,729.2z"/>
		<path d="M1593.3,729.2h-56v1.6h56V729.2z"/>
		<path class="st20" d="M1608.7,786.6h-86.7l1.8-6.5h83.1L1608.7,786.6z"/>
		<path class="st23" d="M1620.2,826.2h-109l2.3-6.5h104.4L1620.2,826.2z"/>
		<path class="st22" d="M1609.5,786.6L1609.5,786.6h-0.9"/>
		<path class="st22" d="M1521.9,786.6h-0.8"/>
		<path class="st20" d="M1671.6,677.4c-1-19.1,11.4-28.2,24.3-53.4c17-33.2,13.5-43.2,27.6-51.8c14.3-8.7,36.1-8.6,48.7,1.6
			c11.2,9.2,6.3,19.2,17.8,51.8c10.5,29.6,14.7,29.7,17,41.3c8.9,44.5-57.6,42.9-63.2,43.7c-7,1-43.8,0-63.2-16.2
			C1674.5,689.4,1671.8,681.9,1671.6,677.4L1671.6,677.4z"/>
		<path class="st21" d="M1709.1,708.1l-44,147.3h9.7l41.4-146.6L1709.1,708.1z"/>
		<path d="M1709,707.3l-0.5,0L1664,856.2h11.4l8.2-29.1l2.3-8.1l9.2-32.4l1.8-6.5l13.9-49.4l0.4-1.6l1.2-4l0.5-1.6l4.1-14.5l0-0.1
			l0.2-0.9L1709,707.3z M1666.2,854.6l43.5-145.6l5.5,0.5l-41,145.1H1666.2z"/>
		<path class="st21" d="M1767.9,708.1l44,148.1h-9.7l-41.4-147.4L1767.9,708.1z"/>
		<path d="M1768.8,708.1l-0.1-0.2l-0.2-0.6l-8.8,0.8l0.3,1.3l4,14.1l0.5,1.6l1.1,4l0.4,1.6l13.9,49.4l1.8,6.5l11.4,40.5l8.2,29.3
			l0.2,0.6h11.4L1768.8,708.1z M1767.3,709l43.5,146.4h-8l-41-145.9L1767.3,709z"/>
		<path d="M1765.7,723.5h-53.5v1.6h53.5V723.5z"/>
		<path class="st22" d="M1781.1,780.1h-0.2h-0.8"/>
		<path class="st22" d="M1696.9,780.1h-0.8h-0.2"/>
		<path class="st21" d="M1765.7,729.2h-54.4l1.2-4h52.1L1765.7,729.2z"/>
		<path d="M1766.5,729.2h-56v1.6h56V729.2z"/>
		<path class="st20" d="M1781.8,786.6h-86.7l1.8-6.5h83.1L1781.8,786.6z"/>
		<path class="st23" d="M1793.3,826.2h-109l2.3-6.5h104.4L1793.3,826.2z"/>
		<path class="st22" d="M1782.7,786.6L1782.7,786.6h-0.9"/>
		<path class="st22" d="M1695.1,786.6h-0.8"/>
		<path class="st20" d="M1325.3,676.4c-1-19.1,11.4-28.2,24.3-53.4c17-33.2,13.5-43.2,27.6-51.8c14.3-8.7,36.1-8.6,48.7,1.6
			c11.2,9.2,6.3,19.2,17.8,51.8c10.5,29.6,14.7,29.7,17,41.3c8.9,44.5-57.6,42.9-63.3,43.7c-7,1-43.8,0-63.2-16.2
			C1328.2,688.4,1325.5,680.9,1325.3,676.4L1325.3,676.4z"/>
		<path class="st21" d="M1362.8,707.1l-44,147.3h9.7l41.4-146.6L1362.8,707.1z"/>
		<path d="M1362.7,706.3l-0.5,0l-44.5,148.9h11.4l8.2-29.1l2.3-8.1l9.2-32.4l1.8-6.5l13.9-49.4l0.4-1.6l1.2-4l0.4-1.6l4.1-14.5
			l0-0.1l0.2-0.9L1362.7,706.3z M1319.9,853.6l43.5-145.6l5.5,0.5l-41,145.1H1319.9z"/>
		<path class="st21" d="M1421.6,707.1l44,148.1h-9.7l-41.4-147.4L1421.6,707.1z"/>
		<path d="M1422.5,707.1l0-0.2l-0.2-0.6l-8.8,0.8l0.4,1.3l4,14.1l0.5,1.6l1.1,4l0.5,1.6l13.9,49.4l1.8,6.5l11.4,40.5l8.2,29.3
			l0.2,0.6h11.4L1422.5,707.1z M1421,708l43.5,146.4h-8l-41-145.9L1421,708z"/>
		<path d="M1419.3,722.5h-53.5v1.6h53.5V722.5z"/>
		<path class="st22" d="M1434.8,779.1h-0.2h-0.8"/>
		<path class="st22" d="M1350.6,779.1h-0.8h-0.2"/>
		<path class="st21" d="M1419.4,728.2H1365l1.2-4h52.1L1419.4,728.2z"/>
		<path d="M1420.2,728.2h-56v1.6h56V728.2z"/>
		<path class="st20" d="M1435.5,785.6h-86.7l1.8-6.5h83.1L1435.5,785.6z"/>
		<path class="st23" d="M1447,825.2h-109l2.3-6.5h104.4L1447,825.2z"/>
		<path class="st22" d="M1436.4,785.6L1436.4,785.6h-0.9"/>
		<path class="st22" d="M1348.8,785.6h-0.8"/>
		<path class="st21" d="M1221.5,696.2l45.5,159.4h-9.7l-41.4-157.9L1221.5,696.2z"/>
		<path d="M1222.3,696l-0.2-0.8l-7.3,2l21.4,81.6l0.4,1.6l1.3,4.9l0.4,1.6l8,30.6l0.5,2l1.6,6.1l0.5,2l7.6,29h11.5L1222.3,696z
			 M1220.9,697.2l44.9,157.6h-8l-41-156.5L1220.9,697.2z"/>
		<path class="st22" d="M1173.7,723.7h49.5"/>
		<path d="M1237.7,778.7h-73v1.6h73V778.7z"/>
		<path d="M1247.4,817.4h-87.6v2h87.6V817.4z"/>
		<path class="st21" d="M1248.5,825.5h-89.3l0.9-6.1h86.8L1248.5,825.5z"/>
		<path d="M1249.1,825.5h-90.8v2h90.8V825.5z"/>
		<path class="st22" d="M1172.8,729.4h51.9"/>
		<path class="st21" d="M1237.9,785.2H1165l0.7-4.9h70.9L1237.9,785.2z"/>
		<path d="M1239.3,785.2h-74.6v1.6h74.6V785.2z"/>
		<path class="st24" d="M1150.1,693.8c-5.9-12.3-6.8-23-8.1-40.5c-2.1-27.5-1.6-29.1-3.2-42.1c-1.8-14-11.4-24.3-9.7-25.9
			c1.8-1.8,4-0.9,6.5,1.6c9.7,9.7,14.1,22.6,24.3,51.8c8.7,24.9,13.1,37.4,21.1,42.1c15.5,9,27.6-3.2,56.8,3.2
			c3.3,0.7,25.5,7.6,26,17.8c0.1,2.6-1.1,4.1-3.2,4.9c-3.7,1.2-12.8-5.9-19.5-9.7c-8.1-4.5-16.7-5.2-37.3,8.1
			c-22.5,14.5-27.4,9.8-32.4,8.1C1160.9,709.7,1154.2,702.3,1150.1,693.8L1150.1,693.8z"/>
		<path class="st25" d="M1151.5,856l21-140.5l-5.5-3L1140.5,856H1151.5z"/>
		<rect x="1171" y="724" class="st21" width="50" height="5"/>
		<path class="st26" d="M1457.1,643.3h-199.2V856h199.2V643.3z"/>
		<path class="st19" d="M1257.7,643.1h-27.9v212.7h27.9V643.1z"/>
		<path class="st27" d="M1883,854.9h5.1V641.5h-5.1V854.9z"/>
		<rect x="914" y="217" class="st28" width="847" height="626"/>
		<rect x="1801" y="222" class="st28" width="847" height="627"/>
		
			<linearGradient id="SVGID_00000025401756237187455730000018036172233288408472_" gradientUnits="userSpaceOnUse" x1="2421.9951" y1="679.8898" x2="2421.9951" y2="1.8898" gradientTransform="matrix(1 0 0 -1 0 897.8898)">
			<stop  offset="0" style="stop-color:#FFF4DA"/>
			<stop  offset="1" style="stop-color:#FFF4DA;stop-opacity:0"/>
		</linearGradient>
		<path style="fill:url(#SVGID_00000025401756237187455730000018036172233288408472_);fill-opacity:0.51;" d="M1796,218h847.8
			L3048,896H1796V218z"/>
		
			<linearGradient id="SVGID_00000116955415983680699600000002774225138426405251_" gradientUnits="userSpaceOnUse" x1="1166.25" y1="680.8898" x2="1166.25" y2="1.8898" gradientTransform="matrix(1 0 0 -1 0 897.8898)">
			<stop  offset="0" style="stop-color:#FFF4DA"/>
			<stop  offset="1" style="stop-color:#FFF4DA;stop-opacity:0"/>
		</linearGradient>
		<path style="fill:url(#SVGID_00000116955415983680699600000002774225138426405251_);fill-opacity:0.51;" d="M913.7,217H1764v679
			H568.5l282-534.5L913.7,217z"/>
		<path class="st31" d="M1468.7-7.9h-9.7v340.6h9.7V-7.9z"/>
		<path class="st32" d="M1406.2,433.1c5-30.6,16.3-44.7,25.9-51.8c5.3-3.9,11.5-6.8,16.2-14.6c6.8-11.3,5.4-24.6,3.2-34h26
			c-2.2,6-4.4,14.9-1.6,24.3c3.2,10.6,11,16.2,16.2,21c8.8,8.3,20.6,26.3,24.3,55C1480.3,434.2,1442.5,432,1406.2,433.1
			L1406.2,433.1z"/>
		<path class="st22" d="M1409.5,418.5h103.8"/>
		<path class="st22" d="M1454.1,348.1h21.1"/>
		
			<linearGradient id="SVGID_00000054257715002964008000000016612774875329003181_" gradientUnits="userSpaceOnUse" x1="1474.5" y1="464.8898" x2="1474.5" y2="261.1398" gradientTransform="matrix(1 0 0 -1 0 897.8898)">
			<stop  offset="0" style="stop-color:#FFFFFF"/>
			<stop  offset="1" style="stop-color:#D9D9D9;stop-opacity:0"/>
		</linearGradient>
		<path style="fill:url(#SVGID_00000054257715002964008000000016612774875329003181_);fill-opacity:0.7;" d="M1227,840l177.1-407
			h114.7L1722,840H1227z"/>
		
			<linearGradient id="SVGID_00000037652839201724684050000018362806263224247685_" gradientUnits="userSpaceOnUse" x1="1697.5" y1="461.8898" x2="1697.5" y2="258.1398" gradientTransform="matrix(1 0 0 -1 0 897.8898)">
			<stop  offset="0" style="stop-color:#FFFFFF"/>
			<stop  offset="1" style="stop-color:#D9D9D9;stop-opacity:0"/>
		</linearGradient>
		<path style="fill:url(#SVGID_00000037652839201724684050000018362806263224247685_);fill-opacity:0.7;" d="M1450,843l177.1-407
			h114.7L1945,843H1450z"/>
		
			<linearGradient id="SVGID_00000175311796670288415450000016652474764486185619_" gradientUnits="userSpaceOnUse" x1="1914.5" y1="464.8898" x2="1914.5" y2="261.1398" gradientTransform="matrix(1 0 0 -1 0 897.8898)">
			<stop  offset="0" style="stop-color:#FFFFFF"/>
			<stop  offset="1" style="stop-color:#D9D9D9;stop-opacity:0"/>
		</linearGradient>
		<path style="fill:url(#SVGID_00000175311796670288415450000016652474764486185619_);fill-opacity:0.7;" d="M1667,840l177.1-407
			h114.7L2162,840H1667z"/>
		<path class="st31" d="M1692.7-7.7h-9.7v340.6h9.7V-7.7z"/>
		<path class="st32" d="M1630.2,433.2c5-30.6,16.3-44.7,26-51.8c5.3-3.9,11.5-6.8,16.2-14.6c6.8-11.3,5.4-24.6,3.2-34h25.9
			c-2.2,6-4.4,14.9-1.6,24.3c3.2,10.6,11,16.2,16.2,21c8.8,8.3,20.6,26.3,24.3,55C1704.3,434.3,1666.4,432.2,1630.2,433.2
			L1630.2,433.2z"/>
		<path class="st22" d="M1633.5,418.7h103.8"/>
		<path class="st22" d="M1678.1,348.3h21.1"/>
		<path class="st31" d="M1913.1-9.5h-9.7v340.6h9.7V-9.5z"/>
		<path class="st32" d="M1850.7,431.5c5-30.6,16.3-44.7,25.9-51.8c5.3-3.9,11.5-6.8,16.2-14.6c6.8-11.3,5.4-24.6,3.2-34h25.9
			c-2.2,6-4.4,14.9-1.6,24.3c3.2,10.6,11,16.2,16.2,21c8.8,8.3,20.6,26.3,24.3,55C1924.7,432.6,1886.9,430.4,1850.7,431.5
			L1850.7,431.5z"/>
		<path class="st22" d="M1853.9,416.9h103.8"/>
		<path class="st22" d="M1898.5,346.5h21.1"/>
		<rect x="2111" y="732" class="st36" width="499.8" height="21"/>
		<rect x="2416.2" y="759.2" class="st36" width="499.8" height="21"/>
		<path class="st36" d="M2233,786.4h499.8v21H2233V786.4z"/>
		<rect x="2203" y="759.2" class="st37" width="23.1" height="98.4"/>
		<rect x="2739.6" y="786.4" class="st37" width="23.1" height="71.2"/>
	</g>
</g>
</svg>
