<?xml version="1.0" encoding="UTF-8"?>
<svg id="Layer_1" data-name="Layer 1" xmlns="http://www.w3.org/2000/svg" xmlns:xlink="http://www.w3.org/1999/xlink" viewBox="0 0 3047 900">
  <defs>
    <style>
      .cls-1, .cls-2, .cls-3, .cls-4, .cls-5, .cls-6, .cls-7, .cls-8, .cls-9 {
        fill: none;
      }

      .cls-1, .cls-3 {
        stroke-linecap: round;
      }

      .cls-1, .cls-3, .cls-4, .cls-10, .cls-5, .cls-7, .cls-8, .cls-11, .cls-12, .cls-13, .cls-14, .cls-9, .cls-15, .cls-16, .cls-17, .cls-18, .cls-19 {
        stroke: #fff;
      }

      .cls-1, .cls-5, .cls-20, .cls-12, .cls-13, .cls-14 {
        stroke-width: 1.93px;
      }

      .cls-21 {
        clip-path: url(#clippath);
      }

      .cls-2, .cls-22, .cls-23, .cls-24, .cls-25, .cls-26, .cls-27 {
        stroke-width: 0px;
      }

      .cls-3, .cls-6, .cls-7, .cls-15, .cls-16, .cls-17, .cls-18, .cls-19 {
        stroke-width: .97px;
      }

      .cls-4, .cls-10 {
        stroke-width: 3.87px;
      }

      .cls-10 {
        fill: #fff;
      }

      .cls-6 {
        stroke: #000;
      }

      .cls-22 {
        fill: url(#linear-gradient);
        fill-opacity: .4;
      }

      .cls-8, .cls-11 {
        stroke-width: 2.9px;
      }

      .cls-11, .cls-14, .cls-17 {
        fill: #d9d9d9;
      }

      .cls-23 {
        fill: url(#linear-gradient-2);
      }

      .cls-24 {
        fill: url(#linear-gradient-3);
      }

      .cls-20 {
        stroke: #e9e4e4;
      }

      .cls-20, .cls-12, .cls-27 {
        fill: #05212a;
      }

      .cls-13, .cls-26, .cls-15 {
        fill: #212609;
      }

      .cls-9 {
        stroke-width: 6.77px;
      }

      .cls-25 {
        fill: #141706;
      }

      .cls-16 {
        fill: #373735;
      }

      .cls-18 {
        fill: #3b3b39;
      }

      .cls-19 {
        fill: #383836;
      }
    </style>
    <clipPath id="clippath">
      <rect class="cls-2" width="3047" height="900"/>
    </clipPath>
    <linearGradient id="linear-gradient" x1="1190.75" y1="815.4" x2="1190.75" y2="61.2" gradientTransform="translate(0 964) scale(1 -1)" gradientUnits="userSpaceOnUse">
      <stop offset="0" stop-color="#b4ffd7"/>
      <stop offset="1" stop-color="#466046"/>
    </linearGradient>
    <linearGradient id="linear-gradient-2" x1="2313" y1="437.36" x2="2519" y2="437.36" gradientTransform="translate(0 964) scale(1 -1)" gradientUnits="userSpaceOnUse">
      <stop offset="0" stop-color="#4a6344"/>
      <stop offset="1" stop-color="#454545" stop-opacity="0"/>
    </linearGradient>
    <linearGradient id="linear-gradient-3" x1="2727.3" y1="813.26" x2="2726.21" y2="629.76" gradientTransform="translate(0 964) scale(1 -1)" gradientUnits="userSpaceOnUse">
      <stop offset="0" stop-color="#4a6344"/>
      <stop offset="1" stop-color="#454545" stop-opacity="0"/>
    </linearGradient>
  </defs>
  <g class="cls-21">
    <g>
      <rect class="cls-25" width="3047" height="900"/>
      <rect class="cls-26" width="3040" height="900"/>
      <rect class="cls-26" x="-1" y="-20.56" width="3040" height="900"/>
      <rect class="cls-9" x="784.5" y="167.76" width="23" height="306.54"/>
      <rect class="cls-7" x="1207.5" y="348.13" width="52" height="128.97"/>
      <rect class="cls-7" x="1207.5" y="272.43" width="52" height="74.77"/>
      <rect class="cls-7" x="1313.5" y="164.95" width="53" height="106.54"/>
      <rect class="cls-7" x="1313.5" y="348.13" width="53" height="128.97"/>
      <rect class="cls-7" x="1313.5" y="272.43" width="53" height="74.77"/>
      <rect class="cls-7" x="1260.5" y="164.95" width="52" height="220.56"/>
      <rect class="cls-7" x="1260.5" y="310.75" width="52" height="166.36"/>
      <rect class="cls-7" x="1260.5" y="202.34" width="52" height="107.48"/>
      <rect class="cls-7" x="1260.5" y="164.95" width="52" height="220.56"/>
      <rect class="cls-7" x="1260.5" y="310.75" width="52" height="166.36"/>
      <rect class="cls-7" x="1367.5" y="202.34" width="52" height="107.48"/>
      <rect class="cls-7" x="1367.5" y="164.95" width="52" height="220.56"/>
      <rect class="cls-7" x="1367.5" y="310.75" width="52" height="166.36"/>
      <rect class="cls-7" x="1473.5" y="348.13" width="52" height="128.97"/>
      <rect class="cls-7" x="1473.5" y="272.43" width="52" height="74.77"/>
      <rect class="cls-7" x="1420.5" y="164.95" width="52" height="220.56"/>
      <rect class="cls-7" x="1420.5" y="310.75" width="52" height="166.36"/>
      <rect class="cls-7" x="1420.5" y="202.34" width="52" height="107.48"/>
      <rect class="cls-7" x="1420.5" y="164.95" width="52" height="220.56"/>
      <rect class="cls-7" x="1420.5" y="310.75" width="52" height="166.36"/>
      <rect class="cls-7" x="1526.5" y="202.34" width="52" height="107.48"/>
      <rect class="cls-7" x="1526.5" y="164.95" width="52" height="220.56"/>
      <rect class="cls-7" x="1526.5" y="310.75" width="52" height="166.36"/>
      <rect class="cls-7" x="462.5" y="202.34" width="52" height="107.48"/>
      <path class="cls-9" d="m395,497.2V148.6h1601v348.6H395Z"/>
      <rect class="cls-7" x="409.5" y="164.95" width="1566" height="312.15"/>
      <rect class="cls-8" x="782.5" y="165.89" width="27" height="310.28"/>
      <rect class="cls-9" x="784.5" y="167.76" width="23" height="306.54"/>
      <rect class="cls-9" x="1582.5" y="167.76" width="23" height="306.54"/>
      <rect class="cls-9" x="1187.5" y="167.76" width="23" height="306.54"/>
      <rect class="cls-8" x="1580.5" y="165.89" width="27" height="310.28"/>
      <rect class="cls-7" x="409.5" y="164.95" width="52" height="106.54"/>
      <rect class="cls-7" x="409.5" y="348.13" width="52" height="128.97"/>
      <rect class="cls-7" x="409.5" y="272.43" width="52" height="74.77"/>
      <rect class="cls-7" x="515.5" y="164.95" width="52" height="106.54"/>
      <rect class="cls-7" x="515.5" y="348.13" width="52" height="128.97"/>
      <rect class="cls-7" x="515.5" y="272.43" width="52" height="74.77"/>
      <rect class="cls-7" x="462.5" y="164.95" width="52" height="220.56"/>
      <rect class="cls-7" x="462.5" y="310.75" width="52" height="166.36"/>
      <rect class="cls-7" x="462.5" y="202.34" width="52" height="107.48"/>
      <rect class="cls-7" x="462.5" y="164.95" width="52" height="220.56"/>
      <rect class="cls-7" x="462.5" y="310.75" width="52" height="166.36"/>
      <rect class="cls-7" x="568.5" y="202.34" width="53" height="107.48"/>
      <rect class="cls-7" x="568.5" y="164.95" width="53" height="220.56"/>
      <rect class="cls-7" x="568.5" y="310.75" width="53" height="166.36"/>
      <rect class="cls-7" x="675.5" y="348.13" width="52" height="128.97"/>
      <rect class="cls-7" x="675.5" y="272.43" width="52" height="74.77"/>
      <rect class="cls-7" x="622.5" y="164.95" width="52" height="220.56"/>
      <rect class="cls-7" x="622.5" y="310.75" width="52" height="166.36"/>
      <rect class="cls-7" x="622.5" y="202.34" width="52" height="107.48"/>
      <rect class="cls-7" x="622.5" y="164.95" width="52" height="220.56"/>
      <rect class="cls-7" x="622.5" y="310.75" width="52" height="166.36"/>
      <rect class="cls-7" x="728.5" y="202.34" width="52" height="107.48"/>
      <rect class="cls-7" x="728.5" y="164.95" width="52" height="220.56"/>
      <rect class="cls-7" x="728.5" y="310.75" width="52" height="166.36"/>
      <rect class="cls-7" x="811.5" y="348.13" width="53" height="128.97"/>
      <rect class="cls-7" x="811.5" y="272.43" width="53" height="74.77"/>
      <rect class="cls-7" x="918.5" y="164.95" width="52" height="106.54"/>
      <rect class="cls-7" x="918.5" y="348.13" width="52" height="128.97"/>
      <rect class="cls-7" x="918.5" y="272.43" width="52" height="74.77"/>
      <rect class="cls-7" x="865.5" y="164.95" width="52" height="220.56"/>
      <rect class="cls-7" x="865.5" y="310.75" width="52" height="166.36"/>
      <rect class="cls-7" x="865.5" y="202.34" width="52" height="107.48"/>
      <rect class="cls-7" x="865.5" y="164.95" width="52" height="220.56"/>
      <rect class="cls-7" x="865.5" y="310.75" width="52" height="166.36"/>
      <rect class="cls-7" x="971.5" y="202.34" width="52" height="107.48"/>
      <rect class="cls-7" x="971.5" y="164.95" width="52" height="220.56"/>
      <rect class="cls-7" x="971.5" y="310.75" width="52" height="166.36"/>
      <rect class="cls-7" x="1077.5" y="348.13" width="53" height="128.97"/>
      <rect class="cls-7" x="1077.5" y="272.43" width="53" height="74.77"/>
      <rect class="cls-7" x="1024.5" y="164.95" width="52" height="220.56"/>
      <rect class="cls-7" x="1024.5" y="310.75" width="52" height="166.36"/>
      <rect class="cls-7" x="1024.5" y="202.34" width="52" height="107.48"/>
      <rect class="cls-7" x="1024.5" y="164.95" width="52" height="220.56"/>
      <rect class="cls-7" x="1024.5" y="310.75" width="52" height="166.36"/>
      <rect class="cls-7" x="1131.5" y="202.34" width="52" height="107.48"/>
      <rect class="cls-7" x="1131.5" y="164.95" width="52" height="220.56"/>
      <rect class="cls-7" x="1131.5" y="310.75" width="52" height="166.36"/>
      <rect class="cls-7" x="1607.5" y="272.43" width="52" height="74.77"/>
      <rect class="cls-7" x="1712.5" y="164.95" width="53" height="106.54"/>
      <rect class="cls-7" x="1712.5" y="348.13" width="53" height="128.97"/>
      <rect class="cls-7" x="1712.5" y="272.43" width="53" height="74.77"/>
      <rect class="cls-7" x="1660.5" y="164.95" width="51" height="220.56"/>
      <rect class="cls-7" x="1660.5" y="310.75" width="51" height="166.36"/>
      <rect class="cls-7" x="1660.5" y="202.34" width="51" height="107.48"/>
      <rect class="cls-7" x="1660.5" y="164.95" width="51" height="220.56"/>
      <rect class="cls-7" x="1660.5" y="310.75" width="51" height="166.36"/>
      <rect class="cls-7" x="1766.5" y="202.34" width="51" height="107.48"/>
      <rect class="cls-7" x="1766.5" y="164.95" width="51" height="220.56"/>
      <rect class="cls-7" x="1766.5" y="310.75" width="51" height="166.36"/>
      <rect class="cls-7" x="1871.5" y="348.13" width="51" height="128.97"/>
      <rect class="cls-7" x="1871.5" y="272.43" width="51" height="74.77"/>
      <rect class="cls-7" x="1818.5" y="164.95" width="52" height="220.56"/>
      <rect class="cls-7" x="1818.5" y="310.75" width="52" height="166.36"/>
      <rect class="cls-7" x="1818.5" y="202.34" width="52" height="107.48"/>
      <rect class="cls-7" x="1818.5" y="164.95" width="52" height="220.56"/>
      <rect class="cls-7" x="1818.5" y="310.75" width="52" height="166.36"/>
      <rect class="cls-7" x="1923.5" y="202.34" width="52" height="107.48"/>
      <rect class="cls-7" x="1923.5" y="164.95" width="52" height="220.56"/>
      <rect class="cls-7" x="1923.5" y="310.75" width="52" height="166.36"/>
      <path class="cls-4" d="m616.54,209c5.18-3.02,11.74-3.02,16.92,0l79.1,46.07c13.65,7.95,7.62,27.64-8.46,27.64h-158.21c-16.09,0-22.11-19.69-8.46-27.64l79.1-46.07Z"/>
      <path class="cls-1" d="m623.25,208.15c-3.54,0-6.25,1.56-9.39,3.01-6.74,3.12-12.95,6.57-18.85,10.94-8.09,5.99-14.89,13.31-21.4,20.77-7.06,8.09-13.8,16.64-17.37,26.63-1.15,3.22-3.68,8.03-3.68,11.48"/>
      <path class="cls-1" d="m621.89,206.88c-.2.75-2.74.48-3.4.68-4.63,1.44-8.4,4.39-11.76,7.62-5.35,5.16-7.64,10.88-11.05,17.17-3.29,6.07-6.27,12.37-8.21,18.94-2.88,9.76-5.01,19.98-5.01,30.11"/>
      <path class="cls-1" d="m622.34,208.99c-.44,2.49-2.51,5.02-3.62,7.29-2.23,4.52-3.87,8.92-4.88,13.83-2.17,10.51-3.73,21.17-3.73,31.88,0,6.4.45,13.27.45,19.41"/>
      <path class="cls-1" d="m616,209.35c-1.93.52-3.7,4.31-4.38,5.77-2.25,4.78-4.85,9.45-6.48,14.44-3.79,11.61-7.69,23.68-8.84,35.77-.3,3.19-.19,6.4-.19,9.6,0,1.18-.27,2.71.02,3.89.42,1.71.79,3.51.99,5.3"/>
      <path class="cls-1" d="m538.9,280.83c-.37-3.42-.72-6.93-.16-10.39.76-4.64,3.67-8.71,6.03-12.74,2.16-3.68,5.13-6.42,7.84-9.68.98-1.18,2.02-2,3.21-3.02,1.24-1.06,2.46-2.89,4.06-3.39"/>
      <path class="cls-1" d="m623,207.81c3.54,0,6.25,1.56,9.39,3.01,6.74,3.12,12.95,6.57,18.85,10.94,8.09,5.99,14.89,13.31,21.4,20.77,7.06,8.09,13.8,16.64,17.37,26.63,1.15,3.22,3.68,8.03,3.68,11.48"/>
      <path class="cls-1" d="m624.36,206.54c.2.75,2.74.48,3.4.68,4.63,1.44,8.4,4.39,11.76,7.62,5.36,5.16,7.64,10.89,11.05,17.17,3.29,6.07,6.27,12.37,8.21,18.94,2.88,9.76,5.01,19.98,5.01,30.11"/>
      <path class="cls-1" d="m623.91,208.66c.44,2.49,2.51,5.02,3.62,7.29,2.23,4.52,3.87,8.92,4.88,13.83,2.17,10.51,3.72,21.16,3.72,31.88,0,6.4-.45,13.27-.45,19.41"/>
      <path class="cls-1" d="m630,208.41c1.84.53,3.51,4.37,4.16,5.84,2.14,4.84,4.61,9.57,6.16,14.63,3.6,11.75,7.3,23.97,8.39,36.22.29,3.23.18,6.49.18,9.72,0,1.2.26,2.74-.02,3.93-.4,1.73-.75,3.55-.94,5.36"/>
      <path class="cls-1" d="m707.47,280.37c.43-3.67.84-7.43.18-11.14-.88-4.98-4.28-9.34-7.03-13.66-2.52-3.95-5.99-6.89-9.15-10.38-1.15-1.27-2.35-2.14-3.74-3.24-1.44-1.14-2.86-3.1-4.73-3.64"/>
      <path class="cls-10" d="m670.31,287.65c2,7.52-.83,9.94-2.5,10.22-5.77,2.66-5.57-15.33-6.73-21.25-1.15-5.93,9.22-6.74,9.22-4.29s-2.5,5.93,0,15.33Z"/>
      <path class="cls-10" d="m535.69,279.17c-2,6.22.83,8.23,2.5,8.46,5.77,2.2,5.57-12.68,6.73-17.59,1.15-4.9-9.22-5.58-9.22-3.55s2.5,4.9,0,12.68Z"/>
      <path class="cls-14" d="m584.57,296.66c-.97-5.86-11.2-7.06-16.19-6.94-3.64,2.31,0,19.65-6.07,26.97-6.07,7.32,1.21,11.17,6.07,14.64,4.86,3.47,6.48,14.26,13.77,15.8,7.29,1.54,16.6,0,14.57-8.86-2.03-8.86-10.53-1.93-16.19-17.34-5.67-15.41,5.26-16.95,4.05-24.27Z"/>
      <path class="cls-10" d="m573.69,287.65c-2,7.52.83,9.94,2.5,10.22,5.77,2.66,5.57-15.33,6.73-21.25,1.15-5.93-9.22-6.74-9.22-4.29s2.5,5.93,0,15.33Z"/>
      <path class="cls-1" d="m564.44,313.62c1.45,0,2.57,1.67,3.07,2.76.47,1.03.83,2.13,1,3.24.28,1.86.48,4.1.07,5.95-.32,1.46-.68,2.93-1.18,4.34"/>
      <path class="cls-1" d="m593.85,334.2h-3.19c-1.73,0-3.02.65-4.5,1.38-2.11,1.04-3.43,3.6-4.14,5.66-.47,1.36-.71,3.63.15,4.83"/>
      <path class="cls-14" d="m547,290.19c-.4-5.98-9.83-4.36-14.5-2.8-3.5.93,1,13.55-2,22.43s0,7.48,5.5,14.95,16.5,4.67,19-3.27-2.5-5.14-8-11.68.5-12.15,0-19.63Z"/>
      <path class="cls-1" d="m531.65,309.94c5.09,0,8.51,2.95,9.79,7.49.98,3.49.06,6.61-1.55,9.63"/>
      <path class="cls-1" d="m551.34,314.18c-.04.31-.17.62-.22.94-.12.74-.16,1.5-.09,2.24.05.61.21,1.12.56,1.64.3.44.68.79,1.07,1.16.45.42.92.82,1.45,1.14"/>
      <path class="cls-14" d="m655.5,300.47c.4-7.48,12.83-9.35,19-9.35,8.5,2.34,0,25.23,5,36.45s-3,11.68-10.5,21.5-15.5,19.16-26,18.69-9-8.41-5.5-11.68,10.5-11.21,18-22.9-.5-23.36,0-32.71Z"/>
      <path class="cls-1" d="m639.33,355.25c1.91,0,4.11-.26,5.88.56,1.59.74,3.18,2.01,4.3,3.3,1.49,1.71,2.4,4.63,2.4,6.8"/>
      <path class="cls-1" d="m677.68,325.29c-1.6,2.25-3.69,5.04-4.13,7.81-.24,1.54-.18,2.96-.01,4.49.12,1.15.67,2.35,1.19,3.32"/>
      <path class="cls-1" d="m659,302.32c0,1.94,1.18,3.76,1.18,5.7"/>
      <path class="cls-1" d="m664.9,301.58c0,.86-.03,1.73.2,2.57"/>
      <path class="cls-1" d="m674.34,298.27c0,1.6-.2,3.21-.2,4.78"/>
      <path class="cls-1" d="m569.6,300.15v5.72"/>
      <path class="cls-1" d="m573.68,303.27v1.56"/>
      <path class="cls-1" d="m533.83,289.92c0,2.55-.05,5.11.06,7.66"/>
      <path class="cls-3" d="m535.94,289.73c0,1.82-.02,3.63.11,5.45.09,1.19.17,2.37.17,3.56"/>
      <path class="cls-3" d="m580.87,301.15c-2.46,2.09-3.31,4.89-4.1,7.85"/>
      <path class="cls-14" d="m701.52,286.65c-2-10.47,5.17-11.53,9-10.75,9,0,10.5,8.88,8,17.29s3,11.21,6,21.03-14,31.31-23,28.5-5.5-8.41,0-18.22c5.5-9.81,2.5-24.77,0-37.85Z"/>
      <path class="cls-10" d="m713.31,279.9c2,5.7-.83,7.54-2.5,7.75-5.77,2.01-5.57-11.63-6.73-16.12-1.15-4.5,9.22-5.11,9.22-3.26s-2.5,4.5,0,11.63Z"/>
      <path class="cls-1" d="m698.53,330.3c3.44,0,6.42-.33,8.59,2.59,1.13,1.52,1.19,4.01,1.19,5.81"/>
      <path class="cls-1" d="m721.27,308.31c-1.64.17-2.11,2.77-2.11,3.95,0,1.32.03,2.49.47,3.76.52,1.52,1.03,2.76,1.85,4.14.43.73,1.38,1.23,1.64,1.98"/>
      <path class="cls-3" d="m704.39,284.77c0,1,.39,2,.65,2.95.65,2.39,1.22,4.77,1.76,7.18"/>
      <path class="cls-3" d="m708.17,286.87c0,1.19.23,2.35.4,3.53.2,1.42.28,2.85.4,4.28"/>
      <path class="cls-3" d="m713.02,287.7v5.03"/>
      <path class="cls-7" d="m531,271.5c36.33,1.25,125.1,2.99,189.5,0"/>
      <path class="cls-11" d="m23.5,34.11h2988c13.81,0,25,10.46,25,23.36h0c0,12.9-11.19,23.36-25,23.36H23.5c-13.81,0-25-10.46-25-23.36h0c0-12.9,11.19-23.36,25-23.36Z"/>
      <g>
        <path class="cls-22" d="m152,931.31L392.5,148.6h1608l229,745.33-2077.5,37.38Z" shape-rendering="crispEdges"/>
        <path class="cls-6" d="m152,931.31L392.5,148.6h1608l229,745.33-2077.5,37.38Z" shape-rendering="crispEdges"/>
      </g>
      <path class="cls-20" d="m1033,645.79h484c32.58,0,59,24.69,59,55.14v41.12c0,30.45-26.42,55.14-59,55.14h-484c-32.58,0-59-24.69-59-55.14v-41.12c0-30.45,26.42-55.14,59-55.14Z"/>
      <path class="cls-12" d="m1437,750.47h144c23.2,0,42,17.57,42,39.25v35.51c0,21.68-18.8,39.25-42,39.25h-144c-23.2,0-42-17.57-42-39.25v-35.51c0-21.68,18.8-39.25,42-39.25Z"/>
      <path class="cls-12" d="m977,750.47h144c23.2,0,42,17.57,42,39.25v35.51c0,21.68-18.8,39.25-42,39.25h-144c-23.2,0-42-17.57-42-39.25v-35.51c0-21.68,18.8-39.25,42-39.25Z"/>
      <path class="cls-12" d="m1179,750.47h199c23.2,0,42,17.57,42,39.25v35.51c0,21.68-18.8,39.25-42,39.25h-199c-23.2,0-42-17.57-42-39.25v-35.51c0-21.68,18.8-39.25,42-39.25Z"/>
      <path class="cls-5" d="m986,864.49h591"/>
      <path class="cls-27" d="m986,762.62h565c14.36,0,26,10.88,26,24.3v51.4c0,13.42-11.64,24.3-26,24.3h-565c-14.36,0-26-10.88-26-24.3v-51.4c0-13.42,11.64-24.3,26-24.3Z"/>
      <rect class="cls-13" x="1514" y="658.88" width="15" height="205.61"/>
      <rect class="cls-13" x="1865" y="658.88" width="15" height="205.61"/>
      <path class="cls-5" d="m1975,757.48c-2-51.09,4.6-154.86,47-161.21,53-7.94-41,2.34-36,161.21"/>
      <rect class="cls-13" x="1894" y="757.94" width="92" height="11.21"/>
      <rect class="cls-5" x="1903" y="770.09" width="6" height="94.39"/>
      <rect class="cls-5" x="1976" y="770.09" width="6" height="94.39"/>
      <path class="cls-5" d="m1420.26,758.45c2-51.09-4.6-154.86-47-161.21-53-7.94,41,2.34,36,161.21"/>
      <path class="cls-7" d="m1420.5,758.41h-11"/>
      <rect class="cls-5" x="1409.26" y="758.92" width="92" height="11.21"/>
      <rect class="cls-5" x="1485" y="771.03" width="6" height="94.39"/>
      <rect class="cls-5" x="1413.26" y="771.07" width="6" height="94.39"/>
      <path class="cls-1" d="m1555.9,624.98c0-1.69-.43-3.95.24-5.52.48-1.11,2.27-1.01,3.29-1.07,2.46-.16,4.93-.11,7.4-.11h20.26c4.62,0,9.26.1,13.88-.04,7.76-.24,15.52-.99,23.25-1.63,7.77-.64,16.89-1.83,23.63,2.96,1.49,1.06,3.57,3.36,3.57,5.22"/>
      <path class="cls-5" d="m1643.65,616.82c-2-5.61-4.8-16.82,0-16.82h17.03c.5,0,4.01,17.29-3,25.23"/>
      <path class="cls-5" d="m1807.5,607.94c0,7.85,1.33,14.8,2,17.29h15c1.6-2.62,1.67-18.85,1.5-26.64h-18.5v9.35Z"/>
      <path class="cls-13" d="m1820,604.89c0,8.81,1.36,16.61,2.05,19.41h15.35c1.64-2.94,1.71-21.16,1.54-29.91h-18.94v10.49Z"/>
      <path class="cls-13" d="m1580,605.82c0,8.81,1.36,16.61,2.05,19.41h15.35c1.64-2.94,1.71-21.16,1.54-29.91h-18.94v10.49Z"/>
      <path class="cls-13" d="m1538.93,627.03c7.5,5.34,14.97,9.06,17.76,10.24l9.31-11.41c-1.51-3-16.98-14.09-24.52-19.27l-11.48,14.08,8.93,6.36Z"/>
      <path class="cls-13" d="m1478.5,625.23h441c9.67,0,17.5,7.32,17.5,16.36h0c0,9.03-7.83,16.36-17.5,16.36h-441c-9.67,0-17.5-7.32-17.5-16.36h0c0-9.03,7.83-16.36,17.5-16.36Z"/>
      <path class="cls-18" d="m986,746.29c.4-1.5,1.5-8.72,2-12.15,91,10.28,144.5-3.27,144.5,0,0,2.62,3,9.19,4.5,12.15-36,6.07-151.5,1.87-151,0Z"/>
      <path class="cls-7" d="m1036.5,734.14c-.8,1.5,1,2.8,2,3.27,3.5,0,5,0,8-1.4s11.5-1.87,16-1.4,6.5-2.8,4-2.8-4-.93-10-.93-5.5,2.34-10,2.34-9-.93-10,.93Z"/>
      <path class="cls-15" d="m1055.5,741.62c-4.4-.75-10.83-2.8-13.5-3.74.5,0,6-2.34,9.5-3.27s6-.47,10,0,2.5-.93,4.5-.47,1,5.14,0,8.41,2.5,3.27,4,5.14-3.5,0-6,0-3-5.14-8.5-6.07Z"/>
      <path class="cls-3" d="m1048.05,739.75c.39,0,.79-.04,1.18-.1.86-.11,1.64-.54,2.46-.8.9-.28,2.1-.56,3.05-.3.4.11.81.3,1.05.64.19.3.16.63.45.88.62.54,2.19.44,2.32,1.39.03.24-.15.38-.15.59"/>
      <path class="cls-3" d="m1061.8,736.73c-.75,0-1.55.36-1.44,1.19.08.57.51.88,1.04,1.09.41.16,1.19.24,1.44.61.32.49.15,1.13.32,1.65.19.59.98.65,1.54.59,1.02-.11,2.14-1.07,1.96-2.09-.15-.89-.75-1.17-1.44-1.69-.3-.23-.55-.53-.73-.85-.12-.22-.16-.48-.29-.7-.24-.43-.91-.39-1.34-.38-.56.01-.95.33-1.37.62"/>
      <path class="cls-3" d="m1061.49,745.41c.96-.52,2.23,0,2.84.74.34.41.46,1.04.99,1.29.29.14.92.07,1.1.32"/>
      <path class="cls-3" d="m1050.2,735.19c.27,0,.54-.01.8.04.61.12,1.01.57,1.54.83.4.2.83.24,1.28.22.57-.01,1.19,0,1.71-.26.37-.19.65-.48,1.06-.62.44-.16.86-.07,1.32-.05.63.04.61-.53.5-.98"/>
      <path class="cls-7" d="m989.5,734.14v-1.87c15,1.09,45.3,3.27,46.5,3.27"/>
      <path class="cls-7" d="m1067.5,735.54c19.5-1.71,59.1-5.05,61.5-4.67s3.34,2.34,3.5,3.27"/>
      <path class="cls-3" d="m1016.82,709.25c-4.16.49-3.35,5.17-2.33,7.78,1.2,3.09,2.98,6.48.66,9.37"/>
      <path class="cls-3" d="m1031.11,721.05v1.11c0,.98.98,1.07,1.54,1.69,1.33,1.47.8,3.73-.11,5.21"/>
      <path class="cls-3" d="m1060.46,714.65c-.72.75-.16,2.91.15,3.67.8,1.93,3.09,4.27,1.18,6.27"/>
      <path class="cls-3" d="m1064.58,712.16c-.32,1.19-.64,2.67-.3,3.89.56,1.98,2.5,3.62,3.67,5.29,1.34,1.92,2.36,4.11,2.42,6.44.05,1.61-.46,2.91-1,4.38"/>
      <rect class="cls-7" x="-21.5" y="865.89" width="3053" height="33.64"/>
      <rect class="cls-7" x="2701.5" y="403.27" width="51" height="52.34"/>
      <rect class="cls-7" x="2701.5" y="384.58" width="51" height="108.41"/>
      <rect class="cls-7" x="2806.5" y="437.85" width="51" height="36.45"/>
      <rect class="cls-7" x="2753.5" y="403.27" width="52" height="52.34"/>
      <rect class="cls-7" x="2753.5" y="384.58" width="52" height="108.41"/>
      <path class="cls-5" d="m2493,866.36v-55.61h60.5v-49.07h77.5v-100h400.5"/>
      <path class="cls-5" d="m2493,820.09h60.5v-17.76"/>
      <path class="cls-5" d="m2553.5,771.03h77.5v-12.62"/>
      <path class="cls-5" d="m2631.5,671.03h399.5"/>
      <path class="cls-14" d="m2966.5,420.09v125.23l32,23.36c20.8-35.51,24.33-113.86,23.5-148.6h-55.5Z"/>
      <path class="cls-14" d="m2938,596.73c0,11.59-6.67,48.13-10,64.95h78l-10.5-118.69h-135.5c8.5,60.28,78,39.25,78,53.74Z"/>
      <path class="cls-5" d="m2966,427.1h56"/>
      <path class="cls-17" d="m2859.5,539.72h103c-7.83-2.34-29.3-6.92-52.5-6.54-23.2.37-43.33,4.52-50.5,6.54Z"/>
      <rect class="cls-9" x="2634.5" y="383.64" width="248" height="110.28"/>
      <path class="cls-17" d="m2646.76,472.99c-13-22.77-11.55-67.01-9.21-86.28,19.5-6.57,80.18,0,73.68,11.83-6.51,11.83-4.34,60.44,0,77.96,4.33,17.52,21.12,22.34,15.7,27.59-5.41,5.26-9.2,0-20.04,0s-4.33,5.26-16.25,5.26-7.58-5.26-17.88-5.26-16.25,8.76-26,0c-9.75-8.76,16.25-2.63,0-31.1Z"/>
      <path class="cls-17" d="m2872.08,472.99c16.82-22.77,14.95-67.01,11.91-86.28-25.22-6.57-103.7,0-95.29,11.83,8.41,11.83,5.6,60.44,0,77.96-5.61,17.52-27.33,22.34-20.32,27.59,7,5.26,11.91,0,25.92,0s5.61,5.26,21.02,5.26,9.81-5.26,23.13-5.26,21.02,8.76,33.63,0c12.61-8.76-21.02-2.63,0-31.1Z"/>
      <path class="cls-1" d="m2646.8,436.57c0,4.79-.16,9.04,1.68,13.57,2.15,5.29,5.57,9.97,9.21,14.45,8.31,10.24,11.73,24.68,5.44,36.43"/>
      <path class="cls-1" d="m2674.02,446.74c5.42,6.08,9.13,14.7,12.03,21.99,3.09,7.76,4.44,16.18,3.09,24.37"/>
      <path class="cls-1" d="m2675.23,465.96c.55,2.04,2.36,3.68,3.03,5.78.82,2.6,1.92,5.34,2.28,8.04.43,3.25.5,7.23-.6,10.36-.79,2.23-2.4,4.02-2.89,6.34"/>
      <path class="cls-1" d="m2803.81,448.97c0,9.19.26,18.41-1.16,27.53-.97,6.23-2.47,12.5-5.3,18.25-.53,1.07-2.22,4.07-2.22,2.88"/>
      <path class="cls-1" d="m2839.38,432.34c0,10.58.45,21.25-.38,31.81-.81,10.29-2.82,20.55-6.85,30.19-1.08,2.59-2.12,4.55-4.48,6.13"/>
      <path class="cls-1" d="m2831.14,462.35c0,3.56.07,7.13-.29,10.68-.99,9.98-4.23,18.48-8.82,27.44"/>
      <path class="cls-1" d="m2858.48,463.16c0,5.12-1.69,9.78-3.26,14.64-1.99,6.18-3.32,12.18-3.69,18.61"/>
      <path class="cls-1" d="m2862.38,474.51c-.24,4.55-3.26,8.49-3.45,13.18-.14,3.79.01,6.52,2.58,9.53"/>
      <path class="cls-1" d="m2795.13,476.14c0,9.86-9.52,18.65-19.96,18.65"/>
      <rect class="cls-7" x="2632.5" y="721.96" width="53" height="49.53"/>
      <rect class="cls-7" x="2632.5" y="671.5" width="53" height="49.53"/>
      <rect class="cls-7" x="2686.5" y="721.96" width="53" height="49.53"/>
      <rect class="cls-7" x="2686.5" y="671.5" width="53" height="49.53"/>
      <rect class="cls-7" x="2632.5" y="721.96" width="53" height="49.53"/>
      <rect class="cls-7" x="2632.5" y="671.5" width="53" height="49.53"/>
      <rect class="cls-7" x="2740.5" y="721.96" width="53" height="49.53"/>
      <rect class="cls-7" x="2740.5" y="671.5" width="53" height="49.53"/>
      <rect class="cls-7" x="2794.5" y="721.96" width="53" height="49.53"/>
      <rect class="cls-7" x="2794.5" y="671.5" width="53" height="49.53"/>
      <rect class="cls-7" x="2848.5" y="721.96" width="53" height="49.53"/>
      <rect class="cls-7" x="2848.5" y="671.5" width="53" height="49.53"/>
      <rect class="cls-7" x="2902.5" y="721.96" width="53" height="49.53"/>
      <rect class="cls-7" x="2902.5" y="671.5" width="53" height="49.53"/>
      <rect class="cls-7" x="2956.5" y="721.96" width="53" height="49.53"/>
      <rect class="cls-7" x="2956.5" y="671.5" width="53" height="49.53"/>
      <rect class="cls-7" x="3009.5" y="721.96" width="53" height="49.53"/>
      <rect class="cls-7" x="3009.5" y="671.5" width="53" height="49.53"/>
      <rect class="cls-7" x="2686.5" y="671.5" width="53" height="49.53"/>
      <rect class="cls-7" x="2632.5" y="721.96" width="53" height="49.53"/>
      <rect class="cls-7" x="2632.5" y="671.5" width="53" height="49.53"/>
      <rect class="cls-7" x="2740.5" y="721.96" width="53" height="49.53"/>
      <rect class="cls-7" x="2740.5" y="671.5" width="53" height="49.53"/>
      <rect class="cls-7" x="2794.5" y="721.96" width="53" height="49.53"/>
      <rect class="cls-7" x="2794.5" y="671.5" width="53" height="49.53"/>
      <rect class="cls-7" x="2848.5" y="721.96" width="53" height="49.53"/>
      <rect class="cls-7" x="2848.5" y="671.5" width="53" height="49.53"/>
      <rect class="cls-7" x="2902.5" y="721.96" width="53" height="49.53"/>
      <rect class="cls-7" x="2902.5" y="671.5" width="53" height="49.53"/>
      <rect class="cls-7" x="2956.5" y="721.96" width="53" height="49.53"/>
      <rect class="cls-7" x="2956.5" y="671.5" width="53" height="49.53"/>
      <rect class="cls-7" x="3009.5" y="721.96" width="53" height="49.53"/>
      <rect class="cls-7" x="3009.5" y="671.5" width="53" height="49.53"/>
      <rect class="cls-7" x="2608.5" y="771.5" width="53" height="45.79"/>
      <rect class="cls-7" x="2554.5" y="818.22" width="53" height="46.73"/>
      <rect class="cls-7" x="2554.5" y="771.5" width="53" height="45.79"/>
      <rect class="cls-7" x="2662.5" y="818.22" width="53" height="46.73"/>
      <rect class="cls-7" x="2662.5" y="771.5" width="53" height="45.79"/>
      <rect class="cls-7" x="2716.5" y="818.22" width="53" height="46.73"/>
      <rect class="cls-7" x="2716.5" y="771.5" width="53" height="45.79"/>
      <rect class="cls-7" x="2770.5" y="818.22" width="53" height="46.73"/>
      <rect class="cls-7" x="2770.5" y="771.5" width="53" height="45.79"/>
      <rect class="cls-7" x="2824.5" y="818.22" width="53" height="46.73"/>
      <rect class="cls-7" x="2824.5" y="771.5" width="53" height="45.79"/>
      <rect class="cls-7" x="2878.5" y="818.22" width="53" height="46.73"/>
      <rect class="cls-7" x="2878.5" y="771.5" width="53" height="45.79"/>
      <rect class="cls-7" x="2931.5" y="818.22" width="53" height="46.73"/>
      <rect class="cls-7" x="2931.5" y="771.5" width="53" height="45.79"/>
      <path class="cls-7" d="m2648,682.71l6.5,9.35m0,0l-6.5,5.14m6.5-5.14l11,2.8m-11-2.8l11-9.35-11-4.67h14"/>
      <path class="cls-7" d="m2743,770.56l28.5-15.89-14-18.69m0,0l35-11.68m-35,11.68l-9-4.21m9,4.21v5.61"/>
      <path class="cls-7" d="m2813,688.32l9.25,3.74m.75,11.68l8.5-7.94-9.25-3.74m0,0l5.25-3.74"/>
      <path class="cls-7" d="m2554.5,817.29l33.5,21.5-21,3.27"/>
      <path class="cls-7" d="m2578.5,831.78l12-5.61"/>
      <path class="cls-7" d="m2706,819.16l-12,11.92m-12,11.92l12-11.92m0,0l-8.5-4.91m8.5,4.91v-8.18l5.5-3.74"/>
      <path class="cls-7" d="m2904,741.12l24.5,11.21m0,0l-5-21.03,22-8.88m-17,29.91h8m0,0v8.88m0-8.88v-5.61h9"/>
      <path class="cls-18" d="m62.5,862.15c.4-1.5,1.5-8.72,2-12.15,91,10.28,144.5-3.27,144.5,0,0,2.62,3,9.19,4.5,12.15-36,6.07-151.5,1.87-151,0Z"/>
      <path class="cls-18" d="m197,863.14c.4-1.5,1.5-8.72,2-12.15,91,10.28,144.5-3.27,144.5,0,0,2.62,3,9.19,4.5,12.15-36,6.07-151.5,1.87-151,0Z"/>
      <path class="cls-7" d="m113,850c-.8,1.5,1,2.8,2,3.27,3.5,0,5,0,8-1.4s11.5-1.87,16-1.4,6.5-2.8,4-2.8-4-.93-10-.93-5.5,2.34-10,2.34-9-.93-10,.93Z"/>
      <path class="cls-15" d="m132,857.48c-4.4-.75-10.83-2.8-13.5-3.74.5,0,6-2.34,9.5-3.27s6-.47,10,0,2.5-.93,4.5-.47,1,5.14,0,8.41,2.5,3.27,4,5.14-3.5,0-6,0-3-5.14-8.5-6.07Z"/>
      <path class="cls-3" d="m124.55,855.61c.4,0,.8-.04,1.19-.1.86-.12,1.64-.54,2.45-.8.9-.29,2.1-.56,3.05-.3.41.11.82.3,1.05.64.2.3.16.63.45.88.62.54,2.19.44,2.32,1.39.03.24-.14.38-.14.59"/>
      <path class="cls-3" d="m138.3,852.58c-.76,0-1.55.36-1.44,1.19.08.57.51.88,1.05,1.09.4.16,1.19.24,1.44.61.32.49.15,1.13.32,1.65.19.59.98.65,1.54.59,1.02-.11,2.14-1.07,1.96-2.09-.15-.89-.76-1.17-1.45-1.69-.3-.23-.55-.53-.72-.85-.12-.22-.17-.48-.29-.7-.24-.43-.91-.39-1.35-.38-.56.01-.94.33-1.36.62"/>
      <path class="cls-3" d="m137.99,861.26c.95-.52,2.23,0,2.84.74.34.41.46,1.04.99,1.29.29.14.92.07,1.1.32"/>
      <path class="cls-3" d="m126.7,851.05c.26,0,.54,0,.8.04.6.12,1.01.57,1.54.83.4.2.84.24,1.29.22.57-.01,1.19,0,1.71-.26.38-.19.65-.48,1.06-.62.44-.16.86-.07,1.32-.05.63.04.62-.53.51-.98"/>
      <path class="cls-7" d="m66,850v-1.87c15,1.09,45.3,3.27,46.5,3.27"/>
      <path class="cls-7" d="m144,851.4c19.5-1.71,59.1-5.05,61.5-4.67s3.33,2.34,3.5,3.27"/>
      <path class="cls-7" d="m296.5,851.4c-3.2,1.87,3.67,2.34,7.5,2.34,1,.01,7-2.34,13.5-3.27,6.5-.93,7,0,6-2.34s-11.5-2.8-16,0-7,.93-11,3.27Z"/>
      <path class="cls-19" d="m322.5,859.81c-.8-2.62-12.33-5.14-18-6.07,1.6-1.5,13.33-3.43,19-4.21,2.17,1.71,6.5,6.17,6.5,10.28,0,5.14,5,4.67,3.5,5.61s-10-2.34-11-5.61Z"/>
      <path class="cls-3" d="m312.11,854.96c.4,0,.8,0,1.19-.03.67-.06,1.3-.31,1.98-.39.84-.1,1.68-.17,2.53-.18.28,0,.66-.01.92.12.33.17.56.54.85.77.54.43,1.11.65,1.06,1.42-.04.67-.52.71-1.16.93"/>
      <path class="cls-3" d="m318.11,850.91c.65,0,1.16.37,1.63.77,1,.86,1.84,1.99,3.4,1.72.85-.15,1.63-.81,2.51-.74.14.01.25.06.39.06"/>
      <path class="cls-3" d="m327.75,858.44c-.68,0-1.36,0-2.04.04-.41.03-.92.06-1.14.45-.58,1.05,1.24,1.73,1.66,2.48.34.61.03,1.12.08,1.75.05.66,1.31.78,1.87.78.81,0,1.63-.5,1.35-1.35-.13-.38-.5-.67-.73-1-.24-.32-.43-.69-.56-1.06-.27-.79.24-1.79-.35-2.48"/>
      <path class="cls-16" d="m265.5,852.34c4.4-1.87,10.5.78,13,2.34.67,1.56.9,4.49-3.5,3.74-5.5-.93-10.5,3.74-15,6.54s-7-2.8-2-5.61,2-4.67,7.5-7.01Z"/>
      <path class="cls-3" d="m257.89,859.48c-.26.53-.75,1.16-.36,1.74.44.63,1.05.58,1.72.33.7-.26,1.36-.62,2.11-.69.66-.06,1.48.02,2.07-.32.6-.34.24-1.16-.05-1.58-.31-.46-.84-.77-1.32-1.06-.57-.34-.77-.7-.56-1.34"/>
      <path class="cls-3" d="m268.69,853.65c-.2.09-.95.54-.76.79.34.45,1.2.39,1.7.62.48.21.86.6,1.35.78.51.19,1.39.28,1.87-.04.23-.16.44-.37.55-.62.25-.54-.18-.87-.64-1.13-.38-.21-.84-.42-1.29-.46-.23-.02-.45,0-.66-.08-.4-.15-.82-.51-1.27-.47-.33.03-.6.24-.91.31"/>
      <path class="cls-3" d="m274.81,853.36c.7.18,1.85.31,2.37.85.25.25.11.81.05,1.1-.17.79-.81,1.44-1.4,2-.11.11-.91.66-.52.84"/>
      <path class="cls-3" d="m266.6,860.06c.14-.54.02-1.09.12-1.64.05-.28.15-.6.42-.77.29-.18.76-.21,1.09-.19.43.03.69.32.99.57.31.26.52.32.92.27"/>
      <path class="cls-7" d="m227,853.27c21-1.56,63.8-4.77,67-5.14,4-.47,24-4.67,29.5-3.74s16-.93,16.5,5.61"/>
      <path class="cls-3" d="m267.62,837.28c-1.06.55-.39,2.82.17,3.46.81.94,1.35,1.61,1.6,2.83.13.62.52,1.8.01,2.28"/>
      <path class="cls-3" d="m271.6,840.67c0,1.14.85,1.94,1.29,2.95.34.77.35,1.68.09,2.47"/>
      <path class="cls-3" d="m316.81,829.35c0,1.67-.59,4.5.41,5.9,1.6,2.24,2.6,1.9,2.05,4.95"/>
      <path class="cls-3" d="m114.3,830.53c-2.18.2-2.47,3.04-2.08,4.6.32,1.27,1.38,2.27,1.66,3.59.16.75.18,1.45.18,2.21"/>
      <path class="cls-3" d="m130.42,834.74c0,1.12.45,1.84,1.13,2.78.91,1.26.74,3.91.05,5.19"/>
      <path class="cls-3" d="m137.15,838.2c-.78,1.96-.3,3.58.56,5.46.21.46.31.76.31,1.24"/>
      <path class="cls-3" d="m220.7,839.73c-.96,1.26-.92,3.53-.42,4.92.35.98,1.08,1.78,1.52,2.73.61,1.3.67,2.62.79,4.01"/>
      <path class="cls-18" d="m144,848.23c.38-1.5,1.43-8.75,1.91-12.19,86.78,10.31,137.8-3.28,137.8,0,0,2.62,2.86,9.22,4.29,12.19-34.33,6.09-144.48,1.87-144,0Z"/>
      <path class="cls-7" d="m187.5,836.36c-.8,1.5,1,2.8,2,3.27,3.5,0,5,0,8-1.4s11.5-1.87,16-1.4,6.5-2.8,4-2.8-4-.93-10-.93-5.5,2.34-10,2.34-9-.93-10,.93Z"/>
      <path class="cls-15" d="m206.5,843.83c-4.4-.75-10.83-2.8-13.5-3.74.5,0,6-2.34,9.5-3.27s6-.47,10,0,2.5-.93,4.5-.47,1,5.14,0,8.41,2.5,3.27,4,5.14-3.5,0-6,0-3-5.14-8.5-6.07Z"/>
      <path class="cls-3" d="m199.05,841.96c.4,0,.79-.04,1.19-.1.86-.12,1.64-.54,2.45-.8.9-.29,2.1-.56,3.05-.3.4.11.82.3,1.05.64.2.3.16.63.45.88.62.54,2.19.44,2.32,1.39.03.24-.14.38-.14.59"/>
      <path class="cls-3" d="m212.8,838.94c-.76,0-1.55.36-1.44,1.19.08.57.51.88,1.05,1.09.4.16,1.19.24,1.44.61.32.49.15,1.13.32,1.65.19.59.98.65,1.54.59,1.02-.11,2.14-1.07,1.96-2.09-.15-.89-.76-1.17-1.45-1.69-.3-.23-.55-.53-.72-.85-.12-.22-.17-.48-.29-.7-.24-.43-.91-.39-1.35-.38-.56.01-.94.33-1.36.62"/>
      <path class="cls-3" d="m212.49,847.62c.95-.52,2.23,0,2.84.74.34.41.46,1.04.99,1.29.29.14.92.07,1.1.32"/>
      <path class="cls-3" d="m201.2,837.41c.26,0,.54,0,.8.04.6.12,1.01.57,1.54.83.4.2.84.24,1.29.22.57-.01,1.19,0,1.71-.26.38-.19.65-.48,1.06-.62.44-.16.86-.07,1.32-.05.63.04.62-.53.51-.98"/>
      <path class="cls-7" d="m147,836.18v-1.6c12.9.93,38.97,2.8,40,2.8"/>
      <path class="cls-7" d="m218.5,837.76c19.5-1.71,59.1-5.05,61.5-4.67,2.4.37,3.33,2.34,3.5,3.27"/>
      <path class="cls-3" d="m188.8,816.89c-2.18.2-2.47,3.04-2.08,4.6.32,1.27,1.38,2.27,1.66,3.59.16.75.18,1.45.18,2.21"/>
      <path class="cls-3" d="m204.92,821.1c0,1.12.45,1.84,1.13,2.78.91,1.26.74,3.91.05,5.19"/>
      <path class="cls-3" d="m211.65,824.56c-.78,1.96-.3,3.58.55,5.46.21.46.31.76.31,1.24"/>
      <path class="cls-3" d="m295.2,826.08c-.96,1.26-.92,3.53-.42,4.91.36.98,1.08,1.78,1.52,2.73.61,1.3.67,2.62.79,4.01"/>
      <path class="cls-23" d="m2313,153.27l206,183.94v562.79h-206V153.27Z"/>
      <path class="cls-24" d="m2308.3,148.6l221.7,184.48h614.98l1.31-179.86-837.99-4.62Z"/>
    </g>
  </g>
</svg>