<?xml version="1.0" encoding="utf-8"?>
<!-- Generator: Adobe Illustrator 28.1.0, SVG Export Plug-In . SVG Version: 6.00 Build 0)  -->
<svg version="1.1" id="Layer_1" xmlns="http://www.w3.org/2000/svg" xmlns:xlink="http://www.w3.org/1999/xlink" x="0px" y="0px"
	 viewBox="0 0 512 512" style="enable-background:new 0 0 512 512;" xml:space="preserve">
<style type="text/css">
	.st0{fill:#1F3021;}
	.st1{fill:none;stroke:#000000;stroke-width:7.7283;stroke-miterlimit:10;}
	.st2{fill:#D0D3D8;stroke:#000000;stroke-width:7.7283;stroke-miterlimit:10;}
</style>
<g>
	<path class="st0" d="M26.8,360v15.7c0,8.8,6.6,16.1,15.4,17c35.3,3.5,121.6,12,155.2,13.4c20.4,0.9,67.9,0.6,97.7,0.3
		c17-0.2,34.5-1.9,50.9-3.9l126.5-18c6.2-0.9,10.8-6.2,10.7-12.5l-0.2-15.3"/>
	<path class="st1" d="M26.8,360v15.7c0,8.8,6.6,16.1,15.4,17c35.3,3.5,121.6,12,155.2,13.4c20.4,0.9,67.9,0.6,97.7,0.3
		c17-0.2,34.5-1.9,50.9-3.9l126.5-18c6.2-0.9,10.8-6.2,10.7-12.5l-0.2-15.3"/>
	<path class="st2" d="M26.8,360c2.2,3,30.3,5.2,40.5,6.1c4.6,0.4,15.6,1.5,22,2.1c3.2,0.3,6.2,1.3,8.9,2.9c3.8,2.3,8.4,2.9,12.7,1.6
		l11.9-3.5c4.4-1.3,9-1.4,13.5-0.4l22.5,5c2.4,0.5,4.9,0.7,7.3,0.4l11.3-1.2c2.5-0.3,5-0.1,7.4,0.4c0,0,15.4,5,20.7,4.7
		c4.9-0.3,14.3-4.9,19.2-4.6c4.2,0.3,12,4.6,16.2,4.6c6.6,0,22.9-5.7,29.6-8.1c1.9-0.7,3.9-1.1,6-1.1h0.2c3.8,0,7.6,0.6,11.3,1.8
		l1.4,0.4c5.8,1.9,11.9,2.1,17.8,0.7l8.2-2c2.4-0.6,4.9-0.9,7.3-0.9h13.8l13.7-2.3c3.3-0.6,6.6-0.8,9.9-0.8h7.5
		c2.1,0,4.2,0.3,6.3,0.8l16.1,4.4c4.4,1.2,8.9,1.3,13.3,0.2l23.7-5.7c0.5-0.1,0.9-0.2,1.3-0.4l11.2-3.5c3.8-1.2,7.8-1.8,11.8-1.8
		h6.9c2,0,4-0.3,6-1c2.4-0.8,5.7-1.8,7.3-2.1c2.4-0.3,7.3-0.3,11.4-0.2c3.4,0.1,6.2-2.6,6.2-6V338c0-2.2-0.9-4.4-2.5-6
		c-1.3-1.3-2-3-2-4.9l0.7-37c0-1.3-0.5-2.6-1.4-3.6c-1.1-1.1-1.7-2.6-1.7-4.1v-19.8c0-4.9-1.2-9.8-3.5-14.2l-22.2-42.2
		c-2.7-5-6.6-9.3-11.5-12.2l-5.7-3.5c-1.9-1.2-4-2-6.2-2.6l-7.5-1.8c-2.9-0.7-5.6-2.1-7.9-4.1c-3.6-3.2-9.1-8-12-9.3
		c-1.3-0.6-5.8-1-5.8-1c-2.9-0.5-5.9,0.4-8,2.5c-1.5,1.5-2.6,3.4-3.2,5.4l-1.2,4.1c-0.2,0.8-1.2,1.1-1.8,0.5l-2.4-2.4
		c-1.1-1.1-1.8-2.6-2-4.2l-1-8.9c-0.5-4.3-1.8-8.4-3.8-12.2l-0.9-1.7c-1.8-3.5-4.2-6.7-7-9.5l-15.4-15.4l-7.7-7.1
		c-3.2-3-5.1-7.1-5.1-11.5c0-1.2-0.1-2.3-0.4-2.9c-1.6-3.8-9-8.8-12.7-10.5c-1.6-0.7-5.5-0.8-7.1,0c-2.3,1.2-4.7,7.3-7.3,7.3
		c-2.4,0-6.7-6.7-6.7-6.7c-3.2-3.2-7.7-4.8-12.2-4.3l-10.1,1.1c-2.2,0.2-4.5,0.1-6.6-0.4l-6-1.4c-0.3-0.1-0.6-0.1-0.9-0.2
		c-1.8-0.5-9-3-12.2-2.5c-1.2,0.2-3.5,1-4.6,1.3c-4.9,1.4-9.5,3.7-13.5,6.9c-6.4,5.2-25.4,20.6-25.4,20.6l-10.2,7.6
		c-2.8,2.1-6.3,3.2-9.8,3.2h-2.2c-4.1,0-8.1,0.8-11.9,2.4l-2.5,1c-2.9,1.2-5.2,3.4-6.6,6.2l-1.2,2.6c-0.5,1-1.5,1.7-2.7,1.7
		c-1,0-1.9,0.4-2.5,1.1l-2.9,2.9l-1.5,1.5c-1.1,1.1-1.7,2.6-1.7,4.1c0,1.6-0.6,3.1-1.7,4.2l-4.4,4.4L144,171c-1.3,1.3-3,2-4.7,2
		c-1.7,0-3.4,0.6-4.8,1.6l-18.1,13.6l-12,2.6l-12.7,1.1c-5.7,0.5-11.3,2.1-16.4,4.7l0,0c-6,3-11.1,7.4-15.1,12.9l-5.2,7.1l-10,18.6
		c-4.5,8.5-7.3,17.7-8.2,27.3L35,281.2c-0.2,1.8-0.2,3.6-1,5.2C28.2,298,16.9,346.5,26.8,360z"/>
	<path class="st1" d="M184.8,373.5l-3.5-9c-0.8-2.1-1.2-4.3-1.2-6.5v-2.4c0-2.2,0.3-4.4,0.9-6.5c2.2-3.5,3-7.6,2.3-11.7
		c-0.5-2.7-0.5-5.6,0-8.3l5.5-27.4"/>
	<path class="st1" d="M139.2,172.9c0,0,1,13.3,0,17.6c-1,4.3-5.7,12.1-6.1,16.4c-0.3,3.9,3,15.3,3,15.3"/>
	<path class="st1" d="M385.6,184.1v9.9c0,2.3,0.4,4.6,1.2,6.8l1.9,5.3c1.2,3.4,1.8,6.9,1.8,10.5l-4.8,17.7l4.8,30.5"/>
	<path class="st1" d="M417.7,182.1l-2.3,16.2c-0.9,6.4,0,12.9,2.5,18.9l0.7,1.6c2,4.7,2.5,10,1.3,15l-2.2,9.4"/>
	<path class="st1" d="M468,228.1l-3.4,15l3.4,10.2v11.1c0,4.3,0.3,6.1,1.5,10.2l4.2,9.9"/>
	<path class="st1" d="M257.9,90.7v25c0,7.3,2.3,14.4,6.5,20.3l2.2,3.1c3.5,4.9,4.9,10.9,3.9,16.8l-2.7,16.9c0,0-4.8,12.1-5,16.4
		c-0.2,3.6,1.7,11.4,3.2,17c1.2,4.4,1.8,8.9,1.8,13.4v14.8"/>
	<path class="st1" d="M75.3,196.6c0,0-2.3,20.1-9.9,29.4c-1.5,1.9-4.2,6.1-4.6,8.5c-0.4,3.3,2.3,9.7,2.5,13.1
		c0.3,6.6-1.2,17.8-1.2,21.4"/>
</g>
</svg>
