<svg width="141" height="140" viewBox="0 0 141 140" fill="none" xmlns="http://www.w3.org/2000/svg">
<path d="M67.2834 3.00278C15.6637 2.55241 14.8227 56.8595 21.6748 84.0694C21.6748 90.6565 21.2597 106.363 29.0254 114.469C38.7327 124.603 57.0051 138.114 67.2834 138.114C77.5616 138.114 96.976 125.166 106.683 114.469C116.39 103.773 115.248 88.0102 115.248 84.0694C115.248 80.1286 131.808 3.56575 67.2834 3.00278Z" fill="white" stroke="black" stroke-width="2"/>
<path d="M40.1932 49.3468C37.4497 60.1794 26.8833 73.4193 22.5014 78.6851C16.7859 60.6308 8.275 1.9541 69.9403 1.9541C122.115 1.9541 122.904 52.1678 116.808 78.6851C111.283 75.8641 99.7754 66.0471 97.9464 49.3468C95.6602 28.4714 91.0878 11.5455 67.0825 12.1097C43.0773 12.6739 43.6225 35.806 40.1932 49.3468Z" fill="black"/>
<path d="M65.9793 92.7901C63.8172 90.6539 61.1145 90.1921 59.6524 92.7901C57.7108 96.2399 64.4773 99.7603 68.8592 101.265C72.6696 99.5722 78.8663 96.401 77.4946 92.7901C76.1228 89.1792 72.7316 91.2856 71.2075 92.7901M22.5014 78.6851C26.8833 73.4193 37.4497 60.1794 40.1932 49.3468C43.6225 35.806 43.0773 12.6739 67.0825 12.1097C91.0878 11.5455 95.6602 28.4714 97.9464 49.3468C99.7754 66.0471 111.283 75.8641 116.808 78.6851C122.904 52.1678 122.115 1.9541 69.9403 1.9541C8.275 1.9541 16.7859 60.6308 22.5014 78.6851Z" stroke="black" stroke-width="2" stroke-linejoin="round"/>
<path d="M59.093 73.9096C59.093 79.4368 54.133 84.076 47.8092 84.076C41.4854 84.076 36.5254 79.4368 36.5254 73.9096C36.5254 68.3824 41.4854 63.7432 47.8092 63.7432C54.133 63.7432 59.093 68.3824 59.093 73.9096Z" fill="white" stroke="black" stroke-width="2"/>
<path d="M54.6265 57.16C54.6265 57.263 54.5444 57.5517 53.9857 57.871C53.4552 58.1741 52.6556 58.3933 51.7181 58.3933C50.7805 58.3933 49.9809 58.1741 49.4505 57.871C48.8917 57.5517 48.8096 57.263 48.8096 57.16C48.8096 57.0571 48.8917 56.7684 49.4505 56.4491C49.9809 56.146 50.7805 55.9268 51.7181 55.9268C52.6556 55.9268 53.4552 56.146 53.9857 56.4491C54.5444 56.7684 54.6265 57.0571 54.6265 57.16Z" fill="black" stroke="black" stroke-width="2"/>
<ellipse cx="48.3684" cy="73.3516" rx="3.90848" ry="3.90825" fill="black"/>
<path d="M88.1275 57.16C88.1275 57.263 88.0454 57.5517 87.4866 57.871C86.9562 58.1741 86.1566 58.3933 85.219 58.3933C84.2815 58.3933 83.4819 58.1741 82.9514 57.871C82.3927 57.5517 82.3105 57.263 82.3105 57.16C82.3105 57.0571 82.3927 56.7684 82.9514 56.4491C83.4819 56.146 84.2815 55.9268 85.219 55.9268C86.1566 55.9268 86.9562 56.146 87.4866 56.4491C88.0454 56.7684 88.1275 57.0571 88.1275 57.16Z" fill="black" stroke="black" stroke-width="2"/>
<path d="M100.411 73.9096C100.411 79.4368 95.4513 84.076 89.1276 84.076C82.8038 84.076 77.8438 79.4368 77.8438 73.9096C77.8438 68.3824 82.8038 63.7432 89.1276 63.7432C95.4513 63.7432 100.411 68.3824 100.411 73.9096Z" fill="white" stroke="black" stroke-width="2"/>
<ellipse cx="88.5696" cy="73.3516" rx="3.90848" ry="3.90825" fill="black"/>
<path d="M9.2832 73.3514C9.2832 60.3983 16.7279 60.51 20.4503 62.1849L21.6751 83.3984C17.0222 85.0733 9.2832 86.3044 9.2832 73.3514Z" fill="white" stroke="black" stroke-width="2"/>
<path d="M128.879 75.2537C128.879 62.3007 121.434 62.4123 117.712 64.0873L115.478 86.7483C120.131 88.4233 128.879 88.2068 128.879 75.2537Z" fill="white" stroke="black" stroke-width="2"/>
<path d="M58.418 112.434H64.0015M79.6355 112.434H74.16M74.16 112.434L71.8185 106.851L69.0267 109.642L66.2349 106.851L64.0015 112.434M74.16 112.434H64.0015" stroke="black" stroke-width="2" stroke-linejoin="round"/>
<path d="M66.2356 20.8662C62.3272 21.2384 55.1802 24.4395 57.8603 34.2659" stroke="black" stroke-width="2"/>
<path d="M74.6104 23.6582C76.8438 24.4026 80.9756 28.5714 79.6355 39.2912" stroke="black" stroke-width="2"/>
<path d="M70.1442 23.0996C66.0496 24.7746 59.7588 31.0278 67.3525 42.6409" stroke="black" stroke-width="2" stroke-linejoin="round"/>
<line x1="-6.55671e-07" y1="73.5" x2="141" y2="73.5" stroke="#690404" stroke-width="15"/>
</svg>
