<svg width="141" height="147" viewBox="0 0 141 147" fill="none" xmlns="http://www.w3.org/2000/svg">
<path d="M40.6249 136.49C24.3891 130.477 23.7878 119.053 22.5851 113.04C21.7145 108.687 22.4196 102.759 23.7878 96.1672C15.3692 96.7314 9.95731 88.3876 14.7679 75.1595C18.6164 64.5771 23.5873 67.5434 25.5917 70.3493C26.3264 49.3046 35.2129 36.0765 73.6977 34.874C104.486 33.9119 118.196 54.1148 121.202 64.3365C120.352 64.5491 119.119 66.159 118.291 70.3493C120.865 66.3408 127.095 61.3302 131.425 73.3557C136.837 88.3876 124.748 98.008 117.864 93.7991C118.709 112.484 117.742 119.557 106.169 131.68C93.5414 144.908 79.7109 141.901 76.103 141.901C72.495 141.901 68.8871 148.515 62.8739 141.901C56.8606 135.287 56.8606 142.503 40.6249 136.49Z" fill="white"/>
<path d="M25.5917 70.3493C26.3935 73.1553 27.516 80.6913 25.5917 88.3876C24.9277 91.0435 24.3095 93.6536 23.7878 96.1672M25.5917 70.3493C26.3264 49.3046 35.2129 36.0765 73.6977 34.874C104.486 33.9119 118.196 54.1148 121.202 64.3365C120.352 64.5491 119.119 66.159 118.291 70.3493M25.5917 70.3493C23.5873 67.5434 18.6164 64.5771 14.7679 75.1595C9.95731 88.3876 15.3692 96.7314 23.7878 96.1672M23.7878 96.1672C22.4196 102.759 21.7145 108.687 22.5851 113.04C23.7878 119.053 24.3891 130.477 40.6249 136.49C56.8606 142.503 56.8606 135.287 62.8739 141.901C68.8871 148.515 72.495 141.901 76.103 141.901C79.7109 141.901 93.5414 144.908 106.169 131.68C117.742 119.557 118.709 112.484 117.864 93.7991M118.291 70.3493C117.557 74.0621 117.142 79.8005 117.594 88.3876C117.695 90.2963 117.787 92.096 117.864 93.7991M118.291 70.3493C120.865 66.3408 127.095 61.3302 131.425 73.3557C136.837 88.3876 124.748 98.008 117.864 93.7991" stroke="black" stroke-width="2" stroke-linecap="round" stroke-linejoin="round"/>
<path d="M31.6055 69.7477C32.4072 70.5494 34.7324 71.9123 37.6187 70.9503C41.2267 69.7477 41.2267 64.9375 50.2465 64.9375C57.4624 64.9375 62.8743 68.946 64.6783 70.9503" stroke="black" stroke-width="3" stroke-linecap="round" stroke-linejoin="round"/>
<path d="M112.183 69.7477C111.381 70.5494 109.056 71.9123 106.169 70.9503C102.561 69.7477 102.561 64.9375 93.5416 64.9375C86.3257 64.9375 80.9137 68.946 79.1098 70.9503" stroke="black" stroke-width="3" stroke-linecap="round" stroke-linejoin="round"/>
<path d="M70.1782 6.61404C71.855 5.29375 73.5673 4.07833 75.2565 2.98163C78.0989 1.13629 81.8673 1.94379 83.675 4.81021C88.7083 6.35303 95.9628 10.4538 99.2455 17.437C106.565 18.7689 111.112 23.3787 111.296 31.2664C115.806 32.0092 123.445 35.9231 120.911 45.6998C125.217 49.3065 131.906 59.8872 124.209 66.1404C116.512 72.3937 108.574 60.1812 105.568 54.1952C102.757 53.1004 100.166 51.3766 98.3517 49.8333C94.9609 50.0555 91.5981 49.2921 89.3319 48.4122C81.6832 54.7808 73.2343 54.4549 68.8868 52.9123C65.8561 50.7128 63.3916 48.5028 61.4266 46.2983C56.23 46.6203 52.1684 46.3866 49.0431 45.6998C46.7706 47.8391 42.2336 50.5491 37.4655 49.8333C35.8501 51.9117 33.2735 54.4612 30.4021 55.9666C30.6025 61.1617 28.9589 71.1912 20.7809 69.7481C12.6029 68.305 15.2333 55.8703 17.5707 49.8333C15.4152 42.1975 23.6735 36.4003 28.6547 34.2728C31.2147 25.8386 39.9808 17.437 46.0365 17.437C51.8092 5.41149 64.5363 5.21106 70.1782 6.61404Z" fill="black"/>
<path d="M68.8868 52.9123C81.1765 47.6188 100.136 30.9118 83.675 4.81021M68.8868 52.9123C65.8561 50.7128 63.3916 48.5028 61.4266 46.2983M68.8868 52.9123C73.2343 54.4549 81.6832 54.7808 89.3319 48.4122M83.675 4.81021V4.81021C81.8673 1.94379 78.0989 1.13629 75.2565 2.98163C73.5673 4.07833 71.855 5.29375 70.1783 6.61404M83.675 4.81021C88.7083 6.35303 95.9628 10.4538 99.2455 17.437M70.1783 6.61404C64.5363 5.21106 51.8092 5.41149 46.0365 17.437M70.1783 6.61404C58.0975 16.1268 47.8648 31.0833 61.4266 46.2983M46.0365 17.437C40.1089 29.7853 34.663 42.5394 49.0431 45.6998M46.0365 17.437C39.9808 17.437 31.2147 25.8386 28.6547 34.2728M61.4266 46.2983C56.23 46.6203 52.1684 46.3866 49.0431 45.6998M49.0431 45.6998C46.7706 47.8391 42.2336 50.5491 37.4655 49.8333M89.3319 48.4122C92.6152 45.6784 95.7511 41.711 98.3517 36.0766C101.884 28.425 101.507 22.2472 99.2455 17.437M89.3319 48.4122C91.5981 49.2921 94.9609 50.0555 98.3517 49.8333M99.2455 17.437C106.565 18.7689 111.112 23.3787 111.296 31.2664M111.296 31.2664C111.361 34.0616 110.878 37.2684 109.777 40.8868C107.82 47.3175 103.059 49.5249 98.3517 49.8333M111.296 31.2664C115.806 32.0092 123.445 35.9231 120.911 45.6998M98.3517 49.8333C100.166 51.3766 102.757 53.1004 105.568 54.1952M120.911 45.6998C120.689 46.5581 120.388 47.4617 119.999 48.4122C116.863 56.09 110.831 56.2455 105.568 54.1952M120.911 45.6998C125.217 49.3065 131.906 59.8872 124.209 66.1404C116.512 72.3937 108.574 60.1812 105.568 54.1952M28.6547 34.2728C27.4016 38.4012 27.6355 42.5373 30.4021 45.6998C32.6453 48.264 35.0842 49.4759 37.4655 49.8333M28.6547 34.2728C23.6735 36.4003 15.4152 42.1975 17.5707 49.8333M37.4655 49.8333C35.8501 51.9117 33.2735 54.4612 30.4021 55.9666M30.4021 55.9666C26.5943 57.9628 22.2679 58.1227 18.9769 52.9123C18.3106 51.8574 17.852 50.8297 17.5707 49.8333M30.4021 55.9666C30.6025 61.1617 28.9589 71.1912 20.7809 69.7481C12.6029 68.305 15.2333 55.8703 17.5707 49.8333" stroke="white" stroke-linecap="round" stroke-linejoin="round"/>
<path d="M38.2197 77.5651L43.0303 79.9702C45.4356 76.563 51.8097 71.7929 58.0634 79.9702" stroke="black" stroke-width="3" stroke-linecap="round" stroke-linejoin="round"/>
<path d="M105.568 77.5651L100.758 79.9702C98.3525 76.563 91.9784 71.7929 85.7247 79.9702" stroke="black" stroke-width="3" stroke-linecap="round" stroke-linejoin="round"/>
<path d="M62.2724 93.1982C60.4684 95.2025 57.9429 99.692 62.2724 101.616C66.6019 103.54 68.0852 100.414 68.2856 98.6097C68.4861 99.6119 69.368 101.616 71.2923 101.616C73.2165 101.616 74.9002 99.6119 74.9002 98.6097C76.1029 100.213 77.9068 103.059 80.3121 101.616C83.3188 99.8123 83.3188 96.2046 80.9135 93.7995" stroke="black" stroke-width="2" stroke-linecap="round" stroke-linejoin="round"/>
<path d="M65.8803 108.831C62.8736 109.433 62.8736 118.452 59.2657 118.452C60.2679 119.053 62.7534 119.895 64.6776 118.452C67.0829 116.648 68.2856 114.243 70.6908 114.243C73.0961 114.243 73.6975 114.243 76.1028 117.249C78.5081 120.256 81.3142 119.253 82.7173 118.452C78.5081 118.452 79.1094 108.831 76.1028 108.831C73.0961 108.831 73.0961 112.439 70.6908 112.439C68.2856 112.439 68.8869 108.23 65.8803 108.831Z" fill="black"/>
<path d="M56.2591 113.641C56.0586 115.245 56.3793 118.452 59.2657 118.452M59.2657 118.452C62.8736 118.452 62.8736 109.433 65.8803 108.831C68.8869 108.23 68.2856 112.439 70.6908 112.439C73.0961 112.439 73.0961 108.831 76.1028 108.831C79.1094 108.831 78.5081 118.452 82.7173 118.452M59.2657 118.452C60.2679 119.053 62.7534 119.895 64.6776 118.452C67.0829 116.648 68.2856 114.243 70.6908 114.243C73.0961 114.243 73.6975 114.243 76.1028 117.249C78.5081 120.256 81.3142 119.253 82.7173 118.452M82.7173 118.452C86.0848 118.452 84.9222 115.245 85.1226 113.641" stroke="black" stroke-width="2" stroke-linecap="round" stroke-linejoin="round"/>
<path d="M35.2125 70.9506C34.0099 77.9655 35.0923 91.875 49.043 91.394C61.1848 90.9754 64.2275 84.8948 64.6518 78.7672M64.0761 69.748C64.3556 72.1938 64.8788 75.4872 64.6518 78.7672M64.6518 78.7672C66.0634 76.9634 69.6083 73.3557 72.4946 73.3557C75.381 73.3557 78.107 76.9634 79.1092 78.7672" stroke="black" stroke-width="2" stroke-linecap="round" stroke-linejoin="round"/>
<path d="M108.575 70.9506C109.777 77.9655 108.695 91.875 94.7441 91.394C82.6023 90.9754 79.5596 84.8948 79.1354 78.7672M79.711 69.748C79.4315 72.1938 78.9083 75.4872 79.1354 78.7672M79.1354 78.7672C77.7237 76.9634 74.1788 73.3557 71.2925 73.3557C68.4061 73.3557 65.6801 76.9634 64.6779 78.7672" stroke="black" stroke-width="2" stroke-linecap="round" stroke-linejoin="round"/>
<ellipse cx="31.6048" cy="76.3624" rx="1.80397" ry="1.80383" fill="black"/>
<ellipse cx="31.6048" cy="82.3751" rx="1.80397" ry="1.80383" fill="black"/>
<ellipse cx="31.6048" cy="88.3878" rx="1.80397" ry="1.80383" fill="black"/>
<ellipse cx="31.6048" cy="94.4005" rx="1.80397" ry="1.80383" fill="black"/>
<ellipse cx="31.6048" cy="100.413" rx="1.80397" ry="1.80383" fill="black"/>
<ellipse cx="31.6048" cy="106.426" rx="1.80397" ry="1.80383" fill="black"/>
<ellipse cx="31.6048" cy="112.439" rx="1.80397" ry="1.80383" fill="black"/>
<ellipse cx="31.6048" cy="118.451" rx="1.80397" ry="1.80383" fill="black"/>
<ellipse cx="31.6048" cy="124.464" rx="1.80397" ry="1.80383" fill="black"/>
<ellipse cx="30.4026" cy="130.477" rx="1.80397" ry="1.80383" fill="black"/>
<path d="M29.8013 136.489C29.8013 137.486 28.9936 138.293 27.9973 138.293C27.001 138.293 26.1934 137.486 26.1934 136.489C26.1934 135.493 27.001 134.686 27.9973 134.686C28.9936 134.686 29.8013 135.493 29.8013 136.489Z" fill="black"/>
<ellipse cx="24.3889" cy="141.3" rx="1.80397" ry="1.80383" fill="black"/>
<ellipse cx="19.5784" cy="137.693" rx="1.80397" ry="1.80383" fill="black"/>
<ellipse cx="18.3762" cy="130.477" rx="1.80397" ry="1.80383" fill="black"/>
<ellipse cx="18.3762" cy="124.464" rx="1.80397" ry="1.80383" fill="black"/>
<ellipse cx="18.3762" cy="118.451" rx="1.80397" ry="1.80383" fill="black"/>
<ellipse cx="18.3762" cy="112.439" rx="1.80397" ry="1.80383" fill="black"/>
<ellipse cx="18.3762" cy="106.426" rx="1.80397" ry="1.80383" fill="black"/>
<ellipse cx="18.3762" cy="100.413" rx="1.80397" ry="1.80383" fill="black"/>
<circle cx="1.95835" cy="1.95835" r="1.95835" transform="matrix(-1 0 0 1 115.944 71.9609)" fill="black"/>
<circle cx="1.95835" cy="1.95835" r="1.95835" transform="matrix(-1 0 0 1 115.944 78.4883)" fill="black"/>
<circle cx="1.95835" cy="1.95835" r="1.95835" transform="matrix(-1 0 0 1 115.944 85.0166)" fill="black"/>
<circle cx="1.95835" cy="1.95835" r="1.95835" transform="matrix(-1 0 0 1 115.944 91.5439)" fill="black"/>
<circle cx="1.95835" cy="1.95835" r="1.95835" transform="matrix(-1 0 0 1 115.944 98.0723)" fill="black"/>
<circle cx="1.95835" cy="1.95835" r="1.95835" transform="matrix(-1 0 0 1 115.944 104.6)" fill="black"/>
<circle cx="1.95835" cy="1.95835" r="1.95835" transform="matrix(-1 0 0 1 115.944 111.128)" fill="black"/>
<circle cx="1.95835" cy="1.95835" r="1.95835" transform="matrix(-1 0 0 1 115.944 117.655)" fill="black"/>
<circle cx="1.95835" cy="1.95835" r="1.95835" transform="matrix(-1 0 0 1 115.944 124.184)" fill="black"/>
<circle cx="1.95835" cy="1.95835" r="1.95835" transform="matrix(-1 0 0 1 117.25 130.711)" fill="black"/>
<circle cx="1.95835" cy="1.95835" r="1.95835" transform="matrix(-1 0 0 1 119.86 137.239)" fill="black"/>
<circle cx="1.95835" cy="1.95835" r="1.95835" transform="matrix(-1 0 0 1 123.777 142.461)" fill="black"/>
<circle cx="1.95835" cy="1.95835" r="1.95835" transform="matrix(-1 0 0 1 127.694 138.545)" fill="black"/>
<circle cx="1.95835" cy="1.95835" r="1.95835" transform="matrix(-1 0 0 1 129 130.711)" fill="black"/>
<circle cx="1.95835" cy="1.95835" r="1.95835" transform="matrix(-1 0 0 1 129 124.184)" fill="black"/>
<circle cx="1.95835" cy="1.95835" r="1.95835" transform="matrix(-1 0 0 1 129 117.655)" fill="black"/>
<circle cx="1.95835" cy="1.95835" r="1.95835" transform="matrix(-1 0 0 1 129 111.128)" fill="black"/>
<circle cx="1.95835" cy="1.95835" r="1.95835" transform="matrix(-1 0 0 1 129 104.6)" fill="black"/>
<circle cx="1.95835" cy="1.95835" r="1.95835" transform="matrix(-1 0 0 1 129 98.0723)" fill="black"/>
<line x1="-6.55671e-07" y1="77.3408" x2="141" y2="77.3408" stroke="#690404" stroke-width="15"/>
</svg>
