<svg width="141" height="165" viewBox="0 0 141 165" fill="none" xmlns="http://www.w3.org/2000/svg">
<path d="M33.9222 76.4758C30.9955 94.157 32.6219 118.9 33.4889 129.021C33.7469 132.032 34.8725 134.888 36.6752 137.313L51.0252 156.622C54.2326 160.938 59.2926 163.482 64.6697 163.482H75.0354C78.7273 163.482 82.3189 162.28 85.2672 160.058L108.709 142.391C112.306 139.68 114.679 135.662 115.298 131.201C117.502 115.329 122.904 75.8096 125.726 49.8334C129.168 18.1488 87.636 17.3508 83.9803 17.3418C83.7902 17.3414 83.6348 17.3409 83.4448 17.3397C80.8471 17.3238 60.7969 17.4559 50.7229 25.1405C34.6663 37.3888 37.3876 55.5399 33.9222 76.4758Z" fill="white" stroke="black" stroke-width="2" stroke-linecap="round" stroke-linejoin="round"/>
<path d="M21.3849 115.562C23.5581 117.592 32.2501 115.562 32.2501 115.562L30.0771 81.0588C30.0771 81.0588 25.0069 77.6761 21.3849 87.8241C17.7629 97.9721 19.2116 113.532 21.3849 115.562Z" fill="white" stroke="black" stroke-width="2" stroke-linecap="round" stroke-linejoin="round"/>
<path d="M129.6 114.991C127.321 116.817 118.757 114.375 118.757 114.375L122.81 81.3519C122.81 81.3519 128.055 78.3899 131.115 88.3442C134.176 98.2984 131.88 113.164 129.6 114.991Z" fill="white" stroke="black" stroke-width="2" stroke-linecap="round" stroke-linejoin="round"/>
<path d="M17.1085 37.765C15.7361 41.6766 27.8342 99.8549 27.8342 99.8549H31.9514C31.9514 99.8549 30.4331 66.9823 43.6168 52.9156C55.4337 40.3072 69.6941 35.5764 86.7143 40.3699C103.054 44.9716 101.42 43.949 108.5 59.2879C116.782 77.2295 118.312 101.214 118.312 101.214H126.067L130.451 75.123L138.591 46.6598C144.299 21.5726 88.469 0.99999 81.607 1C74.745 1.00001 63.4472 17.0106 63.4472 17.0106C63.4472 17.0106 49.8096 8.70185 47.1661 10.4877C44.5225 12.2736 18.4809 33.8534 17.1085 37.765Z" fill="black" stroke="black" stroke-linecap="round" stroke-linejoin="round"/>
<path d="M57.5278 68.5361H39.875V71.804L44.7447 72.8933H59.9627L60.5714 71.4409L57.5278 68.5361Z" fill="black" stroke="black" stroke-linecap="round" stroke-linejoin="round"/>
<path d="M91.1677 72.8926H110.679V69.6247L105.296 68.5354H88.4765L87.8037 69.9878L91.1677 72.8926Z" fill="black" stroke="black" stroke-linecap="round" stroke-linejoin="round"/>
<path d="M60.5714 88.1431C60.5714 88.1431 59.9185 84.2647 57.3376 82.7828C52.1893 79.8267 39.875 83.3784 39.875 83.3784" stroke="black" stroke-width="2" stroke-linecap="round" stroke-linejoin="round"/>
<path d="M83.4467 88.1431C83.4467 88.1431 84.134 84.2647 86.8507 82.7828C92.27 79.8267 105.232 83.3784 105.232 83.3784" stroke="black" stroke-width="2" stroke-linecap="round" stroke-linejoin="round"/>
<ellipse cx="51.3125" cy="84.8753" rx="3.8125" ry="3.26786" fill="black"/>
<ellipse cx="94.3396" cy="84.3301" rx="4.35714" ry="3.8125" fill="black"/>
<path d="M68.8542 81.6074L67.0979 110.343C67.0979 110.343 53.5598 118.463 58.3169 118.463C63.0001 118.463 67.6834 115.965 67.6834 115.965C67.6834 115.965 67.9684 118.746 69.0891 120.443C70.3297 122.323 72.9519 116.589 72.9519 116.589C72.9519 116.589 80.2542 118.463 82.9037 118.463C85.2164 118.463 79.3913 113.466 79.3913 113.466" stroke="black" stroke-width="2" stroke-linecap="round" stroke-linejoin="round"/>
<path d="M76.1474 144.786H66.0176L66.5 145.512C66.5 145.512 76.1474 145.875 77.5945 145.875C79.0416 145.875 76.1474 144.786 76.1474 144.786Z" stroke="black" stroke-width="2" stroke-linecap="round" stroke-linejoin="round"/>
<path d="M48.7873 126.575L50.7674 130.655L64.5342 127.463L63.0918 124.092L48.7873 126.575Z" fill="black"/>
<path d="M90.8535 126.577L88.8598 130.65L75.1037 127.412L76.5573 124.046L90.8535 126.577Z" fill="black"/>
<path d="M61.6611 137.161C74.0004 137.161 81.8129 139.982 81.8129 132.804" stroke="black" stroke-width="2" stroke-linecap="round" stroke-linejoin="round"/>
<line x1="-6.55671e-07" y1="86.9824" x2="141" y2="86.9824" stroke="#690404" stroke-width="15"/>
</svg>
