<?xml version="1.0" encoding="utf-8"?>
<!-- Generator: Adobe Illustrator 28.1.0, SVG Export Plug-In . SVG Version: 6.00 Build 0)  -->
<svg version="1.1" id="Layer_1" xmlns="http://www.w3.org/2000/svg" xmlns:xlink="http://www.w3.org/1999/xlink" x="0px" y="0px"
	 viewBox="0 0 2048.1 631.7" style="enable-background:new 0 0 2048.1 631.7;" xml:space="preserve">
<style type="text/css">
	.st0{fill:#009FE3;}
</style>
<path class="st0" d="M2048,32v599.7H0V32c23.5-0.9,56.4,1.6,76.8,1.9c19.2-0.4,19-2.9,36.4-3.3c22.8-0.8,24.9,4,48,3.3
	c18.7-0.2,21.8-5.8,41.4-5c17.9,0.8,20,7.1,38.8,6.7c17-0.2,18.1-7,33.9-5c10.5,1.6,15.5,4.7,29,5c18.4,1.5,39.2-14.7,57.9-3.7
	c24.5,13.9,33.1-12.8,67.7,0.1c6.2,2.4,27.3,2.5,34.5,0c6.5-2.9,25.9-2.8,33.2,0c6.9,3.2,26.5,3.9,33.8,0c4.7-1.7,8.4-3.4,16.7-3.1
	c16,1.1,26.7,10.6,43.3,3c24.9-11.2,38.9,12.4,64.2,0c4.3-1.9,8.1-3.7,15.5-3c10.6,1,12.2,5.8,23.2,5.8c10.7-0.2,11.8-4.6,22.3-4.9
	c10.3-0.6,13.9,2.7,23.2,2.4c8.4,0.2,9.5-2.3,19.8-3.3c14.3-1.1,24.4,5.3,37.5,3c23.5-7.2,38.5,2.1,69.6,4.3
	c20.1,0.2,23.9-8.5,46.3-4.3c9.3,1.8,14.3,2.3,25.2,1.2c9.8-0.9,26.7-5.7,37.6-5.4c7.7,0.2,24.1,8.7,32.8,8.7
	c34.2,0,33.5-7.9,53.4-4.2c19.5,3.7,24.2,2,38.8,1.7c19.2-0.4,19-2.9,36.4-3.3c22.8-0.8,24.9,4,48,3.3c18.7-0.2,21.8-5.8,41.4-5
	c17.9,0.8,20,7.1,38.8,6.7c17-0.2,18.1-7,33.9-5c10.5,1.6,15.5,4.7,29,5c18.5,1.5,39.1-14.7,57.9-3.7c25.3,14,32.6-12.9,67.7,0.1
	c6.2,2.4,27.3,2.5,34.5,0c6.5-2.9,25.9-2.8,33.2,0c7,3.2,26.4,3.9,33.8,0c4.7-1.7,8.4-3.4,16.7-3.1c14,0.4,15.6,6,29.7,5.8
	c13.3-0.2,13.4-5,26.4-5.8c17.4-1.1,19.7,7.6,37.1,6.6c16-1.5,24.1-12,40.6-3.6c13.2,7,21.7-0.9,34.7-2.1
	c10.4-0.6,13.8,2.7,23.2,2.4c8.4,0.2,9.5-2.3,19.8-3.3c12.2-1.1,17.3,2.9,28.1,3.3c12.5,0.8,13.7-2.6,29-4.1
	c17.7-1.7,19.2,2.4,45.5,3.3c19.5,0.6,16.9-1.7,35.5-0.8c16.5,0.4,24,4.1,40.5,2.5c9.8-0.9,13-3.5,23.9-3.3
	c7.7,0.2,10.8,1.4,19.5,2.1C2013.8,32.6,2037.5,32.1,2048,32z"/>
<rect x="2048" y="31.9" class="st0" width="0.2" height="0.1"/>
</svg>
