<svg width="282" height="199" viewBox="0 0 282 199" fill="none" xmlns="http://www.w3.org/2000/svg">
<rect width="282" height="199" stroke="black"/>
<path d="M136.534 68.0732C123.47 68.0732 112.879 70.9749 112.879 74.5553V123.012C112.879 126.592 123.47 129.494 136.534 129.494C149.597 129.494 160.188 126.592 160.188 123.012V74.5586C160.188 70.9783 149.597 68.0766 136.534 68.0766V68.0732Z" fill="#D7FCFF" stroke="#1D1D1B" stroke-width="3" stroke-miterlimit="10"/>
<path d="M136.534 80.4448C148.445 80.4448 158.102 77.8091 158.102 74.5579C158.102 71.3066 148.445 68.6709 136.534 68.6709C124.622 68.6709 114.966 71.3066 114.966 74.5579C114.966 77.8091 124.622 80.4448 136.534 80.4448Z" fill="#D7FCFF"/>
<mask id="mask0_499_8486" style="mask-type:luminance" maskUnits="userSpaceOnUse" x="114" y="68" width="45" height="13">
<path d="M136.534 80.4448C148.445 80.4448 158.102 77.8091 158.102 74.5579C158.102 71.3066 148.445 68.6709 136.534 68.6709C124.622 68.6709 114.966 71.3066 114.966 74.5579C114.966 77.8091 124.622 80.4448 136.534 80.4448Z" fill="white"/>
</mask>
<g mask="url(#mask0_499_8486)">
<path d="M136.534 81.8957C148.39 81.8957 158.001 79.8706 158.001 77.3726C158.001 74.8746 148.39 72.8496 136.534 72.8496C124.678 72.8496 115.066 74.8746 115.066 77.3726C115.066 79.8706 124.678 81.8957 136.534 81.8957Z" fill="#97B7B7"/>
</g>
<path d="M136.534 80.4448C148.445 80.4448 158.102 77.8091 158.102 74.5579C158.102 71.3066 148.445 68.6709 136.534 68.6709C124.622 68.6709 114.966 71.3066 114.966 74.5579C114.966 77.8091 124.622 80.4448 136.534 80.4448Z" stroke="#1D1D1B" stroke-width="3" stroke-miterlimit="10"/>
<path d="M157.106 108.767L115.96 98.7012C115.96 98.7012 116.653 122.219 117.715 122.891C119.658 125.395 126.528 127.193 136.533 127.193C147.892 127.193 155.385 124.873 156.058 121.841C156.714 121.096 157.106 108.767 157.106 108.767Z" fill="#9C5E10"/>
<path d="M115.96 97.6743V79.5889C115.96 79.5889 115.947 83.8846 136.433 84.1955C158.895 84.5365 157.106 80.4413 157.106 80.4413V108.763L115.96 97.6743Z" fill="#97B7B7"/>
<path d="M157.086 108.831C155.937 111.93 145.805 111.93 134.456 108.831C123.105 105.732 114.834 100.711 115.98 97.6116C117.126 94.5127 127.292 96.4817 136.634 101.259C146.867 106.491 158.235 105.732 157.086 108.831Z" fill="#BD854C"/>
</svg>
