<svg width="165" height="156" viewBox="0 0 165 156" fill="none" xmlns="http://www.w3.org/2000/svg">
<path d="M125.27 67.0576H101.341C96.6616 67.0576 93.2998 71.5599 94.6291 76.0462L96.0186 80.7359C96.1861 81.3012 96.4244 81.8431 96.7278 82.3487L101.37 90.086C101.735 90.6949 102.191 91.2447 102.722 91.7164L106.18 94.7903C106.569 95.1355 106.994 95.4364 107.449 95.6875L121.38 103.373C125.645 105.727 130.95 103.112 131.682 98.2954L133.323 87.4913C133.376 87.1433 133.402 86.7919 133.402 86.44V77.1701C133.402 76.3542 133.26 75.5446 132.981 74.7779L131.849 71.6654C130.843 68.8991 128.214 67.0576 125.27 67.0576Z" fill="#C1A567"/>
<path d="M129.635 67.0576H91.4277L95.7328 81.5873L101.383 91.0047L106.226 95.3097L129.635 108.225L132.864 86.9686V75.9369L129.635 67.0576Z" fill="#C1A567"/>
<path d="M102.249 89.9288L92.832 68.4033H102.249C102.249 68.4033 107.093 79.4351 110.86 85.6237C114.627 91.8122 129.425 107.149 129.425 107.149L115.703 100.961L102.249 89.9288Z" fill="#F2D38E"/>
<path d="M83.6847 46.8778C83.0389 47.9541 88.2588 59.8828 90.9495 65.7126L129.157 67.596C124.314 56.6539 114.304 34.5545 113.013 33.6935C111.399 32.6172 84.4919 45.5325 83.6847 46.8778Z" fill="#E0F1F2"/>
<path d="M92.2943 42.3037L101.443 65.9817H90.1417C87.8995 60.1519 83.415 48.1156 83.415 46.6088C83.415 45.102 89.3345 43.1109 92.2943 42.3037Z" fill="white"/>
<path d="M129.312 109.197C129.312 109.197 107.567 99.474 100.326 88.5652C94.3319 79.5355 85.9791 56.2114 83.2793 48.4437C82.7721 46.9844 83.4763 45.4028 84.8864 44.7716L110.796 33.174C112.232 32.5312 113.911 33.0923 114.644 34.4846C118.518 41.8474 129.896 63.8852 132.743 74.0546C136.191 86.3667 129.312 109.197 129.312 109.197ZM129.312 109.197L143.383 140.632" stroke="black" stroke-width="3"/>
<path d="M130.816 68.4319L90.788 66.5981" stroke="black" stroke-width="3"/>
<path d="M74.9856 81.3935L62.1259 61.2128C59.6114 57.2667 54.0079 56.8512 50.9387 60.3831L47.7305 64.0751C47.3438 64.5202 47.0148 65.0124 46.7515 65.5399L42.7212 73.6129C42.404 74.2482 42.1853 74.9281 42.0727 75.6292L41.3388 80.1974C41.2563 80.7105 41.2313 81.2311 41.2641 81.7497L42.2686 97.628C42.5762 102.49 47.6323 105.559 52.0872 103.587L62.0806 99.1653C62.4024 99.0229 62.713 98.8564 63.0098 98.6673L70.8274 93.6857C71.5155 93.2472 72.1216 92.6919 72.6184 92.0447L74.635 89.4176C76.4273 87.0827 76.5675 83.8759 74.9856 81.3935Z" fill="#C1A567"/>
<path d="M77.3304 85.0752L56.7979 52.8535L46.8581 64.2923L41.9526 74.1183L40.9247 80.5163L42.6127 107.198L62.274 98.4982L71.5774 92.5698L77.3304 85.0752Z" fill="#C1A567"/>
<path d="M43.3277 74.2704L56.4199 54.7607L61.4808 62.7027C61.4808 62.7027 54.78 72.7156 51.5854 79.2181C48.3907 85.7205 43.4094 106.443 43.4094 106.443L41.254 91.5444L43.3277 74.2704Z" fill="#F2D38E"/>
<path d="M69.6559 35.4781C68.4012 35.5119 61.1465 46.3244 57.676 51.7264L76.6201 84.9602C83.2452 74.9955 96.5034 54.6782 96.5354 53.1263C96.5755 51.1865 71.2242 35.4359 69.6559 35.4781Z" fill="#E0F1F2"/>
<path d="M78.1408 40.2811L63.0887 60.7206L57.0157 51.1902C60.7271 46.1664 68.4678 35.9162 69.7385 35.1065C71.0092 34.2968 75.8695 38.2189 78.1408 40.2811Z" fill="white"/>
<path d="M41.6203 107.447C41.6203 107.447 38.1343 83.8833 43.4427 71.9143C47.8366 62.007 63.0178 42.4285 68.1177 35.9774C69.0758 34.7654 70.788 34.5094 72.0781 35.3594L95.7826 50.9774C97.0963 51.843 97.5254 53.5605 96.7449 54.9265C92.6176 62.1504 80.1468 83.5887 73.1009 91.4551C64.5704 100.979 41.6203 107.447 41.6203 107.447ZM41.6203 107.447L22.6716 136.206" stroke="black" stroke-width="3"/>
<path d="M76.8071 86.8087L56.8427 52.066" stroke="black" stroke-width="3"/>
<path d="M66.2168 10.2773L73.3797 22.8152" stroke="black" stroke-width="3" stroke-linecap="round"/>
<path d="M90.1748 2L90.1092 16.4396" stroke="black" stroke-width="3" stroke-linecap="round"/>
<path d="M113.05 6.66113L107.256 19.8876" stroke="black" stroke-width="3" stroke-linecap="round"/>
<path d="M37.302 146.678C37.1313 146.955 36.688 147.311 35.5883 147.451C34.5052 147.59 33.0218 147.479 31.2026 147.067C27.5796 146.245 22.9585 144.301 18.2404 141.395C13.5223 138.488 9.70822 135.235 7.34448 132.369C6.15764 130.93 5.39173 129.655 5.02816 128.625C4.65898 127.58 4.77769 127.024 4.94838 126.747C5.11908 126.47 5.56239 126.113 6.66207 125.973C7.74509 125.835 9.22853 125.945 11.0477 126.358C14.6708 127.18 19.2918 129.123 24.0099 132.029C28.728 134.936 32.5421 138.189 34.9059 141.055C36.0927 142.494 36.8586 143.77 37.2222 144.799C37.5914 145.844 37.4727 146.401 37.302 146.678Z" fill="#E0F1F2" stroke="black" stroke-width="3"/>
<path d="M160.42 131.926C160.566 132.216 160.637 132.78 160.181 133.791C159.731 134.786 158.86 135.991 157.555 137.325C154.957 139.98 150.881 142.898 145.933 145.393C140.985 147.889 136.216 149.433 132.536 149.945C130.689 150.202 129.201 150.186 128.134 149.956C127.05 149.723 126.638 149.331 126.492 149.04C126.345 148.75 126.274 148.185 126.731 147.175C127.18 146.18 128.052 144.974 129.356 143.641C131.955 140.986 136.031 138.068 140.979 135.572C145.926 133.077 150.696 131.532 154.375 131.021C156.223 130.764 157.71 130.78 158.778 131.009C159.862 131.243 160.273 131.635 160.42 131.926Z" fill="#E0F1F2" stroke="black" stroke-width="3"/>
</svg>
