<svg width="112" height="121" viewBox="0 0 112 121" fill="none" xmlns="http://www.w3.org/2000/svg">
<path d="M65.4403 10.9702C65.4553 15.9213 61.5112 19.9197 56.4702 19.9403C51.5152 19.9609 47.5 15.9232 47.5 10.9702C47.5 6.0171 51.5171 2 56.4702 2C61.4232 2 65.4253 6.01523 65.4403 10.9702Z" fill="#F2D38E" stroke="black" stroke-width="4" stroke-miterlimit="10"/>
<path d="M56.6036 119.001C64.4834 119.001 70.8713 112.613 70.8713 104.733C70.8713 96.8537 64.4834 90.4658 56.6036 90.4658C48.7238 90.4658 42.3359 96.8537 42.3359 104.733C42.3359 112.613 48.7238 119.001 56.6036 119.001Z" fill="#F2D38E" stroke="black" stroke-width="4" stroke-miterlimit="10"/>
<path d="M110 102.5C110 100 109.5 98.5 108 97C106.5 95.5 102.67 93.9519 101.248 91.1833L99.8158 88.396C98.1311 85.1165 97.7777 82.6778 96.7762 79.1286L95.9058 76.0437C94.6535 71.6055 94.0189 67.0156 94.0189 62.4051V59.5504V47.5702C94.0189 45.3314 93.8823 43.0964 93.609 40.8744C93.345 38.7236 92.8003 36.6177 91.9898 34.611L91.1605 32.5594C89.9251 29.5007 88.2403 26.6461 86.1625 24.0853L84.242 21.7173C82.6302 19.7313 80.7115 18.0166 78.5588 16.637C74.1767 13.831 69.2274 12.0302 64.0666 11.3638L59 10.9995C59 10.9995 56.6126 10.8846 56.6201 11.4256L58 104.5L104.5 105C108.5 105 110 105 110 102.5Z" fill="#F2D38E" stroke="black" stroke-width="4" stroke-miterlimit="10"/>
<path d="M2 102.5C2 100.293 4.5 96.5 7.00024 94.5C9.50048 92.5 11.0102 90.2685 12.5002 87.5L13.1718 86.3951C14.937 83.1155 15.354 82.6768 16.4023 79.1277L17.3139 76.0428C18.6243 71.6045 19.2907 67.0146 19.2907 62.4041V59.5495L20.2907 47.5712C20.2907 45.3305 20.4329 43.0936 20.7193 40.8716C20.9964 38.7208 21.5654 36.6149 22.4153 34.6082L23.2838 32.5566C24.5792 29.4979 26.3425 26.6433 28.5177 24.0825L30.53 21.7145C32.2184 19.7285 34.227 18.0138 36.4826 16.6342C41.0725 13.8282 46.2558 12.0274 51.66 11.361L55.0002 10.9992C55.2885 10.9637 58.7363 10.8757 59.0002 10.9993C59.3128 11.1434 59.464 11.0634 59.4584 11.4228L58.0002 104.499L4.26527 104.707C3.57828 104.719 2 104.707 2 102.5Z" fill="#F2D38E" stroke="black" stroke-width="4" stroke-miterlimit="10"/>
<path d="M57 13H61.5L63.5 103H52.5L57 13Z" fill="#F2D38E"/>
<path d="M67.5 111H46.5C44.5 109.4 44.6667 107.333 44.5 106.5H69C69 109.7 68.5 109.5 67.5 111Z" fill="#9A8149"/>
<path d="M33 60C32.6 45.6 34.5 36 37 33C35.5 45.5 37 56.1667 37.5 60C38.1667 68.8333 40 85 33 91.5C29.0565 95.1618 28.8336 100.167 29.0004 102H21.0004C20.5004 96.5 24.5004 93 29.0004 88.5C33.5004 84 33.5 78 33 60Z" fill="#FCF0BE"/>
</svg>
