<?xml version="1.0" encoding="utf-8"?>
<!-- Generator: Adobe Illustrator 28.1.0, SVG Export Plug-In . SVG Version: 6.00 Build 0)  -->
<svg version="1.1" id="Layer_1" xmlns="http://www.w3.org/2000/svg" xmlns:xlink="http://www.w3.org/1999/xlink" x="0px" y="0px"
	 viewBox="0 0 308 218" style="enable-background:new 0 0 308 218;" xml:space="preserve">
<style type="text/css">
	.st0{stroke:#000000;stroke-width:3;stroke-miterlimit:10;}
	.st1{fill:#B2B7BB;}
	.st2{fill:#FFFFFF;filter:url(#Adobe_OpacityMaskFilter);}
	.st3{mask:url(#mask0_499_8499_00000074440992105227574110000001088486005057683098_);}
	.st4{fill:#F3F3F3;}
	.st5{fill:none;stroke:#000000;stroke-width:3;stroke-miterlimit:10;}
</style>
<path class="st0" d="M127.5,118.4L83,162.9l11.4,11.4l44.5-44.5L127.5,118.4z"/>
<path class="st1" d="M127.5,118.4l74.8-74.8c0,0,6.5,31.3-8.8,46.6l-47.1,47.1L127.5,118.4z"/>
<defs>
	<filter id="Adobe_OpacityMaskFilter" filterUnits="userSpaceOnUse" x="138.4" y="45" width="101.7" height="101.7">
		<feColorMatrix  type="matrix" values="1 0 0 0 0  0 1 0 0 0  0 0 1 0 0  0 0 0 1 0"/>
	</filter>
</defs>
<mask maskUnits="userSpaceOnUse" x="138.4" y="45" width="101.7" height="101.7" id="mask0_499_8499_00000074440992105227574110000001088486005057683098_">
	<path class="st2" d="M127.5,118.4l74.8-74.8c0,0,6.5,31.3-8.8,46.6l-47.1,47.1L127.5,118.4z"/>
</mask>
<g class="st3">
	<path class="st4" d="M229.5,45L138.4,136l10.6,10.6l91.1-91.1L229.5,45z"/>
</g>
<path class="st5" d="M127.5,118.4l74.8-74.8c0,0,6.5,31.3-8.8,46.6l-47.1,47.1L127.5,118.4z"/>
</svg>
