<svg width="374" height="333" viewBox="0 0 374 333" fill="none" xmlns="http://www.w3.org/2000/svg">
<path d="M181.281 184.73L124.946 212.764L132.125 227.19L188.46 199.156L181.281 184.73Z" fill="black" stroke="black" stroke-width="3" stroke-miterlimit="10"/>
<path d="M181.281 184.73L275.937 137.628C275.937 137.628 272.126 169.385 252.802 179.001L193.191 208.664L181.281 184.73Z" fill="#B2B7BB"/>
<mask id="mask0_499_8499" style="mask-type:luminance" maskUnits="userSpaceOnUse" x="181" y="137" width="95" height="72">
<path d="M181.281 184.73L275.937 137.628C275.937 137.628 272.126 169.385 252.802 179.001L193.191 208.664L181.281 184.73Z" fill="white"/>
</mask>
<g mask="url(#mask0_499_8499)">
<path d="M301.287 147.511L185.997 204.882L192.686 218.324L307.977 160.953L301.287 147.511Z" fill="#F3F3F3"/>
</g>
<path d="M181.281 184.73L275.937 137.628C275.937 137.628 272.126 169.385 252.802 179.001L193.191 208.664L181.281 184.73Z" stroke="black" stroke-width="3" stroke-miterlimit="10"/>
<path d="M246.565 153.865L274.07 140.178C271.351 158.956 262.634 170.07 258.828 172.895C257.046 169.314 249.873 178.468 247.866 175.557C245.82 172.589 252.792 171.989 251.678 169.751C250.565 167.513 239.144 175.988 237.587 171.737C236.434 168.587 255.266 164.615 253.484 161.034C252.147 158.348 242.297 164.366 240.961 161.681C239.624 158.995 243.654 156.245 246.565 153.865Z" fill="#690404"/>
</svg>
