<svg width="150" height="140" viewBox="0 0 150 140" fill="none" xmlns="http://www.w3.org/2000/svg">
<path d="M105 137.5C94.9993 136 96.6664 124.167 99.9997 122L96.9994 119C94.1327 116.493 92.8875 111.748 92.494 107.155C92.0355 119.832 88.8515 123.5 81.9994 123.5C71.839 123.5 71.306 111.921 71.4346 103.247C71.2182 111.354 70.2234 121 60.9994 121C50.4994 121 50.4994 107.667 51.4994 100C50.8328 104.167 47.9995 112.7 41.9994 113.5C35.9994 114.3 31.9998 110.5 30.9996 103C29.9995 95.5 31.9995 66.5001 31.9995 66.5001C31.6661 65.3334 31.9991 56.0001 39.4999 56.0001C47.0007 56.0001 46.6661 57.3331 49.4995 60.0001C49.9995 53.0001 53.4994 48 59.9993 48C69.4993 48 70.1661 53.4997 71.4995 57.4996C71.4995 57.4996 72.9993 47.9999 81.9995 48C89.375 48.0001 91.9995 53.6665 92.4995 57.4996C94.4994 53.0001 96.9994 48 105 48C117.999 48 128 71.9999 129.499 78.5C130.999 85.0001 132.5 97.4999 129.499 110.5C126.499 123.5 115 139 105 137.5Z" fill="#FFDBCD"/>
<path d="M112.499 85.0001C112.499 103.5 115.499 119 102.999 121C100.473 121.404 98.5109 120.322 96.9994 119M96.9994 119C92.527 115.088 92.0012 105.73 92.4995 100C92.9994 118.5 89.9994 123.5 81.9994 123.5C70.4994 123.5 71.3328 108.667 71.4995 100C71.336 108.5 71.4995 121 60.9994 121C50.4994 121 50.4994 107.667 51.4994 100C50.8328 104.167 47.9995 112.7 41.9994 113.5C35.9994 114.3 31.9998 110.5 30.9996 103C29.9995 95.5 31.9995 66.5001 31.9995 66.5001C31.6661 65.3334 31.9991 56.0001 39.4999 56.0001C47.0007 56.0001 46.6661 57.3331 49.4995 60.0001C49.9995 53.0001 53.4994 48 59.9993 48C69.4993 48 70.1661 53.4997 71.4995 57.4996C71.4995 57.4996 72.9993 47.9999 81.9995 48C89.375 48.0001 91.9995 53.6665 92.4995 57.4996C94.4994 53.0001 96.9994 48 105 48C117.999 48 128 71.9999 129.499 78.5C130.999 85.0001 132.5 97.4999 129.499 110.5C126.499 123.5 115 139 105 137.5C94.9993 136 96.6664 124.167 99.9997 122L96.9994 119ZM132.999 49.5L147.499 41" stroke="black" stroke-width="4" stroke-linecap="round" stroke-linejoin="round"/>
<path d="M108.5 34.5L124.5 9.5" stroke="black" stroke-width="4" stroke-linecap="round" stroke-linejoin="round"/>
<path d="M76 30.5V2" stroke="black" stroke-width="4" stroke-linecap="round" stroke-linejoin="round"/>
<path d="M43.5 37.5L23.5 12.5" stroke="black" stroke-width="4" stroke-linecap="round" stroke-linejoin="round"/>
<path d="M20.5 53L2 44" stroke="black" stroke-width="4" stroke-linecap="round" stroke-linejoin="round"/>
<path d="M116.5 119C122 109.5 118.833 91.3333 115 83.5C116 107.5 114.5 111.5 113.5 114.5C111.544 120.367 104.667 123.333 101 123.5C102.833 125.833 110.239 129.815 116.5 119Z" fill="#D8AD9C"/>
<path d="M81.5 117C86.5001 114 90.6667 93.3333 90 80.5C92.078 120.5 87.5 121 82.5 121C78.2069 121 77.3541 119.526 76.1438 117.843C75.6541 117.462 75.5 117 75.5 117C75.7356 117.283 75.9446 117.565 76.1438 117.843C76.9015 118.431 78.4628 118.822 81.5 117Z" fill="#D8AD9C"/>
<path d="M61 115C66.0001 112 70.1667 91.3333 69.5 78.5C71.578 118.5 67 119 62 119C57.7069 119 56.8541 117.526 55.6438 115.843C55.1541 115.462 55 115 55 115C55.2356 115.283 55.4446 115.565 55.6438 115.843C56.4015 116.431 57.9628 116.822 61 115Z" fill="#D8AD9C"/>
<path d="M41 108C46.0001 105 50.1667 84.3333 49.5 71.5C51.578 111.5 47 112 42 112C37.7069 112 36.8541 110.526 35.6438 108.843C35.1541 108.462 35 108 35 108C35.2356 108.283 35.4446 108.565 35.6438 108.843C36.4015 109.431 37.9628 109.822 41 108Z" fill="#D8AD9C"/>
</svg>
