<svg width="195" height="110" viewBox="0 0 195 110" fill="none" xmlns="http://www.w3.org/2000/svg">
<path d="M11.2557 3L4 22.5414C4 22.5414 46.545 31.4841 59.4074 51.6879C71.7873 71.1337 83.4832 107 83.4832 107H111.187C111.187 107 121.411 65.9299 139.88 47.7134C154.711 33.0849 191 22.8726 191 22.8726L183.414 3C183.414 3 131.187 15.2548 97.3351 15.2548C63.4827 15.2548 11.2557 3 11.2557 3Z" fill="#FFC0A8" stroke="#292929" stroke-width="5"/>
<path d="M89.3691 15.3141L84.1672 22.5931C83.5233 23.4942 83.7342 24.747 84.6377 25.3875L86.4955 26.7046C87.4694 27.3951 88.8274 27.0841 89.4038 26.0386L92.4302 20.5482C93.2246 19.107 95.3226 19.1885 96.0029 20.687L98.3513 25.8604C98.8606 26.9823 100.253 27.3813 101.28 26.6993L103.277 25.3717C104.219 24.7455 104.455 23.4634 103.797 22.5432L98.6309 15.3141C98.3884 14.9748 98.2581 14.5683 98.2581 14.1513V10C98.2581 8.89543 97.3626 8 96.2581 8H91.7419C90.6374 8 89.7419 8.89543 89.7419 10V14.1513C89.7419 14.5683 89.6116 14.9748 89.3691 15.3141Z" fill="#292929"/>
<path d="M65.3677 42.244C49.6774 23.4702 7.5 20.5 7.5 20.5C7.5 20.5 44.2839 28.4107 58.0129 46.6905C71.7419 64.9702 85 104 85 104C85 104 81.0581 61.0179 65.3677 42.244Z" fill="#F59E88"/>
<path d="M128.632 42.744C144.323 23.9702 187.5 21.5 187.5 21.5C187.5 21.5 151.5 32 136.5 47.5C121.5 63 109.5 104.5 109.5 104.5C109.5 104.5 112.942 61.5179 128.632 42.744Z" fill="#F59E88"/>
</svg>
