<svg width="76" height="86" viewBox="0 0 76 86" fill="none" xmlns="http://www.w3.org/2000/svg">
<g clip-path="url(#clip0_499_8465)">
<path d="M41.0391 17.2573C39.5631 13.1185 36.6322 10.2626 32.8211 8.20207C30.8017 7.11035 30.697 6.79928 31.9499 4.98172C32.7971 3.75076 33.7222 2.56572 34.4856 1.28439C35.3344 -0.140625 36.2774 -0.324307 37.7444 0.459302C42.8683 3.19527 46.2797 7.28366 48.0416 12.7482C48.1733 13.1585 48.317 13.5644 48.4652 13.9688C48.4802 14.0088 48.555 14.0266 48.7092 14.1184C51.5982 10.8284 55.1384 8.50574 59.5168 7.51771C62.6453 6.81113 65.7335 6.91778 68.844 7.6451C70.3948 8.00802 71.004 8.88495 71.0519 10.4048C71.2555 16.9092 68.9144 22.2848 63.8773 26.4947C63.4492 26.8517 63.0076 27.1924 62.4298 27.6545C63.054 28.1167 63.5899 28.5107 64.1243 28.9107C73.8077 36.1602 78.041 48.1202 75.0367 59.7322C71.977 71.5544 62.5825 80.0082 50.501 81.8214C41.563 83.1634 32.619 84.467 23.696 85.9083C21.6647 86.2371 20.5061 85.7127 19.4073 83.9722C14.6891 76.4961 9.82715 69.1073 5.00713 61.6934C-2.0852 50.7777 -1.6017 37.56 6.278 27.3761C14.1322 17.2247 26.9233 13.3259 39.4748 17.2543C39.8894 17.3832 40.3146 17.475 40.7352 17.5832C40.8864 17.6069 41.0361 17.632 41.1858 17.6572C41.1379 17.5239 41.0885 17.3906 41.0406 17.2558L41.0391 17.2573ZM67.2333 11.815C67.3082 10.9469 66.6376 11.0595 66.1032 10.9543C60.0288 9.75448 52.9589 13.3111 49.9875 19.0719C48.2646 22.4107 48.4951 22.8477 52.2284 23.3351C54.0621 23.9439 55.9078 24.5171 57.722 25.1778C58.475 25.4518 59.0468 25.2415 59.65 24.8653C64.4985 21.833 67.0837 17.5165 67.2333 11.8165V11.815ZM34.309 19.5163C34.1383 19.4437 33.9752 19.3267 33.7985 19.3059C22.961 18.0216 14.2221 21.7516 8.10422 30.6083C1.98039 39.4739 1.45498 49.0209 6.91717 58.3442C11.5935 66.3269 16.9255 73.9349 21.958 81.7147C22.3143 82.2657 22.6451 82.7368 23.428 82.5813C26.0611 82.0628 28.7704 81.9754 31.3586 81.2051C37.6037 80.6052 43.7709 79.4661 49.9651 78.5255C60.8431 76.8723 69.2826 69.2777 71.7809 58.996C74.432 48.0847 70.6478 37.7304 61.6125 31.1786C46.3381 20.1043 29.7015 29.5832 26.3904 42.7209C26.1179 43.8007 25.9877 44.9162 25.7841 46.0138C25.603 46.9915 25.0551 47.627 23.9968 47.5425C22.8337 47.4507 22.4071 46.6789 22.4655 45.6005C22.4865 45.2302 22.5478 44.8599 22.6062 44.4925C24.3007 33.9723 31.9514 25.9229 42.4611 23.5573C42.9386 23.4491 43.5613 23.5676 44.0448 22.9055C40.9328 21.1664 37.8162 19.817 34.309 19.5163ZM45.9624 19.7829C46.4055 13.0282 43.8023 7.67473 38.15 3.81001C37.6052 3.43672 36.9301 2.62941 36.2355 3.57745C35.3972 4.71953 36.6591 4.90321 37.207 5.30761C41.2127 8.25984 43.9745 12.0046 45.1151 16.887C45.3412 17.8557 45.1166 18.9593 45.9624 19.7829Z" fill="#0D0909"/>
<path d="M34.3092 19.5146C37.8165 19.8154 40.933 21.1648 44.0451 22.9039C43.5616 23.5675 42.9389 23.449 42.4613 23.5556C31.9501 25.9213 24.2994 33.9722 22.6064 44.4909C22.5466 44.8583 22.4852 45.2271 22.4657 45.5989C22.4059 46.6788 22.834 47.4491 23.9971 47.5409C25.0554 47.6253 25.6017 46.9899 25.7844 46.0122C25.9879 44.9145 26.1182 43.7991 26.3906 42.7193C29.7032 29.5816 46.3398 20.1027 61.6127 31.1769C70.648 37.7273 74.4322 48.0831 71.7812 58.9943C69.2828 69.2761 60.8448 76.8707 49.9653 78.5238C43.7711 79.4659 37.6039 80.6036 31.3588 81.2035C29.9158 81.2154 29.0341 80.5932 28.2393 79.3089C24.5554 73.3585 20.7533 67.4792 16.9302 61.6148C11.9964 54.0483 11.2943 46.0566 14.1564 37.6014C16.2521 31.414 20.2368 26.8101 25.6422 23.1838C28.3306 21.3811 31.272 20.3916 34.3107 19.5146H34.3092ZM64.2592 48.9333C64.5182 46.6047 63.7248 44.2361 62.3671 42.1341C59.8059 38.1717 56.4289 35.3246 51.326 35.2683C49.9488 35.2535 49.5312 36.0252 49.7917 37.1851C49.9563 37.9198 50.6509 38.1317 51.3829 38.2694C54.2255 38.8027 56.86 40.0085 58.4992 42.3193C60.261 44.8035 61.7549 47.5602 61.0439 50.9079C60.8658 51.7434 61.3433 52.6603 62.4734 52.7269C63.632 52.7951 64.1994 52.1492 64.2547 51.0471C64.2862 50.4294 64.2607 49.8088 64.2607 48.9333H64.2592Z" fill="#FFC0A8"/>
<path d="M34.3093 19.5149C31.2721 20.3918 28.3292 21.3799 25.6408 23.1841C20.234 26.8118 16.2492 31.4157 14.155 37.6016C11.293 46.0554 11.995 54.047 16.9288 61.615C20.7519 67.4795 24.554 73.3588 28.2379 79.3092C29.0328 80.5935 29.9159 81.2156 31.3574 81.2038C28.7693 81.974 26.0599 82.0614 23.4284 82.5814C22.6455 82.7354 22.3132 82.2644 21.9584 81.7148C16.9258 73.935 11.5953 66.327 6.91752 58.3443C1.45533 49.021 1.98074 39.474 8.10457 30.6084C14.2224 21.7517 22.9613 18.0218 33.7989 19.306C33.9755 19.3268 34.1402 19.4438 34.3093 19.5164V19.5149Z" fill="#F59E88"/>
<path d="M67.2335 11.815C67.0838 17.515 64.4986 21.8315 59.6502 24.8638C59.0469 25.2415 58.4751 25.4504 57.7221 25.1763C55.9079 24.5157 54.0622 23.9424 52.2285 23.3336C52.4216 22.2107 52.9964 21.2242 53.5982 20.3117C56.815 15.4264 61.0842 12.1305 67.2335 11.8135V11.815Z" fill="#818D6D"/>
<path d="M67.2342 11.8147C61.0849 12.1302 56.8157 15.4276 53.5989 20.3129C52.9971 21.2269 52.4223 22.2119 52.2292 23.3347C48.4959 22.8474 48.2669 22.4104 49.9884 19.0716C52.9597 13.3123 60.0296 9.75416 66.104 10.954C66.6384 11.0592 67.309 10.9466 67.2342 11.8147Z" fill="#616B52"/>
<path d="M45.9646 19.7813C45.1204 18.9577 45.3449 17.8541 45.1174 16.8853C43.9768 12.003 41.215 8.25822 37.2093 5.30599C36.6599 4.90159 35.3995 4.71791 36.2378 3.57583C36.9338 2.62779 37.6074 3.43658 38.1523 3.80839C43.8046 7.67311 46.4077 13.0265 45.9646 19.7813Z" fill="#818D6D"/>
<path d="M66 55L44 51L47 34.5L56.5 32L65 45L66 55Z" fill="#FFC0A8"/>
<path d="M41.0397 17.2568C41.0876 17.3902 41.137 17.5235 41.1849 17.6583C41.0353 17.6331 40.8841 17.6079 40.7344 17.5842C40.8362 17.4761 40.938 17.3665 41.0397 17.2568Z" fill="#FEFEFE"/>
</g>
<defs>
<clipPath id="clip0_499_8465">
<rect width="76" height="86" fill="white"/>
</clipPath>
</defs>
</svg>
