<svg width="185" height="127" viewBox="0 0 185 127" fill="none" xmlns="http://www.w3.org/2000/svg">
<path d="M3.51465 106.538V112.636C3.51465 116.041 6.09062 118.893 9.47874 119.232C23.1658 120.603 56.6683 123.879 69.7275 124.453C77.6548 124.802 96.0752 124.687 107.655 124.572C114.266 124.508 121.028 123.844 127.415 123.077L176.528 116.096C178.94 115.752 180.718 113.673 180.679 111.235L180.589 105.281" fill="#1F3021"/>
<path d="M3.51465 106.538V112.636C3.51465 116.041 6.09062 118.893 9.47874 119.232C23.1658 120.603 56.6683 123.879 69.7275 124.453C77.6548 124.802 96.0752 124.687 107.655 124.572C114.266 124.508 121.028 123.844 127.415 123.077L176.528 116.096C178.94 115.752 180.718 113.673 180.679 111.235L180.589 105.281" stroke="black" stroke-width="3" stroke-miterlimit="10"/>
<path d="M3.51417 106.539C4.37116 107.715 15.2779 108.553 19.239 108.897C21.0377 109.052 25.3128 109.46 27.7941 109.7C29.0198 109.819 30.2056 110.208 31.2619 110.842C32.7467 111.734 34.5304 111.963 36.1896 111.48L40.8184 110.139C42.5224 109.645 44.3211 109.59 46.0501 109.974L54.7894 111.924C55.7162 112.128 56.6728 112.183 57.6145 112.083L62.0191 111.604C62.9757 111.5 63.9423 111.56 64.8791 111.774C64.8791 111.774 70.8432 113.719 72.896 113.614C74.8142 113.514 78.4515 111.719 80.3648 111.844C81.9941 111.948 85.0185 113.614 86.6527 113.614C89.2287 113.614 95.5615 111.415 98.1275 110.483C98.8749 110.213 99.6572 110.074 100.454 110.074H100.529C102.014 110.074 103.489 110.308 104.904 110.762L105.442 110.936C107.679 111.659 110.071 111.744 112.353 111.191L115.517 110.418C116.448 110.188 117.405 110.074 118.367 110.074H123.743L129.074 109.176C130.35 108.962 131.64 108.852 132.931 108.852H135.855C136.677 108.852 137.495 108.962 138.287 109.181L144.54 110.906C146.229 111.37 148.013 111.4 149.717 110.991L158.914 108.772C159.089 108.732 159.263 108.683 159.433 108.628L163.762 107.252C165.247 106.778 166.797 106.539 168.351 106.539H171.027C171.814 106.539 172.591 106.414 173.339 106.17C174.276 105.86 175.566 105.457 176.174 105.367C177.091 105.232 179.024 105.242 180.598 105.282C181.914 105.312 183 104.255 183 102.939V98.0074C183 97.1348 182.651 96.2972 182.038 95.6789C181.54 95.1803 181.266 94.5022 181.276 93.7942L181.53 79.4243C181.54 78.9057 181.336 78.4071 180.972 78.0431C180.549 77.6193 180.309 77.0409 180.309 76.4426V68.7441C180.309 66.8245 179.841 64.9347 178.949 63.2345L170.334 46.8652C169.303 44.9056 167.758 43.2652 165.865 42.1234L163.643 40.7772C162.89 40.3234 162.078 39.9844 161.226 39.7799L158.326 39.0719C157.19 38.7927 156.144 38.2442 155.272 37.4614C153.887 36.2149 151.725 34.3551 150.599 33.8465C150.075 33.6072 148.332 33.4426 148.332 33.4426C147.201 33.2432 146.045 33.6022 145.237 34.4149C144.654 34.9983 144.231 35.7163 144.002 36.5041L143.538 38.0947C143.449 38.4088 143.055 38.5085 142.826 38.2791L141.909 37.3617C141.471 36.9229 141.197 36.3495 141.122 35.7362L140.723 32.2859C140.534 30.6305 140.031 29.02 139.253 27.5491L138.905 26.8909C138.187 25.5297 137.265 24.2832 136.179 23.1962L130.195 17.208L127.191 14.4556C125.935 13.3088 125.223 11.6934 125.193 9.9931C125.183 9.52441 125.143 9.10059 125.038 8.85129C124.42 7.37541 121.56 5.43582 120.1 4.78264C119.473 4.49844 117.948 4.45356 117.34 4.78264C116.458 5.26131 115.507 7.61972 114.505 7.61972C113.583 7.61972 111.899 5.012 111.899 5.012C110.654 3.76548 108.91 3.15219 107.156 3.34167L103.24 3.77047C102.378 3.8652 101.506 3.81534 100.659 3.62089L98.3318 3.08738C98.2172 3.06245 98.0976 3.03253 97.983 2.99763C97.2655 2.7932 94.4853 1.85083 93.2596 2.02534C92.7962 2.09016 91.9143 2.3993 91.4659 2.52395C89.5576 3.05746 87.7788 3.9749 86.2392 5.22142C83.7728 7.22084 76.3688 13.2141 76.3688 13.2141L72.3977 16.1659C71.2966 16.9836 69.9612 17.4273 68.5911 17.4273H67.7341C66.1446 17.4273 64.5751 17.7365 63.1053 18.3448L62.1237 18.7487C61.0076 19.2074 60.1008 20.065 59.5776 21.1569L59.1043 22.1492C58.91 22.553 58.5064 22.8073 58.063 22.8073C57.6942 22.8073 57.3355 22.9569 57.0764 23.2162L55.9603 24.3331L55.3824 24.9115C54.9588 25.3353 54.7247 25.9037 54.7247 26.502C54.7247 27.1153 54.4805 27.7037 54.047 28.1374L52.3281 29.8576L49.0246 33.1634C48.5363 33.6521 47.8737 33.9263 47.1811 33.9263C46.5134 33.9263 45.8657 34.1407 45.3326 34.5446L38.3072 39.8149L33.6585 40.832L28.7457 41.2658C26.5235 41.4603 24.3561 42.0835 22.3731 43.1007L22.3631 43.1057C20.0512 44.2874 18.0432 45.9976 16.5086 48.0967L14.4857 50.864L10.5993 58.0839C8.8405 61.3697 7.75929 64.9696 7.41051 68.6793L6.7279 75.954C6.66313 76.667 6.6432 77.365 6.3293 77.9833C4.08716 82.4758 -0.327365 101.273 3.51417 106.539Z" fill="#D0D3D8" stroke="black" stroke-width="3" stroke-miterlimit="10"/>
<path d="M64.8742 111.778L63.5289 108.288C63.22 107.485 63.0605 106.633 63.0605 105.77V104.828C63.0605 103.98 63.1752 103.137 63.3944 102.32C64.2564 100.978 64.5703 99.353 64.2763 97.7824C64.072 96.7204 64.077 95.6234 64.2912 94.5614L66.4188 83.9111" stroke="black" stroke-width="3" stroke-miterlimit="10"/>
<path d="M47.1711 33.9111C47.1711 33.9111 47.5448 39.0717 47.1711 40.7371C46.7975 42.3974 44.9489 45.424 44.8144 47.1193C44.6948 48.63 45.9953 53.0726 45.9953 53.0726" stroke="black" stroke-width="3" stroke-miterlimit="10"/>
<path d="M142.821 38.2686V42.1228C142.821 43.0253 142.976 43.9228 143.275 44.7804L143.997 46.8396C144.456 48.151 144.695 49.5321 144.695 50.9182L142.826 57.804L144.695 69.6609" stroke="black" stroke-width="3" stroke-miterlimit="10"/>
<path d="M155.267 37.4561L154.38 43.7385C154.032 46.2266 154.365 48.7645 155.347 51.073L155.606 51.6813C156.388 53.5162 156.563 55.5505 156.114 57.4901L155.262 61.1499" stroke="black" stroke-width="3" stroke-miterlimit="10"/>
<path d="M174.794 55.3467L173.474 61.1555L174.794 65.0995V69.4274C174.794 71.1027 174.899 71.7908 175.387 73.3913L177.011 77.2455" stroke="black" stroke-width="3" stroke-miterlimit="10"/>
<path d="M93.2549 2V11.6979C93.2549 14.525 94.1318 17.2823 95.7661 19.5909L96.6181 20.7975C97.9584 22.6922 98.5065 25.0407 98.1477 27.3343L97.1114 33.9109C97.1114 33.9109 95.2529 38.6028 95.1831 40.2582C95.1233 41.6593 95.8458 44.6958 96.4238 46.8598C96.8772 48.555 97.1114 50.3052 97.1114 52.0603V57.7992" stroke="black" stroke-width="3" stroke-miterlimit="10"/>
<path d="M22.3582 43.085C22.3582 43.085 21.4464 50.8782 18.5017 54.5131C17.9138 55.241 16.8525 56.8765 16.7329 57.8039C16.5685 59.0803 17.6447 61.5833 17.6945 62.8697C17.7942 65.4126 17.2411 69.7705 17.2411 71.1765" stroke="black" stroke-width="3" stroke-miterlimit="10"/>
</svg>
