<svg width="255" height="180" viewBox="0 0 255 180" fill="none" xmlns="http://www.w3.org/2000/svg">
<path d="M53.2002 66.5234V131.535H53.2063C53.5001 141.734 83.5556 149.98 120.593 149.98C157.63 149.98 187.682 141.734 187.979 131.535H187.985V66.5234H53.2002Z" fill="#F5E5D3" stroke="black" stroke-width="3" stroke-miterlimit="10"/>
<path d="M120.593 84.968C157.813 84.968 187.985 76.6421 187.985 66.3717C187.985 56.1012 157.813 47.7754 120.593 47.7754C83.3729 47.7754 53.2002 56.1012 53.2002 66.3717C53.2002 76.6421 83.3729 84.968 120.593 84.968Z" fill="#CFAE82" stroke="black" stroke-width="3" stroke-miterlimit="10"/>
<path d="M90.573 58.0566C97.6171 58.0566 103.328 53.4699 103.328 47.812C103.328 42.154 97.6171 37.5674 90.573 37.5674C83.5288 37.5674 77.8184 42.154 77.8184 47.812C77.8184 53.4699 83.5288 58.0566 90.573 58.0566Z" fill="#F5E5D3"/>
<mask id="mask0_499_8509" style="mask-type:luminance" maskUnits="userSpaceOnUse" x="77" y="37" width="27" height="22">
<path d="M90.573 58.0566C97.6171 58.0566 103.328 53.4699 103.328 47.812C103.328 42.154 97.6171 37.5674 90.573 37.5674C83.5288 37.5674 77.8184 42.154 77.8184 47.812C77.8184 53.4699 83.5288 58.0566 90.573 58.0566Z" fill="white"/>
</mask>
<g mask="url(#mask0_499_8509)">
<path d="M78.4484 44.3135C78.4484 44.3135 81.9013 57.5698 98.5632 55.7918C97.8938 56.9196 80.2567 59.5534 82.5768 55.7918C84.3911 52.3053 87.7047 59.0423 82.5768 55.7918C75.2287 51.1321 78.4484 44.3135 78.4484 44.3135Z" fill="#CFAE82"/>
</g>
<path d="M90.573 58.0566C97.6171 58.0566 103.328 53.4699 103.328 47.812C103.328 42.154 97.6171 37.5674 90.573 37.5674C83.5288 37.5674 77.8184 42.154 77.8184 47.812C77.8184 53.4699 83.5288 58.0566 90.573 58.0566Z" stroke="black" stroke-width="3" stroke-miterlimit="10"/>
<path d="M121.165 55.3349C128.209 55.3349 133.919 50.7482 133.919 45.0903C133.919 39.4324 128.209 34.8457 121.165 34.8457C114.121 34.8457 108.41 39.4324 108.41 45.0903C108.41 50.7482 114.121 55.3349 121.165 55.3349Z" fill="#F5E5D3"/>
<mask id="mask1_499_8509" style="mask-type:luminance" maskUnits="userSpaceOnUse" x="108" y="34" width="26" height="22">
<path d="M121.165 55.3349C128.209 55.3349 133.919 50.7482 133.919 45.0903C133.919 39.4324 128.209 34.8457 121.165 34.8457C114.121 34.8457 108.41 39.4324 108.41 45.0903C108.41 50.7482 114.121 55.3349 121.165 55.3349Z" fill="white"/>
</mask>
<g mask="url(#mask1_499_8509)">
<path d="M109.04 41.5918C109.04 41.5918 112.493 54.8481 129.155 53.0701C128.486 54.198 110.848 56.8317 113.169 53.0701C114.983 49.5837 118.296 56.3207 113.169 53.0701C105.821 48.4104 109.04 41.5918 109.04 41.5918Z" fill="#CFAE82"/>
</g>
<path d="M121.165 55.3349C128.209 55.3349 133.919 50.7482 133.919 45.0903C133.919 39.4324 128.209 34.8457 121.165 34.8457C114.121 34.8457 108.41 39.4324 108.41 45.0903C108.41 50.7482 114.121 55.3349 121.165 55.3349Z" stroke="black" stroke-width="3" stroke-miterlimit="10"/>
<path d="M152.059 58.0566C159.103 58.0566 164.814 53.4699 164.814 47.812C164.814 42.154 159.103 37.5674 152.059 37.5674C145.015 37.5674 139.305 42.154 139.305 47.812C139.305 53.4699 145.015 58.0566 152.059 58.0566Z" fill="#F5E5D3"/>
<mask id="mask2_499_8509" style="mask-type:luminance" maskUnits="userSpaceOnUse" x="139" y="37" width="26" height="22">
<path d="M152.059 58.0566C159.103 58.0566 164.814 53.4699 164.814 47.812C164.814 42.154 159.103 37.5674 152.059 37.5674C145.015 37.5674 139.305 42.154 139.305 47.812C139.305 53.4699 145.015 58.0566 152.059 58.0566Z" fill="white"/>
</mask>
<g mask="url(#mask2_499_8509)">
<path d="M139.935 44.3135C139.935 44.3135 143.388 57.5698 160.05 55.7918C159.38 56.9196 141.743 59.5534 144.063 55.7918C145.877 52.3053 149.191 59.0423 144.063 55.7918C136.715 51.1321 139.935 44.3135 139.935 44.3135Z" fill="#CFAE82"/>
</g>
<path d="M152.059 58.0566C159.103 58.0566 164.814 53.4699 164.814 47.812C164.814 42.154 159.103 37.5674 152.059 37.5674C145.015 37.5674 139.305 42.154 139.305 47.812C139.305 53.4699 145.015 58.0566 152.059 58.0566Z" stroke="black" stroke-width="3" stroke-miterlimit="10"/>
<path d="M169.021 69.245C176.065 69.245 181.776 64.6584 181.776 59.0004C181.776 53.3425 176.065 48.7559 169.021 48.7559C161.977 48.7559 156.267 53.3425 156.267 59.0004C156.267 64.6584 161.977 69.245 169.021 69.245Z" fill="#F5E5D3"/>
<mask id="mask3_499_8509" style="mask-type:luminance" maskUnits="userSpaceOnUse" x="156" y="48" width="26" height="22">
<path d="M169.021 69.245C176.065 69.245 181.776 64.6584 181.776 59.0004C181.776 53.3425 176.065 48.7559 169.021 48.7559C161.977 48.7559 156.267 53.3425 156.267 59.0004C156.267 64.6584 161.977 69.245 169.021 69.245Z" fill="white"/>
</mask>
<g mask="url(#mask3_499_8509)">
<path d="M156.897 55.502C156.897 55.502 160.35 68.7582 177.011 66.9802C176.342 68.1081 158.705 70.7418 161.025 66.9802C162.839 63.4938 166.153 70.2308 161.025 66.9802C153.677 62.3206 156.897 55.502 156.897 55.502Z" fill="#CFAE82"/>
</g>
<path d="M169.021 69.245C176.065 69.245 181.776 64.6584 181.776 59.0004C181.776 53.3425 176.065 48.7559 169.021 48.7559C161.977 48.7559 156.267 53.3425 156.267 59.0004C156.267 64.6584 161.977 69.245 169.021 69.245Z" stroke="black" stroke-width="3" stroke-miterlimit="10"/>
<path d="M73.7812 34.2715C73.7812 34.2715 85.1789 50.3852 90.7066 43.0435C96.2343 35.7017 73.7812 34.2715 73.7812 34.2715Z" fill="#D5E07D" stroke="black" stroke-width="3" stroke-miterlimit="10"/>
<path d="M73.9148 69.245C80.9589 69.245 86.6694 64.6584 86.6694 59.0004C86.6694 53.3425 80.9589 48.7559 73.9148 48.7559C66.8706 48.7559 61.1602 53.3425 61.1602 59.0004C61.1602 64.6584 66.8706 69.245 73.9148 69.245Z" fill="#F5E5D3"/>
<mask id="mask4_499_8509" style="mask-type:luminance" maskUnits="userSpaceOnUse" x="61" y="48" width="26" height="22">
<path d="M73.9148 69.245C80.9589 69.245 86.6694 64.6584 86.6694 59.0004C86.6694 53.3425 80.9589 48.7559 73.9148 48.7559C66.8706 48.7559 61.1602 53.3425 61.1602 59.0004C61.1602 64.6584 66.8706 69.245 73.9148 69.245Z" fill="white"/>
</mask>
<g mask="url(#mask4_499_8509)">
<path d="M61.7902 55.502C61.7902 55.502 65.2431 68.7582 81.905 66.9802C81.2356 68.1081 63.5985 70.7418 65.9186 66.9802C67.7329 63.4938 71.0465 70.2308 65.9186 66.9802C58.5705 62.3206 61.7902 55.502 61.7902 55.502Z" fill="#CFAE82"/>
</g>
<path d="M73.9148 69.245C80.9589 69.245 86.6694 64.6584 86.6694 59.0004C86.6694 53.3425 80.9589 48.7559 73.9148 48.7559C66.8706 48.7559 61.1602 53.3425 61.1602 59.0004C61.1602 64.6584 66.8706 69.245 73.9148 69.245Z" stroke="black" stroke-width="3" stroke-miterlimit="10"/>
<path d="M55.1836 54.7816C55.1836 54.7816 73.8172 61.3493 74.0747 52.1691C74.3322 42.9858 55.1836 54.7816 55.1836 54.7816Z" fill="#D5E07D" stroke="black" stroke-width="3" stroke-miterlimit="10"/>
<path d="M102.571 83.0029C111.019 83.0029 117.867 77.5025 117.867 70.7173C117.867 63.9321 111.019 58.4316 102.571 58.4316C94.1236 58.4316 87.2754 63.9321 87.2754 70.7173C87.2754 77.5025 94.1236 83.0029 102.571 83.0029Z" fill="#F5E5D3"/>
<mask id="mask5_499_8509" style="mask-type:luminance" maskUnits="userSpaceOnUse" x="87" y="58" width="31" height="26">
<path d="M102.571 83.0029C111.019 83.0029 117.867 77.5025 117.867 70.7173C117.867 63.9321 111.019 58.4316 102.571 58.4316C94.1236 58.4316 87.2754 63.9321 87.2754 70.7173C87.2754 77.5025 94.1236 83.0029 102.571 83.0029Z" fill="white"/>
</mask>
<g mask="url(#mask5_499_8509)">
<path d="M88.0328 66.5234C88.0328 66.5234 92.1733 82.4195 112.155 80.2877C111.355 81.6424 90.2015 84.7992 92.982 80.2877C95.1567 76.1058 99.1306 84.1854 92.982 80.2877C84.171 74.6998 88.0298 66.5234 88.0298 66.5234" fill="#CFAE82"/>
</g>
<path d="M102.571 83.0029C111.019 83.0029 117.867 77.5025 117.867 70.7173C117.867 63.9321 111.019 58.4316 102.571 58.4316C94.1236 58.4316 87.2754 63.9321 87.2754 70.7173C87.2754 77.5025 94.1236 83.0029 102.571 83.0029Z" stroke="black" stroke-width="3" stroke-miterlimit="10"/>
<path d="M85.4697 76.7134C85.4697 76.7134 105.212 75.8667 102.02 67.252C98.8271 58.6372 85.4697 76.7134 85.4697 76.7134Z" fill="#D5E07D" stroke="black" stroke-width="3" stroke-miterlimit="10"/>
<path d="M138.917 83.0029C147.365 83.0029 154.213 77.5025 154.213 70.7173C154.213 63.9321 147.365 58.4316 138.917 58.4316C130.469 58.4316 123.621 63.9321 123.621 70.7173C123.621 77.5025 130.469 83.0029 138.917 83.0029Z" fill="#F5E5D3" stroke="black" stroke-width="3" stroke-miterlimit="10"/>
<path d="M92.576 45.5084C94.4997 45.5084 96.0592 43.9516 96.0592 42.0311C96.0592 40.1106 94.4997 38.5537 92.576 38.5537C90.6523 38.5537 89.0928 40.1106 89.0928 42.0311C89.0928 43.9516 90.6523 45.5084 92.576 45.5084Z" fill="#072467" stroke="black" stroke-width="3" stroke-miterlimit="10"/>
<path d="M107.393 25.9287C107.393 25.9287 112.608 44.9544 120.314 39.9319C128.016 34.9094 107.393 25.9287 107.393 25.9287Z" fill="#D5E07D" stroke="black" stroke-width="3" stroke-miterlimit="10"/>
<path d="M170.775 29.4336C170.775 29.4336 151.523 33.8876 156.248 41.7676C160.973 49.6476 170.775 29.4336 170.775 29.4336Z" fill="#D5E07D" stroke="black" stroke-width="3" stroke-miterlimit="10"/>
<path d="M186.849 51.4468C186.849 51.4468 168.833 43.3431 167.807 52.4688C166.78 61.5977 186.849 51.4468 186.849 51.4468Z" fill="#D5E07D" stroke="black" stroke-width="3" stroke-miterlimit="10"/>
<path d="M157.384 73.5806C157.384 73.5806 144.015 59.0544 139.471 67.0432C134.931 75.032 157.384 73.5806 157.384 73.5806Z" fill="#D5E07D" stroke="black" stroke-width="3" stroke-miterlimit="10"/>
<path d="M121.956 41.5768C123.88 41.5768 125.439 40.0199 125.439 38.0994C125.439 36.1789 123.88 34.6221 121.956 34.6221C120.032 34.6221 118.473 36.1789 118.473 38.0994C118.473 40.0199 120.032 41.5768 121.956 41.5768Z" fill="#072467" stroke="black" stroke-width="3" stroke-miterlimit="10"/>
<path d="M154.365 42.1822C156.289 42.1822 157.848 40.6254 157.848 38.7049C157.848 36.7844 156.289 35.2275 154.365 35.2275C152.441 35.2275 150.882 36.7844 150.882 38.7049C150.882 40.6254 152.441 42.1822 154.365 42.1822Z" fill="#072467" stroke="black" stroke-width="3" stroke-miterlimit="10"/>
<path d="M77.1287 53.6725C79.0524 53.6725 80.6119 52.1156 80.6119 50.1951C80.6119 48.2746 79.0524 46.7178 77.1287 46.7178C75.205 46.7178 73.6455 48.2746 73.6455 50.1951C73.6455 52.1156 75.205 53.6725 77.1287 53.6725Z" fill="#072467" stroke="black" stroke-width="3" stroke-miterlimit="10"/>
<path d="M103.782 68.4889C105.706 68.4889 107.265 66.932 107.265 65.0115C107.265 63.091 105.706 61.5342 103.782 61.5342C101.858 61.5342 100.299 63.091 100.299 65.0115C100.299 66.932 101.858 68.4889 103.782 68.4889Z" fill="#072467" stroke="black" stroke-width="3" stroke-miterlimit="10"/>
<path d="M136.494 68.1862C138.418 68.1862 139.977 66.6293 139.977 64.7088C139.977 62.7883 138.418 61.2314 136.494 61.2314C134.57 61.2314 133.011 62.7883 133.011 64.7088C133.011 66.6293 134.57 68.1862 136.494 68.1862Z" fill="#072467" stroke="black" stroke-width="3" stroke-miterlimit="10"/>
<path d="M166.48 52.7653C168.404 52.7653 169.963 51.2084 169.963 49.2879C169.963 47.3674 168.404 45.8105 166.48 45.8105C164.557 45.8105 162.997 47.3674 162.997 49.2879C162.997 51.2084 164.557 52.7653 166.48 52.7653Z" fill="#072467" stroke="black" stroke-width="3" stroke-miterlimit="10"/>
<path d="M63.5 78C58.5 75.5 56.5 74.5 54 71.5L54.5 132.5C55.5 136 60.3333 138 63.5 139.5V78Z" fill="#CFAE82"/>
</svg>
