<svg width="210" height="324" viewBox="0 0 210 324" fill="none" xmlns="http://www.w3.org/2000/svg">
<path d="M42 320.5C50.8366 320.5 58 312.441 58 302.5C58 292.559 50.8366 284.5 42 284.5C33.1634 284.5 26 292.559 26 302.5C26 312.441 33.1634 320.5 42 320.5Z" fill="#00000C" stroke="black" stroke-width="6" stroke-miterlimit="10"/>
<path d="M168.5 320.5C177.06 320.5 184 312.441 184 302.5C184 292.559 177.06 284.5 168.5 284.5C159.94 284.5 153 292.559 153 302.5C153 312.441 159.94 320.5 168.5 320.5Z" fill="#00000C" stroke="black" stroke-width="6" stroke-miterlimit="10"/>
<path d="M174.151 43.5H35.8488C17.7069 43.5 3 58.172 3 76.2708V268.729C3 286.828 17.7069 301.5 35.8488 301.5H174.151C192.293 301.5 207 286.828 207 268.729V76.2708C207 58.172 192.293 43.5 174.151 43.5Z" fill="#CFAE82" stroke="black" stroke-width="6" stroke-miterlimit="10"/>
<path d="M56.4435 70.5H53.5565C51.5923 70.5 50 76.3764 50 83.6253V268.375C50 275.624 51.5923 281.5 53.5565 281.5H56.4435C58.4077 281.5 60 275.624 60 268.375V83.6253C60 76.3764 58.4077 70.5 56.4435 70.5Z" fill="#A18662"/>
<path d="M32.4435 69.5H29.5565C27.5923 69.5 26 75.3764 26 82.6253V267.375C26 274.624 27.5923 280.5 29.5565 280.5H32.4435C34.4077 280.5 36 274.624 36 267.375V82.6253C36 75.3764 34.4077 69.5 32.4435 69.5Z" fill="#A18662"/>
<path d="M80.4435 70.5H77.5565C75.5923 70.5 74 76.3764 74 83.6253V268.375C74 275.624 75.5923 281.5 77.5565 281.5H80.4435C82.4077 281.5 84 275.624 84 268.375V83.6253C84 76.3764 82.4077 70.5 80.4435 70.5Z" fill="#A18662"/>
<path d="M104.443 70.5H101.557C99.5923 70.5 98 76.3764 98 83.6253V268.375C98 275.624 99.5923 281.5 101.557 281.5H104.443C106.408 281.5 108 275.624 108 268.375V83.6253C108 76.3764 106.408 70.5 104.443 70.5Z" fill="#A18662"/>
<path d="M128.443 69.5H125.557C123.592 69.5 122 75.3764 122 82.6253V267.375C122 274.624 123.592 280.5 125.557 280.5H128.443C130.408 280.5 132 274.624 132 267.375V82.6253C132 75.3764 130.408 69.5 128.443 69.5Z" fill="#A18662"/>
<path d="M152.443 69.5H149.557C147.592 69.5 146 75.3764 146 82.6253V267.375C146 274.624 147.592 280.5 149.557 280.5H152.443C154.408 280.5 156 274.624 156 267.375V82.6253C156 75.3764 154.408 69.5 152.443 69.5Z" fill="#A18662"/>
<path d="M176.443 67.5H173.557C171.592 67.5 170 73.3764 170 80.6253V265.375C170 272.624 171.592 278.5 173.557 278.5H176.443C178.408 278.5 180 272.624 180 265.375V80.6253C180 73.3764 178.408 67.5 176.443 67.5Z" fill="#A18662"/>
<path d="M78.5 45V8C78.5 5.79086 80.2909 4 82.5 4H123.5C125.709 4 127.5 5.79086 127.5 8V45" stroke="black" stroke-width="8"/>
</svg>
